<svg width="245" height="177" viewBox="0 0 245 177" fill="none" xmlns="http://www.w3.org/2000/svg">
<path d="M31.92 103.24C39.36 103.24 44.84 100.72 48.36 95.68C51.88 90.64 53.68 83.84 53.76 75.28C51.76 77.52 48.88 79.64 45.12 81.64C41.36 83.56 37.2 84.52 32.64 84.52C25.12 84.52 18.8 82.04 13.68 77.08C8.64 72.04 6.12 65.4 6.12 57.16C6.12 48.84 8.84 42.16 14.28 37.12C19.8 32.08 26.72 29.56 35.04 29.56C48.48 29.56 57.76 35.56 62.88 47.56C65.76 54.44 67.2 62.2 67.2 70.84C67.2 79.48 66.28 86.68 64.44 92.44C62.6 98.2 60.08 102.76 56.88 106.12C50.64 112.68 42.96 115.96 33.84 115.96C24.8 115.96 16.6 113.12 9.24 107.44L16.32 97C18.16 98.6 20.6 100.04 23.64 101.32C26.76 102.6 29.52 103.24 31.92 103.24ZM34.44 72.04C39.32 72.04 43.36 70.72 46.56 68.08C49.84 65.36 51.48 61.88 51.48 57.64C51.48 53.32 49.92 49.64 46.8 46.6C43.68 43.48 39.76 41.92 35.04 41.92C30.4 41.92 26.56 43.32 23.52 46.12C20.48 48.84 18.96 52.36 18.96 56.68C18.96 61 20.32 64.64 23.04 67.6C25.84 70.56 29.64 72.04 34.44 72.04ZM97.5769 49.84C94.2969 55.6 92.6569 63.16 92.6569 72.52C92.6569 81.88 94.2969 89.44 97.5769 95.2C100.937 100.96 106.137 103.84 113.177 103.84C120.217 103.84 125.337 101 128.537 95.32C131.817 89.56 133.457 81.96 133.457 72.52C133.457 63.08 131.817 55.52 128.537 49.84C125.337 44.08 120.217 41.2 113.177 41.2C106.137 41.2 100.937 44.08 97.5769 49.84ZM87.4969 104.2C81.8169 96.28 78.9769 85.72 78.9769 72.52C78.9769 59.32 81.8169 48.8 87.4969 40.96C93.1769 33.04 101.737 29.08 113.177 29.08C124.617 29.08 133.177 33.04 138.857 40.96C144.537 48.8 147.377 59.32 147.377 72.52C147.377 85.72 144.537 96.28 138.857 104.2C133.177 112.04 124.617 115.96 113.177 115.96C101.737 115.96 93.1769 112.04 87.4969 104.2ZM177.794 49.84C174.514 55.6 172.874 63.16 172.874 72.52C172.874 81.88 174.514 89.44 177.794 95.2C181.154 100.96 186.354 103.84 193.394 103.84C200.434 103.84 205.554 101 208.754 95.32C212.034 89.56 213.674 81.96 213.674 72.52C213.674 63.08 212.034 55.52 208.754 49.84C205.554 44.08 200.434 41.2 193.394 41.2C186.354 41.2 181.154 44.08 177.794 49.84ZM167.714 104.2C162.034 96.28 159.194 85.72 159.194 72.52C159.194 59.32 162.034 48.8 167.714 40.96C173.394 33.04 181.954 29.08 193.394 29.08C204.834 29.08 213.394 33.04 219.074 40.96C224.754 48.8 227.594 59.32 227.594 72.52C227.594 85.72 224.754 96.28 219.074 104.2C213.394 112.04 204.834 115.96 193.394 115.96C181.954 115.96 173.394 112.04 167.714 104.2Z" fill="#DDEFFF"/>
<path d="M31.7517 144.615V157.575H26.7117V133.635H31.7517V138C32.4717 136.53 33.5517 135.375 34.9917 134.535C36.4617 133.695 38.0367 133.275 39.7167 133.275C43.4967 133.275 46.0617 134.835 47.4117 137.955C49.7817 134.835 52.7367 133.275 56.2767 133.275C58.9767 133.275 61.1517 134.1 62.8017 135.75C64.4817 137.4 65.3217 139.785 65.3217 142.905V157.575H60.2817V144.435C60.2817 140.025 58.4517 137.82 54.7917 137.82C53.0817 137.82 51.5817 138.375 50.2917 139.485C49.0317 140.565 48.3717 142.155 48.3117 144.255V157.575H43.2717V144.435C43.2717 142.155 42.8667 140.49 42.0567 139.44C41.2467 138.36 39.9717 137.82 38.2317 137.82C36.4917 137.82 34.9767 138.405 33.6867 139.575C32.3967 140.715 31.7517 142.395 31.7517 144.615ZM76.4669 157.575H71.4269V133.635H76.4669V157.575ZM71.7419 128.865C71.1119 128.235 70.7969 127.485 70.7969 126.615C70.7969 125.745 71.1119 124.995 71.7419 124.365C72.3719 123.735 73.1219 123.42 73.9919 123.42C74.8619 123.42 75.6119 123.735 76.2419 124.365C76.8719 124.995 77.1869 125.745 77.1869 126.615C77.1869 127.485 76.8719 128.235 76.2419 128.865C75.6119 129.495 74.8619 129.81 73.9919 129.81C73.1219 129.81 72.3719 129.495 71.7419 128.865ZM87.9155 157.575H82.8755V124.185H87.9155V157.575ZM99.3642 157.575H94.3242V124.185H99.3642V157.575ZM110.813 157.575H105.773V133.635H110.813V157.575ZM106.088 128.865C105.458 128.235 105.143 127.485 105.143 126.615C105.143 125.745 105.458 124.995 106.088 124.365C106.718 123.735 107.468 123.42 108.338 123.42C109.208 123.42 109.958 123.735 110.588 124.365C111.218 124.995 111.533 125.745 111.533 126.615C111.533 127.485 111.218 128.235 110.588 128.865C109.958 129.495 109.208 129.81 108.338 129.81C107.468 129.81 106.718 129.495 106.088 128.865ZM122.801 151.275C124.241 152.715 126.056 153.435 128.246 153.435C130.436 153.435 132.236 152.715 133.646 151.275C135.086 149.805 135.806 147.915 135.806 145.605C135.806 143.295 135.086 141.42 133.646 139.98C132.236 138.51 130.436 137.775 128.246 137.775C126.056 137.775 124.241 138.51 122.801 139.98C121.391 141.42 120.686 143.295 120.686 145.605C120.686 147.915 121.391 149.805 122.801 151.275ZM137.246 154.38C134.846 156.75 131.846 157.935 128.246 157.935C124.646 157.935 121.646 156.75 119.246 154.38C116.846 151.98 115.646 149.055 115.646 145.605C115.646 142.155 116.846 139.245 119.246 136.875C121.646 134.475 124.646 133.275 128.246 133.275C131.846 133.275 134.846 134.475 137.246 136.875C139.646 139.245 140.846 142.155 140.846 145.605C140.846 149.055 139.646 151.98 137.246 154.38ZM150.717 144.615V157.575H145.677V133.635H150.717V138C151.527 136.53 152.637 135.375 154.047 134.535C155.487 133.695 157.032 133.275 158.682 133.275C161.382 133.275 163.557 134.1 165.207 135.75C166.887 137.4 167.727 139.785 167.727 142.905V157.575H162.687V144.435C162.687 140.025 160.857 137.82 157.197 137.82C155.457 137.82 153.942 138.405 152.652 139.575C151.362 140.715 150.717 142.395 150.717 144.615ZM196.144 147.81H177.379C177.499 149.55 178.294 150.96 179.764 152.04C181.234 153.09 182.914 153.615 184.804 153.615C187.804 153.615 190.084 152.67 191.644 150.78L194.524 153.93C191.944 156.6 188.584 157.935 184.444 157.935C181.084 157.935 178.219 156.825 175.849 154.605C173.509 152.355 172.339 149.355 172.339 145.605C172.339 141.825 173.539 138.825 175.939 136.605C178.339 134.385 181.159 133.275 184.399 133.275C187.669 133.275 190.444 134.265 192.724 136.245C195.004 138.195 196.144 140.895 196.144 144.345V147.81ZM177.379 143.85H191.104C191.104 141.84 190.474 140.295 189.214 139.215C187.954 138.135 186.394 137.595 184.534 137.595C182.704 137.595 181.054 138.165 179.584 139.305C178.114 140.415 177.379 141.93 177.379 143.85ZM213.341 138.36C210.851 138.36 208.976 139.17 207.716 140.79C206.456 142.41 205.826 144.585 205.826 147.315V157.575H200.786V133.635H205.826V138.45C206.636 136.95 207.731 135.72 209.111 134.76C210.521 133.8 212.006 133.305 213.566 133.275L213.611 138.36C213.521 138.36 213.431 138.36 213.341 138.36Z" fill="#DDEFFF"/>
</svg>
