<svg width="206" height="91" viewBox="0 0 206 91" fill="none" xmlns="http://www.w3.org/2000/svg">
<path d="M27.6166 77.031C35.3046 77.031 40.9672 74.427 44.6046 69.219C48.2419 64.011 50.1019 56.9843 50.1846 48.1389C48.1179 50.4536 45.1419 52.6443 41.2566 54.7109C37.3712 56.695 33.0726 57.687 28.3606 57.687C20.5899 57.687 14.0592 55.1243 8.76857 49.999C3.56057 44.791 0.956569 37.9296 0.956569 29.415C0.956569 20.8176 3.76724 13.9149 9.38857 8.70695C15.0926 3.49895 22.2432 0.894951 30.8406 0.894951C44.7286 0.894951 54.3179 7.09495 59.6086 19.4949C62.5846 26.6043 64.0726 34.623 64.0726 43.5509C64.0726 52.4789 63.1219 59.919 61.2206 65.871C59.3192 71.823 56.7152 76.535 53.4086 80.007C46.9606 86.7856 39.0246 90.175 29.6006 90.175C20.2592 90.175 11.7859 87.2403 4.18057 81.371L11.4966 70.583C13.3979 72.2363 15.9192 73.7243 19.0606 75.047C22.2846 76.3696 25.1366 77.031 27.6166 77.031ZM30.2206 44.791C35.2632 44.791 39.4379 43.427 42.7446 40.6989C46.1339 37.8883 47.8286 34.2923 47.8286 29.911C47.8286 25.447 46.2166 21.6443 42.9926 18.5029C39.7686 15.2789 35.7179 13.6669 30.8406 13.6669C26.0459 13.6669 22.0779 15.1136 18.9366 18.007C15.7952 20.8176 14.2246 24.4549 14.2246 28.9189C14.2246 33.383 15.6299 37.1443 18.4406 40.203C21.3339 43.2616 25.2606 44.791 30.2206 44.791ZM72.522 2.50695H104.018V89.183H90.13V15.5269H72.522V2.50695ZM151.245 6.22695C154.799 10.0296 156.577 14.6589 156.577 20.1149C156.577 25.5709 154.758 30.2416 151.121 34.1269C147.566 38.0123 143.102 39.955 137.729 39.955C132.438 39.955 128.015 38.0536 124.461 34.251C120.906 30.3656 119.129 25.6949 119.129 20.2389C119.129 14.7829 120.906 10.1123 124.461 6.22695C128.098 2.34162 132.562 0.39895 137.853 0.39895C143.226 0.39895 147.69 2.34162 151.245 6.22695ZM201.713 2.50695L138.225 89.183H122.229L185.717 2.50695H201.713ZM142.937 26.687C144.259 24.9509 144.921 22.8429 144.921 20.363C144.921 17.8829 144.218 15.8163 142.813 14.163C141.407 12.4269 139.671 11.5589 137.605 11.5589C135.621 11.5589 133.967 12.4269 132.645 14.163C131.322 15.8163 130.661 17.8829 130.661 20.363C130.661 22.8429 131.363 24.9509 132.769 26.687C134.174 28.3403 135.869 29.1669 137.853 29.1669C139.919 29.1669 141.614 28.3403 142.937 26.687ZM200.473 56.447C204.027 60.2496 205.805 64.879 205.805 70.335C205.805 75.791 203.986 80.4616 200.349 84.347C196.794 88.2323 192.33 90.175 186.957 90.175C181.666 90.175 177.243 88.2736 173.689 84.471C170.134 80.5856 168.357 75.915 168.357 70.459C168.357 65.003 170.134 60.3323 173.689 56.447C177.326 52.5616 181.79 50.619 187.081 50.619C192.454 50.619 196.918 52.5616 200.473 56.447ZM192.413 77.155C193.735 75.419 194.397 73.311 194.397 70.831C194.397 68.351 193.694 66.2843 192.289 64.631C190.883 62.895 189.147 62.027 187.081 62.027C185.097 62.027 183.443 62.895 182.121 64.631C180.798 66.2843 180.137 68.351 180.137 70.831C180.137 73.311 180.839 75.419 182.245 77.155C183.65 78.8083 185.345 79.635 187.329 79.635C189.395 79.635 191.09 78.8083 192.413 77.155Z" fill="#DDEFFF"/>
</svg>
