<svg width="144" height="135" viewBox="0 0 144 135" fill="none" xmlns="http://www.w3.org/2000/svg">
<g clip-path="url(#clip0_481_2437)">
<path d="M66.5577 0.284424C73.1396 0.512774 78.8804 0.377455 84.5454 0.972293C98.418 2.42697 110.631 7.95811 121.03 17.2584C134.019 28.8817 141.527 43.4567 143.307 60.831C144.73 74.7265 141.982 87.875 135.054 100.009C125.145 117.369 110.344 128.262 90.8994 132.725C84.942 134.092 78.8804 134.602 72.757 134.098C71.7416 134.013 70.7037 134.199 69.6742 134.233C61.5959 134.478 53.6892 133.424 46.0666 130.715C25.1142 123.261 10.634 109.038 3.9143 87.8327C-3.49737 64.431 0.966504 42.8618 16.6731 23.9652C26.9791 11.5638 40.3651 4.14382 56.2488 1.40926C59.9308 0.774953 63.6886 0.586071 66.5605 0.284424H66.5577ZM67.3987 129.477C101.518 129.469 129.392 101.491 129.336 67.3122C129.28 33.0766 101.45 5.18408 67.3537 5.18972C33.2459 5.19536 5.39663 33.0766 5.34037 67.2727C5.28412 101.466 33.2375 129.485 67.3987 129.477ZM134.267 64.8455H138.714C138.703 60.1234 137.912 55.6241 136.68 51.1924C136.613 50.9528 136.275 50.6257 136.053 50.6173C134.768 50.5609 133.479 50.5891 132.259 50.5891C132.945 55.4436 133.603 60.1121 134.27 64.8426L134.267 64.8455ZM132.261 84.0889C133.066 84.0889 133.87 83.9958 134.644 84.1086C136.123 84.3229 136.886 83.8098 137.049 82.2705C137.15 81.3008 137.547 80.3648 137.684 79.395C138.134 76.2601 138.525 73.114 138.959 69.8325H134.264C133.6 74.5546 132.945 79.2202 132.264 84.0889H132.261ZM134.978 88.8729C133.786 88.8729 132.801 88.9491 131.831 88.8532C130.804 88.7517 130.436 89.2169 130.031 90.1049C128.183 94.1391 126.219 98.1197 124.296 102.117C124.144 102.436 123.989 102.754 123.764 103.228C124.906 103.228 125.882 103.27 126.85 103.205C127.167 103.183 127.581 102.969 127.761 102.709C130.706 98.4721 133.15 93.9699 134.978 88.8758V88.8729ZM123.893 31.7037C123.927 31.8306 123.938 31.9631 123.995 32.0786C126.073 36.4116 128.146 40.7475 130.253 45.0664C130.405 45.3765 130.804 45.7458 131.111 45.7655C132.343 45.8445 133.583 45.7994 134.967 45.7994C133.375 41.3931 131.347 37.466 128.931 33.7307C127.305 31.216 126.931 31.044 123.893 31.7065V31.7037ZM106.162 121.817C110.617 120.244 121.412 111.567 123.221 107.905C122.054 108.037 120.467 107.958 119.86 108.694C115.801 113.605 111.284 117.997 106.162 121.82V121.817ZM123.401 26.6321C120.931 22.7417 109.45 13.5795 106.513 13.1989C106.929 13.5203 107.259 13.7768 107.588 14.0305C111.767 17.2472 115.641 20.8077 118.847 24.9942C120.099 26.6292 121.427 27.0775 123.401 26.6321Z" fill="#DDEFFF"/>
<path d="M67.1259 115.116C40.7786 114.978 19.4915 93.4369 19.6715 67.0977C19.8544 40.7613 41.3074 19.4233 67.4691 19.5586C93.7967 19.6939 115.137 41.2265 115.005 67.5262C114.873 93.9782 93.4676 115.254 67.1259 115.119V115.116ZM67.3003 110.329C90.967 110.36 110.184 91.1731 110.237 67.4586C110.291 43.6651 91.1049 24.3568 67.3903 24.3371C43.7461 24.3201 24.5208 43.5269 24.4476 67.2415C24.3717 91.0068 43.5605 110.298 67.3031 110.329H67.3003Z" fill="#DDEFFF"/>
<path d="M12.7211 64.9918C14.0459 65.1187 15.0191 66.3168 14.8701 67.6333C14.7238 68.9132 13.6184 69.8125 12.3189 69.7111C11.0672 69.6124 10.0574 68.4622 10.1362 67.2274C10.2205 65.9221 11.4413 64.8678 12.7211 64.989V64.9918Z" fill="#DDEFFF"/>
<path d="M108.494 28.5376C108.474 29.778 107.394 30.8408 106.142 30.8549C104.828 30.869 103.715 29.7526 103.74 28.4473C103.762 27.19 104.826 26.1441 106.091 26.13C107.413 26.1159 108.516 27.2182 108.494 28.5376Z" fill="#DDEFFF"/>
<path d="M83.8337 14.2417C83.8478 15.5836 82.9083 16.6182 81.6313 16.6718C80.36 16.7254 79.1617 15.6033 79.1223 14.3263C79.083 13.0464 80.2165 11.9244 81.5413 11.93C82.8633 11.9357 83.8225 12.9026 83.8337 14.2417Z" fill="#DDEFFF"/>
<path d="M69.6996 12.5699C69.5956 13.8978 68.417 14.876 67.0922 14.7407C65.8264 14.611 64.8616 13.4495 64.9882 12.2063C65.1148 10.9405 66.254 9.91714 67.4607 9.9848C68.7489 10.0581 69.8009 11.276 69.6996 12.5728V12.5699Z" fill="#DDEFFF"/>
<path d="M55.5485 14.2953C55.5344 15.5695 54.3446 16.7141 53.076 16.6746C51.8187 16.6351 50.8342 15.578 50.8399 14.2699C50.8455 12.9421 51.8103 11.9441 53.1042 11.9272C54.4205 11.9103 55.5653 13.0182 55.5513 14.2981L55.5485 14.2953Z" fill="#DDEFFF"/>
<path d="M103.74 106.179C103.748 104.947 104.848 103.856 106.083 103.854C107.408 103.851 108.533 104.97 108.493 106.255C108.454 107.527 107.416 108.559 106.148 108.584C104.845 108.609 103.729 107.496 103.74 106.182V106.179Z" fill="#DDEFFF"/>
<path d="M14.3892 50.7974C15.7393 50.7974 16.8307 51.88 16.7998 53.1881C16.7688 54.389 15.6353 55.5026 14.4173 55.5251C13.1431 55.5505 12.0462 54.4003 12.0715 53.0668C12.0968 51.7165 13.0391 50.7974 14.3892 50.7974Z" fill="#DDEFFF"/>
<path d="M124.532 67.2753C124.574 68.5213 123.553 69.6405 122.312 69.7054C120.976 69.7759 119.857 68.761 119.803 67.4331C119.75 66.0941 120.785 65.0228 122.152 65.0087C123.432 64.9946 124.49 66.001 124.535 67.2781L124.532 67.2753Z" fill="#DDEFFF"/>
<path d="M16.7939 81.5796C16.7799 82.9046 15.6829 83.9335 14.3215 83.8969C13.0023 83.8602 12.0685 82.8876 12.0713 81.5514C12.0769 80.2264 13.0389 79.2453 14.3525 79.2284C15.7054 79.2115 16.808 80.2743 16.7939 81.5824V81.5796Z" fill="#DDEFFF"/>
<path d="M30.9423 106.25C30.9113 107.566 29.7834 108.632 28.4811 108.578C27.221 108.528 26.2365 107.471 26.2449 106.179C26.2534 104.877 27.4122 103.766 28.692 103.839C29.9297 103.91 30.9732 105.026 30.9451 106.25H30.9423Z" fill="#DDEFFF"/>
<path d="M39.915 17.4104C41.2005 17.3992 42.2356 18.4 42.2665 19.6883C42.3003 21.0697 41.3073 22.1128 39.9488 22.124C38.579 22.1353 37.5748 21.1091 37.5973 19.7221C37.6198 18.4225 38.6211 17.4245 39.915 17.4104Z" fill="#DDEFFF"/>
<path d="M117.193 94.8239C117.182 96.1433 116.054 97.2117 114.721 97.1638C113.464 97.1187 112.451 96.0249 112.479 94.7506C112.51 93.4566 113.528 92.5038 114.864 92.5235C116.2 92.5432 117.202 93.5356 117.193 94.8239Z" fill="#DDEFFF"/>
<path d="M120.293 50.8143C121.683 50.8143 122.681 51.8292 122.645 53.1937C122.611 54.4313 121.525 55.511 120.301 55.5195C119.044 55.5279 117.888 54.3354 117.93 53.0668C117.973 51.7841 118.991 50.8115 120.293 50.8115V50.8143Z" fill="#DDEFFF"/>
<path d="M22.2285 94.8267C22.2285 96.1771 21.1484 97.2371 19.8151 97.2032C18.5409 97.1694 17.5311 96.1292 17.5199 94.838C17.5086 93.5243 18.479 92.5348 19.8038 92.5094C21.2187 92.4812 22.2313 93.4482 22.2313 94.8267H22.2285Z" fill="#DDEFFF"/>
<path d="M97.1102 114.876C97.1411 116.21 96.0891 117.292 94.7503 117.304C93.4873 117.315 92.4607 116.286 92.441 114.995C92.4213 113.673 93.3692 112.624 94.6349 112.57C95.9654 112.517 97.0792 113.551 97.1102 114.876Z" fill="#DDEFFF"/>
<path d="M53.1071 118.054C54.4038 118.023 55.543 119.133 55.5374 120.427C55.5317 121.662 54.4741 122.725 53.2196 122.753C51.9033 122.784 50.8963 121.848 50.8428 120.543C50.7866 119.184 51.7879 118.082 53.1043 118.051L53.1071 118.054Z" fill="#DDEFFF"/>
<path d="M67.4129 124.679C66.1078 124.71 64.9714 123.596 64.9771 122.291C64.9827 121.019 66.0122 119.959 67.2779 119.925C68.6112 119.889 69.711 120.963 69.7054 122.294C69.6969 123.557 68.6477 124.648 67.4129 124.679Z" fill="#DDEFFF"/>
<path d="M22.2255 39.9494C22.1945 41.2349 21.1763 42.2104 19.8684 42.2104C18.507 42.2104 17.4803 41.1532 17.5225 39.7944C17.5619 38.5088 18.5998 37.5052 19.8796 37.5193C21.2185 37.5306 22.2592 38.6075 22.2255 39.9494Z" fill="#DDEFFF"/>
<path d="M42.2611 114.905C42.2723 116.252 41.2035 117.332 39.8871 117.301C38.6213 117.273 37.6116 116.241 37.5947 114.961C37.5778 113.622 38.6495 112.548 39.9715 112.573C41.2541 112.599 42.247 113.611 42.2583 114.907L42.2611 114.905Z" fill="#DDEFFF"/>
<path d="M30.9423 28.4924C30.9479 29.7441 29.8959 30.8239 28.6358 30.8549C27.3222 30.8859 26.2224 29.778 26.2477 28.4473C26.2702 27.1505 27.2969 26.1666 28.6105 26.1836C29.9128 26.2005 30.9366 27.2154 30.9423 28.4924Z" fill="#DDEFFF"/>
<path d="M122.645 81.6021C122.622 82.9271 121.64 83.8885 120.31 83.8941C118.949 83.8997 117.877 82.8115 117.936 81.4809C117.992 80.2038 119.067 79.2171 120.363 79.2538C121.697 79.2904 122.667 80.2912 122.645 81.6021Z" fill="#DDEFFF"/>
<path d="M94.7447 22.1212C93.4395 22.1212 92.4551 21.143 92.4382 19.8349C92.4213 18.4507 93.4283 17.4273 94.7869 17.4499C96.1117 17.4724 97.1074 18.4422 97.1187 19.7278C97.1299 21.0809 96.0976 22.124 94.7447 22.1212Z" fill="#DDEFFF"/>
<path d="M83.8311 120.453C83.8198 121.8 82.8916 122.742 81.5612 122.756C80.2308 122.77 79.1141 121.69 79.1253 120.402C79.1366 119.099 80.2589 118.056 81.609 118.099C82.9338 118.138 83.8452 119.102 83.8339 120.453H83.8311Z" fill="#DDEFFF"/>
<path d="M114.752 37.5673C116.048 37.5447 117.089 38.5427 117.123 39.8423C117.157 41.156 116.172 42.1907 114.864 42.2132C113.565 42.2358 112.507 41.2321 112.479 39.9494C112.451 38.6836 113.494 37.587 114.752 37.5673Z" fill="#DDEFFF"/>
<path d="M62.631 38.6244H67.3987C67.3987 37.212 67.3875 35.825 67.4015 34.4352C67.424 32.3321 68.1975 31.5456 70.3015 31.5315C73.1143 31.5117 75.9271 31.5089 78.7398 31.5315C80.8157 31.5484 81.5835 32.3547 81.606 34.4718C81.6201 35.7404 81.6511 37.0119 81.5948 38.2777C81.5582 39.0698 81.8676 39.3997 82.599 39.6901C92.1568 43.4874 96.1369 53.5687 91.8192 62.8464C91.6224 63.2665 91.6674 64.053 91.9402 64.4026C99.9032 74.5656 95.4562 89.1067 83.1587 92.8308C81.8648 93.2226 81.4598 93.7893 81.5864 95.0607C81.6932 96.1292 81.6314 97.2202 81.5948 98.2999C81.5442 99.825 80.7566 100.722 79.2743 100.747C76.0874 100.8 72.9005 100.8 69.7136 100.747C68.2425 100.722 67.4521 99.825 67.4128 98.2801C67.3734 96.7888 67.4043 95.2975 67.4043 93.7357H62.6339C62.6339 95.1763 62.6564 96.5689 62.6282 97.9616C62.5889 99.8532 61.731 100.744 59.8717 100.767C56.9183 100.798 53.9649 100.798 51.0143 100.767C49.0875 100.747 48.3421 99.9463 48.3168 97.9785C48.2999 96.7099 48.3056 95.4413 48.2971 94.1727C48.2971 94.0825 48.2577 93.9922 48.1818 93.6596C46.9104 93.6596 45.5772 93.6652 44.2411 93.6596C41.974 93.6455 41.102 92.78 41.0936 90.4993C41.0824 87.7281 41.0739 84.9569 41.0964 82.1829C41.1133 80.2095 41.9824 79.3468 43.9261 79.3102C45.2368 79.2848 46.5504 79.2848 47.8611 79.2651C47.9455 79.2651 48.0271 79.1946 48.3056 79.0734C48.3056 77.0662 48.3365 74.9659 48.2634 72.8713C48.2549 72.6147 47.698 72.189 47.3717 72.1637C46.2072 72.0763 45.0287 72.1496 43.8586 72.1186C42.0696 72.0678 41.1274 71.1854 41.102 69.4376C41.0599 66.4324 41.057 63.4244 41.102 60.4192C41.1274 58.753 42.0865 57.8763 43.7882 57.8509C45.2312 57.8284 46.6713 57.8453 48.2099 57.8453V53.0556C46.8654 53.0556 45.5294 53.064 44.1905 53.0556C42.0049 53.0358 41.102 52.1506 41.088 49.9855C41.0739 47.2143 41.0711 44.4431 41.088 41.6691C41.102 39.5463 41.9543 38.7231 44.1089 38.7005C45.4534 38.6893 46.7951 38.7005 48.3084 38.7005C48.3084 37.0711 48.2887 35.6277 48.314 34.1843C48.3449 32.4167 49.1325 31.5653 50.8849 31.5428C53.8833 31.5005 56.8845 31.5033 59.883 31.5428C61.6663 31.5653 62.5579 32.4618 62.6142 34.2435C62.6592 35.6474 62.6226 37.0542 62.6226 38.6301L62.631 38.6244ZM57.8775 95.9121C57.8775 94.339 57.8606 92.9379 57.8831 91.534C57.9112 89.6959 58.7157 88.8924 60.5608 88.8811C63.4186 88.8614 66.2764 88.8671 69.137 88.8783C71.2944 88.8868 72.0932 89.6846 72.1157 91.8525C72.1298 93.1944 72.1157 94.5392 72.1157 95.8782H76.8609C76.8609 94.6435 76.8609 93.5243 76.8609 92.4023C76.8609 89.6649 77.3222 89.1292 79.9606 88.6782C85.2936 87.7676 88.9418 84.7539 90.5479 79.5949C92.1343 74.4866 90.8151 69.9732 87.0628 66.1843C85.558 64.6648 85.4764 63.9459 86.6747 62.1388C91.4423 54.9472 87.8195 45.7315 79.4515 43.7609C77.4319 43.2845 76.8834 42.6107 76.8665 40.5414C76.8553 39.1544 76.8665 37.7702 76.8665 36.3804H72.1214C72.1214 37.8576 72.1382 39.2136 72.1185 40.5696C72.0876 42.5543 71.2466 43.4508 69.3142 43.4733C66.4086 43.5072 63.503 43.5072 60.6002 43.4733C58.7157 43.4508 57.914 42.5938 57.8915 40.6655C57.8746 39.2672 57.8887 37.8689 57.8887 36.3635H53.2448C53.1857 36.5467 53.1351 36.6369 53.1323 36.7271C53.121 37.9478 53.121 39.1685 53.107 40.3892C53.0788 42.5881 52.2153 43.4592 50.0298 43.479C48.6881 43.4931 47.3492 43.479 45.9569 43.479V48.2659C47.3886 48.2659 48.7359 48.2574 50.0832 48.2659C52.235 48.28 53.0873 49.1003 53.1042 51.226C53.1239 53.9972 53.1239 56.7684 53.1042 59.5396C53.0873 61.7047 52.176 62.5955 50.0017 62.6124C48.6628 62.6237 47.3239 62.6124 45.9681 62.6124V67.3881C47.4139 67.3881 48.7641 67.3796 50.1114 67.3881C52.2294 67.405 53.0901 68.2479 53.1014 70.3848C53.121 73.9059 53.1182 77.4298 53.1014 80.9509C53.0929 83.2288 52.2266 84.0689 49.9314 84.083C48.5981 84.0914 47.2648 84.083 45.985 84.083V88.8699C47.4589 88.8699 48.8147 88.8614 50.1704 88.8699C52.2013 88.8868 53.0704 89.7438 53.1042 91.7792C53.1239 93.1296 53.107 94.4771 53.107 95.9036H57.8887L57.8775 95.9121Z" fill="#DDEFFF"/>
<path d="M69.4268 84.0886C66.524 84.0886 63.6184 84.1027 60.7156 84.083C58.7129 84.0689 57.8916 83.2513 57.8803 81.2638C57.8635 77.5567 57.8635 73.8467 57.8803 70.1367C57.8888 68.2028 58.6876 67.3965 60.6144 67.3937C66.4227 67.3796 72.2311 67.3599 78.0395 67.3993C82.7172 67.4332 86.3119 70.9825 86.3625 75.5213C86.416 80.2574 82.9028 83.9505 78.1408 84.0661C75.238 84.1365 72.3324 84.0802 69.4296 84.0802V84.0858L69.4268 84.0886ZM62.7183 79.2933C67.9979 79.2933 73.0946 79.3299 78.1886 79.2735C79.8734 79.2538 81.1814 78.0669 81.5274 76.5418C81.8705 75.0166 81.2489 73.3815 79.8791 72.6909C79.1984 72.3469 78.3658 72.1637 77.6007 72.1552C72.9709 72.1073 68.3382 72.1298 63.7084 72.1355C63.3962 72.1355 63.084 72.1919 62.7183 72.2257V79.2961V79.2933Z" fill="#DDEFFF"/>
<path d="M68.9288 48.2659C71.5503 48.2659 74.1718 48.2433 76.7933 48.2715C80.8719 48.3166 83.9772 51.3697 84.0222 55.3363C84.0672 59.2013 81.0519 62.4856 77.0746 62.573C71.5053 62.6942 65.9304 62.6322 60.3611 62.5927C58.7437 62.5814 57.8999 61.6455 57.8858 59.985C57.8577 56.9347 57.8577 53.8844 57.8858 50.8341C57.9027 49.0891 58.7325 48.2856 60.5017 48.2715C63.3117 48.249 66.1188 48.2659 68.9288 48.2659ZM62.7266 57.6959C62.9404 57.7579 63.0698 57.8284 63.1992 57.8284C67.6996 57.8368 72.2001 57.8622 76.7005 57.8284C78.211 57.8171 79.2545 56.7233 79.2376 55.3673C79.2208 54.0282 78.1575 53.0697 76.5993 53.064C72.802 53.0471 69.0048 53.0584 65.2075 53.0584C64.3805 53.0584 63.5564 53.0584 62.7266 53.0584V57.6987V57.6959Z" fill="#DDEFFF"/>
</g>
<defs>
<clipPath id="clip0_481_2437">
<rect width="143.246" height="134.005" fill="white" transform="translate(0.426514 0.282837)"/>
</clipPath>
</defs>
</svg>
