<?xml version="1.0" encoding="UTF-8"?><svg fill="#0D3C2F" id="Layer_1" xmlns="http://www.w3.org/2000/svg" width="52mm" height="37mm" viewBox="0 0 147.4 104.88"><path d="M147.16,70.24c-.49,2.33-.77,4.72-1.51,6.97-5.01,15.23-15.4,24.3-31.28,26.9-2.02.33-4.09.38-6.14.38-26.4.02-52.79-.08-79.19.06-14.13.07-24.63-9.18-27.8-20.39-3.38-11.95,2.03-25.02,12.99-30.97,1.2-.65,1.44-1.21,1.32-2.59-.97-11.12,3.33-19.87,12.51-26.1,5.72-3.88,12.15-5.16,19-4.22.89.12,1.13-.3,1.45-.94C54,8.53,62.79,2.23,74.77.61c16.65-2.25,32.99,9.42,36.49,25.87.23,1.07.41,2.15.61,3.19,2.66.53,5.34.81,7.86,1.61,14.71,4.67,23.7,14.58,26.85,29.73.2.97.38,1.95.58,2.92v6.31ZM68.83,98.37c13.2,0,26.4.02,39.6-.02,2.09,0,4.21-.18,6.27-.52,16.69-2.74,28.46-18.43,25.84-35.05-2.06-13.03-9.85-21.56-22.42-25.5-2.82-.89-5.91-.96-8.89-1.29-2.25-.25-3.24-1.18-3.42-3.41-.1-1.28-.26-2.57-.5-3.83-2.32-12.34-12.22-21.21-25.12-22.12-11.7-.83-22.75,6.26-26.97,17.44-1.07,2.83-2.06,3.34-5.03,2.65-9.91-2.32-20.12,2.53-24.54,11.71-2.21,4.59-2.85,9.36-1.41,14.34.66,2.29-.05,3.59-2.29,4.51-.18.07-.36.13-.54.2-10.38,4.32-15.55,16.04-11.72,26.59,3.12,8.59,11.3,14.29,20.68,14.31,13.49.03,26.97,0,40.46,0Z"/><path d="M63.42,58.75c.01-7.93,6.61-14.55,14.5-14.55,8.02,0,14.55,6.51,14.62,14.57.07,7.85-6.59,14.53-14.5,14.55-7.99.02-14.63-6.6-14.62-14.57ZM69.65,58.75c0,4.66,3.71,8.37,8.36,8.36,4.62-.02,8.35-3.78,8.33-8.42-.02-4.55-3.75-8.26-8.32-8.27-4.67,0-8.37,3.67-8.37,8.33Z"/><path d="M50.32,44.61c4.4.04,7.84,1.47,10.69,4.28,1.58,1.56,1.7,3.51.37,4.81-1.3,1.26-3.12,1.11-4.7-.4-2.49-2.38-5.39-3.21-8.69-2.08-3.22,1.1-5.11,3.38-5.66,6.75-.56,3.45,1.11,6.85,4.18,8.58,3.12,1.76,6.95,1.39,9.62-.93.36-.31.68-.67,1.04-.98,1.35-1.14,3.09-1.11,4.27.07,1.21,1.21,1.25,3.02-.03,4.38-3.08,3.29-6.9,4.92-11.41,4.68-7.34-.39-13.36-6.09-13.89-13.03-.59-7.83,4.25-14.33,11.86-15.88.88-.18,1.8-.19,2.32-.24Z"/><path d="M105.62,76.12c1.26,0,2.2-.05,3.13.01,1.99.13,3.17,1.37,3.12,3.19-.05,1.77-1.36,2.95-3.34,2.96-3.83.02-7.65.01-11.48,0-1.64,0-2.83-.8-3.23-2.11-.44-1.43.12-2.59,1.45-3.72,2.6-2.23,5.12-4.56,7.66-6.86.21-.19.37-.44.51-.69.57-.99,1.39-2.08.39-3.12-.99-1.03-2.15-.26-3.16.22-.51.24-.93.67-1.41.98-1.43.94-3.08.74-4.13-.5-1.05-1.24-1.06-3.01.19-4.15,2.59-2.35,5.58-3.67,9.16-3,4.12.77,6.77,5.04,5.69,9.1-.73,2.74-1.67,4.37-4.55,7.67Z"/><path d="M79.58,12.6c10.67.19,19.68,8.98,20.16,19.66.09,2.07-1.14,3.59-2.99,3.65-1.84.06-3.11-1.29-3.24-3.44-.43-7.6-6.51-13.47-14.12-13.64-2.39-.05-3.75-1.23-3.71-3.22.04-1.96,1.47-3.06,3.89-3.02Z"/></svg>