<?xml version="1.0" encoding="UTF-8"?><svg fill="#629D97" id="Layer_1" xmlns="http://www.w3.org/2000/svg" width="90mm" height="81mm" viewBox="0 0 255.12 229.61"><defs><style>.cls-1{fill:#629D97;}</style></defs><path class="cls-1" d="M8.26,129.4c-.24,6.12.9,12.83,2.43,19.5.22.97.56,1.91.73,2.89.39,2.36-.01,4.51-2.66,5.14-2.62.63-3.95-.97-4.63-3.37-3.07-10.82-4.49-21.81-3.29-33.05,1.57-14.68,6.5-28.08,15.13-40.09,1.47-2.04,2.37-3.3-1.33-4.24-7.13-1.82-11.37-6.9-12.11-14.2-.72-7.07,2.25-12.66,8.69-16.01,2.11-1.1,3.16-2.41,3.46-4.9.92-7.72,4.86-13.52,12.41-15.99,7.56-2.48,14.5-.91,20.15,4.9,2.01,2.06,4.32,2.9,7.09,3.07,6.55.41,11.39,3.51,13.94,9.62.95,2.27,2.18,2.91,4.55,2.51,8.6-1.45,17.24-1.43,25.84.07,3.16.55,5.3-.77,8.05-2.33,7.89-4.49,12.7-10.81,16.74-18.88,4.25-8.47,14.72-11.77,24.27-9.32,3.4.88,5.28.49,7.57-2.36,8.54-10.68,19.86-14.37,32.96-10.82,12.77,3.46,20.15,12.34,22.29,25.38.81,4.89,2.35,8.28,8.31,7.24,2.21-.38,4.36.33,4.6,3.27.26,3.2-1.75,3.88-4.34,4.15-9.38.99-14.52-2.95-15.83-12.31-1.46-10.44-7.14-17.6-17.22-20.42-10.11-2.84-18.92.25-25.13,8.76-3.79,5.2-7.82,6.78-14.06,4.9-9.23-2.77-17.01,1.63-19.75,10.89-1.63,5.5-4.56,9.23-9.91,11.6-8.88,3.95-13.88,13.12-12.47,21.71,1.69,10.34,8.45,17.32,18.75,18.42,5.63.6,9.53,2.91,12.59,7.64,5.18,8,15.17,9.98,22.52,3.98,5.76-4.7,10.76-5.22,17.11-1.34,6.25,3.82,13.28,2.98,18.26-2.4,5.65-6.09,11.06-6.91,18.55-3.26,10.94,5.33,24.48.54,30.88-9.9,6.67-10.9,4.51-24.36-5.22-32.41-.77-.64-1.56-1.26-2.39-1.8-2.35-1.52-3.96-3.43-2.02-6.14,1.97-2.75,4.37-1.52,6.55-.08,8.97,5.93,13.82,14.5,14.34,25.01,1.29,25.88-23.49,42.44-47.05,31.61-2.93-1.35-4.55-.99-6.83,1.31-8.8,8.88-18.71,10.14-30.02,4.28-1.16-.6-2.38-1.87-3.63-.96-1.58,1.15-.28,2.75.06,4.11,6.14,24.26,4.53,47.43-9.29,69.04-15.91,24.87-38.57,38.31-67.96,40.38-2.79.2-5.21.71-7.32,2.53-.13.11-.24.28-.39.31-12.12,2.41-21.5,12.85-34.51,12.28-11.9-.52-22.9-5.57-32.92-11-12.27-6.64-11.1-24.49,1.1-32.52,3.3-2.17,3.38-3.54,1.17-6.29-1.87-2.32-3.4-4.93-4.94-7.49-1.23-2.04-1.44-4.14.74-5.75,2.14-1.58,3.71-.16,5.22,1.22.12.11.23.24.34.36,2.49,2.67,3.31,7.87,6.52,8.3,2.65.36,5.69-3.51,8.81-5,10.06-4.81,21.86-.68,26.33,9.75,2.59,6.04,6.44,8.58,12.79,9.08,9.06.72,13.85,4.97,16.06,13.73.6,2.39,1.49,2.8,3.65,2.59,40.63-3.83,65.9-36.42,69.83-67.3,1.26-9.91.13-19.54-1.91-29.2-.63-2.97-1.68-3.79-4.72-3.08-11.18,2.62-20.44-.21-26.69-10.36-1.36-2.21-3.19-3.04-5.62-3.52-19.9-3.88-28.33-15.51-25.93-35.49.19-1.61,1.8-3.94-.79-4.74-2.04-.63-2.39,1.85-3.32,3.11-5.42,7.27-12.51,12.87-19.28,18.72-2.64,2.28-5.88,1.26-8.86-.43-4.64-2.64-7.64-1.42-10.72,4.03-2.09,3.71-1.18,6.41,3.08,8.99,1.71,1.04,3.47,1.98,5.15,3.04,5.97,3.74,11.57,6.51,18.51,1.06,4.64-3.65,9.88-.9,14.37,1.92,9.57,6.02,19.05,12.19,28.64,18.18,5.07,3.16,10.28,6.11,15.49,9.06,7.74,4.39,8.53,14.54.46,17.84-13.31,5.45-18.86,15.24-20.18,28.61-1.37,13.86-11.94,21.41-21.07,29.7-4.38,3.98-10.94.61-11.69-5.51-.53-4.29-.82-8.62-.99-12.94-.32-7.88-2.3-15.05-7.91-20.95-2.86-3.01-5.42-6.31-8.19-9.41-4.35-4.88-7.3-10.35-7.04-17.06.32-8.49-2.74-14.69-10.86-18.33-5.77-2.59-10.33-7.64-17.61-7.02-3.24.27-5.07-2.74-5.35-6.12-.22-2.65-.43-5.31-.62-7.96-.16-2.3-.58-4.24-3.45-4.64-2.7-.37-4.54,0-6.1,2.75-6.97,12.24-11.15,25.19-10.96,40.13ZM41.37,177.13c-4.53-.37-7.99,2.01-10.25,6.05-2.05,3.65-4.81,6.07-8.72,7.68-6.21,2.56-9.01,7.83-7.95,13.88,1.03,5.91,5.76,10.14,12.22,10.43,3.64.16,6.75,1.2,9.72,3.26,5.37,3.73,11.62,5.28,17.48,2.54,7.55-3.52,14.32-8.56,22.95-9.75,2.6-.36,4.4-3.11,4.37-6.04-.03-2.9-1.76-4.99-4.37-6.14-1.65-.73-3.45-1.56-5.18-1.55-9.11.06-14.95-4.22-18.23-12.63-2.01-5.15-6.17-7.61-12.05-7.74ZM20.8,69.38c2.45.19,4.78-.64,6.88-2.62,8.7-8.2,18.89-14,30.04-18.18,1.33-.5,3.39-.34,3.55-2.08.18-1.9-1.29-3.37-2.82-4.43-1.52-1.05-3.27-1.75-5.14-1.56-4.95.49-8.54-1.75-11.78-5.23-3.17-3.4-7-4.9-11.68-3.07-4.84,1.88-7.58,5.15-7.6,10.51-.01,4.41-1.97,7.81-6.1,9.4-4.88,1.88-6.59,5.34-5.78,10.19.72,4.31,4.77,7.02,10.44,7.06Z"/><path class="cls-1" d="M163.19,55.31c.03-9.62,7.5-17.02,17.04-16.91,9.15.11,16.73,7.71,16.82,16.86.09,9.33-7.68,17.15-17.03,17.15-9.59,0-16.87-7.4-16.83-17.11ZM180.06,64.56c5.19-.02,9.19-3.98,9.2-9.11.01-5.13-3.98-9.14-9.13-9.18-5.19-.04-9.78,4.44-9.59,9.37.19,4.93,4.47,8.94,9.53,8.92Z"/><path class="cls-1" d="M130.08,55.38c.05-12.72,12.98-20.79,24.3-15.19,2.41,1.19,4.5,2.62,3.25,5.68-1.28,3.15-3.62,2.7-6.19,1.48-3.36-1.6-6.79-1.67-9.93.54-3.96,2.8-4.99,8.31-2.45,12.41,2.7,4.35,7.31,5.43,12.1,2.69,2.52-1.43,5.23-3.41,7.2.21,1.79,3.27-.85,5.27-3.26,6.8-5.45,3.45-11.1,3.17-16.57.13-5.71-3.17-8.52-8.19-8.45-14.76Z"/><path class="cls-1" d="M188.4,142.82c0-8.22.02-15.87-.01-23.53-.01-2.7.38-5.37,3.68-5.42,3.57-.06,4.07,2.77,4.07,5.63.01,7.65,0,15.29,0,22.83,1.55.72,2.41-.37,3.46-.69,1.91-.58,3.34.19,4.24,1.75,1.02,1.79.77,3.61-.95,4.88-2.54,1.87-5.15,3.66-7.79,5.38-2.03,1.33-4.16,1.06-6.11-.21-2.37-1.54-4.63-3.23-6.98-4.81-2.03-1.37-2.36-3.45-1.42-5.27,1.01-1.96,3.02-2.42,5.15-1.26.55.3,1.23.35,2.65.72Z"/><path class="cls-1" d="M214.96,72.92c2.04.19,3.34.24,4.62.44,1.95.3,2.8,1.57,2.84,3.49.04,2.18-1.01,3.62-3.16,3.7-4.14.14-8.31.29-12.42-.07-3.44-.3-4.58-3.1-2.57-6.23,2.41-3.77,5.25-7.26,7.82-10.93.93-1.32,2.43-3.1.83-4.4-1.73-1.41-2.75.53-3.71,1.9-1.08,1.54-2.57,2.06-4.35,1.14-2.12-1.11-2.47-2.88-1.99-5.06,1.08-4.84,6.45-7.84,11.72-6.5,5.49,1.4,8.34,6.94,6.31,12.55-.61,1.7-1.59,3.27-2.52,4.83-.92,1.55-1.99,3-3.43,5.15Z"/><path class="cls-1" d="M225.36,161.81c1.86-.74,2.89-1.28,3.99-1.56,1.85-.47,3.19.35,4.18,1.91,1.13,1.78.32,3.1-.88,4.41-7.14,7.83-12.39,8.07-20.71.9-1.65-1.42-3.56-2.83-1.94-5.38,1.43-2.25,3.43-2.3,5.65-1.24.57.27,1.19.42,2.51.87,0-7.32,0-14.19,0-21.06,0-1.49-.02-2.99.03-4.48.07-2.36,1.31-3.85,3.67-3.8,2.39.05,3.48,1.66,3.48,3.98.01,6.48,0,12.96.01,19.43,0,1.78,0,3.57,0,6.02Z"/></svg>