<?xml version="1.0" encoding="UTF-8"?><svg id="Layer_1" xmlns="http://www.w3.org/2000/svg" width="86mm" height="86mm" viewBox="0 0 243.78 243.78"><path d="M1.2,233.16v-5.19c2.45-7.23,7.62-10.13,15.05-9.54,1.6.13,3.22.02,5.03.02,0-1.31,0-2.24,0-3.17,0-48.85,0-97.7,0-146.55,0-.47.16-1.03-.04-1.4-.37-.7-.83-1.66-1.46-1.87-4.45-1.43-6.46-3.92-6.58-8.58-.05-1.88-.01-3.77-.01-5.65.01-6.9,3.01-9.91,9.9-9.91,30.55,0,61.1,0,91.65,0h2.88v-15.85c-5.58-1.16-7.87-3.98-7.89-9.53,0-1.41.1-2.84-.02-4.24-.4-4.93,1.4-8.54,6.06-10.53h108.91c4.26,1.93,6.26,5.19,5.94,9.9-.1,1.49-.01,2.98-.02,4.48-.02,6.04-1.98,8.54-7.92,9.97v192.92c2.65,0,5.15-.05,7.64,0,7.27.16,12.36,5.32,12.26,12.39-.09,6.66-5.43,11.72-12.46,11.72-72.13,0-144.26,0-216.4,0-1.09,0-2.2-.08-3.26-.32-4.94-1.12-7.58-4.64-9.27-9.09ZM133.89,218.33c0-1.22,0-2.16,0-3.09,0-17.29-.01-34.57,0-51.86,0-6.25,3.2-9.38,9.46-9.38,17.76,0,35.51,0,53.27,0,6.81,0,9.75,2.93,9.75,9.74,0,17.29,0,34.57,0,51.86,0,.9,0,1.8,0,2.68h7.85V25.47h-88.05v192.87h7.7ZM117.62,218.34V65.8H29.61v152.49h7.8c0-1.09,0-2.02,0-2.94,0-17.28,0-34.57,0-51.85,0-6.48,3.03-9.49,9.52-9.49,17.6,0,35.2,0,52.8,0,7.23,0,10.16,2.91,10.17,10.11,0,17.13,0,34.26,0,51.38,0,.91.08,1.83.12,2.84h7.59ZM122,226.54c-35.52,0-71.03,0-106.55,0-.79,0-1.58-.05-2.36.02-2.1.18-3.73,1.82-3.82,3.8-.09,1.87,1.26,3.62,3.28,4.04.91.19,1.87.16,2.81.16,71.03,0,142.06,0,213.09,0,.47,0,.94.01,1.41,0,2.76-.1,4.63-1.7,4.66-3.99.04-2.36-1.91-3.99-4.81-4.03-.63,0-1.26,0-1.89,0-35.28,0-70.56,0-105.84,0ZM69.44,178.48h-23.76v39.84h23.73v-15.73c-6.31-.54-7.94-1.31-7.81-4.1.25-5.33,4.66-3.88,7.84-4.43v-15.58ZM198.2,178.52h-23.79v15.6c3.19.39,7.47-.81,7.7,3.9.26,5.44-4.53,4.1-7.76,4.58v15.7h23.86v-39.78ZM101.55,218.34v-39.82h-23.8v15.51c3.11.64,7.74-.89,7.78,4.25.04,5.26-4.67,3.77-7.75,4.37v15.69h23.77ZM142.22,218.31h23.75v-15.87c-1.29,0-2.39.04-3.48,0-2.62-.12-4.29-1.68-4.34-3.99-.05-2.39,1.47-3.96,4.14-4.17,1.22-.09,2.44-.02,3.69-.02v-15.8h-23.76v39.85ZM118.16,9.31v7.81h104.05v-7.81h-104.05ZM21.51,57.27h96.08v-7.55H21.51v7.55ZM45.58,169.9h23.83v-7.56h-23.83v7.56ZM174.29,169.91h23.85v-7.58h-23.85v7.58ZM101.6,162.4h-23.83v7.51h23.83v-7.51ZM142.26,162.32v7.55h23.78v-7.55h-23.78Z"/><path d="M166.19,49.45c0,2.59.03,5.18,0,7.77-.06,4.78-3.22,8.24-8.03,8.4-5.41.17-10.84.18-16.25,0-4.62-.16-7.78-3.34-7.94-7.99-.18-5.41-.19-10.84,0-16.25.17-4.95,3.6-8.02,8.6-8.06,5.03-.03,10.05-.04,15.08,0,5.16.04,8.51,3.44,8.56,8.6.02,2.51,0,5.03,0,7.54ZM142.2,57.26h15.76v-15.59h-15.76v15.59Z"/><path d="M149.85,105.84c-2.51,0-5.03.03-7.54,0-4.56-.05-8.03-2.87-8.25-7.34-.28-5.87-.26-11.78,0-17.65.18-4.05,3.09-6.95,7.15-7.13,5.87-.27,11.78-.29,17.65,0,4.37.21,7.27,3.65,7.31,8.03.05,5.34.06,10.68,0,16.02-.06,4.58-3.5,7.98-8.08,8.07-2.75.05-5.5,0-8.24.01ZM142.22,97.57h15.73v-15.69h-15.73v15.69Z"/><path d="M206.36,89.69c0,2.75.08,5.5-.02,8.24-.15,4.55-3.45,7.83-7.97,7.89-5.42.07-10.83.08-16.25,0-4.47-.06-7.84-3.48-7.89-7.96-.06-5.42-.06-10.83,0-16.25.04-4.29,2.86-7.67,7.15-7.87,5.95-.29,11.93-.28,17.88.01,4.2.21,6.93,3.48,7.08,7.7.09,2.74.02,5.49.02,8.24ZM182.38,81.85v15.73h15.78v-15.73h-15.78Z"/><path d="M150.03,113.87c2.75,0,5.5-.04,8.24.01,4.46.1,7.84,3.47,7.89,7.96.07,5.42.07,10.83,0,16.25-.06,4.4-3.32,7.78-7.72,7.88-5.57.12-11.15.12-16.72,0-4.19-.08-7.45-2.93-7.65-7.13-.28-5.95-.29-11.93.01-17.88.22-4.27,3.61-7.02,7.93-7.09,2.67-.05,5.34,0,8.01,0ZM142.19,137.8h15.73v-15.77h-15.73v15.77Z"/><path d="M174.22,49.31c0-2.67-.04-5.34,0-8.01.09-4.36,3.31-7.83,7.68-7.95,5.57-.15,11.15-.15,16.72,0,4.4.11,7.62,3.47,7.7,7.92.1,5.42.1,10.83.01,16.25-.08,4.68-3.29,7.97-8.04,8.11-5.33.15-10.68.15-16.01,0-4.93-.14-8.03-3.55-8.08-8.54-.02-2.59,0-5.18,0-7.77,0,0,0,0,0,0ZM182.36,41.62v15.66h15.82v-15.66h-15.82Z"/><path d="M174.22,129.98c0-2.75-.05-5.49,0-8.24.09-4.42,3.34-7.78,7.71-7.84,5.57-.08,11.15-.08,16.72,0,4.18.06,7.53,3.23,7.64,7.41.15,5.73.14,11.46,0,17.18-.1,4.21-3.32,7.39-7.56,7.48-5.65.13-11.3.13-16.95,0-4.31-.1-7.46-3.43-7.56-7.74-.06-2.75-.01-5.49-.01-8.24ZM198.21,122.07h-15.85v15.74h15.85v-15.74Z"/><path d="M73.33,105.84c-9.04,0-18.07.01-27.11,0-5.54,0-8.76-3.19-8.81-8.75-.04-4.95-.04-9.9,0-14.85.05-5.43,3.18-8.66,8.66-8.68,18.38-.06,36.77-.06,55.15,0,5.32.02,8.52,3.24,8.63,8.53.11,5.1.12,10.22,0,15.32-.13,5.26-3.47,8.41-8.72,8.42-9.27.02-18.54,0-27.81,0ZM101.56,81.92h-55.93v15.7h55.93v-15.7Z"/><path d="M73.65,113.86c9.11,0,18.22-.01,27.34,0,5.59.01,8.8,3.1,8.89,8.69.08,4.95.09,9.9,0,14.85-.1,5.46-3.29,8.61-8.73,8.62-18.38.03-36.76.03-55.15,0-5.46-.01-8.54-3.17-8.58-8.69-.04-4.95-.05-9.9,0-14.85.05-5.48,3.19-8.59,8.66-8.61,9.19-.02,18.38,0,27.57,0ZM45.58,137.79h55.93v-15.75h-55.93v15.75Z"/></svg>