<?xml version="1.0" encoding="UTF-8"?><svg id="Layer_1" xmlns="http://www.w3.org/2000/svg" width="70mm" height="30mm" xmlns:xlink="http://www.w3.org/1999/xlink" viewBox="0 0 428.03 161.57"><defs><style>.cls-1{fill:none;}.cls-2{fill:#ffda03;}.cls-3{clip-path:url(#clippath);}</style><clipPath id="clippath"><rect class="cls-1" x="266.99" y=".79" width="160" height="160"/></clipPath></defs><path class="cls-2" d="M47.01,150.23v-9.09l21.23-19.65c1.81-1.75,3.32-3.32,4.54-4.72,1.24-1.4,2.18-2.77,2.82-4.11.64-1.36.96-2.82.96-4.4,0-1.75-.4-3.25-1.19-4.51-.8-1.28-1.88-2.26-3.26-2.94-1.38-.7-2.94-1.05-4.69-1.05s-3.42.37-4.78,1.11c-1.36.74-2.41,1.8-3.14,3.17-.74,1.38-1.11,3.02-1.11,4.92h-11.97c0-3.9.88-7.29,2.65-10.16,1.77-2.87,4.24-5.1,7.43-6.67,3.18-1.57,6.85-2.36,11.01-2.36s7.99.76,11.15,2.27c3.18,1.49,5.66,3.57,7.43,6.23,1.77,2.66,2.65,5.71,2.65,9.14,0,2.25-.45,4.48-1.34,6.67-.87,2.19-2.44,4.63-4.69,7.31-2.25,2.66-5.43,5.85-9.52,9.58l-8.71,8.53v.41h25.04v10.31h-42.51ZM122.04,151.54c-5.01-.02-9.32-1.25-12.93-3.7-3.59-2.45-6.36-5.99-8.3-10.63-1.92-4.64-2.87-10.22-2.85-16.74,0-6.5.96-12.05,2.88-16.63,1.94-4.58,4.71-8.07,8.3-10.45,3.61-2.41,7.91-3.61,12.9-3.61s9.28,1.2,12.87,3.61c3.61,2.41,6.39,5.9,8.33,10.48,1.94,4.56,2.9,10.09,2.88,16.6,0,6.54-.97,12.13-2.91,16.77-1.92,4.64-4.68,8.18-8.27,10.63-3.59,2.45-7.89,3.67-12.9,3.67ZM122.04,141.08c3.42,0,6.14-1.72,8.18-5.15,2.04-3.44,3.05-8.59,3.03-15.46,0-4.52-.47-8.29-1.4-11.3-.91-3.01-2.21-5.27-3.9-6.78-1.67-1.51-3.64-2.27-5.91-2.27-3.4,0-6.11,1.7-8.15,5.1-2.04,3.4-3.07,8.48-3.09,15.26,0,4.58.46,8.41,1.37,11.47.93,3.05,2.24,5.34,3.93,6.87,1.69,1.51,3.67,2.27,5.94,2.27ZM155.11,150.23v-9.09l21.23-19.65c1.8-1.75,3.32-3.32,4.54-4.72,1.24-1.4,2.18-2.77,2.82-4.11.64-1.36.96-2.82.96-4.4,0-1.75-.4-3.25-1.19-4.51-.8-1.28-1.88-2.26-3.26-2.94-1.38-.7-2.94-1.05-4.69-1.05s-3.42.37-4.78,1.11c-1.36.74-2.41,1.8-3.15,3.17s-1.11,3.02-1.11,4.92h-11.97c0-3.9.88-7.29,2.65-10.16,1.77-2.87,4.24-5.1,7.43-6.67,3.18-1.57,6.85-2.36,11.01-2.36s7.99.76,11.15,2.27c3.18,1.49,5.66,3.57,7.43,6.23,1.77,2.66,2.65,5.71,2.65,9.14,0,2.25-.45,4.48-1.34,6.67-.87,2.19-2.44,4.63-4.69,7.31-2.25,2.66-5.43,5.85-9.52,9.58l-8.71,8.53v.41h25.04v10.31h-42.51ZM228.55,151.04c-4.12,0-7.79-.76-11.01-2.27-3.2-1.51-5.75-3.6-7.63-6.26-1.88-2.66-2.86-5.71-2.94-9.14h12.23c.14,2.31,1.11,4.18,2.91,5.62,1.81,1.44,3.95,2.15,6.44,2.15,1.98,0,3.73-.44,5.24-1.31,1.53-.89,2.73-2.13,3.58-3.7.87-1.59,1.31-3.42,1.31-5.48s-.45-3.94-1.34-5.53c-.87-1.59-2.09-2.83-3.64-3.73-1.55-.89-3.33-1.35-5.33-1.37-1.75,0-3.45.36-5.1,1.08-1.63.72-2.9,1.7-3.82,2.94l-11.21-2.01,2.82-31.45h36.46v10.31h-26.06l-1.54,14.94h.35c1.05-1.47,2.63-2.7,4.75-3.67,2.12-.97,4.49-1.46,7.1-1.46,3.59,0,6.79.85,9.61,2.53,2.82,1.69,5.04,4.01,6.67,6.96,1.63,2.93,2.44,6.31,2.42,10.13.02,4.02-.91,7.59-2.8,10.72-1.86,3.11-4.47,5.55-7.83,7.34-3.34,1.77-7.22,2.65-11.65,2.65Z"/><path class="cls-2" d="M1.04,69.82l.64-3.66,13.23-11.73c1.42-1.27,2.6-2.39,3.54-3.35.96-.97,1.7-1.89,2.24-2.76.54-.87.9-1.8,1.08-2.78.19-1.11.09-2.07-.29-2.88-.37-.82-.96-1.44-1.78-1.88-.82-.45-1.8-.67-2.94-.67s-2.29.24-3.27.74c-.98.49-1.8,1.18-2.45,2.07-.65.89-1.08,1.94-1.29,3.14h-4.8c.34-2.04,1.11-3.82,2.32-5.34,1.21-1.52,2.71-2.71,4.49-3.54,1.79-.85,3.72-1.27,5.8-1.27s3.89.42,5.34,1.26c1.46.83,2.52,1.96,3.17,3.4.65,1.43.83,3.04.52,4.84-.22,1.25-.66,2.47-1.32,3.66-.66,1.18-1.69,2.49-3.07,3.95-1.38,1.45-3.27,3.21-5.65,5.28l-7.78,6.96-.05.25h15.04l-.7,4.33H1.04ZM42.11,70.28c-2.05,0-3.82-.4-5.33-1.19-1.5-.79-2.62-1.88-3.37-3.27-.74-1.38-1-2.96-.77-4.72h4.9c-.11,1.43.34,2.61,1.34,3.54,1,.93,2.3,1.39,3.9,1.39,1.28,0,2.48-.29,3.58-.88,1.1-.6,2.02-1.42,2.76-2.45.75-1.05,1.24-2.24,1.47-3.59.22-1.36.12-2.58-.29-3.64-.41-1.07-1.08-1.91-2.01-2.52-.93-.62-2.06-.93-3.4-.93-1,0-2.04.18-3.12.54-1.08.35-1.99.8-2.73,1.36l-4.51-.69,4.69-16.86h18.39l-.7,4.33h-14.2l-2.63,9.36h.2c.77-.64,1.73-1.17,2.88-1.58,1.14-.42,2.34-.64,3.59-.64,2.04,0,3.77.48,5.21,1.45,1.44.97,2.47,2.29,3.1,3.97.64,1.68.78,3.59.41,5.75-.35,2.17-1.15,4.1-2.42,5.8-1.26,1.7-2.84,3.04-4.74,4.02-1.89.97-3.97,1.45-6.22,1.45ZM64.38,70.13c-.91,0-1.68-.32-2.29-.95-.6-.63-.89-1.4-.88-2.32.01-.9.35-1.66,1.01-2.27.68-.62,1.46-.93,2.35-.93s1.66.32,2.29.95c.63.63.93,1.38.88,2.25-.03.61-.21,1.17-.52,1.67-.3.49-.71.88-1.21,1.18-.5.28-1.05.42-1.63.42ZM95.01,36.37h6.13l6.37,26.01h.39l14.93-26.01h6.13l-5.55,33.45h-4.8l4.04-24.21h-.31l-13.89,24.16h-4l-5.82-24.18h-.31l-4.05,24.23h-4.8l5.55-33.45ZM133.56,69.82h-5.36l17.59-33.45h5.83l6.49,33.45h-5.36l-4.88-27.38h-.26l-14.05,27.38ZM136.63,56.72h17.38l-.72,4.25h-17.38l.72-4.25ZM162.95,69.82l5.55-33.45h11.92c2.59,0,4.67.45,6.22,1.34,1.57.88,2.65,2.11,3.23,3.69.6,1.57.73,3.39.39,5.46-.35,2.05-1.08,3.84-2.21,5.39-1.11,1.55-2.6,2.76-4.46,3.63-1.85.86-4.07,1.29-6.67,1.29h-9.03l.75-4.35h8.58c1.64,0,3.02-.23,4.12-.7,1.1-.47,1.96-1.15,2.58-2.04.63-.89,1.05-1.97,1.24-3.22.21-1.27.15-2.37-.18-3.28-.33-.93-.96-1.63-1.91-2.12-.95-.5-2.25-.75-3.9-.75h-6.34l-4.85,29.13h-5.05ZM181.96,54.73l5.77,15.09h-5.75l-5.62-15.09h5.6ZM195.91,40.71l.72-4.35h25.89l-.72,4.35h-10.44l-4.83,29.11h-5.03l4.84-29.11h-10.42ZM244.99,45.35c.01-1.64-.52-2.9-1.6-3.77-1.07-.87-2.56-1.31-4.48-1.31-1.37,0-2.6.22-3.68.65-1.07.42-1.94,1.01-2.61,1.76-.66.74-1.07,1.58-1.23,2.53-.14.79-.07,1.48.21,2.06.29.58.71,1.06,1.26,1.45.55.38,1.16.7,1.83.96.66.25,1.31.46,1.93.62l3.14.85c1.01.26,2.04.62,3.09,1.06,1.05.45,1.99,1.03,2.83,1.76.84.73,1.46,1.63,1.88,2.71.41,1.08.49,2.37.24,3.87-.33,1.89-1.1,3.58-2.3,5.05-1.21,1.47-2.81,2.63-4.79,3.48-1.98.85-4.28,1.27-6.89,1.27s-4.61-.4-6.32-1.19c-1.7-.8-2.95-1.92-3.74-3.38-.79-1.47-1.08-3.21-.85-5.23h5.08c-.12,1.21.1,2.22.65,3.02.57.8,1.36,1.39,2.38,1.78,1.02.38,2.18.57,3.48.57,1.44,0,2.75-.22,3.94-.67,1.19-.46,2.17-1.09,2.94-1.89.77-.82,1.25-1.77,1.42-2.86.17-.99.03-1.8-.42-2.43-.45-.63-1.12-1.15-2.03-1.57-.89-.41-1.91-.78-3.05-1.09l-3.77-1.08c-2.56-.73-4.5-1.8-5.82-3.22-1.32-1.42-1.79-3.29-1.42-5.62.33-1.93,1.13-3.61,2.42-5.05,1.28-1.44,2.89-2.55,4.8-3.35,1.92-.81,4-1.21,6.24-1.21s4.19.4,5.78,1.21,2.77,1.92,3.53,3.33c.76,1.42,1.03,3.05.8,4.9h-4.87Z"/><g class="cls-3"><path class="cls-2" d="M425.18,12.77v147.27c-.71-.02-1.42-.05-2.13-.05h-154.25V12.67h2.1c12.32,0,24.66,0,36.98.02,1.05,0,1.61-.22,1.95-1.38,2.03-7.07,9.6-11.49,17.01-9.01,5.56,1.86,10.26,7.94,9.08,15.7-.92,6.06-6.85,11.34-13.03,11.39-1.58,0-2.82-1.1-2.9-2.61-.08-1.61.87-2.74,2.52-2.97.6-.08,1.21-.13,1.81-.27,3.61-.8,6.21-3.97,6.39-7.8.18-3.59-2.29-7.11-5.74-8.18-4.11-1.28-8.79,1.15-9.63,5.15,1.5,0,2.97-.05,4.42,0,1.74.08,2.92,1.26,2.89,2.81-.02,1.46-1.13,2.57-2.81,2.74-.55.05-1.11.03-1.68.03h-43.95v19.24h145.4v-19.24h-1.61c-10.64,0-21.29.02-31.93-.03-1.23,0-1.76.37-2.13,1.59-1.61,5.46-6.82,9.41-12.37,9.55-1.61.03-2.85-1-3-2.49-.16-1.66.82-2.84,2.55-3.09.66-.08,1.32-.15,1.97-.3,4.03-.96,6.71-5.05,6.06-9.21-.64-4.15-3.23-6.46-8.05-7.17-1.68-.25-2.63-1.34-2.53-2.94.08-1.53,1.31-2.62,2.89-2.62,5.48-.02,10.87,4.05,12.5,9.56.36,1.21.86,1.61,2.11,1.59,12.43-.05,24.85-.03,37.29-.03.61,0,1.21.07,1.82.1l.02-.02ZM344.08,154.28v-33.15h-32.12v33.15h32.12ZM349.79,121.06v33.22h32.11v-33.22h-32.11ZM344.15,43.37h-32.22c-.03.35-.07.6-.07.86,0,10.33,0,20.65-.03,30.99,0,1.2.48,1.36,1.45,1.36,9.89-.03,19.76,0,29.64-.02.39,0,.79-.07,1.21-.12v-33.07l.02-.02ZM349.78,43.34v33.14c.31.03.5.08.69.08,10.08,0,20.17,0,30.25.03,1.19,0,1.29-.56,1.29-1.53-.02-10.18,0-20.34-.02-30.51,0-.4-.08-.8-.13-1.21h-32.09ZM274.24,43.35v33.12h32.06v-33.12h-32.06ZM387.56,43.35c-.03.38-.08.63-.08.88,0,10.33,0,20.65-.03,30.99,0,1.18.48,1.36,1.45,1.36,9.84-.03,19.66,0,29.5-.02.39,0,.79-.07,1.26-.1v-33.1h-32.09v-.02ZM311.96,115.28h32.17v-33h-32.17v33ZM306.35,121.13h-32.12v33.12h32.12v-33.12ZM419.62,154.31v-33.2h-32.03v33.2h32.03ZM274.24,82.26v32.99h32.04v-32.99h-32.04ZM419.64,115.32v-33h-32.09v33h32.09ZM349.76,82.28v33h32.14v-33h-32.14Z"/><path class="cls-2" d="M368.56,15.53c-.11,7.45-5.85,13.51-13.16,13.85-1.6.07-2.87-.98-3.02-2.47-.16-1.73.82-2.89,2.68-3.12,4.55-.56,7.23-2.99,7.89-7.15.68-4.18-2.14-8.4-6.21-9.25-.65-.13-1.31-.2-1.97-.3-1.63-.27-2.53-1.43-2.39-3.05.13-1.44,1.34-2.56,2.84-2.49,7.58.35,13.08,6.16,13.32,13.98l.02.02Z"/><path class="cls-2" d="M352.37,15.55c-.11,7.45-5.9,13.53-13.16,13.83-1.6.07-2.87-.98-3-2.49-.16-1.73.84-2.87,2.68-3.1,4.47-.55,7.16-2.94,7.87-7.01.74-4.27-2.08-8.55-6.21-9.4-.64-.13-1.31-.2-1.97-.3-1.63-.27-2.53-1.43-2.37-3.05.13-1.44,1.34-2.56,2.86-2.47,7.58.35,13.08,6.19,13.32,13.99h-.02Z"/><path class="cls-2" d="M365.84,94.83c2.18-2.26,4.29-4.43,6.4-6.61.79-.81,1.55-1.66,2.39-2.42,1.29-1.18,2.76-1.2,3.84-.12,1.13,1.11,1.18,2.76-.07,4.07-2.66,2.82-5.39,5.58-8.08,8.37-.18.18-.34.38-.64.75,2,2.04,3.98,4.05,5.95,6.08.87.88,1.76,1.76,2.58,2.67,1.37,1.49,1.43,3.12.24,4.3-1.15,1.11-2.71,1.05-4.08-.33-2.48-2.49-4.92-5.01-7.34-7.55-.39-.4-.61-.98-.97-1.56-2.89,2.99-5.4,5.58-7.92,8.17-.35.36-.71.76-1.08,1.11-1.31,1.19-2.87,1.23-3.95.1-1.06-1.11-1.02-2.75.15-4.08.61-.7,1.29-1.35,1.93-2.01,2.23-2.29,4.47-4.58,6.77-6.96-2.69-2.77-5.34-5.46-7.95-8.17-.39-.4-.79-.81-1.11-1.28-.81-1.16-.71-2.62.19-3.59.98-1.05,2.39-1.2,3.58-.22.9.75,1.71,1.64,2.53,2.49,2.16,2.21,4.31,4.43,6.6,6.79h.03Z"/></g></svg>