<?xml version="1.0" encoding="UTF-8"?><svg fill="#629D97" id="Layer_1" xmlns="http://www.w3.org/2000/svg" width="77mm" height="60mm" viewBox="0 0 218.27 170.08"><defs><style>.cls-1{fill:none;}</style></defs><path d="M217.1,160.93c-.15.21-.36.4-.44.64-2.01,5.38-5.7,8.06-11.52,8.1-10.05.06-20.1.09-30.16,0-7.33-.07-11.85-4.8-11.86-12.14,0-10.68,0-21.37,0-32.05v-2.43h-28.61v14.14c3.32,0,6.6-.05,9.88.01,5.96.11,10.22,3.11,11.17,8.53.58,3.27.37,6.72.23,10.07-.07,1.68-1.39,2.71-3.11,2.96-.69.1-1.4.05-2.11.05-19.47,0-38.94.02-58.41-.03-1.44,0-2.18.38-2.86,1.75-3.04,6.14-8.28,9.08-14.97,9.12-18.77.11-37.54.14-56.3,0-10.21-.08-16.88-7.11-16.88-17.3,0-31.7,0-63.4,0-95.11,0-10.26,6.88-17.2,17.14-17.28,5.41-.04,10.82,0,16.24,0,.76,0,1.51,0,2.52,0,0-1.01-.01-1.83,0-2.65.11-7.16-.02-14.34.42-21.48.47-7.64,7.76-14.55,15.41-15.14,2.52-.19,5.05-.32,7.57-.32,33.6-.02,67.2-.02,100.8,0,3.31,0,6.58.36,9.61,1.89,7.14,3.63,10.29,9.65,10.3,17.45.04,20.24.01,40.49.01,60.73,0,.83,0,1.66,0,2.77.94,0,1.69,0,2.44,0,7.03,0,14.06-.02,21.09,0,6.46.03,9.83,2.42,12.04,8.46.07.19.23.35.34.53v68.75ZM91.18,97.46h71.97c-.62-7.96,2.61-12.99,10.59-14.38.04-.46.09-.8.09-1.15,0-20.94-.06-41.89.04-62.83.03-6.8-5.17-11.46-11.77-11.44-35.28.14-70.56.14-105.84,0-6.53-.03-12.14,4.46-11.88,11.98.21,6.04.04,12.09.05,18.13,0,.67.08,1.35.14,2.18.93,0,1.69,0,2.45,0,8.93,0,17.85-.02,26.78.01,3.87.01,7.5.86,10.68,3.23,4.85,3.62,6.73,8.58,6.72,14.48-.03,12.44,0,24.88,0,37.32,0,.82,0,1.64,0,2.48ZM8.42,144.26h75.32v-78.91H8.42v78.91ZM209.82,104.99h-39.36v42.8h39.36v-42.8ZM8.44,57.9h75.28c.62-6.22-3.02-10.53-9.19-10.56-18.9-.09-37.8-.08-56.69,0-6.15.03-9.75,4.18-9.39,10.57ZM8.47,151.71c-.45,6.16,3.2,10.53,8.94,10.56,19.17.07,38.34.02,57.51.02.42,0,.84-.02,1.26-.07,4.95-.56,8.55-5.65,7.36-10.51H8.47ZM91.28,115.36h71.72v-10.4h-71.72v10.4ZM91.29,136.98h35.61v-13.96h-35.61v13.96ZM148.5,151.53c.81-5.02-.45-7.2-5.63-7.15-16.3.19-32.61.07-48.92.07h-2.62v7.08h57.16ZM209.79,97.53c.48-5.69-.77-7.06-6.2-7.06-9.13,0-18.26.15-27.38-.07-4.18-.1-6.74,1.65-5.62,7.13h39.2ZM170.23,155.38c.11,1.41.09,2.6.31,3.74.37,1.97,1.64,3.12,3.65,3.13,10.6.04,21.19.04,31.79,0,2,0,3.32-1.1,3.69-3.08.22-1.2.2-2.45.29-3.8h-39.73Z"/><path class="cls-1" d="M163,104.96v10.4h-71.72v-10.4"/><path class="cls-1" d="M142.87,144.39c5.18-.06,6.44,2.12,5.63,7.15h-57.16v-7.08h2.62"/><path class="cls-1" d="M209.96,155.38c-.09,1.35-.07,2.6-.29,3.8-.37,1.98-1.68,3.07-3.69,3.08-10.6.03-21.19.03-31.79,0-2.01,0-3.29-1.16-3.65-3.13-.21-1.15-.2-2.33-.31-3.74"/></svg>