<?xml version="1.0" encoding="UTF-8"?><svg id="Layer_1" xmlns="http://www.w3.org/2000/svg" width="49mm" height="59mm" viewBox="0 0 138.9 167.24"><path d="M103.39.86c.72.63,1.48,1.22,2.16,1.89,10.6,10.57,21.2,21.15,31.75,31.76.55.56.82,1.45,1.07,2.24.16.49.05,1.07.05,1.61,0,33.87,0,67.74-.01,101.61,0,1.23-.02,2.5-.31,3.68-.9,3.69-3.96,6.06-7.91,6.15-2.73.06-5.46.01-8.35.01,0,2.59-.1,5.01.02,7.41.31,6.08-4.39,9.17-9.08,9.15-34.41-.11-68.83-.06-103.24-.06-5.68,0-8.92-3.14-9.06-8.81-.05-2.31-.01-4.63-.01-6.95,0-41.03,0-82.06.01-123.1,0-1.29,0-2.61.28-3.85.84-3.7,4.02-6.13,8.03-6.22,2.68-.06,5.37-.01,8.27-.01,0-2.1.12-4.08-.02-6.05-.39-5.12,1.44-8.79,6.52-10.47,26.61,0,53.22,0,79.84,0ZM99.79,6.48c-.64-.04-1.11-.09-1.58-.1-23.91,0-47.83,0-71.74,0-2.94,0-3.9.96-3.9,3.85,0,43.4,0,86.8,0,130.2,0,3,.82,3.83,3.84,3.83,34.2,0,68.4,0,102.6,0,3.03,0,3.82-.81,3.82-3.83,0-33.01,0-66.02,0-99.03,0-.57,0-1.15,0-1.85-.84,0-1.48,0-2.11,0-7.22,0-14.43-.05-21.65.02-6.02.06-9.45-3.88-9.32-9.3.17-7.32.04-14.65.04-21.97,0-.58,0-1.15,0-1.82ZM116.3,149.82c-.93,0-1.63,0-2.33,0-29.03,0-58.06,0-87.09,0-.7,0-1.4.02-2.1-.03-3.78-.27-6.75-2.76-7.53-6.43-.23-1.09-.19-2.25-.19-3.37,0-38.29,0-76.58,0-114.87,0-.67,0-1.34,0-2.16-2.45,0-4.65,0-6.85,0-3.42,0-4.13.73-4.13,4.2,0,43.13,0,86.27,0,129.4,0,.59-.02,1.19.03,1.78.11,1.19.72,2.03,1.93,2.27.73.14,1.49.21,2.24.21,33.93,0,67.86,0,101.8,0,.59,0,1.19,0,1.77-.07,1.48-.2,2.4-1.07,2.45-2.55.09-2.73.02-5.47.02-8.38ZM105.32,10.58c0,6.74,0,13.29,0,19.84,0,2.64.83,3.47,3.47,3.48,6.19.01,12.37,0,18.56,0,.39,0,.77-.09,1.19-.14-7.75-7.73-15.39-15.36-23.22-23.18Z"/><path d="M80.45,56.09c-13.46,0-26.91,0-40.37,0-2.74,0-3.94-1.1-3.65-3.28.16-1.21.81-1.97,2.02-2.17.69-.11,1.39-.16,2.08-.16,26.64,0,53.29,0,79.93,0,2.92,0,4.22.9,4.16,2.87-.05,1.91-1.31,2.75-4.13,2.75-13.35,0-26.7,0-40.05,0Z"/><path d="M80.61,116.62c13.3,0,26.59,0,39.89,0,2.83,0,4.08.84,4.13,2.75.06,1.97-1.25,2.9-4.15,2.9-26.65,0-53.29,0-79.94,0-.75,0-1.51-.07-2.24-.21-1.3-.26-1.87-1.21-1.91-2.45-.05-1.29.4-2.37,1.77-2.71.77-.19,1.59-.26,2.39-.26,13.35-.01,26.7-.01,40.05-.01Z"/><path d="M80.59,67.06c13.24,0,26.48,0,39.72,0,.65,0,1.3,0,1.93.06,1.41.16,2.38,1.18,2.37,2.59-.01,1.36-.63,2.39-2.02,2.75-.51.13-1.07.11-1.6.11-27.02,0-54.04,0-81.06,0-2.6,0-3.78-1.11-3.49-3.24.17-1.28.9-2.05,2.17-2.21.69-.09,1.4-.08,2.1-.08,13.3,0,26.59,0,39.89,0Z"/><path d="M80.46,89.11c-13.56,0-27.13,0-40.69,0-2.49,0-3.6-1.11-3.34-3.21.17-1.3.94-2.01,2.17-2.24.47-.09.97-.05,1.45-.05,26.97,0,53.93,0,80.9,0,2.26,0,3.13.51,3.53,2.03.46,1.75-.57,3.27-2.37,3.44-.59.05-1.18.04-1.77.04-13.29,0-26.59,0-39.88,0Z"/><path d="M80.42,100.1c13.51,0,27.02,0,40.53,0,2.22,0,3.13.55,3.53,2.07.45,1.69-.49,3.16-2.21,3.4-.64.09-1.29.09-1.93.09-26.59,0-53.18,0-79.77,0-.59,0-1.18-.03-1.77-.07-1.54-.13-2.3-1.03-2.41-2.52-.11-1.53.72-2.61,2.21-2.89.58-.11,1.18-.08,1.77-.08,13.35,0,26.7,0,40.05,0Z"/><path d="M63.95,33.9c7.97,0,15.94,0,23.9,0,2.64,0,3.93,1.09,3.51,3.19-.16.82-1.02,1.64-1.76,2.17-.49.36-1.35.28-2.04.28-15.77.01-31.55.01-47.32,0-2.74,0-3.96-.95-3.87-2.97.07-1.64,1.07-2.58,3.02-2.67,1.72-.07,3.44-.02,5.17-.02,6.46,0,12.92,0,19.38,0Z"/></svg>