<?xml version="1.0" encoding="UTF-8"?><svg id="Layer_1" xmlns="http://www.w3.org/2000/svg" width="54mm" height="54mm" viewBox="0 0 153.07 153.07"><path d="M76.55,152.56c-24.12,0-48.23,0-72.35,0-2.88,0-3.66-.77-3.66-3.63,0-29.66.01-59.32-.03-88.98,0-1.72.58-2.85,1.94-3.85,4.07-3,8.04-6.14,12.12-9.12.94-.69,1.2-1.39,1.19-2.49-.04-8.44-.02-16.89-.02-25.33,0-2.55.85-3.41,3.4-3.41,11.61,0,23.22-.02,34.83.02,1.17,0,2.1-.27,3.03-.98,5.77-4.43,11.57-8.81,17.36-13.21,1.83-1.39,2.5-1.41,4.34-.02,5.84,4.42,11.69,8.83,17.5,13.29.84.64,1.66.93,2.73.92,11.66-.03,23.32-.02,34.99-.02,2.56,0,3.43.85,3.43,3.39,0,8.44.02,16.89-.02,25.33,0,1.09.24,1.8,1.18,2.49,4.16,3.05,8.23,6.25,12.37,9.33,1.16.86,1.69,1.86,1.69,3.33-.03,29.87-.02,59.74-.02,89.61,0,2.43-.9,3.33-3.33,3.33-24.22,0-48.44,0-72.66,0ZM76.57,20.81c-18.1,0-36.19,0-54.29-.01-.94,0-1.51-.01-1.51,1.27.05,15.35.04,30.71.02,46.06,0,.7.21,1.13.78,1.56,13.57,10.27,27.13,20.55,40.67,30.86.71.54,1.14.58,1.86.02,3.41-2.65,6.87-5.24,10.31-7.85,1.76-1.33,2.45-1.34,4.21-.02,3.32,2.51,6.68,4.97,9.93,7.56,1.01.81,1.61.83,2.64.05,13.31-10.17,26.66-20.29,40.02-30.39.83-.62,1.07-1.24,1.07-2.22-.03-15.09-.05-30.18.02-45.27,0-1.5-.5-1.66-1.78-1.66-17.99.04-35.98.03-53.97.03ZM11.26,147.37h130.92c-.37-.34-.55-.53-.75-.68-21.31-16.17-42.62-32.33-63.91-48.51-.81-.61-1.3-.49-2.04.07-21.08,16.02-42.18,32.02-63.27,48.04-.35.27-.86.43-.96,1.09ZM5.69,144.81c.52-.37.78-.55,1.03-.74,16.94-12.85,33.89-25.7,50.83-38.55,1.45-1.1,1.45-1.11-.06-2.25-16.9-12.82-33.8-25.64-50.71-38.45-.31-.24-.56-.67-1.09-.49v80.49ZM147.39,64.07c-.5.34-.8.54-1.09.75-16.94,12.85-33.87,25.71-50.85,38.52-1.29.97-1.04,1.37.07,2.21,16.88,12.76,33.73,25.55,50.59,38.33.36.27.64.72,1.27.68v-80.48ZM88.95,15.67c-4.18-3.17-7.99-6.05-11.78-8.96-.73-.56-1.15-.06-1.64.31-3.4,2.57-6.8,5.15-10.19,7.74-.29.22-.8.34-.7.98,7.58,0,15.16,0,22.74,0,.36,0,.72-.03,1.58-.07ZM137.34,65.25c2.83-2.15,5.34-4.03,7.82-5.94.71-.55.11-.9-.29-1.21-2.17-1.66-4.36-3.3-6.53-4.96-.6-.46-1.01-.6-1,.43.02,3.73,0,7.46,0,11.68ZM15.66,52.44c-2.76,2.1-5.25,4-7.74,5.89-.36.27-.46.59-.06.9,2.52,1.92,5.05,3.84,7.8,5.93v-12.72Z"/><path d="M78.75,79.08c-5.55.37-11.25-1.01-16.25-4.86-7.07-5.43-10.33-15.08-7.99-23.76,2.4-8.9,9.99-15.46,18.81-16.74,11.49-1.67,23.14,5.98,25.51,18,.74,3.75.84,7.56.22,11.31-.49,2.96-2.49,4.8-5.37,5.6-2.92.82-5.46,0-7.44-2.2-.81-.9-1.2-.82-2.07-.16-4.31,3.29-9.84,3.54-14.35.77-4.41-2.71-6.82-8.06-5.88-13.04,1-5.27,4.98-9.28,10.27-10.32,7.44-1.47,14.79,4.45,14.99,12.09.05,1.9-.04,3.8.03,5.7.05,1.39,1.12,2.4,2.45,2.39,1.41,0,2.49-.77,2.52-2.11.1-3.62.41-7.27-.74-10.82-2.6-7.96-10.13-13.02-18.48-12.36-7.95.63-14.5,6.72-15.89,14.77-1.85,10.72,6.41,20.61,17.26,20.67,2.43.01,4.86,0,7.28,0,1.87.01,3.02.97,3.04,2.5.02,1.53-1.14,2.54-2.98,2.56-1.42.02-2.85,0-4.94,0ZM84.14,56.38c.02-4.23-3.36-7.68-7.55-7.69-4.2-.02-7.64,3.4-7.65,7.59,0,4.2,3.41,7.61,7.63,7.61,4.12,0,7.55-3.4,7.57-7.5Z"/></svg>