<?xml version="1.0" encoding="UTF-8"?><svg id="Layer_1" xmlns="http://www.w3.org/2000/svg" width="67mm" height="170mm" viewBox="0 0 189.92 481.89"><defs><style>.cls-1{fill:#629d97;}</style></defs><path class="cls-1" d="M68.96,354.25c-.36.63-.89.81-1.61.81-21.68-.01-43.36-.01-65.04-.01-1.23,0-1.6-.37-1.6-1.57v-50.99c0-1.21.37-1.57,1.6-1.57,21.68,0,43.36,0,65.04-.01.72,0,1.25.19,1.61.81v52.54h0ZM66.53,303.33H3.13v49.32h63.4v-49.32Z"/><path class="cls-1" d="M47.83,323.79c-3.62,3.97-7.17,7.85-10.76,11.79.17.19.33.36.49.53,1.66,1.67,3.33,3.33,4.99,5,.36.36.67.81.39,1.3-.2.35-.6.77-.92.79-.41.02-.94-.24-1.25-.55-3.26-3.21-6.49-6.46-9.72-9.7-.7-.71-1.39-1.43-2.11-2.17-2.04,1.79-4,3.52-5.97,5.25-4.27,3.76-8.54,7.52-12.8,11.28-.17.14-.33.3-.52.42-.56.39-1.19.32-1.62-.17-.4-.46-.38-1.07.06-1.57.16-.18.35-.34.53-.5,6.25-5.51,12.5-11.01,18.76-16.52,1.5-1.33,1.7-1.33,3.1.07,1.6,1.6,3.2,3.21,4.86,4.88.22-.23.42-.43.6-.64,3.5-3.84,7.01-7.68,10.51-11.52,1.01-1.1,1.46-1.13,2.54-.14,4.42,4.05,8.84,8.11,13.26,12.17.89.81,1.03,1.44.49,2.04-.54.61-1.19.52-2.07-.28-4.11-3.77-8.22-7.54-12.33-11.3-.16-.15-.33-.29-.52-.46h0Z"/><path class="cls-1" d="M19.54,326.97c-3.55.02-6.55-2.96-6.58-6.49-.02-3.61,2.94-6.61,6.51-6.62,3.6-.01,6.57,2.92,6.62,6.53.04,3.55-2.96,6.58-6.55,6.59ZM15.35,320.41c0,2.3,1.9,4.2,4.19,4.19,2.27-.01,4.13-1.86,4.17-4.15.04-2.27-1.87-4.2-4.16-4.21-2.31,0-4.19,1.87-4.19,4.17Z"/><path class="cls-1" d="M78.33,154.52c-.11.36-.2.72-.32,1.08-.88,2.69-3.35,4.47-6.24,4.48-6.41.01-12.82,0-19.23,0H20.27c-3.46,0-6.05-2.15-6.67-5.53-.06-.35-.06-.71-.06-1.07,0-12.89,0-25.78,0-38.66,0-3.72,2.83-6.59,6.54-6.6,17.23,0,34.47,0,51.7,0,3.21,0,5.79,2.14,6.44,5.27.02.1.08.19.12.29v40.75h0ZM15.69,119.09v34.11c0,2.9,1.79,4.71,4.68,4.71,17.04,0,34.08,0,51.12,0,2.89,0,4.68-1.81,4.68-4.71v-34.1H15.69ZM41.66,116.84c1.62,0,3.07.01,4.53-.02.2,0,.45-.2.58-.38,1.41-1.84,2.79-3.7,4.18-5.56.09-.13.17-.27.31-.49-1.59,0-3.07-.01-4.56.02-.16,0-.36.2-.47.35-.73.95-1.45,1.92-2.17,2.88-.77,1.02-1.53,2.05-2.4,3.2h0ZM49.21,116.84c1.54,0,2.93.02,4.32-.02.28,0,.64-.19.81-.41,1.41-1.84,2.8-3.69,4.19-5.55.09-.12.15-.26.26-.46-1.53,0-2.96,0-4.39.01-.18,0-.42.11-.53.24-1.53,2.01-3.04,4.03-4.66,6.19h0ZM43.75,110.39c-1.54,0-2.91.01-4.27,0-.4,0-.66.12-.9.44-1.36,1.84-2.74,3.67-4.12,5.51-.1.14-.18.29-.32.51,1.56,0,3.01.01,4.46-.01.19,0,.43-.16.55-.32.54-.67,1.04-1.37,1.56-2.06.98-1.31,1.96-2.62,3.03-4.05h0ZM56.78,116.84c1.64,0,3.12.01,4.61-.02.17,0,.39-.22.52-.39,1.39-1.83,2.76-3.67,4.14-5.51.1-.14.18-.3.32-.53-1.58,0-3.05,0-4.52,0-.14,0-.32.12-.41.23-1.52,2.02-3.03,4.04-4.65,6.2h0ZM19.05,116.8c.26.02.44.04.62.04,1.2,0,2.4-.02,3.6.01.41.01.65-.15.88-.46,1.38-1.86,2.77-3.71,4.16-5.57.08-.11.13-.24.24-.44-1.47,0-2.86-.02-4.24.02-.28,0-.64.2-.81.42-1.4,1.82-2.77,3.66-4.14,5.5-.09.13-.18.26-.31.47ZM36.2,110.39c-1.55,0-2.93-.02-4.31.02-.28,0-.64.19-.81.41-1.39,1.8-2.74,3.62-4.1,5.44-.12.16-.22.33-.38.58,1.33,0,2.55-.05,3.76.02.76.04,1.22-.22,1.65-.83,1.33-1.86,2.73-3.67,4.2-5.64ZM64.34,116.84c1.64,0,3.15.01,4.65-.02.16,0,.34-.21.46-.37,1.3-1.71,2.58-3.43,3.87-5.15.11-.14.2-.3.35-.53-.46-.11-.84-.27-1.23-.29-.9-.06-1.81-.04-2.71-.09-.4-.02-.66.12-.89.44-.72.99-1.46,1.96-2.19,2.94-.74.99-1.47,1.98-2.3,3.07h0ZM21.09,110.37c-.64.03-1.1.03-1.55.07-1.83.2-3.39,1.53-3.7,3.28-.17,1-.14,2.04-.2,3.06.06.04.12.08.18.13.22-.13.47-.24.65-.41.22-.22.39-.5.58-.75,1.31-1.75,2.62-3.49,4.04-5.39ZM75.35,112.23c-1.15,1.54-2.25,3.01-3.42,4.57h4.24c0-1.57.24-3.14-.82-4.57Z"/><path class="cls-1" d="M36.2,138.46c0-1.73,0-3.46,0-5.19.01-2.49,2.33-4.14,4.64-3.19,4.3,1.76,8.57,3.59,12.84,5.42,1.29.55,1.97,1.59,1.97,2.98s-.73,2.44-2.04,3c-3.69,1.58-7.39,3.14-11.09,4.7-.81.34-1.63.74-2.48.88-2.09.34-3.82-1.21-3.84-3.34,0-1.75,0-3.5,0-5.25ZM38.38,138.47c0,1.68,0,3.37,0,5.06,0,1.16.79,1.69,1.86,1.24,4.13-1.73,8.25-3.49,12.37-5.22.48-.2.85-.49.86-1.05,0-.59-.37-.89-.88-1.1-4.1-1.73-8.2-3.47-12.31-5.2-1.16-.49-1.9.02-1.9,1.29,0,1.66,0,3.33,0,4.99h0Z"/><path class="cls-1" d="M168.28.87c.31.27.63.52.92.81,4.52,4.5,9.04,9.01,13.53,13.54.23.24.35.62.46.95.07.21.02.46.02.69,0,14.43,0,28.87,0,43.3,0,.52,0,1.07-.13,1.57-.38,1.57-1.69,2.58-3.37,2.62-1.16.03-2.33,0-3.56,0,0,1.1-.04,2.14,0,3.16.13,2.59-1.87,3.91-3.87,3.9-14.67-.05-29.33-.03-44-.03-2.42,0-3.8-1.34-3.86-3.75-.02-.98,0-1.97,0-2.96,0-17.49,0-34.97,0-52.46,0-.55,0-1.11.12-1.64.36-1.58,1.71-2.61,3.42-2.65,1.14-.03,2.29,0,3.53,0,0-.89.05-1.74,0-2.58-.17-2.18.61-3.75,2.78-4.46h34.03,0ZM166.75,3.27c-.27-.02-.47-.04-.67-.04h-30.57c-1.25,0-1.66.41-1.66,1.64v55.49c0,1.28.35,1.63,1.64,1.63h43.73c1.29,0,1.63-.35,1.63-1.63V17.36h-.9c-3.08,0-6.15-.02-9.23,0-2.57.03-4.03-1.65-3.97-3.96.07-3.12.02-6.24.02-9.36v-.78ZM173.78,64.36h-38.11c-.3,0-.6,0-.9-.01-1.61-.12-2.88-1.18-3.21-2.74-.1-.46-.08-.96-.08-1.44V10.29h-2.92c-1.46,0-1.76.31-1.76,1.79v55.15c0,.25,0,.51.01.76.05.51.31.87.82.97.31.06.64.09.95.09h43.39c.25,0,.51,0,.75-.03.63-.09,1.02-.46,1.04-1.09.04-1.16,0-2.33,0-3.57h0ZM169.1,5.02v8.46c0,1.13.35,1.48,1.48,1.48,2.64,0,5.27,0,7.91,0,.17,0,.33-.04.51-.06-3.3-3.29-6.56-6.55-9.89-9.88Z"/><path class="cls-1" d="M158.5,24.41h-17.21c-1.17,0-1.68-.47-1.55-1.4.07-.52.35-.84.86-.92.29-.05.59-.07.89-.07h34.07c1.24,0,1.8.38,1.77,1.22-.02.81-.56,1.17-1.76,1.17h-17.07,0Z"/><path class="cls-1" d="M158.57,50.21h17c1.21,0,1.74.36,1.76,1.17.03.84-.53,1.24-1.77,1.24h-34.07c-.32,0-.64-.03-.96-.09-.55-.11-.8-.52-.81-1.04-.02-.55.17-1.01.75-1.16.33-.08.68-.11,1.02-.11,5.69,0,11.38,0,17.07,0h0Z"/><path class="cls-1" d="M158.56,29.09h16.93c.28,0,.55,0,.82.03.6.07,1.01.5,1.01,1.1,0,.58-.27,1.02-.86,1.17-.22.06-.46.05-.68.05h-34.55c-1.11,0-1.61-.47-1.49-1.38.07-.55.38-.87.93-.94.29-.04.6-.03.89-.03h17,0Z"/><path class="cls-1" d="M158.51,38.48h-17.34c-1.06,0-1.53-.47-1.42-1.37.07-.55.4-.86.92-.95.2-.04.41-.02.62-.02h34.48c.96,0,1.33.22,1.5.87.2.75-.24,1.39-1.01,1.47-.25.02-.5.02-.75.02h-17Z"/><path class="cls-1" d="M158.49,43.17h17.27c.95,0,1.33.23,1.5.88.19.72-.21,1.35-.94,1.45-.27.04-.55.04-.82.04h-34c-.25,0-.5-.01-.75-.03-.66-.06-.98-.44-1.03-1.07-.05-.65.31-1.11.94-1.23.25-.05.5-.03.75-.03h17.07Z"/><path class="cls-1" d="M151.47,14.95h10.19c1.12,0,1.67.46,1.5,1.36-.07.35-.43.7-.75.92-.21.15-.57.12-.87.12-6.72,0-13.45,0-20.17,0-1.17,0-1.69-.4-1.65-1.27.03-.7.46-1.1,1.29-1.14.73-.03,1.47,0,2.2,0h8.26Z"/><path class="cls-1" d="M156.82,263.27h-30.83c-1.23,0-1.56-.33-1.56-1.55,0-12.64,0-25.28-.01-37.92,0-.73.25-1.21.83-1.64,1.73-1.28,3.43-2.62,5.16-3.89.4-.29.51-.59.51-1.06-.02-3.6,0-7.2,0-10.79,0-1.09.36-1.45,1.45-1.45,4.95,0,9.9,0,14.84,0,.5,0,.9-.12,1.29-.42,2.46-1.89,4.93-3.76,7.4-5.63.78-.59,1.07-.6,1.85,0,2.49,1.88,4.98,3.76,7.46,5.66.36.27.71.4,1.16.39,4.97-.01,9.94,0,14.91,0,1.09,0,1.46.36,1.46,1.45,0,3.6,0,7.2,0,10.8,0,.46.1.77.5,1.06,1.77,1.3,3.51,2.66,5.27,3.98.49.37.72.79.72,1.42-.01,12.73,0,25.46,0,38.19,0,1.04-.38,1.42-1.42,1.42h-30.97ZM156.83,207.12c-7.71,0-15.42,0-23.14,0-.4,0-.64,0-.64.54.02,6.54.02,13.09,0,19.63,0,.3.09.48.33.66,5.78,4.38,11.56,8.76,17.33,13.15.3.23.49.25.79,0,1.45-1.13,2.93-2.23,4.39-3.35.75-.57,1.04-.57,1.79,0,1.42,1.07,2.85,2.12,4.23,3.22.43.35.69.35,1.12.02,5.67-4.33,11.36-8.65,17.06-12.95.35-.26.46-.53.46-.95-.01-6.43-.02-12.86,0-19.29,0-.64-.21-.71-.76-.71-7.67.02-15.33.01-23,.01h0ZM128.99,261.06h55.8c-.16-.15-.23-.23-.32-.29-9.08-6.89-18.16-13.78-27.24-20.68-.35-.26-.55-.21-.87.03-8.99,6.83-17.98,13.65-26.97,20.47-.15.11-.37.18-.41.46h0ZM126.62,259.97c.22-.16.33-.24.44-.32,7.22-5.48,14.44-10.95,21.66-16.43.62-.47.62-.47-.03-.96-7.2-5.46-14.4-10.93-21.61-16.39-.13-.1-.24-.29-.46-.21v34.3h0ZM187.01,225.56c-.21.14-.34.23-.46.32-7.22,5.48-14.44,10.96-21.67,16.42-.55.41-.44.58.03.94,7.19,5.44,14.38,10.89,21.56,16.34.15.11.27.31.54.29v-34.3h0ZM162.1,204.93c-1.78-1.35-3.4-2.58-5.02-3.82-.31-.24-.49-.03-.7.13-1.45,1.1-2.9,2.2-4.34,3.3-.12.09-.34.15-.3.42h9.69c.15,0,.31-.01.67-.03h0ZM182.73,226.06c1.21-.92,2.28-1.72,3.33-2.53.3-.23.05-.38-.12-.51-.93-.71-1.86-1.41-2.78-2.11-.26-.2-.43-.26-.43.18,0,1.59,0,3.18,0,4.98ZM130.87,220.6c-1.18.89-2.24,1.7-3.3,2.51-.15.11-.2.25-.03.38,1.07.82,2.15,1.64,3.33,2.53v-5.42Z"/><path class="cls-1" d="M157.76,231.95c-2.37.16-4.79-.43-6.93-2.07-3.01-2.31-4.4-6.43-3.41-10.13,1.02-3.79,4.26-6.59,8.02-7.13,4.9-.71,9.86,2.55,10.87,7.67.32,1.6.36,3.22.09,4.82-.21,1.26-1.06,2.04-2.29,2.39-1.24.35-2.33,0-3.17-.94-.35-.38-.51-.35-.88-.07-1.84,1.4-4.19,1.51-6.12.33-1.88-1.15-2.91-3.43-2.51-5.56.43-2.25,2.12-3.96,4.38-4.4,3.17-.63,6.3,1.9,6.39,5.15.02.81-.02,1.62.01,2.43.02.59.48,1.02,1.04,1.02.6,0,1.06-.33,1.07-.9.04-1.54.18-3.1-.32-4.61-1.11-3.39-4.32-5.55-7.88-5.27-3.39.27-6.18,2.86-6.77,6.29-.79,4.57,2.73,8.78,7.36,8.81,1.04,0,2.07,0,3.1,0,.8,0,1.29.41,1.3,1.07,0,.65-.49,1.08-1.27,1.09-.61,0-1.21,0-2.11,0h0ZM160.05,222.28c0-1.8-1.43-3.27-3.22-3.28-1.79,0-3.26,1.45-3.26,3.24,0,1.79,1.45,3.24,3.25,3.24s3.22-1.45,3.23-3.2h0Z"/><path class="cls-1" d="M105.01,413.89h27.41c.14.16.29.33.44.48,5.51,5.51,11.04,11.03,16.54,16.56.24.24.39.66.42,1.01.06.67.02,1.34.02,2.07,1.15,0,2.22-.01,3.29,0,2.17.03,3.41,1.27,3.41,3.43v6.63c1.25,0,2.4,0,3.56,0,2.29.02,3.69,2.05,2.91,4.2-3.73,10.21-7.45,20.43-11.18,30.64-.53,1.47-1.45,2.1-3.02,2.11h-14.16c-11.78,0-23.55,0-35.34-.02-.66,0-1.43-.17-1.96-.54-.55-.38-.85-1.1-1.27-1.67v-50.22c.05-.07.11-.13.13-.21.53-1.42,1.5-2.14,3.01-2.16,1.31-.02,2.62,0,3.93,0h1.85v-12.31h.01ZM135.3,446.36c-8.15,0-16.3,0-24.46-.01-.7,0-1.04.23-1.28.89-2.41,6.68-4.86,13.35-7.29,20.02-1.27,3.48-2.54,6.96-3.81,10.44-.25.69-.01,1.04.71,1.08.13,0,.26,0,.39,0,16.3,0,32.6,0,48.91.01.72,0,1.09-.22,1.35-.92,3.64-10.04,7.3-20.07,10.95-30.1.38-1.05.13-1.42-.96-1.42h-24.52,0ZM107.33,446.52c.68-2.23,2.39-2.47,4.37-2.47,11.65.04,23.3.02,34.94.02h.85v-11.17h-16.75v-16.73h-23.41v30.35ZM105.02,428.44h-5.28c-1.2,0-1.41.21-1.41,1.4v41.17c.16-.13.23-.26.28-.4,2.1-5.7,4.19-11.4,6.27-17.11.11-.3.14-.64.14-.96,0-7.77,0-15.55,0-23.32v-.78ZM133.09,417.96v12.67h12.65c-4.21-4.21-8.43-8.44-12.65-12.67ZM149.87,436.3v7.73h4.38c0-2.35.01-4.65,0-6.96,0-.47-.3-.77-.8-.77-1.18,0-2.35,0-3.57,0Z"/><path class="cls-1" d="M127.36,440.76h-12.9c-.28,0-.58-.01-.84-.1-.54-.19-.8-.6-.72-1.17.07-.53.39-.87.93-.94.26-.03.52-.04.79-.04h25.61c.24,0,.48,0,.72.03.61.07,1.04.52,1.02,1.07-.01.6-.34.98-.92,1.11-.23.05-.48.04-.72.04h-12.97Z"/><path class="cls-1" d="M119.56,432.9c-1.79,0-3.58,0-5.36,0-.83,0-1.32-.44-1.31-1.12,0-.66.5-1.1,1.28-1.1,3.62,0,7.24,0,10.86,0,.95,0,1.53.75,1.19,1.54-.22.53-.67.7-1.22.69-1.81-.01-3.62,0-5.43,0h0Z"/><path class="cls-1" d="M119.56,425.09h-5.04c-.26,0-.53,0-.78-.06-.5-.11-.79-.44-.85-.95-.06-.54.19-.94.69-1.13.22-.08.46-.11.7-.11,3.53,0,7.07,0,10.6,0,.21,0,.44.03.64.09.55.18.8.59.75,1.15-.05.54-.35.88-.89.97-.26.04-.52.05-.78.05-1.68,0-3.36,0-5.04,0Z"/></svg>