<?xml version="1.0" encoding="UTF-8"?><svg id="Layer_1" xmlns="http://www.w3.org/2000/svg" width="36mm" height="114mm" viewBox="0 0 102.05 323.15"><defs><style>.cls-1{fill:#629d97;}</style></defs><path class="cls-1" d="M51.38,54.25c3.68,4.91,12.5,4.51,19.7-.9,6.69-5.02,9.62-12.57,7.07-17.55-.15-.37-.38-.75-.69-1.11-.17-.22-.36-.44-.54-.65-3.68-4.42-5.89-8.4-7.67-12.14-3.28-6.86-4.33-10.53-5.07-13.53-.02-.09-.05-.18-.07-.26-1.52-5.48-7.13-8.79-12.68-7.4-5.64,1.41-9.06,7.12-7.66,12.75.76,3.05,2.81,5.17,5.39,6.79.24.18.58.43.64.49,1.2,1.07,1.83,1.6,2.91,3.38,2.78,4.61,2.05,11.57-.5,16.96-.07.13-.05.1-.02.04-2.89,5.26-3.06,10.1-.81,13.12h-.01Z"/><path class="cls-1" d="M54.45,72.07c3.34-.83,5.36-4.21,4.53-7.55-.83-3.34-4.21-5.36-7.55-4.53-3.34.83-5.36,4.21-4.53,7.55s4.21,5.36,7.55,4.53Z"/><path class="cls-1" d="M65.47,59.81c-2.51.63-4.04,3.17-3.41,5.68.63,2.51,3.17,4.04,5.68,3.41,2.51-.63,4.04-3.17,3.41-5.68-.63-2.51-3.17-4.04-5.69-3.42h0Z"/><path class="cls-1" d="M75.42,54.9c-2.37.59-3.8,2.98-3.21,5.35s2.98,3.8,5.35,3.21,3.8-2.98,3.21-5.35-2.98-3.8-5.35-3.21Z"/><path class="cls-1" d="M79.29,51.58c.53,2.11,2.66,3.39,4.77,2.86,2.11-.53,3.39-2.66,2.86-4.77-.53-2.11-2.66-3.39-4.78-2.86-2.11.53-3.39,2.66-2.86,4.78h.01Z"/><path class="cls-1" d="M35.17,133.45c1.05-3.62-.82-8.09-5.37-12,.06.05.08.07-.03-.03-4.28-4.14-7.41-10.41-6.43-15.7.38-2.05.78-2.76,1.53-4.19.04-.08.27-.43.43-.68,1.83-2.43,3.01-5.13,2.65-8.25-.67-5.76-5.87-9.9-11.65-9.24-5.68.66-9.77,5.72-9.26,11.39.01.08.01.17.03.27.36,3.07.67,6.87.01,14.45-.36,4.12-1.03,8.62-2.92,14.06-.1.26-.2.52-.28.79-.17.45-.25.88-.26,1.28-.63,5.56,4.77,11.6,12.79,13.94,8.64,2.53,17.04-.2,18.76-6.09h-.01Z"/><path class="cls-1" d="M44.04,144.32c-.39-3.42-3.47-5.87-6.89-5.47-3.42.39-5.87,3.47-5.47,6.89.39,3.42,3.47,5.87,6.89,5.47,3.42-.39,5.87-3.47,5.47-6.89Z"/><path class="cls-1" d="M23.95,143.61c-2.57.3-4.42,2.62-4.12,5.2.3,2.56,2.62,4.41,5.19,4.11,2.56-.3,4.41-2.62,4.11-5.19-.3-2.56-2.62-4.41-5.19-4.11h0Z"/><path class="cls-1" d="M9.03,147.4c.28,2.42,2.46,4.16,4.89,3.88s4.16-2.46,3.88-4.89-2.46-4.16-4.89-3.88c-2.42.28-4.16,2.46-3.88,4.89Z"/><path class="cls-1" d="M8.13,140.77c-.25-2.17-2.2-3.71-4.36-3.47-2.17.25-3.71,2.2-3.47,4.36.24,2.16,2.2,3.7,4.36,3.46,2.16-.24,3.7-2.2,3.46-4.36h.01Z"/><path class="cls-1" d="M65.99,224.9c3.46,5.06,12.3,5.04,19.72-.06,6.89-4.73,10.15-12.15,7.81-17.23-.14-.38-.34-.76-.64-1.14-.16-.23-.34-.45-.51-.67-3.49-4.58-5.53-8.65-7.15-12.45-2.98-7-3.88-10.7-4.49-13.73-.01-.09-.04-.18-.06-.26-1.29-5.54-6.75-9.08-12.35-7.94-5.7,1.17-9.35,6.72-8.19,12.41.63,3.08,2.59,5.28,5.09,7.02.23.19.56.45.62.51,1.15,1.12,1.76,1.68,2.76,3.51,2.58,4.72,1.55,11.65-1.22,16.92-.07.13-.06.1-.02.04-3.11,5.13-3.49,9.96-1.36,13.07h-.01Z"/><path class="cls-1" d="M68.3,242.83c3.37-.69,5.54-3.98,4.84-7.35-.69-3.37-3.98-5.54-7.35-4.84-3.37.69-5.54,3.98-4.84,7.35s3.98,5.54,7.35,4.84Z"/><path class="cls-1" d="M79.84,231.06c-2.54.52-4.17,3-3.65,5.53.52,2.54,3,4.17,5.53,3.65,2.54-.52,4.17-3,3.65-5.53-.52-2.54-3-4.17-5.54-3.65h0Z"/><path class="cls-1" d="M89.98,226.57c-2.39.49-3.92,2.82-3.43,5.21s2.82,3.92,5.21,3.43,3.92-2.82,3.43-5.21-2.82-3.92-5.21-3.43Z"/><path class="cls-1" d="M93.99,223.42c.44,2.13,2.52,3.5,4.64,3.06,2.13-.44,3.5-2.52,3.06-4.64-.44-2.13-2.52-3.5-4.65-3.06-2.13.44-3.5,2.52-3.06,4.65h.01Z"/><path class="cls-1" d="M54.58,302.15c.64-3.71-1.71-7.94-6.67-11.32.06.04.09.06-.03-.03-4.72-3.64-8.52-9.52-8.14-14.88.15-2.08.47-2.83,1.05-4.34.03-.08.22-.45.35-.73,1.55-2.62,2.42-5.43,1.72-8.5-1.3-5.65-6.94-9.19-12.61-7.88-5.57,1.28-9.07,6.77-7.94,12.35.02.08.03.17.06.26.7,3.01,1.43,6.76,1.62,14.36.11,4.13-.06,8.69-1.33,14.3-.07.27-.14.54-.19.82-.12.47-.15.9-.11,1.3,0,5.59,6.03,11,14.27,12.43,8.87,1.55,16.92-2.1,17.96-8.14h-.01Z"/><path class="cls-1" d="M64.61,311.97c-.77-3.35-4.11-5.44-7.46-4.67-3.35.77-5.44,4.11-4.67,7.46.77,3.35,4.11,5.44,7.46,4.67,3.35-.77,5.44-4.11,4.67-7.46Z"/><path class="cls-1" d="M44.57,313.5c-2.52.59-4.1,3.1-3.52,5.62.58,2.51,3.09,4.09,5.62,3.51,2.51-.58,4.09-3.09,3.51-5.62-.58-2.51-3.09-4.09-5.62-3.51h0Z"/><path class="cls-1" d="M30.16,318.92c.55,2.38,2.91,3.86,5.29,3.31s3.86-2.91,3.31-5.29-2.91-3.86-5.29-3.31c-2.38.55-3.86,2.91-3.31,5.29Z"/><path class="cls-1" d="M28.53,312.44c-.49-2.13-2.6-3.44-4.72-2.96-2.13.49-3.44,2.6-2.96,4.72.48,2.12,2.6,3.43,4.71,2.95,2.12-.48,3.43-2.6,2.95-4.71h.01Z"/></svg>