<?xml version="1.0" encoding="UTF-8"?><svg id="Layer_1" xmlns="http://www.w3.org/2000/svg" width="18mm" height="20mm" viewBox="0 0 51.02 73.7"><defs><style>.cls-1{fill:#629d97;}</style></defs><path class="cls-1" d="M14.82,54.91c4.28,4.39,12.98,2.85,19.42-3.44,5.98-5.84,7.91-13.71,4.74-18.32-.2-.35-.47-.69-.83-1.01-.2-.2-.41-.39-.62-.57-4.22-3.91-6.93-7.57-9.18-11.04-4.14-6.38-5.66-9.88-6.78-12.76-.03-.09-.07-.17-.1-.25C19.25,2.28,13.26-.27,7.94,1.82,2.53,3.95-.12,10.05,2,15.45c1.15,2.93,3.46,4.76,6.22,6.04.26.15.63.35.7.4,1.33.91,2.02,1.35,3.32,2.98,3.35,4.21,3.53,11.21,1.7,16.88-.05.14-.04.11-.01.04-2.18,5.59-1.73,10.41.9,13.11Z"/><path class="cls-1" d="M20.18,72.18c3.2-1.26,4.77-4.87,3.51-8.07-1.26-3.2-4.87-4.77-8.07-3.51-3.2,1.26-4.77,4.87-3.51,8.07,1.26,3.2,4.87,4.77,8.07,3.51Z"/><path class="cls-1" d="M29.52,58.6c-2.41.95-3.59,3.67-2.65,6.07.95,2.41,3.67,3.59,6.07,2.65,2.41-.95,3.59-3.67,2.65-6.07-.95-2.41-3.67-3.59-6.08-2.65Z"/><path class="cls-1" d="M38.74,52.44c-2.27.89-3.38,3.45-2.49,5.72.89,2.27,3.45,3.38,5.72,2.49,2.27-.89,3.38-3.45,2.49-5.72-.89-2.27-3.45-3.38-5.72-2.49Z"/><path class="cls-1" d="M42.15,48.65c.8,2.02,3.08,3.02,5.1,2.22,2.02-.8,3.02-3.08,2.22-5.1-.8-2.02-3.08-3.02-5.11-2.22-2.02.8-3.02,3.08-2.22,5.11Z"/></svg>