<?xml version="1.0" encoding="UTF-8"?><svg id="Layer_1" xmlns="http://www.w3.org/2000/svg" width="16mm" height="25mm" viewBox="0 0 45.35 70.87"><defs><style>.cls-1{fill:#629d97;}</style></defs><path class="cls-1" d="M36.82,52.47c1.52-3.45.25-8.12-3.75-12.6.05.06.07.08-.02-.03-3.7-4.67-5.98-11.29-4.32-16.41.65-1.98,1.14-2.64,2.07-3.95.05-.07.32-.39.52-.62,2.14-2.17,3.66-4.69,3.71-7.84.1-5.8-4.52-10.59-10.34-10.69-5.72-.1-10.43,4.39-10.68,10.08,0,.09,0,.17,0,.27-.04,3.09-.24,6.9-1.88,14.33-.89,4.04-2.15,8.42-4.74,13.55-.13.24-.26.49-.38.75-.23.43-.36.84-.42,1.24-1.36,5.43,3.21,12.12,10.85,15.5,8.23,3.64,16.92,2.04,19.4-3.58h-.01Z"/><path class="cls-1" d="M44.18,64.42c.06-3.44-2.67-6.27-6.11-6.33-3.44-.06-6.27,2.67-6.33,6.11-.06,3.44,2.67,6.27,6.11,6.33,3.44.06,6.27-2.67,6.33-6.11Z"/><path class="cls-1" d="M24.36,61.08c-2.59-.04-4.72,2.02-4.77,4.61-.04,2.58,2.02,4.71,4.61,4.76,2.58.04,4.71-2.02,4.76-4.61.04-2.58-2.02-4.71-4.61-4.76h0Z"/><path class="cls-1" d="M9.07,62.87c-.04,2.44,1.9,4.45,4.33,4.49,2.44.04,4.45-1.9,4.49-4.33s-1.9-4.45-4.33-4.49-4.45,1.9-4.49,4.33Z"/><path class="cls-1" d="M9.05,56.18c.04-2.18-1.7-3.97-3.87-4.01-2.18-.04-3.97,1.7-4.01,3.87-.04,2.17,1.69,3.96,3.86,4,2.17.04,3.96-1.69,4-3.86h.01Z"/></svg>