<?xml version="1.0" encoding="UTF-8"?><svg id="Layer_1" xmlns="http://www.w3.org/2000/svg" width="56mm" height="56mm" viewBox="0 0 158.74 158.74"><path d="M21.37.45c21.44,0,42.87,0,64.31,0,.34.38.67.77,1.03,1.13,12.94,12.94,25.89,25.88,38.8,38.86.57.57.91,1.55.99,2.37.15,1.56.04,3.14.04,4.85,2.71,0,5.21-.03,7.71,0,5.1.06,8,2.99,8.01,8.05,0,4.61,0,9.23,0,13.84v1.72c2.93,0,5.64-.02,8.35,0,5.38.04,8.66,4.8,6.82,9.86-8.74,23.97-17.47,47.93-26.22,71.9-1.25,3.44-3.41,4.93-7.09,4.94-11.07,0-22.15,0-33.22,0-27.64,0-55.27.02-82.91-.05-1.55,0-3.35-.4-4.59-1.26-1.28-.89-2-2.57-2.97-3.91,0-39.28,0-78.56,0-117.84.11-.16.25-.31.31-.49,1.24-3.34,3.53-5.02,7.06-5.07,3.07-.04,6.14-.01,9.21-.01,1.41,0,2.83,0,4.33,0V.45ZM92.45,76.65c-19.13,0-38.25.02-57.38-.03-1.65,0-2.43.53-3,2.1-5.66,15.68-11.4,31.32-17.11,46.98-2.98,8.16-5.96,16.33-8.94,24.49-.58,1.61-.03,2.44,1.66,2.54.31.02.62,0,.92,0,38.25,0,76.5,0,114.75.03,1.69,0,2.56-.51,3.16-2.15,8.53-23.55,17.12-47.09,25.7-70.62.89-2.46.3-3.34-2.24-3.34-19.18,0-38.35,0-57.53,0ZM26.82,77.02c1.6-5.23,5.61-5.8,10.25-5.79,27.33.08,54.66.04,81.99.04h1.99v-26.22h-39.31V5.8H26.82v71.22ZM21.4,34.59c-4.3,0-8.35,0-12.39,0-2.81,0-3.32.5-3.32,3.29,0,31.72,0,63.45,0,95.17,0,.47,0,.95,0,1.42.38-.3.53-.61.65-.93,4.92-13.38,9.84-26.76,14.72-40.15.25-.7.33-1.49.33-2.25.02-18.24.01-36.49.01-54.73v-1.82ZM87.27,10.02v29.72h29.69c-9.88-9.89-19.78-19.8-29.69-29.72ZM126.64,53.03v18.15h10.28c0-5.51.03-10.92-.02-16.33,0-1.1-.7-1.81-1.88-1.82-2.76-.02-5.51,0-8.38,0Z"/><path d="M73.82,63.5c-10.09,0-20.18,0-30.28,0-.66,0-1.35-.03-1.96-.24-1.26-.44-1.88-1.41-1.7-2.75.17-1.25.91-2.04,2.19-2.21.61-.08,1.22-.09,1.84-.09,20.03,0,40.06,0,60.09,0,.56,0,1.13,0,1.69.07,1.42.17,2.43,1.21,2.4,2.52-.03,1.4-.8,2.3-2.16,2.61-.54.12-1.12.1-1.68.1-10.14,0-20.29,0-30.43,0Z"/><path d="M55.51,45.07c-4.2,0-8.39.01-12.59,0-1.94,0-3.09-1.03-3.07-2.64.02-1.55,1.17-2.58,2.99-2.58,8.49-.01,16.99-.02,25.48,0,2.23,0,3.58,1.77,2.8,3.62-.52,1.24-1.56,1.63-2.87,1.62-4.25-.03-8.49-.01-12.74-.01Z"/><path d="M55.51,26.74c-3.94,0-7.88,0-11.82,0-.61,0-1.24-.02-1.83-.15-1.18-.25-1.86-1.04-1.99-2.23-.14-1.27.45-2.2,1.62-2.66.51-.2,1.09-.27,1.65-.27,8.29-.02,16.58-.02,24.87,0,.5,0,1.03.07,1.5.22,1.3.41,1.87,1.38,1.75,2.7-.11,1.27-.83,2.07-2.1,2.27-.6.1-1.22.12-1.83.12-3.94.01-7.88,0-11.82,0Z"/></svg>