<?xml version="1.0" encoding="UTF-8"?><svg id="Layer_1" xmlns="http://www.w3.org/2000/svg" width="180.81mm" height="121mm" xmlns:xlink="http://www.w3.org/1999/xlink" viewBox="0 0 512.54 342.99"><defs><style>.cls-1{fill:#deeefa;}.cls-2{fill:none;}.cls-3{fill:#0d3c2f;}.cls-4{fill:#629d97;}.cls-5{fill:#181718;}.cls-6{fill:#012b27;}.cls-7{fill:#feda00;}.cls-8{clip-path:url(#clippath);}</style><clipPath id="clippath"><rect class="cls-2" x="0" y="-186.3" width="512.54" height="715.59"/></clipPath></defs><g class="cls-8"><path class="cls-6" d="M363.56,392.45c95.85,0,173.56-34.42,173.56-76.87s-77.7-76.87-173.56-76.87-173.56,34.42-173.56,76.87,77.7,76.87,173.56,76.87Z"/><path class="cls-4" d="M125.08,383.01c82.65,0,149.66-27.8,149.66-62.08s-67-62.08-149.66-62.08-149.66,27.8-149.66,62.08,67,62.08,149.66,62.08Z"/><path class="cls-1" d="M132.12,243.42l1.09-.16c.44-.06.85-.25,1.19-.53,1.48-1.2,5.53-4.33,3.62-.85-3.47,6.3-14.72,5.22-14.72,5.22l1.25-3.68s4.11-2.37,10.65-1.68c.12.01.17.17.07.24-.17.12-.41.33-.74.65-.78.76-2.41.79-2.41.79h0Z"/><path class="cls-5" d="M125.12,247.26c-1.09,0-1.79-.06-1.82-.06h-.1s1.3-3.82,1.3-3.82l.03-.02s4.21-2.38,10.7-1.69c.09,0,.16.07.19.16,0,0,0,.01,0,.02,1.35-1.02,2.7-1.88,3.09-1.56.24.2.11.72-.4,1.64-2.6,4.73-9.63,5.33-12.98,5.33h0ZM123.42,247.03c1.15.09,11.31.67,14.53-5.18.61-1.12.51-1.37.44-1.44-.3-.25-1.75.63-3.8,2.29-.13.13-.28.24-.45.33-.21.12-.43.21-.66.27-.67.2-1.31.21-1.35.21v-.17s1.08-.16,1.08-.16c.06,0,.13-.02.19-.03.24-.07.47-.15.69-.28.1-.06.19-.12.28-.2.04-.03.08-.06.12-.1.29-.28.54-.5.75-.66.02-.02.02-.04.02-.05,0,0-.01-.03-.04-.04-6.16-.65-10.2,1.46-10.57,1.65l-1.21,3.55Z"/><path class="cls-1" d="M136.02,315.6l-10.58-.88,1.08-4.48c1.08-4.48-.04-9.64.72-9.42.77.22,7.69-.26,7.69-.26,0,0-1.62,8.54-1.75,10.92-.14,2.38,2.84,4.12,2.84,4.12h0Z"/><path class="cls-5" d="M136.38,315.71l-11.04-.91,1.11-4.58c.6-2.5.52-5.25.46-7.08-.05-1.48-.06-2.2.17-2.38.06-.04.13-.05.2-.03.75.21,7.59-.26,7.66-.26h.11s-.02.1-.02.1c-.02.08-1.62,8.56-1.75,10.91-.13,2.3,2.77,4.03,2.79,4.04l.32.19h0ZM125.54,314.64l10.14.84c-.76-.51-2.7-2.03-2.59-4.01.12-2.21,1.55-9.83,1.73-10.82-.92.06-6.88.45-7.61.25-.03,0-.04,0-.05,0-.17.13-.14,1.11-.11,2.24.06,1.83.15,4.6-.46,7.12l-1.06,4.39h0Z"/><path class="cls-1" d="M94.45,177.96s1.11,2.09,1.19,3.4c.08,1.31.39,3.67.89,4.52.39.66,1.73,2.22,2.31,2.89.13.15.07.39-.12.46l-1.93.67s.19,4.33,0,4.87c-.19.54-.34,1.38-2,1.62-1.66.24-7.25-.88-7.25-.88l-1.42,3.2-6.66-2.01-.54-3.32,4.33-8.73,11.19-6.69h0Z"/><path class="cls-5" d="M86.17,198.8l-6.78-2.05-.55-3.4v-.02s4.36-8.75,4.36-8.75h.02s11.27-6.75,11.27-6.75l.04.08c.05.08,1.12,2.12,1.2,3.44.07,1.29.38,3.64.88,4.48.39.65,1.74,2.23,2.31,2.87.08.09.11.22.08.34-.03.12-.12.22-.24.26l-1.88.65c.02.56.18,4.32,0,4.83l-.04.12c-.17.53-.44,1.33-2.04,1.56-1.58.23-6.54-.73-7.21-.86l-1.42,3.2ZM79.54,196.63l6.53,1.97,1.42-3.19h.07c.06.02,5.58,1.12,7.22.89,1.5-.21,1.73-.92,1.9-1.44l.04-.12c.14-.41.05-3.35-.01-4.83v-.06l1.99-.69c.06-.02.11-.07.13-.14.02-.06,0-.13-.04-.18-.57-.65-1.93-2.23-2.32-2.9-.51-.87-.82-3.25-.9-4.56-.07-1.14-.94-2.9-1.14-3.29l-11.09,6.63-4.31,8.68.53,3.24Z"/><path class="cls-1" d="M122.37,301.92l12.81,1c.4.03.76-.23.85-.62.94-4.15,5.93-26.1,7.26-30.79.01-.04.02-.07.02-.11.59-4.34.08-8.92-1.87-11.68-1.96-2.78-4.13-4.53-7.33-5.15-2.45-.47-6.29-.22-7.95-.08-.45.04-.78.44-.73.89l2.17,19.96c.01.09,0,.18-.02.27l-5.94,25.32c-.11.48.23.95.72.99h0Z"/><path class="cls-5" d="M135.25,303.01h-.07l-12.81-1c-.26-.02-.5-.15-.65-.36-.16-.21-.21-.47-.15-.73l5.94-25.32c.02-.08.02-.16.01-.24l-2.17-19.96c-.03-.24.04-.48.2-.66.15-.19.37-.3.61-.32,1.57-.13,5.5-.4,7.98.08,2.98.58,5.26,2.18,7.38,5.19,1.83,2.59,2.53,6.98,1.88,11.74,0,.04-.01.08-.03.13-1.33,4.68-6.28,26.46-7.26,30.78-.09.41-.45.69-.87.69h0ZM122.38,301.83l12.81,1c.36.02.68-.21.76-.56.98-4.32,5.93-26.11,7.26-30.79.01-.03.02-.07.02-.1.65-4.72-.04-9.06-1.85-11.62-2.12-3.01-4.3-4.54-7.27-5.12-2.46-.48-6.36-.21-7.93-.08-.2.02-.37.11-.5.26-.13.15-.18.34-.16.54l2.17,19.96c.01.1,0,.2-.02.3l-5.94,25.32c-.05.21,0,.42.12.59.13.17.32.28.53.29h0Z"/><path class="cls-1" d="M52.87,264.61l31.69-15.1,31.68,6.18,9.72,15.24c-23.05,10.75-69.64,27.21-73.09-6.31h0Z"/><path class="cls-5" d="M77.33,284.67c-5.55,0-10.64-.94-14.74-3.26-5.69-3.22-8.99-8.87-9.81-16.78v-.06s.05-.03.05-.03l31.71-15.11h.03s31.72,6.19,31.72,6.19l.02.03,9.77,15.32-.09.04c-10.18,4.74-31.57,13.66-48.66,13.66ZM52.95,264.66c.82,7.82,4.09,13.41,9.72,16.59,16.66,9.43,49.65-4.07,63.16-10.36l-9.65-15.12-31.62-6.17-31.61,15.06Z"/><path class="cls-1" d="M137.1,284.28l11.2,11.9s0-1.6,3.92-1.49c3.92.1,4.8.68,6.4.62,1.6-.06,6.66-.52,6.66-.52l-13.47-5.41-7.22-10.2-7.48,5.1h0Z"/><path class="cls-5" d="M148.38,296.39l-.14-.15-11.26-11.97.08-.05,7.55-5.15,7.26,10.25,13.77,5.53-.35.03c-.05,0-5.08.45-6.66.52-.71.03-1.28-.07-2-.19-.92-.15-2.19-.37-4.4-.42-2.15-.06-3.09.4-3.5.79-.33.32-.34.6-.34.62v.21h0ZM137.23,284.29l11.01,11.71c.04-.14.14-.34.35-.55.43-.42,1.42-.91,3.63-.85,2.22.06,3.5.27,4.42.43.72.12,1.28.22,1.97.19,1.33-.05,5.13-.38,6.3-.48l-13.16-5.29v-.02s-7.19-10.13-7.19-10.13l-7.33,5h0Z"/><path class="cls-1" d="M134.86,286.4l11.78-5.4c.5-.23.65-.86.31-1.28l-25.64-32.54c-.25-.32-.69-.41-1.05-.23l-11.12,5.79c-.45.24-.59.81-.3,1.23l13.15,18.85s.04.05.06.08l11.83,13.3c.25.28.64.36.98.21h0Z"/><path class="cls-5" d="M134.51,286.56c-.26,0-.51-.11-.69-.31l-11.83-13.3s-.05-.06-.07-.08l-13.15-18.85c-.15-.22-.2-.49-.14-.75.06-.26.24-.48.47-.6l11.12-5.79c.39-.21.88-.1,1.16.25l25.64,32.54c.18.23.24.51.17.79-.07.28-.25.51-.51.62l-11.78,5.4c-.13.06-.26.08-.39.08h0ZM120.65,246.93c-.12,0-.24.03-.35.08l-11.12,5.79c-.19.1-.33.28-.38.49-.05.21-.01.43.11.61l13.15,18.85s.04.05.05.07l11.83,13.3c.22.25.58.32.88.19l11.78-5.4c.21-.1.36-.28.42-.51.05-.23,0-.46-.14-.65l-25.64-32.54c-.15-.19-.37-.29-.6-.29h0Z"/><path class="cls-5" d="M94.23,177.59c.59,1.3-.28,2.41-.36,4.42-.45,2.65-10.78,6.35-10.8,6.58-.06.63-.44,4.33-1.11,5.32-.82.9-1.79,2.35-3.02,2.41-2.49-.45-6.36-.42-8.7-1.02-1.97-.89-4.26-2.12-4.26-4.75.16-1.97.81-3.24,1.7-3.9,1.92-1.12,3.25-1.29,4.76-2.86.62-.58-.11-3.21.58-5.8.62-2.32,4.25-4.03,4.98-4.35.05-.07,7.34-1.32,7.42-1.28,4.47.39,5.61,1.09,8.82,5.23h0Z"/><path class="cls-5" d="M78.93,196.41c-1.11-.2-2.45-.3-3.86-.41-1.75-.13-3.55-.27-4.86-.61-2.25-1.01-4.32-2.29-4.32-4.83.15-1.87.75-3.24,1.74-3.97.66-.38,1.24-.65,1.79-.91,1.06-.49,1.97-.91,2.96-1.94.27-.26.26-1,.24-1.95-.02-1.09-.05-2.45.32-3.8.63-2.36,4.3-4.08,5.03-4.4h0c.55-.19,6.99-1.23,7.46-1.28h0c4.47.38,5.63,1.07,8.88,5.26v.02c.37.81.19,1.55-.01,2.42-.14.58-.3,1.24-.33,2.04-.36,2.1-6.5,4.73-9.44,6-.67.29-1.25.54-1.36.62-.07.77-.46,4.34-1.12,5.33-.16.17-.31.35-.46.54-.74.88-1.58,1.87-2.63,1.91h0ZM78.04,173.72h-.01c-.72.32-4.32,2.01-4.93,4.3-.36,1.34-.33,2.68-.31,3.76.02,1.03.03,1.77-.29,2.08-1,1.05-1.93,1.48-3.01,1.97-.55.26-1.12.52-1.77.9-.94.69-1.52,2.02-1.66,3.83,0,2.56,2.17,3.75,4.21,4.67,1.29.33,3.09.47,4.82.6,1.42.11,2.76.21,3.86.41.96-.04,1.77-1.01,2.49-1.85.16-.19.31-.37.46-.53.64-.95,1.02-4.56,1.09-5.27.01-.09.07-.13,1.46-.72,2.69-1.16,9-3.87,9.35-5.86.03-.8.19-1.47.33-2.06.21-.87.37-1.56.04-2.3-3.2-4.12-4.35-4.8-8.75-5.19h0c-.32.01-7.04,1.17-7.37,1.27h0Z"/><path class="cls-1" d="M74.86,199.94s1.51-3.49,3.37-4.09c1.55-.5,2.86-.42,4.68.08,1.82.5,5.96,4.44,5.96,4.44l-14.01-.42Z"/><path class="cls-5" d="M89.09,200.46l-14.35-.43.05-.11c.06-.14,1.54-3.53,3.42-4.14,1.5-.49,2.77-.46,4.73.08,1.82.5,5.83,4.3,5.99,4.46l.16.15h0ZM74.99,199.86l13.66.41c-.78-.73-4.19-3.83-5.76-4.27-1.92-.53-3.18-.55-4.63-.08-1.62.53-2.99,3.33-3.26,3.94h0Z"/><path class="cls-1" d="M122.51,242.83h3.13s-.12,5.51-4.3,6.22c-4.18.71,1.17-6.22,1.17-6.22Z"/><path class="cls-5" d="M120.8,249.18c-.49,0-.82-.15-1-.44-.85-1.41,2.5-5.78,2.64-5.97l.03-.03h3.26v.09c0,.06-.17,5.59-4.37,6.3-.2.03-.39.05-.56.05h0ZM122.56,242.91c-.31.41-3.36,4.49-2.61,5.74.2.33.66.43,1.38.31,3.78-.64,4.19-5.35,4.23-6.05h-3Z"/><path class="cls-7" d="M52.63,264.61c.62,2.41,31.8-14.37,31.81-14.37,0,0,3.17,7.38,10.91,7.18,7.75-.19,25.77-7.18,25.77-7.18l1.58-8.17-23.01-1.08c.48-5.18,5.59-23.78,4.49-28.98-.61-2.89-1.66-10.2-10.45-11.36-8.79-1.16-22.36-1.82-23.44-1.16-1.16,1.18-2.89,1.5-4.95,6.55-8.67,18.34-13.33,56.17-12.7,58.58Z"/><path class="cls-5" d="M53.13,264.93c-.15,0-.27-.02-.36-.06-.11-.05-.19-.13-.22-.24-.31-1.21.66-11.15,2.86-23.35,1.57-8.72,4.94-24.91,9.84-35.28,1.61-3.94,3-5,4.11-5.86.31-.24.6-.46.85-.72,1.12-.69,14.74-.02,23.51,1.14,8.41,1.11,9.77,7.77,10.43,10.96.03.16.06.32.09.46.72,3.41-1.21,12.55-2.77,19.9-.82,3.86-1.53,7.21-1.71,9.02.61.03,4.26.2,8.49.4l13.1.62c.95.04,1.42.09,1.42.15l-1.59,8.23-.04.02c-.16.07-18.02,7-25.8,7.19-.1,0-.2,0-.3,0-7.13,0-10.26-6.31-10.65-7.16-1.95,1.04-27.21,14.57-31.27,14.57h0ZM52.71,264.59c.01.06.05.09.12.12,1.97.86,21.51-9.14,31.57-14.55l.08-.04.04.08c.13.3,3.17,7.14,10.53,7.14.1,0,.2,0,.3,0,7.56-.19,24.71-6.78,25.7-7.16l1.55-8.03c-.93-.04-8.32-.39-14.34-.68l-7.88-.37c-.51-.02-.77-.06-.77-.12.17-1.81.88-5.2,1.72-9.13,1.55-7.33,3.49-16.45,2.77-19.83-.03-.14-.06-.3-.09-.46-.64-3.16-1.98-9.74-10.28-10.83-8.55-1.13-22.32-1.82-23.39-1.17-.25.26-.54.48-.85.72-1.1.84-2.47,1.89-4.06,5.79-4.9,10.36-8.26,26.53-9.83,35.24-2.12,11.76-3.18,22.06-2.87,23.28h0Z"/><path class="cls-1" d="M100.28,237.27s5.65-.27,8.18,2.3,2.17,6.59,2.17,6.59l-.67,1.91s-.31.67-1.44.98c-1.13.31-3.72-4.48-3.72-4.48l-1.44-2.83-3.77-.16.7-4.31h0Z"/><path class="cls-5" d="M108.41,249.15c-1.2,0-3.43-4.06-3.68-4.54l-1.42-2.79-3.81-.15.72-4.47h.07c.06,0,5.72-.25,8.24,2.32s2.19,6.62,2.19,6.66l-.67,1.93s-.34.72-1.5,1.03c-.04.01-.08.02-.13.02h0ZM99.69,241.5l3.72.15,1.47,2.88c.71,1.31,2.74,4.68,3.62,4.44,1.08-.29,1.39-.93,1.39-.93l.67-1.9s.32-3.99-2.15-6.51c-2.32-2.37-7.4-2.3-8.05-2.28l-.67,4.15h0Z"/><path class="cls-1" d="M78.02,173.6s.13-2.47,2.92-2.86c2.79-.39,3.87-.12,4.76.3.89.42,2.24,3.17,2.59,3.75.35.58,1.43,2.47,1.59,4.4.16,1.93,0,4.33,0,4.33h-4.6s.54-4.52,0-6.03c-.54-1.51-.97-2.78-2.01-3.98-1.04-1.2-1.43-1.09-2.25-.87-.75.2-1.29.67-1.29.67l-1.69.28h0Z"/><path class="cls-5" d="M89.95,183.61h-4.78v-.09s.54-4.52.01-5.99l-.08-.22c-.5-1.4-.93-2.61-1.92-3.74-1.01-1.15-1.34-1.06-2.15-.85-.74.19-1.27.66-1.27.66l-.02.02-1.82.3v-.1s.17-2.55,2.99-2.94c2.68-.37,3.83-.16,4.81.31.76.36,1.8,2.26,2.35,3.29.12.22.21.39.28.5.54.89,1.45,2.65,1.6,4.44.16,1.91,0,4.32,0,4.34v.08h0ZM85.36,183.44h4.43c.02-.43.13-2.53,0-4.24-.14-1.75-1.05-3.49-1.58-4.37-.06-.1-.16-.28-.28-.5-.51-.93-1.57-2.88-2.28-3.21-.95-.45-2.07-.66-4.71-.3-2.39.33-2.77,2.2-2.83,2.68l1.56-.26c.1-.09.61-.5,1.31-.68.84-.22,1.26-.33,2.34.9,1.01,1.15,1.44,2.38,1.95,3.79l.08.22c.51,1.4.09,5.3.01,5.97h0Z"/><path class="cls-1" d="M87.65,189.9c2.43,0,4.39-1.91,4.39-4.27s-1.97-4.27-4.39-4.27-4.39,1.91-4.39,4.27,1.97,4.27,4.39,4.27Z"/><path class="cls-5" d="M87.65,189.98c-2.47,0-4.48-1.95-4.48-4.35s2.01-4.35,4.48-4.35,4.48,1.95,4.48,4.35-2.01,4.35-4.48,4.35ZM87.65,181.44c-2.38,0-4.31,1.88-4.31,4.18s1.93,4.18,4.31,4.18,4.31-1.88,4.31-4.18-1.93-4.18-4.31-4.18Z"/><path class="cls-5" d="M162.97,293.9c.77-.24,1.54-.06,2.3.1,1.53.19,3.05.46,4.57.72,1.09.09,1.79,1.02.8,1.86-.39.32-.89.56-1.36.8-2.74,1.39-5.78,1.69-8.84,1.44-1.68-.12-3.35-.29-5.03-.38-1.46-.09-2.97-.05-4.41-.33-1.55-.3-3.04-.98-3.93-2.36-.81-1.46,3.69-1.93,4.52-1.93,3.75-.13,7.61,1.4,11.3.09l.06-.02h0Z"/><path class="cls-5" d="M162.36,298.98c-.62,0-1.26-.03-1.92-.08-.7-.05-1.4-.11-2.11-.17-.96-.08-1.95-.16-2.92-.22-.43-.03-.87-.04-1.3-.06-1.03-.04-2.1-.08-3.12-.27-1.85-.36-3.19-1.16-3.99-2.39-.15-.26-.15-.5-.01-.72.58-.99,3.82-1.34,4.61-1.34,1.38-.05,2.8.13,4.18.31,2.35.3,4.78.61,7.1-.21l.07-.02c.76-.24,1.52-.07,2.25.08l.09.02c1.34.17,2.69.4,4.01.62l.56.1c.63.05,1.15.39,1.3.84.12.39-.04.81-.46,1.16-.37.3-.82.53-1.25.75l-.12.06c-2.02,1.03-4.31,1.53-6.97,1.53h0ZM151.61,293.9c-.66,0-3.92.33-4.47,1.25-.1.17-.1.35.01.55.77,1.18,2.07,1.96,3.87,2.31,1,.19,2.07.23,3.09.27.43.02.87.03,1.3.06.98.06,1.97.14,2.93.22.7.06,1.4.11,2.1.17,3.46.29,6.34-.18,8.8-1.43l.12-.06c.43-.22.87-.45,1.23-.73.37-.31.51-.66.41-.98-.12-.39-.59-.68-1.16-.72l-.57-.1c-1.31-.22-2.67-.45-4.01-.62l-.09-.02c-.72-.15-1.46-.31-2.17-.09h0l-.06.02c-2.35.83-4.8.52-7.17.22-1.37-.18-2.78-.35-4.15-.31h0Z"/><path class="cls-5" d="M125.35,314.29c.26-.12.61-.13.97-.12.99.07,1.91.5,2.95.53,1.86.13,3.7-.2,5.55.07,1.19.17,4.67.93,8.29,2.59,1.23.56,1.34,1.98-.36,1.83-5.63-.49-11.31-.59-16.92-1.26-1.34-.28-1.37-1.79-1.04-2.95.1-.29.25-.53.5-.66l.04-.02h0Z"/><path class="cls-5" d="M142.99,319.27c-.07,0-.16,0-.24-.01-2.29-.2-4.63-.34-6.9-.47-3.29-.19-6.7-.39-10.02-.79-.45-.09-.79-.33-1.01-.69-.48-.79-.23-1.92-.1-2.36.11-.35.29-.58.54-.71l.05-.02c.3-.14.7-.14,1.01-.13.48.03.94.15,1.39.26.5.12,1.02.26,1.56.27.81.06,1.63.03,2.42,0,1.03-.04,2.09-.08,3.14.07,1.33.19,4.77.98,8.32,2.59.68.31,1.08.9.94,1.39-.1.39-.51.61-1.11.61h0ZM125.39,314.37l-.04.02c-.21.11-.36.31-.46.62-.25.88-.22,1.71.08,2.23.19.32.49.53.89.61,3.31.4,6.71.6,10.01.79,2.26.13,4.61.27,6.9.47.64.06,1.07-.12,1.16-.47.09-.35-.18-.89-.85-1.2-3.53-1.61-6.95-2.39-8.27-2.58-1.04-.15-2.09-.11-3.11-.07-.79.03-1.62.06-2.43,0-.56-.01-1.08-.15-1.59-.27-.46-.11-.89-.22-1.35-.25-.29-.01-.66,0-.93.11h0Z"/><path class="cls-1" d="M179.72,233.36c1.58.08,3.15.2,4.7.3.38.02.7.3.77.67.29,1.44,0,1.59-1.63,1.48-9.42-.61-18.84-1.26-28.26-1.88-7.63-.5-15.26-.97-22.88-1.46-7.07-.45-14.13-.88-21.2-1.4-.44-.03-1.09-.67-1.19-1.13-.19-.85.42-1.09,1.26-1.03,4.99.33,9.98.64,14.97.9.6.03,1.22-.25,1.83-.4.75-.19,1.49-.47,2.25-.57,3.34-.4,6.71-.68,10.04-1.15,2.71-.38,4.27-2.34,4.34-5.19-3.74-.26-7.49-.51-11.23-.76-4.88-.33-9.75-.64-14.63-.99-1.69-.12-2.03-.62-1.64-2.3,2.41-10.32,4.84-20.63,7.26-30.94.09-.38.19-.76.27-1.15.41-2.16.87-2.43,3.1-2.28,6.11.41,12.23.74,18.34,1.13,10.15.65,20.3,1.33,30.45,1.99,1.56.1,1.84,1.06,1.56,2.35-.9,4.16-1.83,8.32-2.73,12.48-1.36,6.3-2.74,12.59-4.04,18.91-.64,3.14-.86,3.31-4.14,3.06-5.93-.45-11.87-.83-17.79-1.23-1.45,8,8.2,5.68,12.28,9.1l17.95,1.49h0Z"/><path class="cls-5" d="M184.23,235.93c-.2,0-.42,0-.68-.03-5.1-.33-10.28-.68-15.3-1.02-4.32-.29-8.64-.58-12.97-.87-5.11-.34-10.31-.66-15.34-.98-2.51-.16-5.03-.32-7.54-.48l-3.61-.23c-5.76-.36-11.73-.74-17.58-1.17-.5-.04-1.16-.73-1.26-1.2-.08-.35-.03-.62.13-.82.22-.25.62-.36,1.21-.32,5.46.36,10.36.66,14.97.9.41.02.84-.11,1.26-.24.18-.06.36-.11.54-.16.26-.06.51-.14.77-.22.49-.15.99-.29,1.5-.36,1.35-.17,2.73-.31,4.06-.45,1.96-.21,3.99-.42,5.98-.7,2.58-.36,4.17-2.24,4.26-5.03l-3.46-.24c-2.56-.18-5.13-.35-7.69-.53-1.53-.1-3.06-.21-4.59-.31-3.29-.22-6.7-.44-10.04-.69-.9-.07-1.39-.24-1.65-.59-.26-.36-.28-.89-.06-1.82,1.8-7.7,3.64-15.53,5.42-23.1l1.84-7.84c.03-.12.06-.25.09-.37.06-.25.13-.52.18-.77.42-2.17.86-2.5,3.19-2.35,3.4.23,6.85.43,10.19.63,2.67.16,5.44.32,8.15.5,6.59.42,13.29.87,19.77,1.29,3.56.24,7.12.47,10.68.7.68.04,1.16.25,1.44.62.31.41.37,1.01.2,1.83-.45,2.07-.9,4.14-1.36,6.21-.46,2.09-.92,4.18-1.37,6.27-.26,1.21-.52,2.42-.79,3.63-1.08,5-2.2,10.18-3.25,15.28-.65,3.17-.93,3.38-4.24,3.12-4.19-.32-8.45-.6-12.57-.88-1.72-.11-3.43-.23-5.15-.35-.87,5.03,2.74,5.86,6.56,6.75,2.08.48,4.23.98,5.68,2.19l17.92,1.49c1.24.07,2.5.15,3.72.23l.99.06c.42.03.77.33.85.74.13.64.16,1.09-.06,1.34-.17.2-.48.27-.98.27h0ZM111.07,228.99c-.41,0-.71.09-.86.27-.13.15-.17.38-.1.67.1.44.72,1.04,1.11,1.07,5.86.43,11.82.81,17.58,1.17l3.61.23c2.51.16,5.03.32,7.54.48,5.03.32,10.23.65,15.34.98,4.32.28,8.64.58,12.97.87,5.01.34,10.2.69,15.3,1.02.83.05,1.32.04,1.52-.18.16-.18.16-.52.02-1.2-.07-.33-.35-.58-.7-.61l-.99-.06c-1.22-.08-2.47-.17-3.72-.23l-17.98-1.5-.02-.02c-1.42-1.2-3.56-1.69-5.63-2.17-3.75-.87-7.62-1.76-6.68-7.01v-.07s.09,0,.09,0c1.74.12,3.48.24,5.22.35,4.12.28,8.38.56,12.57.88,3.23.25,3.42.1,4.06-2.99,1.05-5.1,2.17-10.27,3.25-15.28.26-1.21.52-2.42.79-3.63.45-2.09.91-4.18,1.37-6.27.46-2.07.91-4.14,1.36-6.21.17-.77.11-1.32-.17-1.69-.25-.33-.69-.52-1.32-.56-3.56-.23-7.12-.47-10.68-.7-6.48-.43-13.18-.87-19.77-1.29-2.72-.18-5.48-.34-8.15-.5-3.34-.2-6.79-.4-10.19-.63-2.22-.15-2.61.14-3.01,2.21-.05.26-.11.53-.18.78-.03.12-.06.24-.09.36l-1.84,7.84c-1.78,7.57-3.62,15.4-5.42,23.1-.2.87-.19,1.37.03,1.68.22.3.68.46,1.53.52,3.34.25,6.75.47,10.04.69,1.53.1,3.06.2,4.59.31,2.57.17,5.13.35,7.69.53l3.62.25v.08c-.06,2.92-1.71,4.9-4.41,5.27-1.99.28-4.02.49-5.99.7-1.33.14-2.71.29-4.06.45-.5.06-.99.21-1.48.35-.25.07-.51.15-.77.22-.18.04-.36.1-.53.15-.43.13-.88.27-1.32.25-4.62-.24-9.52-.54-14.98-.9-.07,0-.15,0-.21,0h.01Z"/><path class="cls-3" d="M120.85,216.2c-.77-.05-1.32-.77-1.15-1.53.42-1.94.82-3.8,1.25-5.66,1.63-7.16,3.29-14.31,4.87-21.48.23-1.03.66-1.23,1.6-1.16,8.28.56,16.57,1.07,24.86,1.62,7.58.51,15.16,1.05,22.91,1.6,2.43.34.27,4.4.24,5.92-1.67,7.44-3.37,14.86-5.03,22.3-.24,1.09-.64,1.6-1.91,1.51-15.87-1.07-31.74-2.09-47.61-3.13h-.01Z"/><path class="cls-5" d="M168.73,219.42c-.08,0-.17,0-.26,0-11.94-.81-24.09-1.6-35.83-2.36-3.93-.26-7.85-.51-11.78-.76h0c-.39-.03-.75-.22-.99-.54-.24-.31-.32-.71-.24-1.1l.21-.95c.35-1.62.69-3.15,1.04-4.7.49-2.17.99-4.33,1.49-6.5,1.12-4.91,2.29-9.98,3.39-14.98.25-1.12.76-1.29,1.68-1.23,4.25.29,8.56.56,12.74.83,3.97.26,8.08.52,12.12.79,5.58.37,11.28.78,16.79,1.17,2.03.15,4.07.29,6.12.43.45.06.78.25.98.56.54.83.1,2.34-.27,3.69-.2.69-.38,1.34-.39,1.76-.67,2.99-1.34,5.95-2.01,8.92-1,4.39-2.02,8.93-3.02,13.4-.22,1-.59,1.59-1.74,1.59h0ZM127.11,186.45c-.67,0-1.01.22-1.21,1.11-1.1,5-2.26,10.07-3.39,14.98-.5,2.16-.99,4.33-1.49,6.5-.35,1.55-.69,3.08-1.04,4.7l-.21.95c-.07.34,0,.69.21.96.21.27.52.44.86.47h.01c3.93.26,7.85.51,11.78.77,11.75.76,23.89,1.55,35.83,2.36,1.25.08,1.59-.42,1.82-1.45,1-4.47,2.03-9.01,3.02-13.4.67-2.97,1.34-5.93,2.01-8.9,0-.43.19-1.09.39-1.79.37-1.3.79-2.79.3-3.55-.18-.27-.46-.43-.86-.49-2.05-.14-4.08-.29-6.12-.43-5.51-.39-11.21-.79-16.79-1.17-4.04-.27-8.14-.54-12.12-.79-4.18-.27-8.49-.55-12.74-.83-.11,0-.21-.01-.3-.01h0Z"/><path class="cls-5" d="M84.49,250.43c-.26-.12-.93-1.44-.66-5.73.36-5.82,2.34-14.93,5.7-26.36l.16.05c-7.71,26.16-5.58,31.19-5.18,31.82l.02-.02c.09.09.12.17.08.22l-.12.03Z"/><path class="cls-5" d="M108.42,249.1l-.14-.09c.85-1.27-1.94-6.3-1.97-6.35l.15-.08c.12.21,2.87,5.17,1.96,6.53h0Z"/><path class="cls-5" d="M110.15,247.74l-.17-.03c.27-1.55-1.75-5.36-1.77-5.39l.15-.08c.08.16,2.06,3.89,1.78,5.5h0Z"/><path class="cls-6" d="M382.24,272.26c-.42-3.49-.85-6.98-1.23-10.46-1.17-10.88-2.35-21.74-5.42-32.28-.13-.46-.33-.91-.53-1.48-5.63,2.27-10.05.47-13.63-4.07-1.92-2.45-2.9-5.14-1.39-8.4.25.67.55,1.32.71,2,.69,2.95,1.69,3.43,4.3,2,.19-.1.36-.21.55-.33,1.18-.77,2.35-1.53,4.05-2.64-3.86-4.36-7.62-8.61-11.7-13.21-.42,1.22-.69,1.78-.81,2.39-1.23,6.26-4.76,9.34-10.99,8.47-3.42-.47-6.79-1.25-10.49-1.94,2.09-5.94,6.52-7.61,11.44-8.62-.06-.24-.13-.47-.19-.71-1.27-.27-2.54-.52-3.85-.8.97-2.52,3.55-3.09,9.91-2.72-5.25-3.28-10.48-6.57-15.95-9.99-.4.82-.82,1.38-1,2.02-2.18,7.9-4.57,9.74-12.29,8.85-3.06-.36-6.07-1.23-9.32-1.93,2.19-5.83,6.61-7.57,11.54-8.58-.06-.22-.12-.43-.17-.65-1.34-.28-2.68-.55-4.41-.92,2.86-3.28,6.17-2.43,9.46-2.29-3.59-2.73-7.07-5.48-10.69-8.04-.49-.36-1.73.06-2.44.45-4.46,2.45-8.51,1.63-11.61-2.49-1.04-1.38-1.73-2.91-.61-5.16.49.99.79,1.65,1.13,2.29.58,1.11,1.36,1.41,2.38.59,1.21-.95,2.41-1.93,3.58-2.86-1.9-2.49-4.1-4.79-5.64-7.5-2.8-4.88-5.13-10.02-7.8-14.98-1.07-1.99-2.03-4.1-4.57-4.84-5.37-1.6-7.54-5.19-6.89-10.88.52-4.53,1.66-8.09,3.63-11.24,4.95,2.42,6.16,7.15,6.75,12.27.22-.04.45-.07.66-.12.36-1.31.71-2.61,1.07-3.92.26-.06.52-.12.78-.19.43,1.22,1.28,2.45,1.23,3.65-.12,2.48-.36,5.08-1.23,7.36-.84,2.23-.88,4.1.16,6.13.63,1.25,1.2,2.54,1.87,3.96,1.31-1.04,2.45-1.93,3.59-2.83-.49-.71-.87-1.28-1.24-1.83.07-.15.16-.3.23-.45.5.16,1.1.21,1.51.49,2.67,1.86,3.09,6.55.62,8.68-1.36,1.19-1.28,1.97-.32,3.34,5.24,7.38,13.49,15.64,19.07,18.89.95-2.45,1.77-4.91,2.86-7.27,1.1-2.4,2.65-4.42,6.06-5.11-.76,1.83-1.28,3.07-1.8,4.32.14.19.27.4.42.59,3.59-3.5,7.34-6.55,12.85-5.22-.79,5.37-2.88,10.02-6.23,13.97-2.11,2.48-5.12,2.32-8.04,1.91-.48-.06-.94-.19-1.92-.42.78.61,1.11.93,1.5,1.16,5.03,2.97,10.07,5.92,15.2,8.95.63-1.63,1.21-3,1.72-4.39.95-2.64.45-3.34-2.34-3.34-.43,0-.88-.13-1.69-.25,1.54-1.54,3.12-1.74,4.66-1.44,3.6.73,6.39,2.82,7.54,6.43.51,1.56.22,3.56-.22,5.24-.65,2.54-.08,4.19,2.08,5.64,2.25,1.51,4.27,3.4,6.65,5.33.77-9.19.32-17.91-1.57-26.54-7.46-.03-12.62-5.57-9.71-10.86.32.88.65,1.44.71,2.05.16,1.9,1.1,2.12,2.57,1.41.94-.46,1.89-.92,3.03-1.47-2.6-4.88-5.8-9.25-9.85-12.75-5.41-4.68-11.09-9.01-16.63-13.54-1.25-1.02-2.5-2.14-3.55-3.37-1.2-1.41-2.29-1.65-4.01-.88-3.14,1.44-7.72-1.57-7.98-5.11-.04-.52.2-1.04.81-1.69.42.73.84,1.47,1.4,2.45,1.04-.62,2.09-1.25,3.39-2.02-.69-1.04-1.44-1.96-1.96-3-1.51-3-3.07-5.98-4.37-9.07-1.18-2.81-1.87-3.19-4.77-2.35-1.53.45-3.16.76-4.72.71-2.5-.07-4.66-1.2-5.97-3.46-2.34-4.02-4.37-8.19-4.62-13.12,5.47-1.19,9.06,2.08,12.46,5.83.14-.18.3-.36.45-.53-.43-1.28-.85-2.57-1.46-4.33,3.53.73,4.7,3.24,5.97,5.64.16-.1.32-.21.49-.3.4.42,1.04.76,1.2,1.25.74,2.45,1.33,4.93,2.02,7.57.94-.59,1.59-.99,2.29-1.44-.13-.56-.25-1.11-.42-1.84,1.8.07,2.26,1.32,2.61,2.51.59,1.97-.04,3.32-2.52,5.39,2.26,3.35,4.54,6.74,7.02,10.42,1.99-4.82,2.64-10.09,8.44-11.5-.49,1.32-.98,2.63-1.46,3.95l.39.49c3.61-3.5,7.31-6.68,12.87-5.22-.79,5.4-2.83,10.2-6.42,14.06-2.41,2.6-5.68,2.39-8.86,1.42-.59-.18-1.17-.4-2.05-.19,2.87,2.48,5.74,4.97,8.81,7.63,1.36-3.13,1.73-6.6,5.53-8.19-.29,1.17-.47,1.99-.77,3.16,1.41-1.02,2.51-2.12,3.82-2.72,1.28-.56,2.78-.62,4.18-.91.19.19.38.37.56.56-.85,2.36-1.69,4.7-2.58,7.2.61.45,1.44.95,2.12,1.6,1.79,1.74,2.71,3.73,1.86,6.38-1.11,3.47-1.02,3.5,2.22,6.09.95-2.46,1.76-4.94,2.84-7.3,1.11-2.4,2.57-4.57,5.96-5.21-.64,1.72-1.11,3.03-1.59,4.33.12.16.25.33.36.49,3.61-3.41,7.28-6.65,12.88-5.19-.95,5.49-2.87,10.45-6.72,14.29-2.44,2.43-5.64,2.09-8.73,1.14-1.04-.33-2.05-.68-3.46-1.16,2.4,3.29,4.64,6.04,6.52,9.05,1.87,3.01,3.35,6.28,4.96,9.35,1.49-3.15,2.94-6.4,4.56-9.57.86-1.71-.43-2.55-1.11-3.61-2.31-3.5-1.2-8.06,2.49-9.77.79-.37,1.72-.42,2.58-.61.09.24.16.46.24.7-.75.5-1.48,1.01-2.54,1.74,1.08,1.23,2.06,2.36,3.32,3.8,3.09-4.54,6.03-8.82,8.92-13.13.86-1.29.01-2.21-1.01-2.81-.78-.45-1.72-.59-2.57-.91-4.11-1.42-6.49-4.72-6.2-9.14.29-4.38,1.02-8.71,3.42-12.63,2.58.79,4.16,2.82,5.19,5.02,1.01,2.11,1.36,4.56,2.47,6.92.39-1.34.78-2.66,1.27-4.38,2.76,2.94,1.87,6.01,2.02,9.14,1.15-3.9,2.29-7.81,3.43-11.68-4.24-1.91-5.27-5.02-2.58-7.57.23.65.27,1.44.68,1.77.49.4,1.27.4,2.18.65v-3.03c-.03-2.52-.62-2.85-3.07-2.24-1.73.43-3.55.71-5.34.74-2.38.04-4.27-1.16-5.67-3.15-2.19-3.1-4.25-8.85-4.72-13.42,5.49-1.13,9.09,2.23,12.55,5.94.13-.16.27-.31.4-.47-.45-1.29-.89-2.58-1.53-4.42,1.07.34,1.89.37,2.32.8,1.09,1.08,2.29,2.21,2.96,3.56,2.84,5.89,4.8,12.05,4.2,18.79-.04.46,0,.93,0,1.84,1.84-3.37,2.94-6.89,7.4-7.91-.63,1.72-1.11,3.03-1.59,4.33.1.18.22.36.32.53,3.63-3.4,7.36-6.56,13.04-5.14-.52,1.9-.89,3.78-1.59,5.54-.78,1.99-1.79,3.9-2.83,5.77-2.42,4.35-6.52,5.82-11.13,4.11-.52-.19-1.03-.47-1.56-.64-1.96-.64-3.07-.06-3.68,1.91-.24.82-.43,1.65-.69,2.64,1.3.3,2.48.56,3.78.85.21-1.05.4-1.9.58-2.75.19-.03.36-.06.55-.09.27.65.72,1.29.8,1.97.4,3.9-2.93,7.17-6.75,6.9-.72-.04-1.79.45-2.18,1.04-3.25,5.03-6.36,10.15-9.5,15.26-.27.45-.43.96-.45,1.77,3.81-3.1,7.52-6.29,13.14-4.88-.43,1.72-.68,3.43-1.3,4.99-.86,2.18-1.92,4.32-3.07,6.37-2.44,4.35-6.55,5.8-11.15,4.1-.66-.24-1.3-.56-1.96-.74-1.23-.31-2.14-.06-2.58,1.4-1.09,3.47-2.29,6.92-3.55,10.67,1.86.16,3.62.82,4.77.22.82-.42.84-2.52,1.27-4.08,1.94,1.97,1.89,4.33,1.27,6.6-.98,3.59-3.15,6.07-7.34,6.49.38,10.05,3.66,19.18,7.41,28.26.42-10.8,2.55-21.13,7.21-30.8-4.72-2.6-5.05-6.34-2.6-13.82,3.24,1.07,4.5,3.75,5.21,6.93.17-.03.35-.04.52-.07.13-.7.24-1.38.27-1.54,1.05-.71,1.93-1.05,2.45-1.71,2.64-3.25,5.19-6.56,7.78-9.86-4.01-2.4-3.95-7.64-1.63-13.37,3.2,1.11,4.44,3.86,5.54,6.84.2-.79.39-1.59.59-2.37.17-.04.33-.1.51-.15.46,1.04.94,2.06,1.5,3.31,1.28-1.05,2.94-1.97,3.97-3.4.63-.88.6-2.55.36-3.77-1.07-5.33-.29-7.97,3.54-10.73,2.64-1.91,5.77-2.09,8.34-.13-1.01.13-1.67.28-2.34.31-2.03.1-2.53.74-1.86,2.73.52,1.56,1.24,3.04,1.99,4.84,3.22-1.9,6.39-3.75,9.98-5.88-1.04-.45-1.66-.79-2.33-.99-5.81-1.87-7.99-5.14-7.21-11.26.47-3.75,1.07-7.54,3.33-10.91,5.08,2.3,6.29,7.04,6.92,12.14.2-.03.42-.06.62-.09.39-1.34.77-2.66,1.17-4.04,2.58,1.57,2.6,2.54.42,13.19,11.21-6.75,20.53-15.29,27.61-26.64-3.1-1.94-4.02-4.66-2.65-7.97.53-1.32,1.22-2.79,3.42-2.45-.51.73-.88,1.29-1.37,2.03,1.14.89,2.28,1.8,3.78,2.97,1.56-4.23,3.04-8.31,4.54-12.39.16.01.33.03.49.04v3.86c1.73-2.63,2.96-5.25,6.53-5.86-.61,1.68-1.07,2.98-1.54,4.29.12.16.22.34.33.5,3.63-3.37,7.33-6.57,12.88-5.17-.91,5.48-2.87,10.36-6.6,14.2-2.47,2.55-5.79,2.29-8.9,1.22-3.95-1.37-5.14-.93-6.82,2.97-2.64,6.11-6.26,11.55-10.73,16.52,1.13.86,2.12,1.62,3.12,2.39,1.95,1.51,2.38,1.4,3.36-.83.16-.37.41-.71,1.18-1.1.09.73.35,1.47.23,2.15-.69,4.26-7.63,8.89-11.93,5.67-1.83-1.37-3.12-.88-4.95.45-7.73,5.58-15.59,10.95-23.53,16.21-8.47,5.6-15.88,12.29-21.82,20.66-.4.58-.76,1.17-1.24,1.88,1.66.99,3.16,2.03,4.78,2.85,2.13,1.08,3.24.46,3.81-1.93.19-.77.38-1.56.63-2.55,1.46,1.93,1.28,4.68-.2,7.24-3.12,5.4-7.14,7.05-14.6,5.91-3.65,11.1-5.02,22.6-5.58,34.28,3.52-5.51,6.98-10.94,10.52-16.49-1.67-.83-3.82-1.74-4.23-4.32-.52-3.25-.12-6.4,1.14-9.56,3.31,1.2,4.6,3.87,5.71,6.93l.58-2.29c.19-.06.38-.1.56-.16.49,1.31.98,2.61,1.53,4.05,3.06-2.64,6.22-5.28,9.27-8.07.45-.4.54-1.44.48-2.17-.07-.99-.38-1.97-.68-2.92-1.1-3.37.35-5.94,2.58-8.12,2.31-2.24,5.03-3.37,8.27-2.3.36.12.65.42.92,1.14-.66.06-1.33.13-1.99.16-1.56.07-2.41.77-1.83,2.46.56,1.69,1.24,3.34,1.96,5.24,3.55-2.11,7.04-4.17,10.95-6.5-1.03-.42-1.67-.71-2.35-.94-5.48-1.69-7.8-5.12-7.11-10.95.46-3.83,1.05-7.69,3.36-11.19,5.02,2.33,6.35,6.98,6.92,12.13.22-.03.45-.06.66-.1.39-1.34.76-2.67,1.24-4.32,2.28,1.87,2.23,4.2,1.95,6.43-.29,2.24-.97,4.42-1.52,6.83,6.65-4.11,12.68-8.76,17.77-14.54,2.67-3.04,5-6.38,7.54-9.54,1.01-1.26,1.07-2.17-.36-3.15-2.9-1.97-1.91-7.33.65-8.98.3-.21.74-.21,1.54-.42-.49,1.01-.81,1.65-1.2,2.45,1.1.83,2.21,1.66,3.75,2.82,1.24-3.56,2.38-6.98,3.63-10.33.29-.77-.03-2.46,1.8-1.81.14.04.66-.98.97-1.53,1.22-2.21,2.62-4.2,5.91-4.96-.69,1.78-1.2,3.07-1.7,4.36.12.18.22.37.33.55,3.66-3.34,7.37-6.52,12.94-5.22-.86,5.52-2.86,10.45-6.63,14.32-2.41,2.46-5.64,2.12-8.73,1.25-.74-.21-1.43-.65-2.16-.79-1.46-.28-2.61.12-3.15,1.74-2.78,8.5-7.13,16.07-13.05,22.69,1.17.91,2.31,1.72,3.39,2.63,1.43,1.17,2.38.89,2.97-.89.16-.49.49-.93.74-1.41.27.07.53.13.81.21-.21,1.29-.14,2.73-.72,3.83-1.76,3.41-7.4,7.03-11.79,3.61-1.4-1.1-2.48-.74-3.89.3-6.08,4.48-12.29,8.79-18.45,13.13-.61.43-1.23.82-1.93,1.26,1.6.45,3,.83,4.4,1.23,0,.24.01.47.03.71-.63.33-1.25.67-1.9.95-.59.27-1.21.46-1.88,1.11,4.96.42,9.66,1.19,12.59,6.11-4.28,3.15-8.97,4.94-14.08,5.11-3.71.12-5.91-2.52-7.5-5.68-.45-.89-.82-1.81-1.36-3.01-6.69,5.15-12.27,11.1-17.12,18.26,1.8,1.04,3.52,2.06,5.26,3.03,1.66.92,2.65.19,3.17-1.5.29-.96.54-1.94,1.11-2.86,1.33,2.64.69,5.08-.74,7.36-3.36,5.37-7.17,6.83-14.38,5.43-3.85,14.5-4.82,29.4-5.75,44.3h-7.57l-.06-.03ZM342.72,143.24c1.5,1.04,2.85,1.97,4.38,3.03.66-1.51,1.2-2.75,1.69-3.89-2.13.3-3.95.56-6.07.86Z"/><path class="cls-6" d="M420.68,92.06c5.16,2.45,6.13,7.32,6.83,12.35.22-.06.42-.12.64-.18l1.04-3.98c.26-.06.52-.12.77-.18.46,1.29,1.25,2.55,1.31,3.86.08,1.75-.22,3.59-.66,5.3-.75,2.81-1.76,5.54-2.73,8.49-.87-1.1-1.43-2.23-2.32-2.88-.94-.67-2.25-.76-3.31-1.29-4.17-2.06-5.8-5.22-5.13-9.99.55-3.98,1.2-7.96,3.56-11.53v.03Z"/><path class="cls-6" d="M419.37,70.91c.33,1.86.58,3.15.81,4.45.21.12.43.24.65.36,1.09-5.05,2.58-9.78,7.86-11.75,2.25,4.57,2.81,9.35,2.53,14.17-.25,4.13-3.19,6.23-6.69,7.42-3.1,1.05-3.13.95-5.13,3.5-.27-1.25-.48-2.21-.69-3.18-.58-2.66-1.33-5.28-1.69-7.98-.32-2.4-.12-4.84,2.37-6.99Z"/><path class="cls-6" d="M342.52,67.89c2.08,1.72,4.2,2.98,5.6,4.81,1.4,1.84,2.08,4.26,3.59,6.38.14-1.34.27-2.67.49-4.78.91,1.07,1.79,1.62,1.9,2.32.45,2.58.91,5.21.86,7.81-.06,2.55-.72,5.11-1.15,7.82-.33-.21-.65-.42-.97-.59-1.15-.67-2.26-1.74-3.49-1.9-5.44-.71-8.62-4.11-8.71-9.71-.06-3.87-.1-7.76,1.85-12.16h.03Z"/><path class="cls-6" d="M364.41,76.05c-.94-2.48-2.87-2.67-4.98-2.95-4.34-.59-7.21-3.67-7.62-8.16-.38-4.3-.26-8.61,1.37-12.87,5.49,1.28,7.3,5.97,9,10.75.19-.1.36-.21.55-.31.15-1.35.29-2.69.43-4.04.24-.09.49-.16.75-.25.62,1.1,1.48,2.12,1.8,3.29.4,1.5.56,3.13.45,4.68-.26,3.19-.79,6.35-1.21,9.51-.19.1-.36.21-.55.33v.03Z"/><path class="cls-6" d="M464.02,83.03c2.23,4.57,2.87,9.41,2.49,14.31-.32,4.11-3.3,6.23-6.86,7.24-1.96.56-3.82.92-4.46,3.4l-.54-.16c-.21-.96-.42-1.93-.63-2.89-.59-2.73-1.34-5.43-1.7-8.21-.3-2.35,0-4.7,2.28-6.83.38,1.77.66,3.12.95,4.45.19.12.38.24.55.36,1.25-4.93,2.52-9.86,7.93-11.68h-.01Z"/><path class="cls-6" d="M355.69,113.66c-1.95-1.81-3.85-1.13-5.91-.46-3.95,1.28-7.85-.13-9.85-3.67-2.21-3.89-4.13-7.96-4.31-12.67,5.54-1.14,9.12,2.17,12.55,5.86.15-.16.27-.33.42-.5-.43-1.34-.87-2.66-1.3-3.99.19-.18.39-.36.58-.52,1.01.74,2.26,1.29,2.97,2.27,1.14,1.59,2.12,3.38,2.81,5.24.95,2.58,1.57,5.3,2.32,7.96-.08.16-.17.33-.26.49h-.02Z"/><path class="cls-6" d="M386.5,92.79c-.69-4.33-1.54-8.64-2-13-.17-1.59.35-3.41,2.31-4.6.35,1.54.65,2.88.95,4.22l.66.19c.94-5,2.54-9.51,7.64-11.59,1.86,2.86,2.26,6.13,2.51,9.38.16,2.12.23,4.35-.22,6.4-.65,3-3.04,4.57-5.68,5.57-2.09.79-4.66.65-5.41,3.81-.26-.12-.51-.24-.77-.37Z"/><path class="cls-6" d="M301.63,166c-1.93-1.88-3.87-1.16-5.91-.49-3.88,1.25-7.72-.04-9.72-3.47-2.29-3.92-4.27-8.03-4.4-12.85,5.44-1.05,9.07,1.96,12.33,5.83.17-.15.35-.3.52-.45-.4-1.31-.81-2.6-1.21-3.9.16-.19.32-.39.46-.58,1.01.68,2.25,1.16,2.97,2.08,1.08,1.37,2,2.97,2.61,4.62,1.04,2.85,1.79,5.82,2.67,8.73l-.3.5h-.01Z"/><path class="cls-6" d="M310.71,87.21c5.54-.95,9.22,2.06,12.55,5.97.14-.22.27-.45.42-.67-.42-1.28-.85-2.57-1.27-3.84.19-.19.37-.39.56-.58,1,.73,2.24,1.26,2.94,2.21,1.1,1.45,2.03,3.12,2.67,4.82,1,2.72,1.69,5.57,2.55,8.52-1.36-.34-2.51-.89-3.65-.86-1.14.03-2.25.8-3.4.96-3.65.53-6.92-.24-8.93-3.71-2.25-3.9-4.14-7.98-4.44-12.85v.03Z"/><path class="cls-6" d="M439.39,103.88c4.99,2.54,6.23,7.17,6.71,12.27.22-.01.43-.03.63-.04.42-1.32.84-2.63,1.25-3.95.22-.06.42-.1.64-.16.43,1.02,1.18,2.05,1.22,3.09.07,1.99,0,4.05-.49,5.97-.71,2.82-1.8,5.54-2.99,8.58-.74-3.19-3.48-3.21-5.57-4.27-3.66-1.89-5.73-4.87-5.12-9.23.58-4.2,1.2-8.4,3.71-12.24Z"/><path class="cls-6" d="M442.58,150.66c.33,1.65.6,2.98.88,4.32.19.07.38.15.56.22,1.2-4.91,2.57-9.66,7.92-11.67,2.21,4.84,3.07,9.9,2.35,15.09-.49,3.55-3.26,5.46-6.43,6.41-2.03.61-4.11.91-4.85,3.56-3.29-5.65-3.65-15.23-.43-17.94Z"/><path class="cls-6" d="M444.71,76.44c2.22,4.56,2.81,9.32,2.55,14.14-.21,3.9-2.9,6.11-6.29,7.26-2.11.71-4.43.82-5.21,3.75-3.35-6.65-3.62-15.24-.43-18.03.35,1.56.65,2.92.94,4.3.17.09.35.16.54.25,1.18-4.9,2.57-9.65,7.9-11.68Z"/><path class="cls-6" d="M361.95,89.05c.33,1.57.62,2.92.91,4.27.16,0,.3-.01.46-.03.84-2.3,1.41-4.73,2.57-6.86,1.14-2.11,2.88-3.84,5.45-4.56,2.28,4.79,2.91,9.83,2.37,14.95-.36,3.31-2.87,5.17-5.74,6.29-2.13.83-4.79.65-5.61,3.86l-.72-.37c-.69-4.27-1.51-8.52-2-12.81-.2-1.72.33-3.53,2.32-4.76h0Z"/><path class="cls-6" d="M401.57,107.8c-.69-4.35-1.52-8.67-2.01-13.03-.23-2.09.71-3.38,2.34-4.5.32,1.45.61,2.82.89,4.17.22.07.43.15.65.22.99-5.05,2.54-9.68,7.8-11.7,2.32,4.91,3,10.02,2.35,15.2-.42,3.28-3,5.14-5.88,6.16-2.14.76-4.6.76-5.41,3.83-.25-.12-.51-.22-.75-.34h.02Z"/><path class="cls-6" d="M380.8,64.1c.64-1.25,1.27-2.51,2.02-4.01,1.66,2.12,1.5,4.29.77,6.14-1.5,3.74-3.36,7.33-5.24,11.35-.78-1.5-1.14-2.7-1.91-3.49-.81-.83-2.06-1.19-3.01-1.9-3.79-2.83-4.91-6.4-3.3-10.95,1.33-3.75,2.55-7.6,5.55-10.51,4.47,3.34,4.79,8.22,4.43,13.39.23,0,.47-.01.71-.03h-.02Z"/><path class="cls-6" d="M322.38,64c5.42,1.44,7.36,5.92,8.87,10.79.22-.09.43-.19.63-.28.14-1.35.3-2.69.48-4.24,1.96.71,2.54,2.34,2.67,3.9.2,2.4.12,4.87-.06,7.29-.16,2.05-.62,4.08-.98,6.34-.39-.28-.66-.52-.98-.71-1.02-.62-2.01-1.35-3.09-1.8-1.6-.65-3.36-.94-4.92-1.69-2.12-1.04-3.49-2.86-3.82-5.33-.66-4.79-.61-9.54,1.18-14.28h.01Z"/><path class="cls-6" d="M370.3,124.24c.33-1.28.68-2.55,1.04-3.92,1.77.58,1.98,2.06,1.99,3.31.03,1.91-.1,3.9-.59,5.76-.72,2.81-1.8,5.52-2.99,8.47-.72-2.98-3.19-3.21-5.26-4.14-3.98-1.78-5.8-4.84-5.37-9.26.42-4.29,1.17-8.53,3.65-12.33,5.08,2.4,6.15,7.23,6.78,12.3.25-.06.49-.13.74-.19h.02Z"/><path class="cls-6" d="M326.8,149c.4,1.07,1.14,2.12,1.14,3.19.03,2.14-.1,4.33-.61,6.38-.66,2.67-1.75,5.24-2.9,8.09-.74-2.92-3.1-3.22-5.19-4.13-4.36-1.88-6.22-5.73-5.32-10.49.71-3.78,1.2-7.67,3.58-11.04,5.08,2.33,6.12,7.15,6.79,12.19.2-.04.42-.07.62-.12l1.24-3.99c.22-.03.45-.06.66-.09h-.01Z"/><path class="cls-6" d="M411.55,53.3c3.66,4.35,2.83,9.2,1.46,14.13.2.04.42.1.62.15.84-1.04,1.67-2.08,2.51-3.12.24.04.49.07.74.12,0,1.1.32,2.33-.07,3.27-.77,1.9-1.72,3.8-2.93,5.42-1.7,2.26-3.74,4.26-6.09,6.9.58-3.9-2.39-5.15-3.89-7.41-1.75-2.63-2.61-5.48-1.08-8.52,2.14-4.24,4.73-8.12,8.73-10.94h.01Z"/><path class="cls-6" d="M463.81,130.68c.29-1.6.68-3.19.85-4.79.35-3.43,2.16-5.83,5.47-6.49,3.13-.62,6.33-1.31,9.53-.1-.6,4.22-3.58,6.26-6.76,8.34h3c-1,3.03-5.81,4.11-12.07,3.04h-.01Z"/><path class="cls-6" d="M403.01,142.61c2.44-1.86,4.8-3.73,8.35-2.91-.54,3.65-1.83,6.86-4.4,9.34-1.5,1.44-3.48,1.2-5.39.73-1.14-.3-2.33-.42-3.69-.65,1.43-3.06,1.46-7.27,5.96-9.41-.36,1.28-.59,2.11-.82,2.92h0Z"/><path class="cls-6" d="M312.27,130.62c.14-.77.29-1.54.45-2.39,2.26,1.6,2.37,5.45.53,10.64-1.17-.49-2.31-1.07-3.51-1.44-3.19-.98-4.72-2.89-4.54-6.29.13-2.45.55-4.88.87-7.55,3.84,1.25,5.03,4.05,5.74,7.29.16-.09.3-.18.46-.27h0Z"/></g></svg>