<?xml version="1.0" encoding="UTF-8"?><svg id="Layer_3" xmlns="http://www.w3.org/2000/svg" width="140mm" height="156mm" viewBox="0 0 396.85 442.2"><defs><style>.cls-1{fill:#e4eff9;}.cls-2{fill:#ecc41c;}.cls-3{fill:#0d3c2f;}.cls-4{fill:#181718;}.cls-5{fill:#010101;}</style></defs><path class="cls-1" d="M237.51,216.81l3.24-.48c1.3-.19,2.52-.73,3.54-1.56,4.38-3.57,16.39-12.86,10.72-2.52-10.27,18.71-43.61,15.49-43.61,15.49l3.71-10.93s12.18-7.03,31.55-4.99c.35.04.49.5.2.71-.5.37-1.21.97-2.2,1.94-2.31,2.26-7.14,2.34-7.14,2.34Z"/><path d="M216.76,228.19c-3.24,0-5.31-.19-5.4-.19l-.31-.03,3.85-11.32.08-.05c.12-.07,12.48-7.05,31.7-5.02.27.03.48.22.56.48,0,.02.01.04.01.07,3.99-3.04,8-5.59,9.15-4.62.7.58.33,2.14-1.18,4.88-7.71,14.05-28.54,15.81-38.46,15.81ZM211.73,227.52c3.42.26,33.51,2,43.05-15.38,1.82-3.31,1.51-4.08,1.3-4.26-.88-.73-5.18,1.86-11.26,6.79-.39.38-.84.7-1.33.97-.61.36-1.27.62-1.96.8-1.99.59-3.89.63-4.01.63l-.04-.5,3.24-.48c.19-.03.37-.06.55-.1.7-.2,1.4-.46,2.04-.82.29-.17.56-.36.82-.58.12-.1.24-.19.36-.29.85-.83,1.59-1.49,2.22-1.96.07-.05.06-.12.05-.15,0-.02-.04-.1-.13-.11-18.25-1.92-30.23,4.32-31.32,4.91l-3.58,10.53Z"/><path class="cls-1" d="M249.04,431.01l-31.34-2.6,3.21-13.3c3.21-13.3-.13-28.62,2.14-27.97s22.78-.76,22.78-.76c0,0-4.8,25.34-5.2,32.41-.4,7.07,8.41,12.23,8.41,12.23Z"/><path d="M250.11,431.35l-32.72-2.71,3.28-13.58c1.79-7.41,1.53-15.59,1.36-21-.14-4.39-.17-6.52.51-7.05.17-.13.37-.16.58-.1,2.21.63,22.49-.76,22.69-.77l.32-.02-.06.32c-.05.25-4.8,25.4-5.19,32.38-.39,6.83,8.2,11.95,8.28,12l.95.56ZM218.01,428.18l30.04,2.49c-2.24-1.52-8.01-6.02-7.68-11.91.37-6.57,4.59-29.17,5.14-32.12-2.72.18-20.38,1.35-22.54.73-.08-.02-.11,0-.14.02-.51.4-.42,3.29-.32,6.64.17,5.44.43,13.66-1.37,21.13l-3.14,13.02Z"/><path class="cls-1" d="M125.89,22.5s3.3,6.2,3.53,10.1,1.15,10.89,2.64,13.41c1.15,1.95,5.12,6.58,6.85,8.57.4.45.2,1.16-.37,1.36l-5.73,1.99s.57,12.84.02,14.45-1.01,4.09-5.94,4.8-21.47-2.6-21.47-2.6l-4.21,9.49-19.72-5.96-1.61-9.86,12.84-25.91,33.16-19.85Z"/><path d="M101.35,84.38l-20.08-6.07-1.64-10.09.04-.07,12.87-25.98.06-.04,33.39-19.98.12.23c.14.25,3.33,6.3,3.56,10.21.22,3.82,1.13,10.81,2.6,13.3,1.15,1.94,5.16,6.62,6.83,8.53.24.27.33.65.23,1-.09.35-.36.64-.7.76l-5.56,1.93c.07,1.65.53,12.81,0,14.35l-.11.35c-.51,1.57-1.29,3.94-6.03,4.62-4.68.67-19.39-2.17-21.36-2.56l-4.22,9.51ZM81.72,77.92l19.36,5.85,4.2-9.47.2.04c.17.03,16.54,3.29,21.38,2.59,4.43-.63,5.12-2.74,5.62-4.28l.12-.35c.42-1.23.16-9.93-.04-14.35v-.19s5.9-2.05,5.9-2.05c.19-.07.33-.22.39-.41.05-.19,0-.39-.13-.54-1.68-1.93-5.71-6.63-6.88-8.61-1.52-2.57-2.44-9.66-2.67-13.53-.2-3.38-2.78-8.6-3.38-9.77l-32.87,19.67-12.77,25.77,1.57,9.63Z"/><path class="cls-1" d="M208.62,390.41l37.96,2.98c1.19.09,2.26-.69,2.52-1.85,2.79-12.32,17.57-77.46,21.51-91.37.03-.11.06-.22.07-.34,1.76-12.87.25-26.46-5.53-34.68-5.81-8.25-12.23-13.45-21.71-15.29-7.25-1.4-18.62-.66-23.56-.23-1.34.12-2.31,1.31-2.17,2.64l6.42,59.25c.03.27.01.54-.05.8l-17.61,75.15c-.33,1.43.68,2.82,2.14,2.93Z"/><path d="M246.77,393.65c-.07,0-.14,0-.21,0l-37.96-2.98c-.77-.06-1.47-.45-1.93-1.08-.46-.62-.62-1.41-.44-2.16l17.61-75.15c.05-.24.07-.48.04-.72l-6.42-59.25c-.08-.71.13-1.41.59-1.97.45-.55,1.1-.89,1.81-.95,4.66-.4,16.29-1.18,23.63.24,8.84,1.71,15.58,6.46,21.86,15.39,5.42,7.7,7.5,20.73,5.57,34.85-.02.13-.04.25-.08.38-3.94,13.89-18.61,78.54-21.51,91.36-.28,1.22-1.34,2.05-2.57,2.05ZM208.64,390.16l37.96,2.98c1.07.07,2.02-.61,2.26-1.66,2.9-12.82,17.57-77.48,21.51-91.39.03-.1.05-.2.06-.31,1.92-14-.13-26.9-5.48-34.5-6.29-8.94-12.73-13.48-21.55-15.19-7.28-1.41-18.85-.63-23.49-.23-.58.05-1.1.32-1.47.77-.37.45-.54,1.02-.47,1.59l6.42,59.25c.03.3.01.6-.05.89l-17.61,75.15c-.14.61-.01,1.25.36,1.75.37.51.94.82,1.56.87h0Z"/><path class="cls-1" d="M2.69,279.7s93.88-44.83,93.88-44.83l93.86,18.34,28.8,45.22c-68.28,31.9-206.32,80.75-216.54-18.74Z"/><path d="M75.17,339.21c-16.43,0-31.51-2.78-43.68-9.68-16.87-9.56-26.64-26.32-29.06-49.8l-.02-.17.16-.08,93.95-44.86.08.02,93.97,18.36.06.09,28.96,45.46-.26.12c-30.15,14.08-93.54,40.54-144.16,40.54ZM2.95,279.85c2.43,23.22,12.11,39.79,28.79,49.24,49.35,27.98,147.09-12.08,187.12-30.75l-28.59-44.89-93.67-18.31L2.95,279.85Z"/><path class="cls-1" d="M252.25,338.06l33.17,35.31s0-4.74,11.62-4.43c11.62.31,14.23,2.01,18.96,1.83,4.73-.18,19.72-1.53,19.72-1.53l-39.9-16.05-21.4-30.27-22.17,15.13Z"/><path d="M285.66,374l-.42-.45-33.37-35.53.24-.16,22.37-15.27,21.5,30.41,40.79,16.41-1.03.09c-.15.01-15.05,1.35-19.73,1.53-2.09.08-3.78-.21-5.93-.57-2.74-.46-6.49-1.09-13.04-1.26-6.36-.17-9.15,1.19-10.36,2.36-.98.94-1,1.79-1,1.83v.62ZM252.63,338.11l32.63,34.74c.12-.41.4-1.01,1.04-1.63,1.28-1.25,4.2-2.7,10.75-2.52,6.59.17,10.36.81,13.11,1.27,2.12.36,3.8.64,5.83.56,3.94-.15,15.19-1.13,18.67-1.43l-39-15.69-.04-.06-21.26-30.07-21.72,14.83Z"/><path class="cls-1" d="M245.61,344.35l34.9-16.02c1.47-.67,1.92-2.54.92-3.81l-75.97-96.59c-.74-.94-2.05-1.23-3.12-.67l-32.95,17.19c-1.33.7-1.75,2.4-.89,3.64l38.96,55.95c.06.08.12.16.18.23l35.06,39.48c.73.82,1.91,1.07,2.91.61Z"/><path d="M244.57,344.83c-.76,0-1.51-.32-2.05-.93l-35.06-39.48c-.07-.08-.14-.17-.2-.25l-38.96-55.95c-.45-.65-.6-1.46-.41-2.22.19-.77.7-1.42,1.4-1.78l32.95-17.19c1.17-.61,2.61-.3,3.43.74l75.97,96.59c.52.67.71,1.52.51,2.34-.2.82-.75,1.5-1.52,1.85l-34.9,16.02c-.37.17-.76.25-1.15.25ZM203.5,227.22c-.35,0-.71.08-1.04.25l-32.95,17.19c-.57.3-.99.83-1.14,1.46-.15.63-.03,1.29.34,1.82l38.96,55.95c.05.07.11.14.16.21l35.06,39.48c.66.75,1.71.96,2.62.55l34.9-16.02c.63-.29,1.08-.84,1.25-1.51.16-.67,0-1.37-.42-1.92l-75.97-96.59c-.44-.56-1.1-.86-1.77-.86Z"/><path d="M125.25,21.43c1.74,3.86-.83,7.16-1.07,13.12-1.34,7.86-31.93,18.85-32.01,19.53-.18,1.88-1.31,12.85-3.3,15.78-2.43,2.67-5.3,6.99-8.96,7.16-7.38-1.35-18.85-1.25-25.78-3.03-5.84-2.63-12.61-6.29-12.61-14.1.46-5.85,2.41-9.63,5.05-11.58,5.69-3.31,9.64-3.83,14.1-8.48,1.83-1.72-.34-9.52,1.72-17.2,1.85-6.9,12.59-11.95,14.75-12.91.15-.2,21.76-3.91,21.99-3.81,13.25,1.16,16.61,3.24,26.13,15.52Z"/><path class="cls-5" d="M79.92,77.27c-3.3-.59-7.25-.9-11.44-1.22-5.17-.4-10.52-.81-14.41-1.81-6.67-3-12.8-6.8-12.8-14.34.43-5.55,2.21-9.61,5.15-11.78,1.96-1.14,3.66-1.93,5.3-2.7,3.14-1.46,5.85-2.71,8.76-5.76.81-.76.76-2.98.71-5.79-.06-3.23-.14-7.26.95-11.29,1.88-7.01,12.74-12.12,14.89-13.07v.02c1.63-.59,20.71-3.68,22.11-3.83v-.02c13.24,1.16,16.68,3.21,26.3,15.62l.03.05c1.08,2.39.54,4.61-.07,7.19-.41,1.72-.88,3.68-.98,6.04-1.06,6.22-19.25,14.04-27.98,17.81-1.98.85-3.71,1.6-4.04,1.83-.22,2.3-1.35,12.89-3.33,15.81-.46.51-.91,1.04-1.37,1.59-2.19,2.6-4.68,5.54-7.79,5.68ZM77.27,9.93h-.03c-2.12.95-12.79,5.96-14.61,12.76-1.07,3.97-.99,7.95-.93,11.15.06,3.05.1,5.26-.86,6.16-2.97,3.11-5.72,4.38-8.91,5.86-1.64.76-3.33,1.54-5.24,2.66-2.79,2.06-4.5,6-4.92,11.38,0,7.6,6.43,11.14,12.46,13.85,3.81.98,9.14,1.39,14.29,1.79,4.2.32,8.17.63,11.43,1.23,2.83-.13,5.24-2.99,7.37-5.5.47-.56.92-1.09,1.36-1.57,1.91-2.82,3.03-13.52,3.24-15.63.03-.27.2-.38,4.33-2.15,7.98-3.44,26.67-11.48,27.69-17.4.09-2.38.57-4.36.99-6.11.62-2.58,1.11-4.62.12-6.84-9.49-12.24-12.89-14.26-25.93-15.4h-.01c-.94.03-20.85,3.48-21.83,3.78Z"/><path class="cls-1" d="M67.85,87.74s4.46-10.36,9.97-12.15c4.59-1.49,8.48-1.26,13.87.23s17.66,13.18,17.66,13.18l-41.5-1.26Z"/><path d="M110,89.28l-42.52-1.29.15-.34c.18-.43,4.57-10.48,10.13-12.29,4.43-1.44,8.22-1.38,14.02.23,5.39,1.49,17.26,12.77,17.76,13.24l.47.45ZM68.23,87.51l40.47,1.23c-2.32-2.16-12.4-11.38-17.07-12.67-5.69-1.57-9.41-1.64-13.73-.23-4.79,1.56-8.85,9.89-9.67,11.68Z"/><path class="cls-1" d="M209.03,215.04h9.28s-.35,16.35-12.74,18.46,3.46-18.46,3.46-18.46Z"/><path d="M203.97,233.9c-1.45,0-2.44-.44-2.96-1.3-2.52-4.19,7.4-17.16,7.83-17.71l.08-.1h9.66v.26c0,.17-.5,16.58-12.95,18.7-.6.1-1.15.15-1.65.15ZM209.16,215.29c-.92,1.21-9.96,13.32-7.72,17.05.58.97,1.96,1.28,4.09.91,11.2-1.9,12.4-15.89,12.52-17.96h-8.89Z"/><path class="cls-2" d="M1.99,279.7c1.85,7.15,94.22-42.64,94.24-42.65,0,0,9.38,21.9,32.33,21.32,22.95-.57,76.35-21.32,76.35-21.32,0,0,4.67-24.26,4.67-24.26,0,0-68.18-3.22-68.18-3.22,1.41-15.37,16.56-70.59,13.3-86.02-1.81-8.57-4.91-30.27-30.95-33.71-26.04-3.44-66.24-5.4-69.45-3.44-3.45,3.5-8.56,4.46-14.68,19.45C13.93,160.28.13,272.55,1.99,279.7Z"/><path d="M3.46,280.64c-.45,0-.81-.06-1.08-.17-.34-.15-.56-.38-.64-.7h0c-.93-3.6,1.97-33.08,8.48-69.3,4.65-25.89,14.63-73.92,29.16-104.71,4.77-11.68,8.89-14.84,12.19-17.38.91-.7,1.77-1.36,2.53-2.13,3.33-2.04,43.67-.07,69.66,3.37,24.93,3.29,28.95,23.05,30.89,32.54.1.48.19.94.28,1.36,2.14,10.13-3.6,37.26-8.21,59.07-2.42,11.46-4.52,21.39-5.06,26.77,1.8.08,12.63.6,25.14,1.19l38.82,1.83q4.2.2,4.2.44l-4.7,24.44-.12.05c-.48.21-53.39,20.77-76.45,21.34-.3,0-.6.01-.9.01-21.12,0-30.41-18.72-31.56-21.24-5.77,3.1-80.62,43.24-92.65,43.24ZM2.23,279.64c.04.17.16.28.35.37,5.84,2.55,63.73-27.12,93.52-43.17l.24-.13.11.25c.38.88,9.38,21.18,31.21,21.18.29,0,.59,0,.89-.01,22.39-.56,73.21-20.12,76.14-21.26l4.59-23.84c-2.75-.13-24.66-1.16-42.49-2.01l-23.36-1.1q-2.28-.11-2.28-.35c.49-5.37,2.62-15.44,5.09-27.11,4.6-21.76,10.33-48.83,8.21-58.86-.09-.42-.18-.88-.28-1.36-1.91-9.38-5.88-28.9-30.46-32.15-25.34-3.35-66.14-5.39-69.29-3.47-.73.76-1.61,1.43-2.53,2.14-3.26,2.5-7.32,5.62-12.04,17.19-14.51,30.75-24.47,78.73-29.12,104.6-6.27,34.89-9.42,65.48-8.49,69.09h0Z"/><path class="cls-1" d="M143.17,198.55s16.74-.81,24.23,6.83c7.49,7.64,6.42,19.57,6.42,19.57l-1.99,5.66s-.92,1.99-4.28,2.9-11.01-13.3-11.01-13.3l-4.28-8.41-11.16-.46,2.06-12.79Z"/><path d="M167.25,233.79c-3.57,0-10.15-12.05-10.91-13.47l-4.22-8.28-11.29-.46,2.14-13.27h.2c.17-.02,16.94-.74,24.42,6.9,7.48,7.64,6.5,19.64,6.49,19.76l-2,5.72c-.05.11-1.01,2.13-4.45,3.06-.12.03-.25.05-.38.05ZM141.41,211.1l11.02.45,4.35,8.54c2.1,3.9,8.12,13.88,10.72,13.17,3.19-.87,4.11-2.75,4.12-2.77l1.98-5.63c0-.06.96-11.84-6.36-19.31-6.88-7.02-21.92-6.82-23.84-6.76l-1.98,12.31Z"/><path class="cls-1" d="M77.21,9.57s.38-7.34,8.64-8.49,11.46-.36,14.1.9,6.65,9.4,7.68,11.12,4.24,7.34,4.7,13.07,0,12.84,0,12.84h-13.64s1.61-13.41,0-17.89-2.87-8.25-5.96-11.81-4.23-3.23-6.67-2.59c-2.22.58-3.83,2-3.83,2l-5.02.83h0Z"/><path class="cls-4" d="M112.57,39.27h-14.16l.03-.28c.02-.13,1.58-13.41.01-17.77l-.23-.64c-1.49-4.15-2.77-7.74-5.69-11.09-2.98-3.42-3.97-3.15-6.37-2.52-2.18.57-3.75,1.95-3.77,1.96l-.05.05-5.4.9.02-.31c0-.08.49-7.56,8.85-8.72,7.94-1.1,11.34-.46,14.24.93,2.24,1.07,5.32,6.72,6.97,9.75.35.64.63,1.16.82,1.47,1.59,2.65,4.31,7.87,4.74,13.18.46,5.68,0,12.81,0,12.88v.23ZM98.97,38.77h13.13c.07-1.27.39-7.5-.01-12.57-.42-5.2-3.1-10.35-4.67-12.96-.19-.31-.47-.83-.83-1.48-1.51-2.77-4.66-8.54-6.75-9.54-2.82-1.35-6.14-1.97-13.96-.88-7.08.98-8.22,6.54-8.39,7.94l4.63-.77c.31-.26,1.82-1.47,3.87-2.01,2.5-.66,3.74-.98,6.92,2.67,2.98,3.42,4.28,7.05,5.78,11.25l.23.64c1.5,4.17.27,15.72.04,17.72Z"/><ellipse class="cls-1" cx="105.74" cy="45.27" rx="13.01" ry="12.67"/><path class="cls-4" d="M105.74,58.19c-7.31,0-13.26-5.8-13.26-12.92s5.95-12.92,13.26-12.92,13.26,5.8,13.26,12.92-5.95,12.92-13.26,12.92ZM105.74,32.85c-7.04,0-12.76,5.57-12.76,12.42s5.73,12.42,12.76,12.42,12.76-5.57,12.76-12.42-5.73-12.42-12.76-12.42Z"/><path class="cls-5" d="M328.9,366.61c2.27-.71,4.57-.17,6.82.31,4.53.56,9.03,1.36,13.54,2.13,3.23.26,5.29,3.03,2.36,5.51-1.17.94-2.63,1.67-4.02,2.38-8.11,4.13-17.12,5.03-26.19,4.28-4.97-.35-9.93-.85-14.9-1.13-4.32-.27-8.81-.16-13.06-.98-4.58-.89-9-2.9-11.64-6.99-2.4-4.33,10.92-5.74,13.4-5.74,11.1-.38,22.54,4.16,33.49.27l.19-.05Z"/><path d="M327.08,381.71c-1.83,0-3.72-.08-5.68-.24-2.08-.14-4.16-.32-6.24-.49-2.84-.23-5.77-.48-8.65-.64-1.27-.08-2.58-.13-3.85-.18-3.06-.11-6.22-.23-9.23-.8-5.48-1.06-9.45-3.45-11.81-7.1-.43-.77-.44-1.49-.04-2.15,1.73-2.94,11.33-3.97,13.65-3.97h0c4.1-.14,8.31.4,12.38.92,6.96.89,14.16,1.81,21.03-.63l.2-.05c2.24-.7,4.5-.22,6.68.25l.26.06c3.96.49,7.98,1.18,11.87,1.84l1.67.29c1.87.15,3.42,1.15,3.85,2.49.37,1.16-.11,2.39-1.37,3.45-1.1.89-2.43,1.57-3.71,2.24l-.35.18c-5.99,3.05-12.78,4.55-20.65,4.55ZM295.23,366.63c-1.96,0-11.6.97-13.23,3.72-.3.51-.29,1.05.04,1.64,2.27,3.51,6.13,5.83,11.47,6.86,2.97.57,6.12.68,9.16.8,1.27.05,2.59.09,3.86.18,2.89.17,5.83.41,8.67.64,2.08.17,4.15.34,6.23.49,10.25.85,18.77-.54,26.06-4.25l.35-.18c1.27-.65,2.57-1.33,3.63-2.18,1.09-.92,1.52-1.96,1.21-2.91-.37-1.15-1.75-2.02-3.44-2.15l-1.69-.29c-3.88-.66-7.9-1.35-11.87-1.84l-.28-.06c-2.12-.45-4.32-.92-6.43-.26h-.01s-.19.05-.19.05c-6.96,2.47-14.22,1.54-21.24.65-4.05-.52-8.25-1.05-12.31-.91h0Z"/><path class="cls-5" d="M217.45,427.14c.78-.35,1.8-.4,2.88-.37,2.94.2,5.66,1.48,8.74,1.57,5.52.39,10.95-.58,16.44.2,3.52.51,13.83,2.77,24.57,7.68,3.64,1.66,3.96,5.87-1.06,5.43-16.67-1.46-33.52-1.74-50.12-3.73-3.96-.84-4.05-5.32-3.07-8.74.29-.87.73-1.58,1.49-1.97l.13-.06Z"/><path d="M269.7,441.93c-.22,0-.46,0-.7-.03-6.79-.59-13.72-1-20.43-1.39-9.76-.57-19.86-1.16-29.7-2.34-1.34-.28-2.34-.97-2.98-2.04-1.41-2.35-.68-5.69-.29-7.01.34-1.04.86-1.73,1.61-2.12l.14-.07c.89-.41,2.07-.42,3-.39,1.41.09,2.78.44,4.11.77,1.49.37,3.02.76,4.63.8,2.4.17,4.82.08,7.16,0,3.04-.11,6.18-.23,9.3.22,3.93.56,14.14,2.9,24.64,7.7,2.01.92,3.19,2.66,2.8,4.13-.3,1.15-1.51,1.8-3.28,1.8ZM217.55,427.36l-.13.06c-.62.33-1.07.93-1.36,1.83-.75,2.62-.66,5.09.25,6.61.57.95,1.46,1.56,2.64,1.81,9.81,1.18,19.89,1.77,29.65,2.34,6.71.39,13.65.8,20.45,1.39,1.89.17,3.18-.36,3.45-1.4.27-1.04-.52-2.63-2.52-3.55-10.45-4.77-20.6-7.1-24.5-7.66-3.08-.44-6.2-.33-9.21-.21-2.35.09-4.79.18-7.21,0-1.65-.04-3.21-.44-4.72-.81-1.37-.34-2.65-.66-4.01-.75-.86-.03-1.96-.02-2.76.34Z"/><path class="cls-1" d="M378.52,186.95c4.67.25,9.33.58,13.93.89,1.13.07,2.07.89,2.29,2,.86,4.28.02,4.72-4.83,4.4-27.92-1.82-55.82-3.75-83.74-5.59-22.6-1.49-45.2-2.89-67.8-4.33-20.94-1.34-41.87-2.62-62.8-4.16-1.3-.1-3.22-2-3.52-3.36-.56-2.52,1.23-3.23,3.72-3.07,14.78.99,29.57,1.9,44.36,2.67,1.78.09,3.62-.75,5.42-1.2,2.23-.56,4.42-1.41,6.68-1.69,9.91-1.2,19.87-2.03,29.75-3.41,8.03-1.12,12.66-6.94,12.85-15.4-11.09-.76-22.19-1.52-33.28-2.27-14.45-.98-28.9-1.89-43.34-2.95-5-.37-6.01-1.85-4.85-6.84,7.14-30.62,14.33-61.22,21.51-91.83.27-1.13.57-2.26.79-3.4,1.23-6.4,2.57-7.2,9.18-6.76,18.11,1.21,36.24,2.19,54.35,3.36,30.07,1.94,60.14,3.95,90.21,5.92,4.63.3,5.44,3.16,4.62,6.98-2.66,12.35-5.42,24.69-8.08,37.04-4.03,18.7-8.11,37.38-11.97,56.12-1.91,9.31-2.56,9.82-12.28,9.08-17.57-1.34-35.17-2.45-52.71-3.65-4.29,23.73,24.3,16.87,36.37,27.02l53.18,4.43Z"/><path class="cls-4" d="M391.89,194.57c-.58,0-1.24-.03-2-.08-15.11-.98-30.46-2.02-45.32-3.02-12.81-.86-25.61-1.73-38.42-2.57-15.15-1-30.56-1.97-45.46-2.91-7.45-.47-14.9-.94-22.34-1.42l-10.71-.68c-17.08-1.08-34.74-2.2-52.09-3.48-1.49-.11-3.43-2.16-3.74-3.56-.23-1.03-.09-1.85.4-2.43.64-.74,1.84-1.06,3.58-.94,16.17,1.08,30.68,1.95,44.36,2.67,1.22.06,2.49-.34,3.73-.72.53-.17,1.08-.34,1.61-.47.76-.19,1.52-.42,2.27-.64,1.44-.43,2.94-.87,4.45-1.06,4-.49,8.08-.92,12.02-1.33,5.82-.62,11.83-1.25,17.72-2.08,7.65-1.07,12.36-6.64,12.62-14.92l-10.26-.7c-7.59-.52-15.19-1.04-22.79-1.56-4.53-.31-9.06-.61-13.59-.91-9.75-.65-19.84-1.31-29.75-2.04-2.67-.2-4.13-.72-4.89-1.75-.78-1.06-.83-2.63-.19-5.4,5.33-22.86,10.78-46.09,16.05-68.56l5.46-23.26c.08-.36.17-.73.26-1.09.19-.75.38-1.53.53-2.3,1.24-6.45,2.56-7.42,9.44-6.96,10.06.67,20.29,1.28,30.18,1.88,7.92.47,16.11.96,24.16,1.48,19.52,1.26,39.37,2.57,58.57,3.84,10.55.7,21.09,1.39,31.64,2.09,2,.13,3.44.75,4.26,1.85.92,1.22,1.11,2.99.58,5.43-1.33,6.15-2.67,12.29-4.02,18.43-1.36,6.2-2.72,12.4-4.06,18.61-.77,3.59-1.55,7.18-2.33,10.77-3.21,14.85-6.53,30.21-9.64,45.34-1.94,9.42-2.76,10.02-12.55,9.27-12.41-.95-25.03-1.79-37.24-2.61-5.09-.34-10.17-.68-15.25-1.03-2.59,14.92,8.11,17.4,19.44,20.03,6.16,1.43,12.52,2.9,16.83,6.49l53.1,4.42c3.68.2,7.41.45,11.01.69l2.92.19c1.24.08,2.27.99,2.52,2.2.38,1.9.48,3.23-.19,3.99-.51.59-1.43.79-2.9.79ZM175.13,173.96c-1.22,0-2.09.27-2.54.79-.39.45-.49,1.12-.29,1.99.29,1.31,2.14,3.08,3.29,3.17,17.35,1.27,35.01,2.39,52.09,3.48l10.71.68c7.45.48,14.89.95,22.34,1.42,14.9.94,30.31,1.92,45.46,2.91,12.81.84,25.61,1.71,38.42,2.57,14.85,1,30.21,2.04,45.32,3.02,2.47.16,3.92.12,4.5-.54.46-.53.48-1.53.07-3.57-.2-.99-1.05-1.73-2.06-1.8l-2.92-.19c-3.6-.24-7.32-.49-11.01-.69h0s-53.26-4.44-53.26-4.44l-.06-.05c-4.21-3.55-10.55-5.01-16.68-6.43-11.11-2.57-22.59-5.23-19.78-20.82l.04-.22.22.02c5.16.35,10.31.7,15.47,1.04,12.21.82,24.83,1.66,37.24,2.61,9.58.73,10.13.31,12.02-8.88,3.11-15.14,6.43-30.49,9.64-45.35.78-3.59,1.55-7.18,2.33-10.77,1.34-6.21,2.7-12.41,4.06-18.61,1.35-6.14,2.7-12.28,4.02-18.43.49-2.29.33-3.93-.49-5.03-.73-.97-2.04-1.53-3.9-1.65-10.55-.69-21.09-1.39-31.64-2.09-19.2-1.27-39.04-2.58-58.57-3.84-8.05-.52-16.24-1.01-24.16-1.48-9.9-.59-20.13-1.2-30.19-1.88-6.57-.44-7.74.42-8.92,6.56-.15.78-.34,1.56-.53,2.32-.09.36-.18.72-.26,1.08l-5.46,23.26c-5.27,22.47-10.72,45.7-16.05,68.56-.6,2.58-.57,4.08.1,5,.66.9,2.01,1.36,4.52,1.54,9.91.73,19.99,1.39,29.74,2.04,4.53.3,9.06.6,13.59.91,7.6.51,15.2,1.03,22.79,1.56l10.73.73v.24c-.19,8.68-5.08,14.53-13.07,15.64-5.89.83-11.92,1.46-17.74,2.08-3.94.42-8.02.85-12.02,1.33-1.47.18-2.94.62-4.37,1.04-.75.22-1.52.45-2.29.64-.52.13-1.06.3-1.58.46-1.28.4-2.61.81-3.91.75-13.68-.72-28.2-1.59-44.37-2.67-.22-.01-.43-.02-.63-.02Z"/><path class="cls-3" d="M204.11,136.02c-2.28-.15-3.9-2.3-3.41-4.54,1.25-5.77,2.44-11.29,3.69-16.79,4.82-21.25,9.76-42.46,14.43-63.74.67-3.07,1.95-3.64,4.73-3.45,24.54,1.66,49.09,3.17,73.64,4.82,22.46,1.51,44.92,3.13,67.87,4.74,7.21,1.02.79,13.06.71,17.58-4.95,22.07-9.99,44.11-14.9,66.19-.72,3.23-1.9,4.74-5.66,4.48-47.02-3.19-94.04-6.21-141.07-9.28h-.03Z"/><path class="cls-4" d="M345.97,145.58c-.25,0-.5,0-.77-.03-35.39-2.4-71.37-4.74-106.17-7.01-11.63-.76-23.26-1.51-34.89-2.27h-.03c-1.16-.08-2.23-.66-2.93-1.59-.7-.93-.96-2.12-.71-3.26l.61-2.83c1.04-4.81,2.03-9.36,3.08-13.96,1.46-6.43,2.93-12.85,4.4-19.28,3.33-14.56,6.78-29.62,10.03-44.46.73-3.32,2.25-3.84,4.99-3.65,12.58.85,25.37,1.67,37.74,2.47,11.77.76,23.94,1.54,35.9,2.35,16.52,1.11,33.41,2.31,49.74,3.46,6.02.43,12.06.85,18.13,1.28,1.33.19,2.31.75,2.91,1.67,1.59,2.45.31,6.96-.81,10.94-.58,2.04-1.13,3.97-1.15,5.23-1.98,8.86-3.97,17.66-5.96,26.46-2.95,13.03-5.99,26.51-8.94,39.77-.66,2.96-1.74,4.71-5.15,4.71ZM222.64,47.7c-1.99,0-2.98.64-3.57,3.29-3.26,14.84-6.7,29.9-10.04,44.47-1.47,6.42-2.94,12.85-4.4,19.28-1.04,4.6-2.03,9.15-3.08,13.96l-.61,2.83c-.22,1,.01,2.04.62,2.85.61.81,1.54,1.32,2.56,1.39h.04c11.63.76,23.26,1.52,34.89,2.28,34.8,2.26,70.79,4.61,106.17,7.01,3.71.25,4.72-1.25,5.4-4.29,2.95-13.27,6-26.74,8.94-39.77,1.99-8.8,3.98-17.61,5.96-26.41.02-1.27.57-3.23,1.16-5.3,1.1-3.87,2.34-8.27.88-10.53-.52-.81-1.35-1.28-2.54-1.45-6.06-.42-12.1-.85-18.12-1.28-16.33-1.15-33.22-2.35-49.74-3.46-11.96-.81-24.13-1.59-35.9-2.35-12.37-.8-25.16-1.62-37.74-2.47-.32-.02-.62-.03-.9-.03Z"/><path d="M96.38,237.61c-.76-.36-2.76-4.27-1.96-17.02,1.08-17.27,6.92-44.32,16.89-78.23l.48.14c-22.83,77.65-16.54,92.56-15.36,94.44l.06-.06c.28.27.36.49.25.65l-.36.08Z"/><path d="M167.27,233.65l-.42-.28c2.53-3.76-5.75-18.7-5.84-18.85l.44-.24c.35.62,8.51,15.35,5.81,19.37Z"/><path d="M172.4,229.63l-.49-.08c.79-4.6-5.17-15.9-5.23-16.01l.44-.23c.25.47,6.09,11.56,5.28,16.33Z"/></svg>