<?xml version="1.0" encoding="UTF-8"?><svg id="Layer_1" xmlns="http://www.w3.org/2000/svg" width="92mm" height="92mm" viewBox="0 0 260.79 260.79"><defs><style>.cls-1{fill:#fff;}</style></defs><path d="M62.12,259.67h-10.08c-.46-.16-.91-.41-1.38-.47-23.18-2.85-41.68-18.98-47.59-41.65-.84-3.22-1.3-6.53-1.94-9.8,0-2.69,0-5.38,0-8.06.16-.64.41-1.28.48-1.93,1.5-13.63,7.23-25.17,17.11-34.64,2.09-2,4.39-3.77,6.71-5.75-.72-.52-1.32-.96-1.93-1.39-9.87-6.84-16.56-16.04-20.13-27.47-.96-3.09-1.5-6.31-2.24-9.47,0-3.7,0-7.39,0-11.09.68-3.01,1.22-6.07,2.08-9.03,6.74-23.37,29.14-38.87,53.3-36.86,1.5.12,2.22-.41,2.98-1.6,6.75-10.64,16.43-17.06,28.76-19.36,2.14-.4,3.07-1.19,3.89-3.09C102.55,13.81,127.43-.96,153.57,2.14c25.29,3.01,42.31,17.05,50.92,40.9,2.1,5.82,2.63,12.21,3.91,18.47,23.67,1.84,41.23,13.3,48.37,36.75,7.47,24.55-1.25,44.34-21.77,59.32.43.33.82.63,1.21.93,16.55,12.9,24.35,29.74,22.53,50.73-1.91,22.13-17.65,41.38-38.98,47.81-3.74,1.13-7.62,1.75-11.44,2.61h-10.08c-.55-.16-1.1-.4-1.66-.48-21.45-3.07-36.61-14.55-45.13-34.41-2.21-5.16-3.18-10.86-4.81-16.62-6.33-.37-12.05-3.12-16.47-8.57-4.49,5.54-10.18,8.19-16.99,8.61-.22,1.2-.45,2.25-.6,3.32-3.11,22.24-19.23,40.46-40.91,46.15-3.14.82-6.36,1.34-9.54,2ZM67.83,63.35c4.6,2.38,9.1,4.56,13.44,7.03,2.24,1.27,2.67,3.9,1.42,5.93-1.22,1.98-3.72,2.59-5.97,1.45-.37-.19-.73-.42-1.08-.64-9.74-6.14-20.28-8.05-31.59-5.98-17.8,3.25-31.58,18.09-34.27,36.95-2.47,17.27,7.51,35.9,23.38,43.46.97.46,2.46.5,3.47.12,16.56-6.22,32.53-4.97,48.04,3.45,1.32.72,2.96,1.19,4.46,1.2,11.26.1,22.51.05,33.77.05h2.88c0-1.23,0-2.14,0-3.05,0-8.15-.1-16.3.06-24.44.04-2.25-.64-3.11-2.76-3.83-10.16-3.41-15.88-13.51-14.03-24.34,1.67-9.75,10.78-17.36,20.88-17.43,10.54-.07,19.77,7.54,21.42,17.67,1.78,10.93-4.1,20.91-14.51,24.28-1.78.58-2.3,1.33-2.28,3.13.09,8.48.04,16.96.05,25.45,0,.8.09,1.61.13,2.33.4.11.56.2.71.2,12.35.02,24.7.05,37.04,0,.93,0,1.92-.48,2.77-.94,15.59-8.67,31.72-10,48.47-3.73,1.07.4,2.67.3,3.68-.23,17.07-8.78,26.23-28.3,22.17-47.03-4.07-18.8-20.93-33.15-39.5-33.84-9.35-.35-17.94,1.76-25.86,6.75-2.64,1.66-5.24,1.13-6.57-1.14-1.31-2.23-.69-4.64,1.99-6.16,3.19-1.82,6.48-3.52,9.88-4.9,2.98-1.21,6.18-1.91,9.25-2.83.99-21.22-14.54-47.33-44.53-51.5-26.76-3.72-47.64,14.01-53.38,29.74.84.15,1.66.29,2.47.44,6.63,1.19,12.68,3.77,18.07,7.81,2.03,1.52,2.46,4.11,1.15,6.01-1.33,1.94-3.82,2.41-6.02,1.13-.43-.25-.83-.58-1.24-.86-9.22-6.13-19.18-7.74-29.78-4.52-7.43,2.26-13.41,6.64-17.67,12.82ZM40.34,215.14c-13.38-12.55-10.22-29.53-1.93-37.92,9.6-9.71,24.7-10.63,35.17-1.93,5.13,4.26,8.24,9.77,9.05,16.35,1.15,9.26-2.02,17.09-9.04,23.48,9.13,3.45,15.84,9.28,20.46,17.53,13.36-15.43,15.05-43.75-3.57-62.37-18.62-18.62-48.62-18.52-67.16.29-18.37,18.64-16.6,46.69-3.29,62.05,4.65-8.29,11.44-14.09,20.32-17.48ZM240.33,232.67c13.95-16.48,14.7-44.98-4.44-63.19-19.34-18.4-49.64-17.3-67.64,2.49-17.47,19.21-14.37,46.76-1.92,60.62,4.59-8.31,11.42-14.05,20.31-17.48-12.9-11.97-10.89-28.98-1.71-38.16,9.7-9.69,25.41-10.1,35.6-1.11,9.55,8.42,13.31,26.38-.51,39.32,8.83,3.36,15.58,9.12,20.3,17.52ZM233.92,239.63c-3-6.86-7.51-12.14-14.3-15.31-6.82-3.18-14.02-3.76-21.39-3.01-10.85,1.1-19.13,6.1-24.42,15.85-1.08,2-.72,3.04.99,4.3,10.59,7.75,22.37,10.91,35.35,9.07,8.9-1.26,16.83-4.85,23.77-10.89ZM26.47,239.55c16.71,14.77,42.39,15.33,59.96,1.19,1.09-.88,1.07-1.64.49-2.78-3.04-6.04-7.38-10.76-13.57-13.65-7.07-3.31-14.55-3.85-22.15-2.94-11.56,1.39-19.94,7.26-24.74,18.18ZM39.91,195.03c-.03,9.47,7.57,17.21,16.96,17.27,9.52.07,17.37-7.69,17.36-17.17,0-9.39-7.74-17.13-17.14-17.14-9.44-.01-17.16,7.63-17.19,17.04ZM220.44,195.11c-.01-9.43-7.68-17.11-17.11-17.12-9.4,0-17.17,7.69-17.21,17.07-.04,9.5,7.77,17.28,17.28,17.25,9.4-.04,17.05-7.75,17.04-17.2ZM147.56,199.05c1.19-12.79,6.26-24,15.13-33.82h-28c0,7.9-.3,15.63.09,23.32.31,6.16,6.7,11.15,12.77,10.49ZM113.05,199.08c6.41.5,12.41-4.93,12.63-11.46.19-5.61.07-11.24.08-16.85,0-1.82,0-3.63,0-5.49h-27.92c9.02,9.83,13.9,21.07,15.2,33.8ZM130.15,117.61c7.18,0,12.77-5.53,12.82-12.7.04-7.21-5.77-13.05-12.89-12.96-7.1.09-12.7,5.79-12.69,12.91,0,7.16,5.6,12.75,12.76,12.76Z"/><path class="cls-1" d="M26.47,239.55c4.8-10.92,13.17-16.78,24.74-18.18,7.6-.91,15.08-.37,22.15,2.94,6.18,2.89,10.53,7.61,13.57,13.65.58,1.14.6,1.9-.49,2.78-17.57,14.14-43.25,13.58-59.96-1.19Z"/><path class="cls-1" d="M39.91,195.03c.03-9.41,7.74-17.06,17.19-17.04,9.39.01,17.13,7.76,17.14,17.14,0,9.48-7.84,17.24-17.36,17.17-9.39-.07-16.99-7.8-16.96-17.27Z"/><path class="cls-1" d="M162.69,165.24c-8.87,9.81-13.94,21.03-15.13,33.82-6.07.66-12.46-4.33-12.77-10.49-.39-7.7-.09-15.43-.09-23.32"/><path d="M150.07,18.8c11.17.76,21.35,5.43,29.46,14.39,2.1,2.32,2.06,4.89.06,6.67-1.96,1.74-4.46,1.44-6.61-.92-6.48-7.12-14.55-11.07-24.12-11.37-4.04-.13-5.93-2.38-5.76-4.78.2-2.79,2.2-4.09,6.97-3.98Z"/></svg>