<?xml version="1.0" encoding="UTF-8"?><svg id="Layer_1" xmlns="http://www.w3.org/2000/svg" width="218mm" height="230mm" viewBox="0 0 617.95 651.97"><defs><style>.cls-1{fill:#012b27;}</style></defs><path class="cls-1" d="M297.73,651.94c-5.93-40.68-7.51-82.29-18.85-122.06-.97-2.41-.97-6.88-4.39-6.72-15.33,4.91-28.71-.33-37.9-12.41-2.96-3.69-5.43-7.86-6.27-12.22-1.29-4.65,1.09-18.83,4.14-6.03,2.02,8.95,8.14,7.67,14.5,3.43,2.74-2.3,8.65-4.13,10.13-7.92-8.62-12.47-20.19-22.9-30.34-35.23-2.3-3.24-4.02-1.1-4.79,2.18-6.61,35.69-32.59,27.27-59.82,21.67-2.59-.3-3.9-2.24-2.42-4.71,6.02-13,16.59-17.85,28.46-20.7,8.91-3.27-6.36-3.86-7.34-5.82.85-5.86,7.93-7.38,17.54-7.73,2.01-.57,13.65,1.59,7.44-1.84-14.23-8.23-27.95-18.8-43.05-26.21-4.2,1.57-4.37,9.4-6.37,13.26-6.61,26.1-37.1,17.78-57.26,12.79-2.6-.39-3.53-2.59-2.01-4.92,6.25-12.66,16.75-17.57,28.59-20.42,5.96-1.6.34-3.7-2.69-3.96-2.87-.68-8.28-1.1-4.1-4.34,7.06-5.78,14.88-4.34,22.77-4.14,1.26-.19.35-1.02-.38-1.62-8.94-6.88-17.81-13.76-26.84-20.25-3.81-3.48-8.73-.63-12.67,1.2-10.82,4.71-20.73,2.69-28.75-6.14-3.45-3.92-6.53-8.03-5.43-13.73,1.67-6.69,4.05,2.91,6.14,4.17,4.22,3.66,11.16-4.81,14.44-7.29,1.83-3.19-2.98-6.14-4.5-8.72-17.05-19.77-24.47-45.58-38.74-67.12-2.9-4.13-8.32-5.75-12.91-7.52-24.14-8.9-16.2-42.77-6.91-60.31.99-2.25,3.23-2.79,5.23-1.27,10.6,6.76,14.23,17.89,16.03,30.12-.04,1.18.93,4.29,2.33,2.69,1.9-2.1,2.63-14.75,6.8-8.2,4.47,8.76,1.65,19.2-.69,28.2-2.57,6.62-3.27,13.7.23,20.01,2.54,3.65,3.65,14.1,9.52,7.9,5.47-4.29,6.42-3.91,3.6-9.99.48-2.37,4.08-.28,5.26.68,6,5.04,7.36,15.43,3.03,21.92-1.33,2-3.47,3.75-4.51,5.86-3.84,9.87,54.03,66.46,58.19,60.65,5.88-12.07,7.2-27.88,21.62-33.44,6.75-2.52.05,7.19-.2,9.39-.97,3.4,1.51,2.9,3.13,1.15,9.03-8.35,21.19-17.08,33.88-12.31,1.96,11.36-8.47,29.51-15.15,38.29-7.78,11.31-18.52,8.52-29.7,7.85,13.52,10.22,29.54,17.53,44.16,26.82,1.37.81,3.04,1.54,4.1-.03,2.14-5.22,6.22-12.36,5.28-17.83-1.18-3.59-7.89-2.25-10.62-3.58-1.77-2.08,4.34-4.11,5.87-4.34,12.85-1.28,25.73,8.19,28.38,20.62,1.93,7.23-2.89,15.35-1.12,22.53,1.06,3.97,4.57,6.74,7.84,9.01,5.1,3.61,9.79,7.74,15,12.08.69.7,2.03,1.58,2.74,1,3.04-25.26,1.51-51.35-4.39-75.25-.87-1.3-2.93-1.64-4.55-1.82-18.39-1.97-31.29-16.31-24.58-29.89,2.65-.9,2.37,7.04,4.48,8.36,2.45,2.25,7.3-.86,10.22-2.16,2.46-.86,4.48-2.81,2.71-5.37-20.43-38.15-60.68-57.55-90.39-87.07-3.33-1.96-7.13-.08-10.52.8-9,2.26-21.3-6.35-21.12-16.24-.02-1.31,1.17-3.67,2.65-2.82,4.18,5.82,3.83,5.61,10.14,1.72,4.95-2.18.12-6.36-1.35-9.22-4.45-8.21-8.61-16.64-12.46-25.15-6.34-19.67-15.44-6.99-29.89-8.19-8.03-.17-14.85-5.11-18.37-12.17-3.86-6.4-17.67-34.17-9.54-37.02,13.5-2.04,23.32,6.49,32.32,15.72,2.22,1.85,2.53-.72,2.01-2.26-.67-2.24-1.66-4.78-2.37-7.38-.3-1.33.1-2.1,1.27-1.99,6.85,1.57,10.8,7.43,13.71,12.74,1.14,2.38,3.33,2.55,5.19,4.28,3.85,5.85,4.15,13.26,6.38,20.08.62,4.52,5.24,1.91,6.88-.66.64-1.16-.04-3.18.64-4.01,3.61-1.81,6.2,4,6.81,6.89,3.23,9.37-9.51,12.51-5.4,18.39,5.26,7.79,10.59,15.69,16.24,24.07,1.26,2.25,2.84,2.76,3.69-.03,4.54-12.01,8.47-27.79,22.45-29.35,1.32,2.47-4.77,9.45-1.54,10.79,10.17-7.67,19.28-17.19,33.35-14.94,10.44-.1-5.91,31.77-9.28,35.43-7.64,12.5-19.05,15.42-32.5,10.79-1.49-.37-3.19-.53-3.6-.05-.56.62.67,1.6,1.19,2.11,6.6,5.71,13.26,11.48,20.23,17.5,1.77,1.76,3.52,1.73,4.29-.77,2.71-7.1,4.64-14.39,11.51-18.85.81-.62,2.74-1.45,2.8-.02-1.71,8.68-.89,6.63,4.81,2.46,2.41-2.68,20.97-10.04,17.78-.96-1.53,5.79-5.38,11.75-5.55,17.87,5.75,6.16,13.41,11.01,11.39,21.03-2.12,8.57-4.95,13.38,4.12,19.09,1.53,1.1,2.51-.04,3.01-1.42,4.78-10.87,8.94-32.46,23.64-32.69.61,2.9-1.94,6.26-2.47,8.89-2.81,11.35,14.88-16.19,33.89-11.91,2.78.12,4.27,2.15,3.41,4.8-3.78,16.22-10.16,33.65-25.13,42.07-10.16,5.75-32.17-7.06-28.05-1.52,12.27,15.69,22.09,30.67,30.23,48.32.72,1.43,1.83,3.13,2.89,1.06,3.69-7.53,7.09-15.31,10.94-22.94,1.02-2.07,2.19-4.47,1.92-6.81-.51-3.44-3.46-5.68-4.87-8.78-4.95-9.47-1.84-21.03,7.22-25.97,1.87-1.52,11.98-3.89,7.48.89-1.31,1.14-3.41,1.91-4.04,3.66-.58,1.7,2.1,3.8,3.32,5.4,1.63,1.42,3.06,4.86,5.54,4.41,9.17-10.98,16.32-23.75,24.41-35.01,3.09-3.65,2.85-8.62-2.02-10.68-17.49-4.81-28.14-15.54-24.9-34.66.63-5.83,4.99-37.49,14.35-29.92,12.97,5.51,16.22,37.89,18.74,30.18,1.14-2.45,1.84-11.86,5.28-6.94,5.57,5.49,2.5,26.43,4.37,21.21,2.56-10.3,7.15-20.53,8.44-30.91-.35-1.28-1.89-2.41-3.13-3.21-7.56-4.79-9.76-11.18-5.95-17.03,2.26-3.38,2.84-.35,4.65,1.9,2.86,2.49,6.81,1.99,6.18-2.4-.03-3.16.2-8-1.35-10.17-1.38-2.1-5.23-1.23-7.67-.76-7.91,1.5-16.29,3.77-23.86.41-11.29-4.53-23.13-34.06-21.62-46.45,13.37-4.98,25.3,5.99,34.47,15.04,6.72,3.36-4.66-12.43.89-11.78,19.64,6.61,27.26,52.35,25.53,70.93.46.79,1.09-.51,1.43-1.09,4.25-7.85,8.84-18.4,18.92-19.21.99,2.96-2.1,6.76-2.51,9.52-2.16,10.25,14.93-16.37,34.57-12.06,9.99-.22-7.73,32.23-10.56,36.47-21.08,29.79-43.6-10.39-48.13,18.97-.36,2.63,2.55,3.08,4.49,3.49,1.87.37,3.99,1.14,5.22.35,1.88-1.25,1.37-4.2,2.53-5.87,2.25-2.22,3.55,3.11,3.76,4.8,1.01,10-7.13,18.97-16.94,19.74-2.91.19-6.17.37-8.37,2.51-10.03,13.5-18.08,28.6-27.22,42.8-11.02,20.3,13.91-13.83,33.74-6.39,4.8,5.68-8.88,30.14-12.74,36.35-6.97,10.14-17.65,13.58-29.44,9.84-3.93-1.03-8.52-4.19-12.32-2.13-2.11,1.31-2.96,4.22-3.73,6.5-2.64,8.37-5.71,16.85-8.53,25.71-.96,3.17,2.94,3.39,5.14,3.7,4.29.62,8.05.88,9.41-2.47,1.54-3.63,1.56-13.4,5.74-4.54,4.36,12.6-3.02,29.3-16.96,32.53-2.4.35-4.63,1.8-4.21,4.51,1.66,27.15,10.39,52.13,20.54,76.86,1.16,2.68,1.28.18,1.35-1.42,1.55-29.12,7.47-57.04,19.55-83.31.99-1.9.68-3.79-1.12-4.95-6.15-4.2-9.13-9.38-9.37-16.62.04-5.08.86-14.51,4.47-20.82,1.07-1.13,2.64-.53,3.87.21,5.53,3.18,8.51,8.5,10.37,14.74.34.95.68,2.49,1.69,2.66.85,0,1.33-2.09,2.28-3.41,1.11-1.5,3.17-2.42,4.64-3.57,8.51-8.47,15.2-18.81,22.84-28.06,4.7-5.87-14.87-7.48-4.38-37.53,3.81-10.98,15.34,7.22,16.75,12.3,1.68,4.18,1.91-.7,3.03-2.42,2.28-2.4,3.36,3.13,4.35,4.58,1.26,3.59,3.87,1.99,6.42-.2,2.77-2.11,5.75-4.45,7.2-7.34,1.92-3.97.88-9.04.17-13.39-5.27-19.65,14.59-39.18,32.58-30.63,1.38.74,2.22,1.88-.26,2.27-7.28.66-12.05,1.44-8.48,10.21,1.83,2.86,3.21,14.05,8.25,10.81,7.43-4.36,14.89-8.74,22.99-13.51,3.13-1.65,1.68-3.24-1.66-4.3-15.73-4.42-25.68-15.04-23.16-32.2,1.18-10.49,2.68-20.78,7.88-30.34,1-2.48,3.61-3.24,5.74-1.58,10.86,6.61,14.44,17.83,16.31,30.11.24,2.8,1.99,4.01,3.09.75,1.34-2.32.91-7.83,3.83-8.33,4.66,2.8,5.51,5.94,4.09,16.71-.92,6.21-1.87,10.85-3.19,17.48-.69,2.57.28,3.41,2.49,1.86,30.59-18.96,56.31-42.62,76.24-73.46.86-1.35,1.23-2.65.31-3.98-9.12-6.79-10.14-18.88-3.35-27.4,1.31-1.67,5.85-3.63,5.98-1.02-.31,1.45-2.01,2.85-1.65,4.44,1.29,2.91,4.51,4.09,6.95,6.38,1.56,1.79,3.99,1.27,4.47-1.17,2.35-4.16,12.25-38.99,13.47-30.76.53,1.33-.91,10.36,1.16,7.58,3.86-5.83,7.31-11.81,14.21-14.35,6.22-2.43.79,6.41.44,8.72-.95,3.08.34,3.89,2.66,1.77,8.95-8.05,18.34-15.06,31.16-13.48,2.6.1,4.36,2.16,3.4,4.79-4.32,19.92-16.7,50.3-41.87,42.35-13.12-4.68-18.7-4.49-23.91,9.22-7.19,16.21-16.76,30.86-28.4,44.31-2.34,1.99-1.42,4.3.79,5.68,3.67,2.27,6.93,6.6,11.37,7.05,3.15-.2,3.67-6.65,6.98-7.09,1.08.17,1.13,1.36,1.33,2.27.58,10.65-9.91,18.93-19.42,21.85-7.8,2.88-13.79-1.77-20.42-4.36-9.3-.17-16.5,9.44-24.31,13.74-42.72,30.92-91.59,55.57-121.18,101.11-1.38,1.73-.67,3.86,1.22,4.8,4.66,2.77,8.92,6.05,14.13,7.54,6.84,1.95,8-6.95,9.36-11.63.63-2.04,1.74-.89,2.18.28,1.82,4.1,1.6,8.86.12,13.22-6.92,17.33-19.72,25.73-40.39,23.26-1.71-.22-4.04-.24-5.04.93-11.23,30.66-14.19,63.74-16.28,96.36-.22,2.84,1.12,1.45,1.98-.12,9.06-14.19,18.08-28.27,27.14-42.55.91-1.48,1.06-2.86-.6-3.86-14.1-5.93-11.7-23.77-8.12-35.92,3.34-9.75,15.94,8.52,16.88,13.12,2.6,7.57,2.19-10.16,6.35.59.9,1.88,1.52,5.53,3.18,6.25.88.28,1.8-.53,2.53-1.11,7.38-6.33,14.94-12.72,22.3-19.35,6.32-4.81,2.57-13.1,1.1-19.43-2.87-13.97,10.33-27.28,23.1-29.33,3.05-.28,6.75-.17,9.62,1.38,3.15,2.08.22,3.56-2.57,3.43-7.04.05-7.27,5.36-5.06,10.34,1.69,3.41,2.16,8.47,5.09,11.17.84.35,1.98-.15,2.8-.66,8.58-5.14,17.48-10.22,26.65-15.88,3.78-2.72-6.54-4.42-8.27-5.58-25.37-8.89-18.23-41.08-9.35-60.34.98-2.54,3.57-3.22,5.69-1.59,10.72,6.61,14.54,17.56,16.34,29.83,1.78,8.26,4.39-2.79,5.14-5.59,3.11-7.11,7.97,7.6,7.09,10.54-.14,7.19-2.24,14.33-4.02,21.8-.72,2.21.62,2.56,2.31,1.29,25.09-15.51,46.6-35.04,63.68-58.87,2.74-5,11.33-10.75,9.3-16.75-1.02-1.77-2.85-3.05-4.2-4.57-5.8-6.3-3.37-18.87,2.74-23.8,1.18-.8,2.67-1.81,4.05-1.3,1.07.94-.42,2.77-.79,3.89-1.77,4.1,3.5,5.54,5.91,7.9.83.59,1.67,1.29,2.6,1.52,1.52.42,2.25-1.23,2.65-2.47,3.33-10.14,7.14-19.6,10.12-29.53.61-2.99,4.38-2.08,5.84-4.29,4.15-6.74,8.07-14.56,17.01-16.37,4.51-.57-8.04,17.38.87,11.03,8.97-7.94,18.37-14.81,31.15-13.47,2.44.08,4.4,1.89,3.49,4.51-4.19,20.9-17.35,51.5-43.44,42.35-8.25-3.24-15.22-5.09-17.87,5.39-7.88,22.91-19.72,43.43-35.41,61.64-1.54,1.67-1.03,3.33.58,4.5,4.22,2.17,8.89,9.87,13.96,6.37,1.63-1.42,2.39-4.98,4.07-6.25,4.75-2.05.79,10.24-.1,11.51-5.03,8.66-16.65,15.91-27.24,13.2-4.04-.75-8-4.84-11.53-5.12-3.19-.25-6.19,2.1-8.74,3.89-18.36,13.36-36.82,26.39-55.41,39.26-6.65,4.58,14.49,2.96,8.16,8.49-.74,1.28-11.29,4.06-6.36,5.49,12.32,1.33,24.09,3.78,32.1,14.68,1.46,1.76,1.22,4.13-.9,5.26-17.75,11.64-48.38,22.82-59.73-2.15-2.2-2.54-3.28-12.32-7.92-8.21-17.46,14.65-35.09,30.8-46.37,51.08,2.4,3.9,8.17,5.24,11.8,7.91,10.16,6.27,10.9-1.37,14.31-9.34.67-1.13,1.58-.25,1.9.64,3.41,9.11-1.97,18.23-7.63,25.14-8.44,10.04-18.25,12.8-33.78,10.58-1.38-.12-3.12-.26-4.06.76-13,41.46-12.91,86.19-17.7,128.9-4.63,1.16-16.25-.1-20.36.33-.62-.01-1.14-.2-1.43-.75l-.05-.1ZM181.06,272.13c.01.28.5.59.78.8,3.61,2.53,7.02,4.9,10.68,7.46.68.52,1.56.83,2.07-.08,1.64-3.41,2.96-6.84,4.22-9.68.09-.25.23-.63.15-.85-.1-.43-.86-.36-1.29-.31-5.36.75-10.18,1.47-15.51,2.23-.32.05-1,.15-1.07.36l-.02.07Z"/><path class="cls-1" d="M411.35,120.83c13.72,5.42,17.37,20.27,19.41,33.77.07,1.79,1.7,3.73,2.61,1.03.78-2.79,1.82-7.21,2.42-9.34.41-1.72,2.21-1.9,3.13-.25,1.35,2.84,2.68,5.91,3.15,8.88.5,4.04,0,8.22-.7,12.23-1.91,9.66-5.27,18.65-8.42,28.35-.66,1.93-1.74.91-2.5-.26-1.82-2.6-3.3-4.97-5.62-6.45-2.8-1.79-6.42-2.22-9.45-3.81-13.13-6.17-17.34-18.69-14.54-32.83,1.44-10.15,3.35-20.23,8.62-29.51.4-.74.96-1.64,1.75-1.78l.14-.02Z"/><path class="cls-1" d="M406.78,59.42c.64.33.75,1.41.9,2.12.56,3.13,1.01,5.76,1.48,8.26.57,2.6,2.35,3.11,2.88.15,1.44-6.33,3.19-12.42,5.98-17.71,3.04-5.75,7.32-10.58,13.78-13.76.61-.31,1.36-.58,2-.53,1.05.03,1.73,1.2,2.12,2.17,5.24,12.26,6.77,24.98,6.25,37.83.2,12.71-8.18,20.94-19.96,24.77-5.47,1.96-9.02,2.65-12.84,7.77-.7.92-2.15,2.46-2.67.53-.68-2.71-1.15-5.43-1.78-8.15-1.57-7.26-3.52-14.58-4.6-21.97-1.04-7.1-.97-13.98,4.61-20.37.42-.5,1.21-1.26,1.74-1.13l.1.03Z"/><path class="cls-1" d="M180.68,49.78c.63-.12,1.49.58,2.06,1.05,6.5,5.19,12.57,9.17,16.25,15.85,1.18,1.3,7.44,16.82,8.55,14.73.78-2.96.41-7.83,1.53-11.48.99-1.21,2.99,1.9,3.69,2.45,1.53,1.55,1.95,3.38,2.26,5.51,1.41,8.47,2.7,17.17,1.81,25.53-.56,5.5-1.71,10.89-2.65,16.35-.4,2.79-1.97,1.84-3.65.69-2.53-1.57-5.04-3.67-7.66-4.76-18.02-3.18-28.02-12.04-28.03-31.37-.14-10.43-.06-20.84,4.28-32.41.27-.77.73-1.91,1.43-2.11l.12-.03Z"/><path class="cls-1" d="M245.05,73.64c-.61-.35-1.03-1.13-1.43-1.75-3.15-5.18-8.77-5.5-14.15-6.38-13.14-1.93-21.43-13.17-21.79-26.4-.83-11.28-.43-22.53,3.17-33.71.26-.85.7-1.89,1.46-2.22.69-.36,1.73-.15,2.53.13,12.9,4.42,18.12,16.09,22.56,28.47.23.67.6,1.61,1.09,1.95,3.64,1.72.52-16.44,5.87-11.33,1.69,2.39,3.3,5,4.24,7.68,3.1,9.67,1.11,19.9-.09,29.73-.4,2.95-.82,5.9-1.23,8.85-.31,1.47-.26,5.27-2.12,5.02l-.11-.05Z"/><path class="cls-1" d="M538.71,94.48c7.29,11.56,9.13,32.56,6.96,45.81-2.06,9.99-10.71,15.83-20.49,18.45-4.75,1.39-9.19,2.64-11.46,7.56-.88,1.83-2.19,2.51-2.91-.07-2.14-10.52-5.13-21.07-6.51-31.71-.69-6.02-.04-11.96,4.4-17.53.44-.58,1.3-1.51,1.88-1.45.58.06.81.75.97,1.31.81,3.38,1.27,6.49,2.07,9.43.9,2.6,2.2,1.79,2.63-.51,3.28-12.8,7.22-25.12,19.78-30.87.77-.37,1.86-.79,2.55-.49l.13.06Z"/><path class="cls-1" d="M219.17,184.06c-.69-.05-1.41-.56-2.03-.92-6.71-4.13-13.49.68-20.4,1.47-10.45,1.55-20.57-4.22-25.22-13.85-4.3-7.69-8.12-15.67-10.17-24.26-.67-2.85-1.19-5.8-1.42-8.79-.11-1.53.59-2.52,2.09-2.81,14.16-2.13,24.31,6.35,33.53,15.95.95,1.01,2.32,1.16,2.31-.45-.34-3.41-2.26-6.6-2.82-9.96-.21-5.25,7.4,1.48,8.84,2.73,1.7,1.74,2.97,3.84,4.26,5.92,5.8,9.3,8.3,20.02,11.16,30.48.24,1.18,1.44,4.05,0,4.5h-.12Z"/><path class="cls-1" d="M310.47,123.62c-.32-.46-.51-1.03-.65-1.65-1.93-13.31-5.21-26.72-5.59-40.21.15-1.65.59-3.32,1.38-4.9.64-1.38,4.59-7.27,5.85-3.69,1.06,3.35,1.08,6.86,2.56,9.84.85,1.23,1.91.34,2.17-.88,2.68-13.11,7.15-25.1,19.41-31.44,1.58-.94,3.29-.8,4.13,1.02,5.56,10.55,6.04,22.61,6.42,34.27.3,13.95-4.07,22.5-17.57,27.53-3.37,1.33-7.09,1.84-10.24,3.52-1.52.81-2.88,1.95-3.86,3.39-1.19,1.58-2.01,5.26-3.91,3.33l-.1-.13Z"/><path class="cls-1" d="M59.72,338.53c-.71-.06-1.42-.6-2.05-.99-2.26-1.42-4.55-1.83-6.85-1.69-6.36.69-12.8,4.27-19.42,3.24-8.36-.63-15.52-6.28-19.31-13.91-5.86-10.23-10.76-21.22-11.55-33.14-.19-1.92,1.2-2.85,2.95-2.94,13.77-1.45,23.53,6.27,32.25,16.06.91.99,2.34,1.21,2.41-.37-.24-3.06-1.78-5.99-2.47-8.96-.14-.63-.21-1.34-.03-1.92.41-1.39,1.99-.96,3.04-.31,9.27,4.56,13.26,14.88,16.3,24.12,1.89,5.84,3.52,11.79,5.26,17.67.29.92.71,3.01-.42,3.15h-.12Z"/><path class="cls-1" d="M86.91,107.06c14.29-3.59,26.16,5.5,35.25,15.56.95,1.09,2.24,1.09,2.3-.47-.17-3.16-1.91-6.16-2.64-9.2-.15-.62-.21-1.31-.01-1.9.43-1.36,2.02-1.04,3.07-.36,14.04,7.66,17.3,28.21,21.69,42.4.52,1.91-.93,1.81-2.25,1.36-10.04-3.68-10.91,0-19.86,1.33-13.5,1.65-22.18-4.07-27.86-16.3-4.95-9.18-8.91-18.86-10.11-29.87-.11-.82-.19-1.87.34-2.44l.1-.1Z"/><path class="cls-1" d="M466.47,155.7c.73-.16,1.69.34,2.38.8,11.91,7.51,15.4,19.95,16.94,33.45.18,1.35,1.21,2.36,2.13,1.01,1.86-3.18,1.78-7.53,4-10.47,2.23-1.94,4.51,5.66,4.87,7.08,1.85,15.21-3.72,28.79-9.16,43.12-.76,1.92-1.43.39-1.92-.68-3.22-7.23-11.32-7.27-17.24-11.08-12.14-6.94-15.43-18.45-12.54-32.1,1.46-10.05,3.46-20.01,8.71-29.34.38-.71.97-1.58,1.68-1.76l.15-.03Z"/><path class="cls-1" d="M475.45,294.45c.4.46.53,1.29.67,1.93.84,3.42.93,6.54,2.17,9.5,1.02,1.64,2.02-.26,2.22-1.42,1.54-6.2,3.29-12.24,6.09-17.52,3.02-5.68,7.25-10.49,13.74-13.69,1.77-.98,3.31-.66,3.99,1.41,5.88,14.76,9.58,34.76,3.66,49.85-3.19,6.31-9.4,10.17-16.26,12.39-2.88.95-5.99,1.65-8.58,3.01-2.09,1.09-3.89,2.66-5.16,5.15-.36.58-.7,1.59-1.41,1.57-.47-.1-.96-1.05-1.22-1.61-4.95-10.32-7.12-23.86-6.16-34.76.57-6.48,2.26-12.04,5.11-15.41.27-.32.68-.74,1.05-.48l.07.06Z"/><path class="cls-1" d="M481.63,74.8c.51.2.89.7,1.21,1.35,5.43,12.33,7.1,25.26,6.68,38.29.33,11.79-7.08,20.58-18.25,24.28-5.77,2-12.18,2.8-14.91,9.17-.28.48-.59,1.1-1.12.98-9.62-17.72-9.92-43.25-2.16-52.05,1.09-1.22,1.53.66,1.73,1.53.65,2.89,1.18,5.68,1.8,8.34.91,3.06,2.26,1.94,2.68-.32,3.15-12.79,7.33-24.84,19.75-31.07.73-.38,1.74-.79,2.44-.56l.14.05Z"/><path class="cls-1" d="M237.42,112.81c.58.33.7,1.2.85,1.84.75,3.1,1.03,6.01,2,8.82.89,1.75,2.12-.4,2.39-1.49,2.01-6.03,3.68-12.24,6.6-17.76,3.19-5.86,8.2-11.78,15.21-13.28,1.06.03,1.76,1.09,2.15,2.06,4.55,10.74,6.47,21.86,6.34,33.18.21,13.06-2.72,21.35-15.05,26.99-4.19,2.15-8.83,2.55-12.91,4.63-2.1,1.1-3.9,2.81-5.13,5.48-1.28,2.82-3.09,1.73-3.49-.95-1.87-11.49-3.98-22.96-5.34-34.52-.71-5-.1-9.93,4.14-13.91.56-.54,1.45-1.33,2.15-1.13l.1.04Z"/><path class="cls-1" d="M354.82,167.82c-2.71-11.86-4.18-24.27-5.89-36.38-.99-5.41.16-11.05,4.8-14.48.39-.3.9-.59,1.34-.5,2.17.62,1.73,13.08,4.77,11.36.33-.27.57-.78.73-1.41,2.81-13.25,7.21-25.39,19.8-31.61,1.42-.78,3.03-.83,3.74.87,6.31,14.66,8.21,30.27,5.59,45.7-1.83,8.17-8.86,13.43-16.56,16.24-4.93,1.88-10.86,2.36-14.12,6.92-1.2,1.41-2.18,5.53-4.11,3.41l-.09-.13Z"/><path class="cls-1" d="M293.24,38.13c2.09-2.48,3-5.79,4.75-8.91.32-.59.68-1.4,1.34-1.54.53-.1,1.1.5,1.61,1.4,3,5.44,2.52,10.85.75,15.68-4.18,10.89-9.17,20.76-14.32,31.99-.26.57-.77,1.57-1.31,1.48-.73-.2-1.12-1.29-1.47-1.98-1.49-3.19-2.46-5.65-4.48-7.59-2.37-2.29-5.87-3.51-8.57-5.58-12.36-8.89-14.41-22.35-8.68-36.17,3.33-9.64,6.79-19.36,13.8-27.05,1.07-1.13,2.34-1.03,3.43-.1,6.63,5.77,9.69,13.04,10.88,20.95.73,4.85.76,9.98.5,15.22-.1,1.05.24,3.08,1.65,2.27l.11-.08Z"/><path class="cls-1" d="M121.48,38.15c14.11,2.62,20.55,16.09,24.75,28.91.78,3.06,2.68,2.91,3.06-.13.29-2.47.55-5.02.87-7.72.11-.75.29-1.74,1.11-1.91.86-.2,2.27.83,3.21,1.72,2.53,2.4,3.53,5.84,3.83,9.22,1.01,13.06-.08,25.82-2.72,38.84-.51,2.37-2.42.58-3.59-.19-2.6-1.68-5.25-3.54-8.03-4.83-4.88-2.25-10.39-3.06-15.21-5.5-9.69-4.7-11.61-13.91-12.12-23.9-.81-10.83-.11-21.61,3.37-32.34.24-.8.61-1.81,1.34-2.11l.13-.05Z"/><path class="cls-1" d="M262.13,215.49c1.31-2.08,1.41-4.73,2.21-7.15.35-1.3.61-2.88,1.48-3.28.75-.36,1.57.08,2.19.55,3.01,2.26,3.31,6.27,3.3,9.75.34,14.08-4.61,26.6-9.78,39.83-.73,1.72-1.43.08-1.86-.82-1.19-2.58-2.95-4.27-4.98-5.51-3.08-1.88-6.63-2.77-9.94-4.38-12.51-5.49-17.32-17.47-15.08-30.88,1.2-11.01,3.35-21.87,8.96-31.8.5-.93,1.35-1.9,2.41-1.74,8.64,3.62,13.28,11.77,15.87,19.81,1.38,4.39,2.22,9.12,2.88,13.94.08,1.18.95,3.03,2.22,1.79l.1-.11Z"/><path class="cls-1" d="M133.9,289.28c1.48,1.61,2.17,4.16,2.96,6.22.93,3.3.49,7.14.38,10.67-.59,12.03-4.78,22.5-9.37,33.95-.74,1.71-1.45.14-1.89-.78-1.19-2.56-2.93-4.27-4.95-5.52-3.52-2.18-7.74-3.15-11.43-5.18-10.55-5.61-15.38-15.68-13.96-28.04,1.94-11.72,3.33-23.65,9.69-34.17.98-1.59,2.6-1.42,3.96-.52,6.23,3.68,10.07,8.89,12.59,14.92,2.27,5.42,3.46,11.54,4.38,17.81.14.95.65,2.73,1.85,2.17,1.1-.86,1.8-5.1,2.53-6.95.67-1.46.92-5.95,3.16-4.65l.11.08Z"/><path class="cls-1" d="M384.12,6.54c10.48,10.68,8.23,26.34,4.87,39.69-.57,2.81,1.39,2.51,2.7.8,1.7-1.55,6.85-11.11,8.19-5.06.56,3.92.17,7.44-1.61,10.94-1.95,4.52-4.34,9.05-7.22,13.01-4.5,6.17-9.71,11.57-15.71,18.34-.45.51-1.22,1.45-1.73,1.47-.64-.22-.45-1.39-.54-2.02-.04-9.47-8.64-13.51-12.73-20.92-6.73-11.1-5.19-19.91,1.39-30.66,5.2-9.35,11.47-17.86,19.99-24.62.63-.52,1.53-1.17,2.26-1l.14.03Z"/><path class="cls-1" d="M538.52,234.55c-.48-.57-.36-1.37-.22-2.07.48-2.42,1-4.84,1.41-7.27,1.04-10.84,4.21-20.32,15.78-23.16,8.9-1.92,17.97-3.82,27.07-1.48,2.07.41,2.79,1.95,2.17,3.85-2.46,9.48-9.44,14.94-17.25,20.07-.62.45-2.66,1.5-.87,1.55,1.55.07,4.98-.05,6.28.08,1.16.07.79.98.34,1.73-3.92,6.98-15.93,9.69-31.49,7.75-1.03-.12-2.5-.31-3.12-.94l-.1-.11Z"/><path class="cls-1" d="M359.3,269.58c3.22-1.8,6.21-4.54,9.6-6.04,3.62-1.78,7.56-2.82,12.15-2.37,1.85.07,3.02,1.17,2.49,3.09-2.14,10.45-6.84,21.93-16.45,27.2-4.61,1.95-10.29.43-15.13-.61-2.06-.42-4.29-.69-6.55-1.08-.82-.16-1.72-.56-1.54-1.53,1.71-4.74,3.08-9.86,5.4-14.79,1.93-3.92,4.69-7.6,9.33-10.38.78-.5,2.27-1.13,2.01.49-.15.97-.57,2.13-.83,3.12-.34,1.3-.94,2.81-.54,2.9h.06Z"/><path class="cls-1" d="M90.99,234.39c1.02-1.3.61-5.47,1.98-6.11.44-.01.75.33,1.06.64,3.11,3.52,3.88,7.51,3.8,13.18-.14,4.2-1.04,9.1-2.69,14.51-.24.78-.62,1.73-1.17,2.2-.6.55-1.4.41-2.09.12-3.15-1.46-6.12-2.71-9.45-3.86-17.75-6.08-11.19-24.3-9.94-38.7.14-1.99,1.05-2.83,2.98-1.91,5.84,2.62,9.27,6.76,11.47,11.72.95,2.13,1.67,4.41,2.27,6.78.18.74.77,2.56,1.69,1.53l.08-.11Z"/></svg>