<?xml version="1.0" encoding="UTF-8"?>
<svg fill="#FFDA03" xmlns="http://www.w3.org/2000/svg" version="1.1" viewBox="0 0 99.2 96.4">
  <!-- Generator: Adobe Illustrator 28.7.1, SVG Export Plug-In . SVG Version: 1.2.0 Build 142)  -->
  <g>
    <g id="Layer_1">
      <path d="M98.1,7.2v88.7c-.4,0-.9,0-1.3,0H1.1V7.2h1.3c7.6,0,15.3,0,22.9,0,.6,0,1-.1,1.2-.8,1.3-4.3,5.9-6.9,10.5-5.4,3.4,1.1,6.4,4.8,5.6,9.5-.6,3.6-4.2,6.8-8.1,6.9-1,0-1.7-.7-1.8-1.6,0-1,.5-1.6,1.6-1.8.4,0,.7,0,1.1-.2,2.2-.5,3.8-2.4,4-4.7.1-2.2-1.4-4.3-3.6-4.9-2.5-.8-5.4.7-6,3.1.9,0,1.8,0,2.7,0,1.1,0,1.8.8,1.8,1.7,0,.9-.7,1.5-1.7,1.6-.3,0-.7,0-1,0H4.5v11.6h90.2v-11.6h-1c-6.6,0-13.2,0-19.8,0-.8,0-1.1.2-1.3,1-1,3.3-4.2,5.7-7.7,5.7-1,0-1.8-.6-1.9-1.5,0-1,.5-1.7,1.6-1.9.4,0,.8,0,1.2-.2,2.5-.6,4.2-3,3.8-5.5-.4-2.5-2-3.9-5-4.3-1-.1-1.6-.8-1.6-1.8,0-.9.8-1.6,1.8-1.6,3.4,0,6.7,2.4,7.7,5.8.2.7.5,1,1.3,1,7.7,0,15.4,0,23.1,0s.7,0,1.1,0h0ZM47.8,92.5v-20h-19.9v20h19.9ZM51.3,72.4v20h19.9v-20h-19.9ZM47.8,25.6h-20c0,.2,0,.4,0,.5,0,6.2,0,12.4,0,18.7,0,.7.3.8.9.8,6.1,0,12.2,0,18.4,0,.2,0,.5,0,.7,0v-19.9h0ZM51.3,25.6v20c.2,0,.3,0,.4,0,6.2,0,12.5,0,18.8,0,.7,0,.8-.3.8-.9,0-6.1,0-12.2,0-18.4,0-.2,0-.5,0-.7h-19.9ZM4.5,25.6v19.9h19.9v-19.9H4.5ZM74.8,25.6c0,.2,0,.4,0,.5,0,6.2,0,12.4,0,18.7,0,.7.3.8.9.8,6.1,0,12.2,0,18.3,0,.2,0,.5,0,.8,0v-19.9h-19.9ZM27.9,69h19.9v-19.9h-19.9s0,19.9,0,19.9ZM24.4,72.5H4.5v19.9h19.9v-19.9ZM94.6,92.5v-20h-19.9v20h19.9ZM4.5,49.1v19.9h19.9v-19.9H4.5ZM94.7,69v-19.9h-19.9v19.9h19.9ZM51.3,49.1v19.9h19.9v-19.9s-19.9,0-19.9,0Z"/>
      <path d="M63,8.9c0,4.5-3.6,8.1-8.2,8.3-1,0-1.8-.6-1.9-1.5,0-1,.5-1.7,1.7-1.9,2.8-.3,4.5-1.8,4.9-4.3.4-2.5-1.3-5.1-3.8-5.6-.4,0-.8-.1-1.2-.2-1-.2-1.6-.9-1.5-1.8,0-.9.8-1.5,1.8-1.5,4.7.2,8.1,3.7,8.3,8.4h0Z"/>
      <path d="M52.9,8.9c0,4.5-3.7,8.1-8.2,8.3-1,0-1.8-.6-1.9-1.5,0-1,.5-1.7,1.7-1.9,2.8-.3,4.4-1.8,4.9-4.2.5-2.6-1.3-5.1-3.8-5.7-.4,0-.8-.1-1.2-.2-1-.2-1.6-.9-1.5-1.8,0-.9.8-1.5,1.8-1.5,4.7.2,8.1,3.7,8.3,8.4h0Z"/>
      <path d="M61.3,56.6c1.3-1.4,2.7-2.7,4-4,.5-.5,1-1,1.5-1.5.8-.7,1.7-.7,2.4,0,.7.7.7,1.7,0,2.4-1.6,1.7-3.3,3.4-5,5-.1.1-.2.2-.4.4,1.2,1.2,2.5,2.4,3.7,3.7.5.5,1.1,1.1,1.6,1.6.8.9.9,1.9.1,2.6-.7.7-1.7.6-2.5-.2-1.5-1.5-3-3-4.5-4.5-.2-.2-.4-.6-.6-.9-1.8,1.8-3.3,3.4-4.9,4.9-.2.2-.4.5-.7.7-.8.7-1.8.7-2.4,0-.7-.7-.6-1.7,0-2.5.4-.4.8-.8,1.2-1.2,1.4-1.4,2.8-2.8,4.2-4.2-1.7-1.7-3.3-3.3-4.9-4.9-.2-.2-.5-.5-.7-.8-.5-.7-.4-1.6.1-2.2.6-.6,1.5-.7,2.2-.1.6.4,1.1,1,1.6,1.5,1.3,1.3,2.7,2.7,4.1,4.1h0Z"/>
    </g>
  </g>
</svg>