<?xml version="1.0" encoding="UTF-8"?><svg id="Layer_1" xmlns="http://www.w3.org/2000/svg" width="117mm" height="69mm" xmlns:xlink="http://www.w3.org/1999/xlink" viewBox="0 0 331.65 195.59"><defs><style>.cls-1{fill:#deeefa;}.cls-2{fill:none;}.cls-3{clip-path:url(#clippath);}</style><clipPath id="clippath"><rect class="cls-2" x=".33" y=".3" width="331" height="195"/></clipPath></defs><g class="cls-3"><path class="cls-1" d="M331.32,187.89H.33v7.4h330.99v-7.4Z"/><path class="cls-1" d="M132.22,39.24c.52-.14.98-.43,1.34-.84.35-.41.58-.91.65-1.44.07-.53-.02-1.08-.26-1.56-.24-.48-.62-.88-1.09-1.15-.47-.27-1-.39-1.54-.35-.54.04-1.05.24-1.47.57-.42.33-.74.78-.91,1.3-.17.51-.18,1.06-.03,1.58.19.69.65,1.28,1.27,1.63.62.35,1.36.45,2.05.26Z"/><path class="cls-1" d="M140.59,110.99c-.53-.08-1.07,0-1.55.24-.48.23-.88.6-1.15,1.06-.27.46-.4.99-.37,1.52.03.53.22,1.05.54,1.48.32.43.76.75,1.26.93.5.18,1.05.2,1.56.07.52-.13.98-.42,1.34-.81.36-.4.59-.89.66-1.42.05-.35.03-.71-.05-1.06-.09-.35-.24-.67-.46-.96-.21-.28-.48-.52-.79-.7-.31-.18-.65-.3-1-.35Z"/><path class="cls-1" d="M155.48,113.09c-.53-.08-1.07,0-1.56.24-.49.23-.89.6-1.16,1.06-.28.46-.41,1-.38,1.54.03.54.22,1.06.54,1.49.32.43.76.76,1.27.94.51.18,1.05.2,1.57.07.52-.13.99-.42,1.35-.82.36-.4.59-.9.67-1.43.05-.35.03-.71-.06-1.06-.09-.35-.24-.67-.46-.96-.21-.29-.48-.53-.79-.71-.31-.18-.65-.3-1-.35Z"/><path class="cls-1" d="M128.29,69.86c.54.03,1.07-.1,1.53-.37.46-.27.84-.68,1.07-1.16.24-.48.32-1.03.25-1.56-.07-.53-.3-1.03-.66-1.44-.36-.4-.82-.69-1.34-.82-.52-.14-1.07-.11-1.57.07-.51.18-.95.5-1.27.93-.32.43-.51.95-.54,1.49-.02.36.03.71.15,1.05.12.34.3.65.53.91.24.27.52.48.84.64.32.16.67.25,1.02.27Z"/><path class="cls-1" d="M146.73,35.24c.52-.14.98-.44,1.34-.84s.58-.91.64-1.45c.07-.54-.03-1.08-.27-1.56-.24-.48-.62-.88-1.09-1.15-.47-.27-1-.38-1.54-.34-.54.04-1.05.24-1.47.57-.42.33-.74.79-.9,1.3-.17.51-.18,1.06-.03,1.58.09.34.25.66.47.94.22.28.49.52.8.69.31.17.65.29,1,.33.35.04.71.01,1.05-.08Z"/><path class="cls-1" d="M113.27,68.99c.54.03,1.07-.1,1.53-.37.46-.27.83-.68,1.07-1.16.23-.49.32-1.03.24-1.56-.07-.53-.31-1.03-.66-1.43-.36-.4-.83-.69-1.35-.82-.52-.13-1.07-.11-1.57.07-.51.18-.95.5-1.27.93-.32.43-.51.95-.54,1.49-.04.72.21,1.42.69,1.96.48.54,1.15.86,1.86.9Z"/><path class="cls-1" d="M113.18,91.68c2.09,1.15,4.42,1.8,6.8,1.9,2.38.18,4.78-.2,6.98-1.13.97-.23,1.83-.77,2.47-1.53.64-.76,1.01-1.72,1.07-2.71.06-1-.2-1.98-.75-2.82s-1.34-1.47-2.28-1.81c-2.1-1.13-4.43-1.78-6.81-1.92-2.38-.14-4.76.25-6.98,1.13-.92.31-1.75.87-2.37,1.61-.63.75-1.04,1.65-1.18,2.62.04.98.34,1.93.88,2.76.54.82,1.29,1.48,2.17,1.9ZM114.74,85.14c1.83-.75,3.81-1.06,5.77-.9,1.97.08,3.9.61,5.64,1.55,1.37.83,1.86,1.71,1.8,2.29,0,.55-.59,1.38-2.04,2.05-1.83.74-3.81,1.05-5.77.9-1.97-.06-3.91-.6-5.64-1.55-1.36-.83-1.85-1.72-1.8-2.27,0-.58.59-1.41,2.05-2.06Z"/><path class="cls-1" d="M200.44,104.02c.53-.1,1.01-.36,1.39-.74.38-.38.64-.86.75-1.39.11-.53.05-1.08-.15-1.57-.2-.5-.55-.92-1-1.22-.45-.3-.97-.46-1.51-.46-.54,0-1.06.16-1.51.46-.45.3-.79.72-1,1.22-.21.5-.26,1.05-.15,1.57.07.35.2.68.4.98.2.3.45.55.74.75.3.2.63.34.98.41.35.07.71.07,1.06,0Z"/><path class="cls-1" d="M159.25,73.89c.53-.06,1.04-.28,1.45-.63.41-.35.71-.81.85-1.33.15-.52.14-1.07-.03-1.58-.16-.51-.48-.96-.9-1.3-.42-.33-.93-.54-1.47-.58s-1.07.07-1.54.34c-.47.26-.85.66-1.09,1.14-.24.48-.34,1.02-.28,1.56.09.71.45,1.37,1.01,1.81.56.45,1.28.65,1.99.57Z"/><path class="cls-1" d="M195.42,65.48c.29,2.01,1.36,3.83,2.98,5.06,1.62,1.23,3.65,1.77,5.66,1.51,2.01-.26,3.84-1.31,5.09-2.91,1.25-1.6,1.82-3.64,1.59-5.66-.08-.62-.24-1.22-.48-1.8.09-.24.24-.46.43-.63.2-.17.43-.28.68-.33h.03c.88-.01,1.21.22,1.44.52-.22,1.9.28,3.81,1.39,5.36,1.11,1.55,2.77,2.63,4.63,3.01,1.86.39,3.81.07,5.44-.91,1.64-.97,2.85-2.53,3.41-4.36.55-1.83.4-3.8-.41-5.52-.82-1.72-2.26-3.08-4.02-3.79s-3.73-.74-5.52-.08c-1.78.67-3.26,1.98-4.13,3.68-.72-.4-1.56-.57-2.38-.48-.07,0-.14,0-.21.02-.84.13-1.62.52-2.23,1.13-1.1-1.23-2.56-2.08-4.18-2.41-1.61-.34-3.29-.14-4.79.55-1.5.69-2.74,1.85-3.53,3.29-.8,1.45-1.11,3.11-.89,4.75ZM219.82,57.07c1.01-.13,2.04.04,2.95.5.91.45,1.67,1.17,2.18,2.06.51.89.74,1.91.67,2.93s-.44,2-1.06,2.81c-.62.81-1.47,1.42-2.44,1.75-.97.33-2.01.36-2.99.09s-1.87-.82-2.54-1.59c-.67-.77-1.1-1.72-1.23-2.74-.17-1.36.2-2.73,1.03-3.82.83-1.09,2.06-1.8,3.41-1.98h0ZM202.42,59.34c1.01-.13,2.04.04,2.96.5.92.46,1.68,1.17,2.18,2.06.51.89.74,1.91.67,2.93-.07,1.02-.44,2-1.06,2.81-.62.81-1.47,1.42-2.44,1.75-.97.33-2.01.36-3,.09-.99-.27-1.87-.82-2.54-1.6-.67-.77-1.1-1.73-1.23-2.74-.17-1.36.2-2.73,1.04-3.82.83-1.09,2.06-1.8,3.41-1.98h0Z"/><path class="cls-1" d="M191.81,21.53c-.53.07-1.03.29-1.43.64-.4.35-.69.81-.84,1.33-.14.52-.12,1.06.04,1.57.17.51.48.95.91,1.28.42.33.93.52,1.46.56.53.04,1.07-.08,1.53-.35.46-.27.84-.66,1.08-1.14.24-.48.33-1.02.26-1.55-.04-.35-.15-.7-.33-1.01-.18-.31-.41-.58-.69-.8-.28-.22-.6-.38-.95-.47-.34-.09-.7-.12-1.05-.07Z"/><path class="cls-1" d="M182.98,34.96l.46,2.53,9.49-1.72-8.71-14.75,10.44-2.62-.64-2.49-13.77,3.44,8.59,14.54-5.87,1.08Z"/><path class="cls-1" d="M120.91,105.41h.07c-.72,2.57-1.09,5.23-1.1,7.91,0,6.32,2.07,12.46,5.9,17.47,3.83,5.01,9.21,8.62,15.29,10.25,6.08,1.63,12.53,1.2,18.35-1.23s10.66-6.71,13.8-12.19c4.83,5.06,11.34,8.17,18.3,8.74,6.96.57,13.89-1.44,19.47-5.65,5.58-4.21,9.43-10.33,10.82-17.2,1.39-6.87.22-14.01-3.28-20.07,6.74-1.73,12.62-5.88,16.54-11.65,3.91-5.78,5.59-12.79,4.72-19.72-.87-6.93-4.24-13.3-9.46-17.92-5.22-4.62-11.95-7.16-18.91-7.16h-.03c.77-2.59,1.16-5.28,1.16-7.99,0-6.32-2.07-12.46-5.9-17.47-3.83-5.01-9.2-8.62-15.28-10.25-6.08-1.63-12.53-1.21-18.34,1.22-5.81,2.42-10.67,6.7-13.81,12.18-4.85-5.01-11.35-8.06-18.29-8.6-6.94-.53-13.83,1.49-19.38,5.69-5.55,4.2-9.39,10.3-10.78,17.14-1.39,6.84-.25,13.95,3.21,20.01-6.77,1.69-12.69,5.81-16.65,11.58-3.95,5.77-5.67,12.79-4.82,19.74.85,6.95,4.21,13.35,9.43,17.99,5.23,4.64,11.97,7.2,18.94,7.19h0ZM169.14,116.23c-.75,5.37-3.54,10.23-7.78,13.58-4.24,3.35-9.62,4.92-14.99,4.38-5.37-.53-10.33-3.14-13.84-7.26-3.5-4.12-5.28-9.44-4.96-14.85.65.12,1.32.06,1.94-.16.62-.22,1.18-.59,1.61-1.09,2.09-2.85,1.21-6.47,7.54-9.3,1.34-.61,2.82-.82,4.27-.63,2.34.45,4.48,1.61,6.13,3.34,2.65,2.77,6.06,4.69,9.8,5.5,1.39.19,2.8.1,4.15-.28,1.35-.38,2.61-1.04,3.69-1.93l-1.59-2.04c-.81.69-1.75,1.19-2.77,1.49-1.02.29-2.09.36-3.13.21-3.21-.75-6.13-2.43-8.4-4.83-2.03-2.09-4.66-3.49-7.52-4-1.92-.27-3.88,0-5.65.79-1.73.65-3.3,1.68-4.59,3.01-1.29,1.33-2.27,2.93-2.88,4.68-.25.82-.6,1.6-1.04,2.33-.27.25-.35.39-1.26.32,1.03-5.36,4.1-10.11,8.55-13.23,4.46-3.13,9.96-4.39,15.32-3.51,5.37.87,10.19,3.81,13.43,8.2,3.24,4.38,4.66,9.86,3.94,15.27h0ZM151.57,69.26l3.17-7.79,8.06-.12,1.98-3.89,4.05,6.51,6.1-4.52,3.03,6.1,7.22-3.11c.93,2.01,1.53,4.15,1.77,6.35.39,2.78.23,5.6-.48,8.32-.71,2.71-1.96,5.25-3.67,7.47-1.71,2.22-3.84,4.07-6.28,5.45-2.43,1.38-5.12,2.25-7.89,2.57-2.78.32-5.59.08-8.27-.71-2.68-.79-5.18-2.11-7.34-3.88-2.16-1.77-3.95-3.96-5.26-6.44-1.31-2.48-2.1-5.2-2.35-7.99-.26-2.28-.15-4.58.35-6.82l5.81,2.5ZM146.45,64.27c1.3-3.74,3.63-7.04,6.72-9.5,3.09-2.47,6.81-4,10.74-4.43,3.92-.43,7.89.26,11.44,2,3.55,1.74,6.53,4.45,8.61,7.82l-4.78,2.08-3.33-6.67-6.32,4.69-4.95-8.01-3.36,6.55-8.22.13-2.83,6.94-3.71-1.6ZM197.76,128.26c-4.06.81-8.26.39-12.08-1.19-3.82-1.59-7.09-4.28-9.39-7.73-2.3-3.45-3.52-7.51-3.52-11.66s1.23-8.21,3.52-11.66c2.3-3.45,5.57-6.14,9.39-7.73,3.82-1.59,8.03-2,12.08-1.19,4.06.81,7.78,2.81,10.71,5.74s4.92,6.68,5.72,10.75c1.08,5.46-.05,11.13-3.13,15.76-3.08,4.63-7.87,7.84-13.31,8.93h0ZM232.18,62.86c.53,4.12-.17,8.3-2,12.02-1.84,3.72-4.73,6.81-8.32,8.87-3.59,2.07-7.7,3.02-11.83,2.74-4.13-.28-8.08-1.78-11.35-4.32-3.28-2.53-5.73-5.99-7.05-9.92-1.32-3.93-1.45-8.17-.37-12.18,1.08-4.01,3.32-7.6,6.43-10.33,3.12-2.73,6.97-4.47,11.07-5.01,2.72-.35,5.49-.17,8.14.55,2.65.72,5.14,1.96,7.31,3.64,2.18,1.68,4,3.78,5.37,6.17,1.37,2.39,2.25,5.03,2.61,7.76h0ZM181.38,8.24c4.1-.51,8.27.21,11.96,2.08,3.7,1.86,6.76,4.79,8.8,8.4,2.04,3.61,2.97,7.75,2.67,11.89-.3,4.14-1.82,8.1-4.36,11.37-2.54,3.27-6,5.72-9.92,7.02-3.93,1.3-8.15,1.41-12.14.31-3.99-1.1-7.56-3.37-10.26-6.51s-4.42-7.02-4.93-11.14c-.68-5.52.86-11.09,4.27-15.48,3.41-4.39,8.41-7.24,13.92-7.94h0ZM133.16,14.48c4.79-1.32,9.89-.88,14.39,1.23,4.5,2.12,8.1,5.77,10.16,10.31-1.49.05-2.98-.19-4.38-.72-1.4-.53-2.68-1.32-3.77-2.35-.88-.8-1.66-1.71-2.32-2.71-.27-.38-.51-.79-.72-1.21l-1.38-2.94-1.01,3.09c-1.63,5.2-7.36,8.29-13.41,9.96-3.27.87-6.61,1.44-9.99,1.71-1,.08-1.86.14-2.59.17.7-3.9,2.48-7.52,5.14-10.45,2.66-2.93,6.09-5.04,9.89-6.09h0ZM117.82,33.61c4.58-.16,9.12-.82,13.56-1.98,5.53-1.54,11.32-4.24,14.15-9.3,1.47,2.09,3.45,3.75,5.75,4.84,2.3,1.08,4.85,1.55,7.38,1.35.06.21.14.42.2.64.81,2.93.97,6.01.48,9.01-.49,3-1.63,5.86-3.33,8.38-1.7,2.52-3.93,4.63-6.53,6.2-2.6,1.57-5.51,2.55-8.52,2.88-3.01.33-6.06,0-8.94-.98-2.87-.97-5.5-2.56-7.7-4.65-2.2-2.09-3.92-4.64-5.04-7.47-1.12-2.83-1.62-5.87-1.45-8.9ZM100.05,75.61c.24-4.14,1.7-8.12,4.19-11.43,2.49-3.31,5.91-5.81,9.82-7.17,3.91-1.36,8.13-1.53,12.13-.49,4,1.05,7.61,3.26,10.36,6.36,2.75,3.1,4.52,6.95,5.09,11.06.57,4.11-.09,8.3-1.89,12.04-1.8,3.74-4.67,6.85-8.23,8.96-3.57,2.1-7.68,3.1-11.8,2.86-5.54-.32-10.72-2.84-14.41-7-3.69-4.16-5.58-9.62-5.26-15.18Z"/><path class="cls-1" d="M174.2,72.16c.67-.13,1.26-.51,1.67-1.06.4-.55.58-1.24.51-1.91s-.41-1.3-.92-1.75c-.52-.45-1.18-.68-1.86-.66-.67.13-1.26.51-1.67,1.06-.4.55-.58,1.24-.51,1.91.08.68.41,1.3.92,1.75.51.45,1.18.68,1.86.66Z"/><path class="cls-1" d="M207.41,109.54c-2.29,6.88-6.33,9.93-10.6,10.81-2.6.45-5.28.18-7.74-.79-2.46-.97-4.6-2.6-6.2-4.71l-2.27,1.66c1.91,2.56,4.49,4.53,7.45,5.7,2.96,1.17,6.19,1.49,9.32.92.02,0,.04-.02.06-.02,5.26-1.05,10.18-5.08,12.67-12.69l-2.68-.89h0Z"/><path class="cls-1" d="M177.54,28.77c.53-.06,1.04-.29,1.44-.64.41-.35.7-.82.85-1.33.14-.52.13-1.07-.04-1.58-.17-.51-.48-.96-.91-1.29-.42-.33-.93-.53-1.47-.57-.54-.04-1.07.08-1.54.35-.47.27-.84.67-1.08,1.15-.24.48-.33,1.02-.26,1.56.04.35.15.7.33,1.01.17.31.41.58.69.8.28.22.6.38.94.48.34.09.7.12,1.05.08Z"/><path class="cls-1" d="M185.69,106.98c.52-.1,1.01-.36,1.39-.74.38-.38.64-.87.74-1.39.1-.53.05-1.07-.15-1.57-.21-.5-.55-.92-1-1.22-.45-.3-.97-.46-1.51-.46s-1.06.16-1.51.46c-.45.3-.79.72-1,1.22-.21.5-.26,1.04-.15,1.57.07.35.21.68.4.98.2.3.45.55.75.75.3.2.63.34.98.41.35.07.71.07,1.06,0Z"/><path class="cls-1" d="M8.02,166.71h11.3v-5.62h-11.3v-5.65h12.84v-5.62H.78v25.7h7.24v-8.81Z"/><path class="cls-1" d="M51.79,151.03c-2.27-1.13-4.77-1.72-7.3-1.72s-5.03.59-7.3,1.72c-2.12,1.11-3.89,2.79-5.12,4.84-1.24,2.05-1.89,4.4-1.89,6.8s.65,4.75,1.89,6.8c1.24,2.05,3.01,3.72,5.12,4.84,2.27,1.13,4.77,1.73,7.3,1.73s5.03-.59,7.3-1.73c2.12-1.11,3.89-2.79,5.12-4.84,1.24-2.05,1.89-4.4,1.89-6.8s-.65-4.75-1.89-6.8c-1.24-2.05-3.01-3.72-5.12-4.84ZM50.5,166.51c-.57,1.08-1.44,1.97-2.49,2.59-1.07.61-2.28.92-3.51.92s-2.44-.32-3.51-.92c-1.05-.61-1.91-1.51-2.49-2.59-.6-1.19-.91-2.5-.91-3.84s.31-2.65.91-3.84c.57-1.08,1.44-1.97,2.49-2.59,1.07-.6,2.28-.92,3.51-.92s2.44.32,3.51.92c1.05.61,1.92,1.51,2.49,2.59.6,1.19.91,2.5.91,3.84s-.31,2.65-.91,3.84Z"/><path class="cls-1" d="M81.85,176.04c1.61.1,3.22-.12,4.75-.66,1.52-.53,2.92-1.37,4.12-2.45,1.1-1.18,1.95-2.57,2.49-4.1.54-1.52.77-3.14.67-4.75v-14.25h-7.12v14.02c0,4.12-1.61,6.17-4.83,6.17-3.24,0-4.86-2.06-4.86-6.17v-14.02h-7.24v14.25c-.1,1.61.13,3.23.67,4.75.54,1.52,1.39,2.92,2.49,4.1,1.2,1.08,2.6,1.92,4.12,2.45,1.52.53,3.14.76,4.75.66Z"/><path class="cls-1" d="M123.73,163.52l-11.3-13.7h-5.96v25.7h7.1v-13.69l11.3,13.69h5.97v-25.7h-7.1v13.7Z"/><path class="cls-1" d="M163.57,151.4c-2.34-1.09-4.89-1.63-7.46-1.58h-12.11v25.7h12.11c2.57.05,5.13-.49,7.46-1.58,2.07-.97,3.82-2.53,5.03-4.48,1.18-2.07,1.79-4.41,1.79-6.79s-.62-4.72-1.79-6.79c-1.21-1.95-2.96-3.5-5.03-4.48ZM161.1,167.85c-1.45,1.29-3.35,1.97-5.29,1.87h-4.57v-14.1h4.58c1.94-.09,3.83.58,5.28,1.87,1.28,1.42,1.99,3.26,1.99,5.18s-.71,3.76-1.99,5.18h0Z"/><path class="cls-1" d="M178.46,175.52h7.39l2.01-4.99h10.82l2.01,4.99h7.54l-11.34-25.7h-7.13l-11.31,25.7ZM193.27,156.95l3.29,8.23h-6.58l3.29-8.23Z"/><path class="cls-1" d="M229.38,175.52v-19.94h7.83v-5.77h-22.94v5.77h7.86v19.93h7.25Z"/><path class="cls-1" d="M254.83,149.82h-7.24v25.7h7.24v-25.7Z"/><path class="cls-1" d="M273.3,151.03c-2.12,1.11-3.89,2.79-5.12,4.84-1.24,2.05-1.89,4.4-1.89,6.8s.65,4.75,1.89,6.8c1.24,2.05,3.01,3.72,5.12,4.84,2.27,1.13,4.76,1.73,7.3,1.73s5.03-.59,7.3-1.73c2.11-1.11,3.89-2.79,5.12-4.84,1.24-2.05,1.89-4.4,1.89-6.8s-.65-4.75-1.89-6.8c-1.24-2.05-3.01-3.72-5.12-4.84-2.27-1.13-4.76-1.72-7.3-1.72s-5.03.59-7.3,1.72ZM286.59,158.84c.6,1.19.91,2.5.91,3.84s-.31,2.65-.91,3.84c-.58,1.08-1.44,1.97-2.49,2.59-1.07.6-2.28.92-3.51.92s-2.44-.32-3.51-.92c-1.05-.61-1.91-1.51-2.48-2.59-.6-1.19-.92-2.5-.92-3.84s.31-2.65.92-3.84c.57-1.08,1.43-1.97,2.48-2.59,1.07-.6,2.28-.92,3.51-.92s2.44.32,3.51.92c1.06.61,1.92,1.51,2.49,2.59Z"/><path class="cls-1" d="M323.57,163.52l-11.3-13.7h-5.96v25.7h7.1v-13.69l11.3,13.69h5.96v-25.7h-7.1v13.7Z"/><path class="cls-1" d="M246.97,133.52c1.9.18,3.81-.29,5.41-1.33,1.6-1.05,2.8-2.61,3.4-4.43h.1c-.19,1.71-.39,3.96-.39,5.18h6.92v-2.15h-4.29l.19-35.39h-8.03v2.14h5.54l-.1,10.94c-1.97-.77-4.06-1.18-6.18-1.22-7.83,0-12.5,5.81-12.5,13.81,0,9.82,5.85,12.46,9.93,12.46ZM249.7,109.59c2.07,0,4.12.42,6.03,1.22l-.05,9.47c-.05,6.88-3.11,10.88-8.03,10.88-5.84,0-7.88-4.78-7.88-10.11,0-6.64,2.97-11.47,9.92-11.47Z"/><path class="cls-1" d="M275.58,133.52c7.69,0,11.62-5.96,11.62-13.13s-3.94-13.13-11.62-13.13-11.62,5.96-11.62,13.13,3.94,13.13,11.62,13.13ZM275.58,109.59c5.84,0,8.91,4.44,8.91,10.79s-3.06,10.78-8.91,10.78-8.91-4.44-8.91-10.78,3.07-10.79,8.91-10.79Z"/><path class="cls-1" d="M307.69,100.07c.51.04,1.02-.07,1.46-.32.44-.25.8-.63,1.03-1.09.23-.46.31-.98.23-1.49-.07-.51-.3-.98-.64-1.36-.35-.38-.8-.64-1.29-.76-.5-.12-1.02-.08-1.49.11-.48.19-.89.51-1.17.94-.29.42-.44.92-.44,1.44-.02.32.02.65.12.95.11.3.27.59.49.82.22.24.48.43.78.56.29.13.61.2.93.21Z"/><path class="cls-1" d="M306.47,130.78h-4.28v2.15h11.29v-2.15h-4.47l.14-22.94h-7.35v2.14h4.82l-.15,20.81Z"/><path class="cls-1" d="M319.02,126.04c0,5.23,2.04,7.47,6.32,7.47,1.99.02,3.95-.42,5.74-1.27l.24-2.29c-1.68.84-3.52,1.32-5.4,1.41-3.41,0-4.38-1.71-4.38-6.2,0-5.07.05-10.11.1-15.18h8.33v-2.14h-8.33l.1-6.74-2.53.19-.1,6.54h-4.38v2.14h4.38c-.05,5.37-.1,10.69-.1,16.06Z"/><path class="cls-1" d="M23.74,125.7h-2.34l-.39,5.07H7.54l.19-29.88h3.89v-2.15H.92v2.15h4.09l-.19,29.88H.92v2.15h22.43l.39-7.22Z"/><path class="cls-1" d="M38.92,133.52c2.77,0,5.51-.65,7.98-1.9l.09-2.54c-2.35,1.33-4.99,2.05-7.68,2.1-6.57,0-9.83-3.9-9.92-11.03h18.73c0-6.11-2.24-12.89-10.46-12.89-7.11,0-11,5.76-11,12.69-.01,8.35,4.12,13.58,12.26,13.58ZM37.51,109.59c5.45,0,7.88,3.91,7.88,8.4h-16c-.04-1.09.15-2.18.54-3.2.39-1.02.98-1.95,1.74-2.73.76-.78,1.66-1.41,2.67-1.83,1-.42,2.08-.64,3.17-.64h0Z"/><path class="cls-1" d="M54.87,126.04c0,5.23,2.04,7.47,6.32,7.47,1.98.02,3.95-.42,5.74-1.27l.25-2.29c-1.68.84-3.52,1.32-5.4,1.41-3.4,0-4.38-1.71-4.38-6.2,0-5.08.05-10.11.09-15.18h8.32v-2.14h-8.32l.1-6.74-2.53.19-.09,6.54h-4.38v2.14h4.38c-.05,5.38-.1,10.7-.1,16.07Z"/><path class="cls-1" d="M70.68,105.74l1.16,1.17,1.17-1.27c1.68-1.96,2.64-4.45,2.71-7.03,0-2.34-1.46-3.61-2.68-3.61-.54-.03-1.07.15-1.48.51-.41.36-.66.86-.71,1.4,0,1.66,2.14,2.15,2.14,4.35-.23,1.72-1.05,3.31-2.32,4.5Z"/><path class="cls-1" d="M83.04,120.92l4.28,1.03c3.26.78,4.28,2.25,4.28,4.39s-1.7,5.02-6.52,5.02c-2.1.05-4.19-.4-6.08-1.31l-.1-4.25h-2.38l.19,6.05c2.56,1.16,5.36,1.73,8.17,1.66,5.64,0,9.44-2.39,9.44-7.52,0-3.46-2-5.42-6.33-6.35l-4.62-1.03c-2.92-.63-4.23-2.1-4.23-4.59,0-2.83,2.19-4.64,6.13-4.64,1.77-.08,3.52.29,5.11,1.08l.1,4.05h2.34l-.1-5.71c-2.39-1.06-4.98-1.59-7.59-1.56-5.21,0-8.71,2.88-8.71,7.03,0,3.7,2.53,5.65,6.62,6.63Z"/></g></svg>