<svg xmlns="http://www.w3.org/2000/svg" width="170.916" height="100.332" viewBox="0 0 170.916 100.332">
  <g id="logo-ldif" transform="translate(-219.471 -32)">
    <rect id="Rectangle_187" data-name="Rectangle 187" width="170.911" height="3.809" transform="translate(219.471 128.523)"/>
    <path id="Path_335" data-name="Path 335" d="M287.578,52.04a1.4,1.4,0,1,0-1.713-.974A1.4,1.4,0,0,0,287.578,52.04Z"/>
    <path id="Path_336" data-name="Path 336" d="M291.895,88.955a1.392,1.392,0,1,0,1.183,1.576A1.386,1.386,0,0,0,291.895,88.955Z"/>
    <path id="Path_337" data-name="Path 337" d="M299.586,90.034a1.4,1.4,0,1,0,1.184,1.581A1.392,1.392,0,0,0,299.586,90.034Z"/>
    <path id="Path_338" data-name="Path 338" d="M285.549,67.794a1.4,1.4,0,1,0-1.313-1.475A1.395,1.395,0,0,0,285.549,67.794Z"/>
    <path id="Path_339" data-name="Path 339" d="M295.067,49.98a1.4,1.4,0,1,0-1.715-.968A1.387,1.387,0,0,0,295.067,49.98Z"/>
    <path id="Path_340" data-name="Path 340" d="M277.793,67.344a1.4,1.4,0,1,0-1.317-1.473A1.4,1.4,0,0,0,277.793,67.344Z"/>
    <path id="Path_341" data-name="Path 341" d="M277.744,79.022a8.046,8.046,0,0,0,3.51.978,7.852,7.852,0,0,0,3.605-.579,2.39,2.39,0,0,0,.268-4.568,8.5,8.5,0,0,0-7.119-.407,2.729,2.729,0,0,0-1.836,2.179A2.768,2.768,0,0,0,277.744,79.022Zm.807-3.368a6.57,6.57,0,0,1,2.981-.465,6.669,6.669,0,0,1,2.911.8c.705.426.96.882.928,1.177,0,.283-.306.712-1.056,1.053a6.588,6.588,0,0,1-2.981.461,6.439,6.439,0,0,1-2.91-.8c-.7-.428-.956-.885-.93-1.166C277.494,76.416,277.8,75.986,278.551,75.654Z"/>
    <path id="Path_342" data-name="Path 342" d="M322.8,85.371a1.4,1.4,0,1,0-1.64-1.1A1.393,1.393,0,0,0,322.8,85.371Z"/>
    <path id="Path_343" data-name="Path 343" d="M301.532,69.867a1.4,1.4,0,1,0-1.549-1.226A1.4,1.4,0,0,0,301.532,69.867Z"/>
    <path id="Path_344" data-name="Path 344" d="M320.211,65.539a3.987,3.987,0,0,0,7.906-1.032,3.882,3.882,0,0,0-.247-.928.765.765,0,0,1,.576-.492h.015c.453-.007.626.112.746.268a3.937,3.937,0,1,0,.408-1.343,2.057,2.057,0,0,0-1.228-.246.666.666,0,0,0-.11.012,2.082,2.082,0,0,0-1.15.58,3.984,3.984,0,0,0-6.916,3.181Zm12.6-4.325a2.664,2.664,0,1,1-2.3,2.985A2.673,2.673,0,0,1,332.807,61.214Zm-8.985,1.165a2.665,2.665,0,1,1-2.3,2.983A2.674,2.674,0,0,1,323.822,62.379Z"/>
    <path id="Path_345" data-name="Path 345" d="M318.348,42.928a1.394,1.394,0,1,0,1.558,1.208A1.382,1.382,0,0,0,318.348,42.928Z"/>
    <path id="Path_346" data-name="Path 346" d="M313.789,49.837l.239,1.3,4.9-.887-4.5-7.588,5.393-1.349-.329-1.283L312.384,41.8l4.435,7.482Z"/>
    <path id="Path_347" data-name="Path 347" d="M281.738,86.084l.037,0a15.354,15.354,0,0,0-.568,4.069,14.751,14.751,0,0,0,27.543,7.356,14.741,14.741,0,0,0,23.4-17.588,14.754,14.754,0,0,0-3.668-29.047l-.015,0a14.49,14.49,0,0,0,.6-4.11,14.751,14.751,0,0,0-27.537-7.371,14.746,14.746,0,0,0-23.363,17.618,14.754,14.754,0,0,0,3.57,29.072Zm24.9,5.566a10.794,10.794,0,0,1-21.465-2.133,1.98,1.98,0,0,0,1.832-.64c1.078-1.466.624-3.328,3.893-4.784a4.049,4.049,0,0,1,2.207-.323,5.912,5.912,0,0,1,3.164,1.717,9.891,9.891,0,0,0,5.06,2.832,5.25,5.25,0,0,0,4.052-1.138l-.819-1.049a3.857,3.857,0,0,1-3.047.874,8.65,8.65,0,0,1-4.338-2.485,7.16,7.16,0,0,0-3.883-2.057,5.323,5.323,0,0,0-2.915.409,6.506,6.506,0,0,0-3.856,3.959,5.185,5.185,0,0,1-.538,1.2c-.141.129-.183.2-.651.164a10.794,10.794,0,0,1,21.3,3.458Zm-9.07-24.164,1.634-4.01,4.16-.06,1.024-2,2.092,3.348,3.152-2.325,1.566,3.139,3.73-1.6a10.39,10.39,0,0,1,.913,3.268,10.8,10.8,0,1,1-21.451,2.464,10.515,10.515,0,0,1,.181-3.51Zm-2.642-2.57A10.787,10.787,0,0,1,314.289,62.8l-2.469,1.068L310.1,60.435l-3.264,2.414-2.556-4.119L302.547,62.1l-4.244.065-1.462,3.573Zm26.491,32.923a10.8,10.8,0,1,1,8.486-12.7A10.806,10.806,0,0,1,321.414,97.839Zm17.777-33.65a10.8,10.8,0,1,1-12.1-9.326A10.8,10.8,0,0,1,339.191,64.189Zm-26.234-28.1a10.8,10.8,0,1,1-9.392,12.05A10.815,10.815,0,0,1,312.957,36.089Zm-24.9,3.207a10.786,10.786,0,0,1,12.677,5.939,5.87,5.87,0,0,1-4.213-1.576,7.522,7.522,0,0,1-1.2-1.392,4.482,4.482,0,0,1-.371-.623l-.715-1.512-.523,1.588c-.844,2.678-3.8,4.266-6.926,5.125a29.184,29.184,0,0,1-5.156.878c-.515.04-.963.074-1.336.085A10.805,10.805,0,0,1,288.059,39.3Zm-7.918,9.843a32.056,32.056,0,0,0,7-1.02c2.855-.794,5.844-2.181,7.306-4.785a7.572,7.572,0,0,0,6.782,3.181c.03.11.072.214.105.329a10.8,10.8,0,1,1-21.193,2.295Zm-9.178,21.613a10.8,10.8,0,1,1,10.156,11.411A10.805,10.805,0,0,1,270.963,70.752Z"/>
    <path id="Path_348" data-name="Path 348" d="M309.251,68.977a1.4,1.4,0,0,0-.316-2.773,1.4,1.4,0,0,0,.316,2.773Z"/>
    <path id="Path_349" data-name="Path 349" d="M326.4,88.21c-1.184,3.54-3.269,5.108-5.475,5.564a7.442,7.442,0,0,1-7.2-2.832l-1.174.856a8.866,8.866,0,0,0,8.663,3.406.09.09,0,0,1,.031-.01c2.714-.539,5.257-2.615,6.54-6.529l-1.386-.455Z"/>
    <path id="Path_350" data-name="Path 350" d="M310.979,46.651a1.4,1.4,0,1,0-1.556-1.214A1.391,1.391,0,0,0,310.979,46.651Z"/>
    <path id="Path_351" data-name="Path 351" d="M315.184,86.893a1.4,1.4,0,1,0-1.647-1.1A1.4,1.4,0,0,0,315.184,86.893Z"/>
    <path id="Path_352" data-name="Path 352" d="M223.446,117.623h5.837v-2.889h-5.837v-2.908h6.631v-2.892H219.706v13.224h3.74Z"/>
    <path id="Path_353" data-name="Path 353" d="M246.047,109.559a8.449,8.449,0,0,0-7.537,0,6.762,6.762,0,0,0,0,11.976,8.44,8.44,0,0,0,7.537,0,6.762,6.762,0,0,0,0-11.976Zm-.67,7.962a3.377,3.377,0,0,1-1.285,1.332,3.7,3.7,0,0,1-3.626,0,3.391,3.391,0,0,1-1.285-1.332,4.364,4.364,0,0,1,0-3.948,3.379,3.379,0,0,1,1.285-1.33,3.7,3.7,0,0,1,3.626,0,3.366,3.366,0,0,1,1.285,1.33,4.364,4.364,0,0,1,0,3.948Z"/>
    <path id="Path_354" data-name="Path 354" d="M261.565,122.423a6.255,6.255,0,0,0,4.58-1.6,6.1,6.1,0,0,0,1.634-4.552v-7.331H264.1v7.215q0,3.178-2.495,3.175-2.511,0-2.51-3.175v-7.215h-3.741v7.33a6.1,6.1,0,0,0,1.633,4.553A6.256,6.256,0,0,0,261.565,122.423Z"/>
    <path id="Path_355" data-name="Path 355" d="M283.192,115.982l-5.837-7.047h-3.078v13.224h3.664v-7.044l5.836,7.044h3.08V108.935h-3.665Z"/>
    <path id="Path_356" data-name="Path 356" d="M303.764,109.748a8.773,8.773,0,0,0-3.854-.813h-6.253v13.224h6.253a8.787,8.787,0,0,0,3.854-.813,6.123,6.123,0,0,0,2.6-2.306,7.055,7.055,0,0,0,0-6.988A6.119,6.119,0,0,0,303.764,109.748Zm-1.276,8.462a3.829,3.829,0,0,1-2.729.963H297.4v-7.252h2.363a3.837,3.837,0,0,1,2.729.963,3.958,3.958,0,0,1,0,5.326Z"/>
    <path id="Path_357" data-name="Path 357" d="M311.45,122.159h3.818l1.038-2.57h5.589l1.04,2.57h3.891l-5.855-13.224h-3.682Zm7.65-9.559,1.7,4.232h-3.4Z"/>
    <path id="Path_358" data-name="Path 358" d="M337.745,122.159V111.9h4.042v-2.967H329.943V111.9H334v10.257Z"/>
    <rect id="Rectangle_188" data-name="Rectangle 188" width="3.738" height="13.224" transform="translate(347.152 108.935)"/>
    <path id="Path_359" data-name="Path 359" d="M360.422,109.559a6.761,6.761,0,0,0,0,11.976,8.436,8.436,0,0,0,7.535,0,6.762,6.762,0,0,0,0-11.976,8.445,8.445,0,0,0-7.535,0Zm6.865,4.014a4.364,4.364,0,0,1,0,3.948A3.382,3.382,0,0,1,366,118.853a3.71,3.71,0,0,1-3.629,0,3.377,3.377,0,0,1-1.282-1.332,4.355,4.355,0,0,1,0-3.948,3.365,3.365,0,0,1,1.282-1.33,3.71,3.71,0,0,1,3.629,0A3.363,3.363,0,0,1,367.287,113.573Z"/>
    <path id="Path_360" data-name="Path 360" d="M386.384,115.982l-5.837-7.047h-3.078v13.224h3.664v-7.044l5.836,7.044h3.08V108.935h-3.665Z"/>
    <path id="Path_361" data-name="Path 361" d="M346.83,100.546a4.349,4.349,0,0,0,4.547-2.966h.051c-.1.879-.2,2.035-.2,2.665H354.8V99.138h-2.213l.1-18.211h-4.145v1.1H351.4l-.05,5.627a9.275,9.275,0,0,0-3.19-.627c-4.045,0-6.457,2.988-6.457,7.107C341.707,99.189,344.722,100.546,346.83,100.546Zm1.406-12.311a8.128,8.128,0,0,1,3.116.629l-.025,4.874c-.026,3.541-1.606,5.6-4.144,5.6-3.015,0-4.07-2.461-4.07-5.2C343.113,90.722,344.645,88.235,348.236,88.235Z"/>
    <path id="Path_362" data-name="Path 362" d="M361.6,100.546c3.971,0,6-3.066,6-6.758s-2.033-6.757-6-6.757-6,3.065-6,6.757S357.633,100.546,361.6,100.546Zm0-12.311c3.015,0,4.6,2.286,4.6,5.553s-1.582,5.549-4.6,5.549-4.6-2.285-4.6-5.549S358.586,88.235,361.6,88.235Z"/>
    <path id="Path_363" data-name="Path 363" d="M378.18,83.337a1.31,1.31,0,1,0-1.2-1.306A1.217,1.217,0,0,0,378.18,83.337Z"/>
    <path id="Path_364" data-name="Path 364" d="M377.553,99.136h-2.211v1.106h5.828V99.136h-2.311l.075-11.806h-3.793v1.1h2.487Z"/>
    <path id="Path_365" data-name="Path 365" d="M384.031,96.7c0,2.689,1.055,3.846,3.264,3.846a6.807,6.807,0,0,0,2.966-.654l.126-1.181a7.047,7.047,0,0,1-2.789.727c-1.759,0-2.262-.878-2.262-3.19,0-2.611.025-5.2.051-7.813h4.3v-1.1h-4.3l.051-3.465-1.307.1-.051,3.366h-2.262v1.1h2.262C384.055,91.2,384.031,93.938,384.031,96.7Z"/>
    <path id="Path_366" data-name="Path 366" d="M231.559,96.526h-1.206l-.2,2.61h-6.959l.1-15.371h2.01V82.659h-5.526v1.106h2.11l-.1,15.371h-2.009v1.106h11.58Z"/>
    <path id="Path_367" data-name="Path 367" d="M239.4,100.546a9.108,9.108,0,0,0,4.121-.98l.049-1.309a8.416,8.416,0,0,1-3.968,1.082c-3.392,0-5.074-2.008-5.124-5.676h9.671c0-3.142-1.156-6.632-5.4-6.632-3.669,0-5.678,2.964-5.678,6.529C233.065,97.856,235.2,100.546,239.4,100.546Zm-.729-12.311c2.814,0,4.07,2.01,4.07,4.322h-8.263A4.182,4.182,0,0,1,238.666,88.235Z"/>
    <path id="Path_368" data-name="Path 368" d="M247.635,96.7c0,2.689,1.055,3.846,3.265,3.846a6.78,6.78,0,0,0,2.963-.654l.127-1.181a7.047,7.047,0,0,1-2.789.727c-1.758,0-2.26-.879-2.26-3.19,0-2.612.024-5.2.049-7.813h4.295v-1.1H248.99l.051-3.467-1.307.1-.049,3.366h-2.261v1.1h2.261C247.66,91.2,247.635,93.938,247.635,96.7Z"/>
    <path id="Path_369" data-name="Path 369" d="M255.8,86.252l.6.6.605-.652a5.811,5.811,0,0,0,1.4-3.619c0-1.205-.753-1.859-1.382-1.859a1.071,1.071,0,0,0-1.129.979c0,.856,1.106,1.106,1.106,2.237A3.847,3.847,0,0,1,255.8,86.252Z"/>
    <path id="Path_370" data-name="Path 370" d="M262.179,94.063l2.21.529c1.683.4,2.211,1.156,2.211,2.261,0,1.153-.879,2.585-3.366,2.585a6.843,6.843,0,0,1-3.14-.676l-.051-2.186h-1.23l.1,3.115a9.675,9.675,0,0,0,4.219.855c2.914,0,4.875-1.231,4.875-3.869,0-1.783-1.031-2.789-3.267-3.265l-2.386-.528c-1.506-.326-2.185-1.079-2.185-2.361,0-1.457,1.13-2.387,3.165-2.387a5.425,5.425,0,0,1,2.638.554l.05,2.084h1.206l-.05-2.937a9.327,9.327,0,0,0-3.918-.8c-2.691,0-4.5,1.481-4.5,3.616C258.762,92.557,260.068,93.56,262.179,94.063Z"/>
  </g>
</svg>
