<?xml version="1.0" encoding="UTF-8"?><svg id="Layer_1" xmlns="http://www.w3.org/2000/svg" width="61mm" height="170mm" viewBox="0 0 172.91 481.89"><defs><style>.cls-1{fill:#0e3c2f;}.cls-2{fill:#fff;}.cls-3{fill:#ecc41c;}.cls-4{fill:#e4effa;}</style></defs><path class="cls-4" d="M54.84,40.42l-2.58,20.66,21.19,14.92-.1-18.94s4.88,2.44,8.47-.43c3.59-2.87,8.9-13.92,9.61-18.37s4.88-16.5-.72-22.53-22.96-9.18-22.96-9.18l-9.18,11.34-4.59,8.9.86,13.63Z"/><path d="M73.7,76.48l-21.71-15.29,2.6-20.79-.86-13.68.03-.06,4.59-8.9,9.3-11.49.15.03c.71.13,17.51,3.24,23.1,9.26,4.73,5.1,2.63,14.36,1.38,19.89-.25,1.12-.48,2.1-.6,2.84-.7,4.32-5.96,15.52-9.7,18.52-3.1,2.48-7.15,1.12-8.37.62l.1,19.04ZM52.52,60.96l20.67,14.56-.1-18.86.36.18s4.78,2.33,8.2-.4c3.55-2.84,8.84-13.98,9.52-18.21.12-.76.35-1.74.6-2.87,1.23-5.44,3.3-14.54-1.26-19.44-5.21-5.61-20.99-8.76-22.67-9.08l-9.09,11.22-4.53,8.79.86,13.59-2.57,20.54Z"/><path d="M54.22,42.86h3.87s-3.87-12.34-1.94-13.06c2.61-2.7,5.4,3.92,5.24,4.45h3.59c-2.41-8.88,2.5-19.06,13.63-11.91,1.72.72,15.06,1.43,15.06,1.43,3.91-16.96-30.52-35-39.46-11.48-3.07,15.87-.44,18.07,0,30.56Z"/><path d="M58.43,43.11h-4.46v-.24c-.15-3.97-.52-6.94-.84-9.56-.71-5.7-1.26-10.21.84-21.06C58.31.81,68.53-.62,76.65,1.85c10.08,3.06,19.43,12.63,17.27,21.98l-.05.2h-.21c-.55-.04-13.41-.74-15.15-1.46-5.34-3.43-8.62-2.55-10.44-1.22-3.06,2.24-4.26,7.64-2.85,12.83l.09.32h-4.25l.1-.32c.03-.42-1.39-3.88-3.07-4.63-.62-.28-1.2-.14-1.75.43l-.09.06c-1.18.44.51,7.72,2.09,12.75l.1.32ZM54.46,42.61h3.29c-.82-2.65-3.59-12.12-1.74-13.02.76-.77,1.64-.89,2.53-.37,1.57.92,2.89,3.73,3.08,4.78h3.03c-1.35-5.37-.09-10.7,3.12-13.05,1.95-1.43,5.43-2.38,10.97,1.18,1.27.53,10.07,1.13,14.73,1.38,1.91-9.02-7.18-18.21-16.97-21.19-10.24-3.11-18.48.65-22.05,10.06-2.07,10.73-1.52,15.2-.82,20.86.32,2.58.68,5.49.83,9.36Z"/><path class="cls-3" d="M23.21,165.52l4,5.18,72.33-.57s3.59-.16,4.3-2.02c.56-1.46-.29-9.6-.68-12.99-.04-.36.4-.56.64-.29,1.33,1.5,4.51,3.76,11.23,2.67,9.76-1.58,10.9-9.76,11.05-11.34s-1.58-28.41-2.87-30.99-10.9-28.7-13.27-30.99c-2.37-2.3-7.96-12.91-17.29-15.64s-12.48-4.3-12.48-4.3c0,0-4.73-5.17-5.52-5.17s-2.52,11.19-4.67,11.62-3.66-7.75-3.66-7.75l-16.72-7.89-4.3,1.87-.57,3.01s-27.98,7.32-36.44,18.94-7.17,21.81-7.17,21.81l3.59,53.95s3.73,8.47,9.61,10.19,16.79-.14,18.37-1.29,12.77-13.06,15.35-17.65,2.58-6.89,2.58-6.89l-1.29-3.3-14.64-9.18-17.79,23.1"/><path d="M27.09,170.95l-4.07-5.27c-3.12.19-6.38.08-8.78-.62-5.93-1.73-9.62-9.98-9.77-10.33l-.02-.08L.87,100.7c-.01-.09-1.21-10.4,7.22-21.97,8.1-11.11,34.18-18.38,36.43-18.99l.57-2.99,4.53-1.96.1.05,16.83,7.95.02.13c.32,1.75,1.46,6.48,2.83,7.41.19.13.36.17.54.14,1.17-.23,2.38-4.74,3.18-7.73.85-3.16,1.09-3.9,1.54-3.9.83,0,4.51,3.94,5.67,5.21.4.19,3.76,1.74,12.4,4.27,7.23,2.11,12.24,8.91,15.23,12.97.91,1.23,1.62,2.21,2.16,2.73,1.69,1.64,6.87,14.84,10.3,23.57,1.47,3.75,2.64,6.72,3.02,7.49,1.36,2.72,3.02,29.76,2.9,31.13-.15,1.65-1.4,9.96-11.26,11.56-6.89,1.12-10.14-1.25-11.46-2.75-.05-.06-.11-.04-.14-.03-.03.01-.08.05-.07.12.49,4.27,1.23,11.65.67,13.11-.77,1.98-4.37,2.17-4.53,2.18l-72.47.58ZM23.62,165.64l3.71,4.81,72.21-.57s3.42-.18,4.07-1.86c.38-.98.12-5.79-.7-12.87-.03-.28.11-.53.36-.64.25-.11.53-.05.71.16,1.26,1.43,4.36,3.66,11.01,2.59,9.5-1.54,10.7-9.52,10.84-11.11.14-1.51-1.6-28.37-2.84-30.86-.4-.79-1.56-3.77-3.04-7.53-3.21-8.16-8.57-21.83-10.18-23.39-.57-.55-1.29-1.54-2.22-2.79-2.95-4.01-7.9-10.72-14.97-12.79-9.24-2.7-12.49-4.31-12.53-4.32l-.07-.05c-2.18-2.38-4.7-4.87-5.29-5.07-.25.32-.7,2.01-1.1,3.52-1.18,4.42-2.19,7.82-3.56,8.09-.31.06-.62,0-.91-.21-1.7-1.16-2.83-6.67-3.01-7.61l-16.5-7.79-4.08,1.77-.58,3.04-.15.04c-.28.07-27.99,7.43-36.31,18.84C.19,90.42,1.35,100.55,1.37,100.65l3.59,53.92c.29.62,3.94,8.4,9.44,10.01,5.9,1.73,16.75-.24,18.15-1.25,1.55-1.13,12.69-12.95,15.28-17.57,2.32-4.12,2.53-6.39,2.55-6.72l-1.24-3.17-14.37-9.02-17.65,22.92-.4-.3,17.93-23.28,14.9,9.35,1.34,3.47c0,.1-.03,2.41-2.62,7.01-2.62,4.66-13.86,16.59-15.42,17.73-.97.7-4.91,1.59-9.21,1.91Z"/><path class="cls-4" d="M64.94,117.61c3.24-.03,9.64,5.17,9.64,5.17,0,0-.61-1.17-1.65-2.7-1.85-2.74-5.05-6.64-8.54-7.2,0,0-17.06-1.92-23.24,9.18-4.05,7.28,3.19,9.75,3.19,9.75l10.1-4.01,19.42.86,5.88-9.33"/><path d="M44.34,132.07l-.09-.03c-.13-.04-3.16-1.1-4.23-3.89-.69-1.81-.39-3.9.9-6.22,6.19-11.12,23.32-9.33,23.49-9.31,3.5.55,6.67,4.28,8.72,7.3,1.03,1.53,1.66,2.72,1.66,2.73l.56,1.08-.94-.77c-.06-.05-6.33-5.11-9.45-5.11h-.03v-.5h.03c2.55,0,6.83,2.99,8.77,4.45-.26-.44-.61-.99-1.01-1.6-1.63-2.41-4.88-6.54-8.37-7.09-.16-.02-16.96-1.77-22.99,9.06-1.22,2.19-1.51,4.14-.87,5.79.89,2.32,3.35,3.38,3.84,3.56l10.07-3.99h.05s19.28.86,19.28.86l5.8-9.2.42.27-5.96,9.45-19.51-.87-10.14,4.02Z"/><polygon class="cls-2" points="34.69 126.51 42.3 117.61 51.91 129.55 47.84 134.76 38.12 128.66 34.69 126.51"/><path d="M47.9,135.09l-13.58-8.52,7.99-9.35,9.93,12.33-4.33,5.53ZM35.07,126.45l12.71,7.97,3.81-4.87-9.3-11.55-7.22,8.45Z"/><path d="M30.53,398.26l-10.9,14.64s9.47,25.97,11.91,28.27c2.44,2.3,28.41,9.33,28.41,9.33,0,0-3.87-9.04-15.78-15.07-11.91-6.03,22.67-43.48,22.67-43.48l-21.24-9.76-15.07,16.07Z"/><path d="M60.38,450.87l-.5-.13c-1.06-.29-26.06-7.07-28.51-9.39-2.46-2.31-11.59-27.3-11.97-28.36l-.05-.13.08-.11,10.92-14.66,15.19-16.2,21.71,9.98-.23.25c-.27.29-26.93,29.31-25,40.01.26,1.43,1,2.43,2.26,3.07,11.85,6,15.86,15.1,15.9,15.19l.2.47ZM19.91,412.94c.72,1.97,9.52,25.9,11.8,28.04,2.18,2.05,24.06,8.11,27.77,9.12-1-1.95-5.32-9.34-15.43-14.46-1.39-.7-2.24-1.86-2.53-3.43-1.9-10.52,22.07-37.1,24.89-40.19l-20.76-9.54-14.93,15.93-10.82,14.52Z"/><path d="M96.1,434.57l3.01,26.69,39.17,16.93,12.77,2.58s-3.66-11.13-9.04-15.35-28.98-20.66-28.84-39.31-17.07,8.47-17.07,8.47Z"/><path d="M151.43,481.1l-13.19-2.67-39.35-17-.02-.14-3.02-26.78.05-.07c.43-.67,10.48-16.43,15.21-15.04,1.6.47,2.36,2.67,2.33,6.71-.13,17.1,19.73,32.24,27.21,37.93.61.46,1.12.86,1.54,1.18,5.37,4.22,8.97,15.01,9.12,15.47l.13.41ZM99.35,461.08l39.04,16.87,12.29,2.48c-.72-2.04-4.14-11.15-8.82-14.83-.41-.32-.93-.72-1.53-1.18-7.53-5.74-27.54-20.98-27.4-38.34.03-3.74-.63-5.83-1.97-6.23-4.2-1.24-13.83,13.57-14.6,14.76l2.99,26.46Z"/><polygon class="cls-4" points="26.05 399.7 47.18 426.1 90.79 366.41 68.41 330.25 26.05 399.7"/><path d="M47.18,426.51l-21.44-26.79.09-.15,42.57-69.79.21.35,22.47,36.3-.1.14-43.81,59.95ZM26.36,399.68l20.81,26.01,43.33-59.29-22.08-35.67-42.06,68.95Z"/><path class="cls-4" d="M79.32,213.17c-.93,4.67,13.18,72.41,26.28,133.38,11.04,51.36,21.36,97.91,21.36,97.91h-35.58s-44.77-127.41-57.97-181.36c-13.2-53.95-4.59-92.98-4.59-92.98h68.3s24.85,78.36,27.84,100.01c3.87,28.12-10.74,66.66-19.35,76.42"/><path d="M127.26,444.72h-36.07l-.06-.17c-.45-1.27-44.92-128.04-57.97-181.39-13.06-53.39-4.68-92.7-4.59-93.09l.04-.2h68.68l.06.17c.25.78,24.89,78.63,27.85,100.05,3.81,27.68-10.22,66.07-19.32,76.52,10.9,50.72,21.23,97.32,21.33,97.79l.07.3ZM91.54,444.22h35.1c-.91-4.12-10.84-48.99-21.29-97.61-18.21-84.73-27.05-129.64-26.28-133.48l.49.1c-.74,3.72,8.31,49.63,26.17,132.79,9.06-10.79,22.72-48.54,18.96-75.84-2.88-20.89-26.46-95.64-27.77-99.79H29.01c-.63,3.07-7.93,41.34,4.63,92.67,12.83,52.43,56.04,175.86,57.9,181.17Z"/><line x1="23.21" y1="101.11" x2="27.21" y2="136.22"/><rect x="24.96" y="101" width=".5" height="35.33" transform="translate(-13.27 3.62) rotate(-6.5)"/><path d="M75.57,58.27c-9.77-.46-16.92-11.6-16.99-11.71l.42-.27c.07.11,7.08,11.02,16.59,11.48l-.02.5Z"/><path d="M63.57,65.81l-5.93,4.93c-.17.14-.4.16-.59.05l-11.74-6.85,11.44,5.75c.16.08.35.07.5-.02l6.32-3.87Z"/><path d="M57.31,71.12c-.13,0-.27-.03-.39-.1l-11.74-6.85.24-.44,11.44,5.75c.08.04.18.04.26-.01l6.32-3.87.29.41-5.93,4.93c-.14.12-.32.18-.49.18ZM52.4,67.79l4.78,2.79c.1.06.22.05.31-.03l3.28-2.73-3.39,2.07c-.22.14-.51.15-.75.03l-4.24-2.13Z"/><path d="M103.67,154.66s-8.72-6.06-11.16-14.81"/><path d="M103.53,154.86c-.09-.06-8.82-6.21-11.25-14.95l.48-.13c2.39,8.56,10.97,14.61,11.06,14.67l-.29.41Z"/><ellipse cx="69.63" cy="83.61" rx="1.65" ry="2.3"/><path d="M69.63,86.15c-1.05,0-1.9-1.14-1.9-2.55s.85-2.55,1.9-2.55,1.9,1.14,1.9,2.55-.85,2.55-1.9,2.55ZM69.63,81.56c-.77,0-1.4.92-1.4,2.05s.63,2.05,1.4,2.05,1.4-.92,1.4-2.05-.63-2.05-1.4-2.05Z"/><ellipse cx="70.64" cy="103.41" rx="1.65" ry="2.3"/><path d="M70.63,105.95c-1.05,0-1.9-1.14-1.9-2.55s.85-2.55,1.9-2.55,1.9,1.14,1.9,2.55-.85,2.55-1.9,2.55ZM70.63,101.36c-.77,0-1.4.92-1.4,2.05s.63,2.05,1.4,2.05,1.4-.92,1.4-2.05-.63-2.05-1.4-2.05Z"/><ellipse cx="72.93" cy="138.51" rx="1.65" ry="2.3"/><path d="M72.93,141.06c-1.05,0-1.9-1.14-1.9-2.55s.85-2.55,1.9-2.55,1.9,1.14,1.9,2.55-.85,2.55-1.9,2.55ZM72.93,136.47c-.77,0-1.4.92-1.4,2.05s.63,2.05,1.4,2.05,1.4-.92,1.4-2.05-.63-2.05-1.4-2.05Z"/><ellipse cx="74.58" cy="164.17" rx="1.65" ry="2.3"/><path d="M74.58,166.72c-1.05,0-1.9-1.14-1.9-2.55s.85-2.55,1.9-2.55,1.9,1.14,1.9,2.55-.85,2.55-1.9,2.55ZM74.58,162.13c-.77,0-1.4.92-1.4,2.05s.63,2.05,1.4,2.05,1.4-.92,1.4-2.05-.63-2.05-1.4-2.05Z"/><path class="cls-4" d="M77.59,126.51s5.31,12.05,11.62,12.63,25.11-9.33,24.54-12.63c-.57-3.3-36.16,0-36.16,0Z"/><path d="M89.76,139.41c-.2,0-.39,0-.57-.02-6.39-.58-11.61-12.28-11.83-12.77l-.14-.32.35-.03c5.98-.55,35.84-3.15,36.43.21.1.56-.23,1.24-1,2.08-3.87,4.2-17.47,10.86-23.24,10.86ZM77.97,126.72c.89,1.9,5.74,11.66,11.27,12.16,5.16.46,19.55-6.51,23.39-10.68.81-.88.92-1.38.87-1.65-.39-2.22-21.85-1.08-35.54.17Z"/><path d="M63.32,128.68c-.19-2.25-6.57-6.32-9-7.7l.25-.44c.37.21,9,5.12,9.26,8.09l-.5.04Z"/><path d="M69.65,127.87c-1.53-5.14-9.68-8.94-9.77-8.98l.21-.45c.34.16,8.44,3.93,10.04,9.29l-.48.14Z"/><path class="cls-1" d="M43.92,130.03c0,.23.19.41.42.41l96.76.69c1.1-.11,1.74-.47,2.1-1.07l28.61-48.48c.17-.28-.04-.63-.36-.63h-79.92c-.16,0-.31.09-.38.24l-21.89,45.31c-.32.66-.99,1.09-1.94,1.11l-23.01-.26c-.24,0-.43.19-.42.43l.04,2.25Z"/><path d="M141.12,131.39l-96.79-.69c-.36,0-.66-.3-.67-.66l-.04-2.25c0-.18.06-.35.19-.48.13-.13.3-.2.48-.2h0l23.01.26c.81-.01,1.42-.36,1.71-.97l21.89-45.31c.11-.23.34-.38.6-.38h79.92c.24,0,.46.13.58.34.12.21.12.46,0,.67l-28.61,48.48c-.41.69-1.16,1.08-2.29,1.19ZM44.3,127.61s-.09.02-.12.05-.05.08-.05.12l.04,2.25c0,.09.08.17.17.17l96.76.69c.95-.09,1.55-.4,1.88-.95l28.61-48.48c.04-.08.02-.15,0-.17-.01-.03-.06-.09-.15-.09h-79.92c-.07,0-.12.04-.15.1l-21.89,45.31c-.38.79-1.15,1.23-2.16,1.25l-23.01-.26h0Z"/><path d="M78.95,213.5c-.05-.37-1.28-9,3.68-11.1l.2.46c-4.61,1.95-3.39,10.48-3.38,10.57l-.49.07Z"/><path d="M76.44,71.61c-.21,0-.4-.09-.54-.24l-2.18-2.44.37-.33,2.18,2.44c.08.09.17.08.21.07.04,0,.13-.03.17-.14l2.18-5.32.46.19-2.18,5.32c-.1.23-.3.4-.55.44-.04,0-.08.01-.12.01Z"/></svg>