<?xml version="1.0" encoding="UTF-8"?><svg id="Layer_2" xmlns="http://www.w3.org/2000/svg" width="147mm" height="241mm" viewBox="0 0 416.69 683.15"><defs><style>.cls-1{fill:none;}.cls-1,.cls-2,.cls-3,.cls-4{stroke:#000;stroke-miterlimit:10;stroke-width:.5px;}.cls-2,.cls-5{fill:#e4effa;}.cls-4{fill:#ecc41c;}</style></defs><path class="cls-2" d="M231.82,637.78l1.99,22.93h69.4s-5.66-11.46-26.14-15.75-6.57-44.48-6.57-44.48l-38.68,10.24v27.06Z"/><path class="cls-2" d="M67.33,682.72l69.25-22.01,2.45-40.97-34.7-5.66-7.49,27.21s-5.92,9.87-15.44,17.12c-7.38,5.62-8.68,8.18-10.24,10.09-4.18,5.11-3.82,14.22-3.82,14.22Z"/><path class="cls-2" d="M165.63,234.67h77.5s16.51,70.17,22.93,165.1c6.42,94.93,5.5,235.72,5.5,235.72l-44.03,2.29-34.39-289.38-52.28,303.13-47.69-13.3s14.22-163.72,28.89-249.02,18.34-108.23,24.31-122.45c5.96-14.22,19.26-32.1,19.26-32.1Z"/><path class="cls-2" d="M.56,218.68c.86,2.19,3.25,3.37,5.57,2.99l31.1-5.04"/><path class="cls-2" d="M37.22,216.63v-15.59h-7.34s-10.18,3.55-11.31,10.55c-.08.5-20.74.15-18.01,7.1"/><path class="cls-2" d="M371.38,196.6l-1.22,18.19,17.73,9.94s7.49,1.22,12.23,0,15.29-3.97,16.2-6.88-9.27-2.85-14.83-2.14c-.23.03-.73-.25-1.34-.7-2.77-1.98-4.79-4.84-5.88-8.06-1.33-3.93-3.99-9.74-8.68-12.49-4.43-2.6-12.99-2.14-14.22,2.14Z"/><path class="cls-2" d="M259.03,23.87s.67,18.66.84,19.91c.22,1.67,2.9,12.25,4.82,15.71,0,1.38-3.97-.92-7.8,1.53l-19.26,6.42-4.95,1.22-3.99,10.2-5.73,20.06-29.81-11.69,19.26-38.37,4.59-28.05,27.21-5.96,14.83,9.02Z"/><path class="cls-4" d="M163.78,237.22h79.93l9.97-6.68s50.45,4.39,68.79,3.34,48.61-17.1,48.61-17.1l1.83-21.55h-92.64s-4.13-60.54-35.77-97.68c-3.28-3.85-7.2-4.95-10.09-7.8s-4.96-10.78-5.73-10.89-9.17,11.81-11.69,11.01c-.98-.31-1.72-9.06-2.64-9.29-3.28-.82-7.22-3.9-7.22-3.9,0,0-7.11-3.44-7.11-3.44l-10.55,8.71s-34.85,11.01-41.73,15.59-17.89,7.34-23.85,30.73c-5.96,23.39-8.25,74.29-8.25,74.29l-80.71-2.75v17.89s10.09-.46,14.22,1.38,33.02,20.18,58.7,21.55,31.18-11.92,36.23-19.72c5.04-7.8,8.25-19.72,8.25-19.72,0,0-7.81,26.66,11.46,36.03Z"/><path class="cls-1" d="M214.7,310.34s-15.53,3.14-21.55,38.06"/><path class="cls-1" d="M216.99,90.67s4.13,129.32,1.83,139.87"/><path class="cls-1" d="M179.38,127.81h26.15s4.57,28.63-12.39,28.53-13.76-28.53-13.76-28.53Z"/><path class="cls-1" d="M152.33,193.39l12.84-48.61s-5.96-39.44-17.43-47.24"/><polyline class="cls-1" points="189.47 81.95 206.1 92.5 212.4 81.95"/><path class="cls-1" d="M246.34,106.26s12.84,108.69,7.34,124.28"/><line class="cls-1" x1="227.15" y1="84.14" x2="231.04" y2="90.32"/><path class="cls-3" d="M260.71,58.57s-8.4-5.32-11.46-6.42c-5.66-2.02-10.25,2.51-12.69,5.2-1.61,1.77-3.06,9.02-2.45,12.23.61,3.21,9.94,5.5,12.23,5.5s8.1-1.83,9.63-5.2l4.74-11.31Z"/><path class="cls-5" d="M247.28,55.75c-1.59,1.98-.64,5.23,1.65,6.69,2.59,1.96,6.02-1.26,6.73-2.41,0-.3-8.17-5.87-8.37-4.32v.04Z"/><path class="cls-3" d="M214.03,48.7l6.94-2.97c-7.93-10.33,5.54-25.56,5.2-10.24,8.08,3.27,12.58-3.37,16.36-13.15.55-1.37,13.15,2.14,16.51,1.53s5.5-10.09,3.67-11.92-16.97-9.63-28.74-10.39c-22.96-6.24-34.97,13.09-31.49,28.43.36-.61,8.51,20.96,11.56,18.72Z"/></svg>