<?xml version="1.0" encoding="UTF-8"?><svg id="Layer_1" xmlns="http://www.w3.org/2000/svg" width="68mm" height="68mm" viewBox="0 0 547.09 515.91"><defs><style>.cls-1{fill:#f5f9f8;}.cls-2{stroke:#012b27;stroke-miterlimit:10;stroke-width:3px;}.cls-2,.cls-3{fill:#fcfcfc;}.cls-4{fill:#68a5d2;}.cls-5{fill:#4a7392;}.cls-6{fill:#012b27;}.cls-7{fill:#435361;}.cls-8{fill:#5993bd;}</style></defs><path class="cls-3" d="M78.78,514.63c-43.01.05-77.75-34.49-77.78-77.32-.03-43.23,34.74-78.1,77.71-77.94,43.08.16,77.77,34.59,77.94,77.35.17,43.01-34.66,77.86-77.87,77.9Z"/><path class="cls-6" d="M102.4,401.51c-.45-.33-.54-.96-.2-1.4l13.93-18.32c.29-.38.84-.46,1.23-.17h0c.53.39.63,1.14.23,1.66-4.6,6.02-9.19,12.03-13.79,18.05-.33.43-.94.52-1.38.2h-.02Z"/><path class="cls-6" d="M113.57,416.12c-.31-.46-.19-1.08.27-1.39,5.41-3.64,10.82-7.26,16.21-10.93.6-.41.91-.04,1.27.22.77.56.47,1.12-.15,1.54-5.39,3.63-10.79,7.24-16.19,10.85-.46.31-1.08.19-1.39-.27v-.02Z"/><path class="cls-6" d="M123.14,433.45c-.13-.54.2-1.08.74-1.21,6.33-1.53,12.67-3.05,18.99-4.62.71-.18.87.28,1.11.64.52.8.05,1.21-.68,1.39-6.32,1.53-12.64,3.04-18.96,4.55-.54.13-1.07-.2-1.21-.73v-.02Z"/><path class="cls-8" d="M53.21,470.02c-2.61,1.46-4.96,3.44-7.98,4.12-7.23-7.67-13.68-15.83-16.28-26.35,9.94-4.59,18.22-11.32,25.51-19.44,5.94-6.61,9.84-14.48,14.45-21.93,2.34,6.77,4,13.8,7.54,20.12,3.56,5.53,7.13,11.05,10.69,16.58,4.45,7,10.87,12.11,16.85,17.65-8.24.04-16.51-1.1-24.71.54-4.05.81-8.18,1.31-11.96,3.14-5.1.85-9.63,3.16-14.11,5.57Z"/><path class="cls-5" d="M76.46,426.54c-3.54-6.32-5.2-13.35-7.54-20.12-.18-2.03-.07-4.11-1.25-5.93,0,0,0,.03,0,.03.12-.5.24-.99.36-1.49,2.48-6.56,4.84-7.55,10.68-3.77,9.73,6.3,16.25,15.64,21.95,25.36,5.79,9.87,11.16,20.1,12.24,31.84.56,6.1-1.02,7.97-6.65,8.59-.68-.67-1.44-.73-2.26-.3,0,0,.02,0,.02,0-5.98-5.54-12.4-10.65-16.85-17.65,5.58-4.17,7.11-9.75,3.97-14.41-3.36-4.99-8.66-5.78-14.66-2.17Z"/><path class="cls-7" d="M53.21,470.02c4.49-2.41,9.01-4.72,14.11-5.57-.7,6.99,2.95,14.72,9.08,19.29.51.38,1.32.83,1.36,1.31.4,4.41-2.83,6.76-5.63,9.22-2.46,2.17-4.52.99-6.26-1.27-4.07-5.28-7.04-11.18-9.89-17.16-.92-1.94-1.86-3.88-2.79-5.82Z"/><path class="cls-7" d="M28.95,447.79c2.61,10.53,9.06,18.68,16.28,26.35-6.99,3.1-13.85-.22-19.25-9.34-4.24-7.15-3.43-14.42,2.07-18.69.3.56.59,1.12.89,1.67Z"/><path class="cls-4" d="M28.95,447.79c-.3-.56-.59-1.12-.89-1.67,2.64-4.1,7.34-5.53,10.96-8.36,11.84-9.26,21.44-20.18,26.74-34.48.4-1.08.71-2.24,1.91-2.78,1.18,1.81,1.07,3.9,1.25,5.93-4.61,7.45-8.51,15.33-14.45,21.93-7.29,8.12-15.57,14.85-25.51,19.44Z"/><path class="cls-1" d="M76.46,426.54c6.01-3.61,11.3-2.83,14.66,2.17,3.14,4.66,1.6,10.24-3.97,14.41-3.56-5.53-7.13-11.05-10.69-16.58Z"/><path class="cls-2" d="M271.64,219.77c-54,29.42-31.54,34.78-76.81,4.73-3.27-1.92-5.31-1.57-8.29.66-32.98,20.45-23.97,40.71-46.25,10.55-2.18-3.18-4.53-3.91-8.41-2.7-14.23,4.44-28.76,7.8-43.34,10.91-1.65.35-3.5,1.52-5.32-.71,10.4-7.23,9.89-19.01,12.33-29.61.46-2.02-.12-2.58-2.28-2.4-9.86.86-19.53-1.22-29.28-2.17-9.12-.36,12.58-25.13,16.63-27.34,2.89-3.06,13.68-10.86,5.85-13.55-14.58-8.3-31.67-15.27-42.56-28.15,49.8-27.4,75.31-13.73,25.83-43.8-12.69-9.06,13.75-12.87,19.97-14.25,16.03-2.04-20.03-31.79-23.6-37.84-2.71-2.99-5.61-5.47-9.6-6.76-4.92-1.59-6.58-7.03-10.94-9.62,23.34.7,45.43,6.91,68.34,10.25,14.29,4.53,5.74-20.59,10.12-29.39,55.44,30.96,47.84,48.53,59.34,6.33,1.94-5.39,3.25-6.19,8.82-3.99,16.82,6.56,33.28,14.07,50.19,20.39,13.49,6.3,8.75-18,13.33-25.37-.14-13.49,34.85,20.14,41.22,22.36,9.49,8.33,12.5-7.58,16.59-13.58,8.42-10.83,7.34,24.3,18.33,11.58,36.98-32.28,28.46-18.79,59.67,9.06,7.99,7.44,29.45-19.23,37.93-23.66,11.43-7.81,23.09,20.28,30.02,27.22,7.78,11.03,8.18,11.18,19.37,3.37,6.83-4.79,13.06-8.86,20.63-12.89.31,9.44-1.08,17.96-1.83,26.98-.57,3.4.75,5.44,4.15,6.02,6.17.55,8.48,7.21,14.16,8.58,8.57,3.09,17.15,6.12,26.86,9.57-16.07,11.02-30.43,20.92-46.27,31.56-11.78,10.8,12.98,11.77,19.33,15.09,4.35,1.43,4.61,3.01,1.49,6.64-28.9,22.65-20.16,4.41,11.87,46.55-32.54,8.14-41.16-11.84-29.89,32.01.43,5.05-.21,5.85-4.97,4.1-13.98-5.13-28.36-9.15-42.11-14.93-12.28-9.23-5.22,29.64-8.37,36.58.39,13.05-28.72-20.6-33.89-22.78-5.35-4.49-5.42-4.41-10.07.59-5.65,3.47-18.44,26.26-24.12,19.89-16.13-12.73-10.44-34.91-19.7-24.96-26.97,29.77-51.05,62.42-77.34,93-8.46,7.63-9.94,16.18-17.9,1.39-3.11-12.26-32.7,30.1-39.45,34.06-11.22,9.18-34.83,43.08-46.59,43.39,5.13-6.96,9.93-32.54,18.5-31.75,9.61,1.84,9.56,1.64,14.57-7.1,13.04-22.75,26.21-45.43,39.19-68.21,5.03-7.84,14.38,1.58,20.43,3.42,8.87,6.95,2.12-51.47,4.12-59.35Z"/><path class="cls-6" d="M134.1,145.64h-10.67v-27.72h10.56c2.85,0,5.31.55,7.39,1.66,2.08,1.1,3.69,2.69,4.82,4.76,1.14,2.07,1.71,4.54,1.71,7.43s-.56,5.37-1.69,7.44c-1.13,2.07-2.73,3.65-4.79,4.76-2.07,1.1-4.51,1.65-7.32,1.65ZM130.96,139.25h2.87c1.37,0,2.54-.22,3.51-.66.97-.44,1.71-1.2,2.22-2.29.51-1.08.77-2.59.77-4.52s-.26-3.44-.79-4.52c-.51-1.08-1.27-1.85-2.27-2.29-.99-.44-2.21-.66-3.65-.66h-2.65v14.94ZM152.15,145.64v-27.72h19.98v6.06h-12.45v4.76h11.42v6.06h-11.42v4.76h12.4v6.06h-19.92ZM176.62,145.64v-27.72h7.53v21.66h11.21v6.06h-18.73ZM207.52,117.92h9.37l6.44,15.7h.32l6.44-15.7h9.37v27.72h-7.36v-16.03h-.22l-6.17,15.81h-4.44l-6.17-15.92h-.22v16.13h-7.36v-27.72ZM243.79,145.64v-27.72h19.98v6.06h-12.45v4.76h11.42v6.06h-11.42v4.76h12.4v6.06h-19.92ZM278.93,145.64h-10.67v-27.72h10.56c2.85,0,5.31.55,7.39,1.66,2.08,1.1,3.69,2.69,4.82,4.76,1.14,2.07,1.71,4.54,1.71,7.43s-.56,5.37-1.69,7.44c-1.13,2.07-2.73,3.65-4.79,4.76-2.07,1.1-4.51,1.65-7.32,1.65ZM275.79,139.25h2.87c1.37,0,2.54-.22,3.51-.66.97-.44,1.71-1.2,2.22-2.29.51-1.08.77-2.59.77-4.52s-.26-3.44-.78-4.52c-.51-1.08-1.27-1.85-2.27-2.29-.99-.44-2.21-.66-3.65-.66h-2.65v14.94ZM305.33,145.64v-27.72h19.98v6.06h-12.45v4.76h11.42v6.06h-11.42v4.76h12.4v6.06h-19.92ZM353.79,117.92v27.72h-6.28l-10.02-14.56h-.16v14.56h-7.53v-27.72h6.39l9.85,14.51h.22v-14.51h7.53ZM374.05,117.92l5.68,19.54h.22l5.68-19.54h8.5l-9.15,27.72h-10.29l-9.15-27.72h8.5ZM397.56,145.64v-27.72h19.98v6.06h-12.45v4.76h11.42v6.06h-11.42v4.76h12.4v6.06h-19.92ZM446.02,117.92v27.72h-6.28l-10.02-14.56h-.16v14.56h-7.53v-27.72h6.39l9.85,14.51h.22v-14.51h7.53ZM459.11,117.92l-.7,19.06h-6.17l-.7-19.06h7.58ZM455.32,146.07c-1.05,0-1.95-.37-2.69-1.1-.74-.74-1.11-1.64-1.1-2.69,0-1.03.36-1.91,1.1-2.64.75-.73,1.65-1.1,2.69-1.1.99,0,1.87.37,2.62,1.1.77.73,1.16,1.61,1.16,2.64,0,.7-.19,1.34-.55,1.92-.35.57-.81,1.02-1.38,1.37-.57.33-1.19.5-1.85.5Z"/></svg>