<?xml version="1.0" encoding="UTF-8"?><svg id="Layer_1" xmlns="http://www.w3.org/2000/svg" width="20mm" height="20mm" viewBox="0 0 158.74 158.74"><defs><style>.cls-1{fill:#f5f9f8;}.cls-2{fill:#68a5d2;}.cls-3{fill:#4a7392;}.cls-4{fill:#435361;}.cls-5{fill:#5993bd;}</style></defs><path class="cls-1" d="M79.73,1.69c43.18.51,78.07,35.48,77.4,77.78-.74,46.81-39.18,78.67-80.26,77.55C34.71,155.88,1,120.49,1.61,76.64,2.18,35.51,37.94,1.2,79.73,1.69ZM99.49,39.89s.02-.03.02-.03c-1.32-.01-2.08.92-2.89,1.74-10.76,10.81-24.02,16.76-38.64,20.28-4.47,1.07-9.33.43-13.44,3.06-6.78,1.6-10.53,7.88-9.64,16.15,1.13,10.53,5.99,16.4,13.64,16.48,3.03.63,5.98-.19,8.97-.44.04,2.15.09,4.3.12,6.45.1,6.62.37,13.22,1.88,19.71.65,2.78,2.03,4.71,5.17,3.75,3.56-1.08,7.48-1.88,8.95-6.06.16-.45-.39-1.2-.7-1.76-3.68-6.7-3.8-15.25-.26-21.32,4.2-.1,8.17,1.16,12.19,2.1,8.14,1.91,15.19,6.38,22.7,9.76h-.02c.33.91,1.09,1.12,1.93,1.21,5.38,1.77,7.6.73,9.62-5.05,3.89-11.13,3.25-22.67,2.07-34.05-1.16-11.22-3.21-22.42-9.45-32.19-3.75-5.87-6.3-5.95-11.28-1.01-.31.4-.63.8-.94,1.2Z"/><path class="cls-5" d="M57.5,97.12c-2.98.25-5.94,1.07-8.97.44-3.39-9.98-5.87-20.07-3.88-30.73,10.95-.05,21.27-2.74,31.28-7.1,8.14-3.55,14.97-9.09,22.25-13.96-.68,7.13-2.09,14.21-1.49,21.44.95,6.51,1.9,13.01,2.85,19.52,1.14,8.21,4.87,15.53,8.01,23.05-7.51-3.38-14.56-7.85-22.71-9.76-4.02-.94-7.99-2.21-12.19-2.1-4.99-1.35-10.07-1.11-15.15-.79Z"/><path class="cls-3" d="M96.7,67.21c-.6-7.22.81-14.3,1.49-21.44.67-1.92,1.65-3.77,1.32-5.91,0,0-.02.03-.02.03.31-.4.63-.8.94-1.2,4.98-4.94,7.53-4.87,11.28,1.01,6.24,9.77,8.29,20.97,9.45,32.19,1.17,11.38,1.82,22.92-2.07,34.05-2.02,5.78-4.24,6.83-9.62,5.05-.34-.89-1.01-1.26-1.93-1.21,0,0,.02,0,.02,0-3.14-7.52-6.86-14.84-8.01-23.05,6.8-1.48,10.52-5.92,9.6-11.46-.99-5.94-5.48-8.85-12.44-8.06Z"/><path class="cls-4" d="M57.5,97.12c5.08-.33,10.16-.56,15.15.79-3.54,6.06-3.42,14.62.26,21.32.31.56.86,1.31.7,1.76-1.47,4.18-5.38,4.97-8.95,6.06-3.14.96-4.52-.98-5.17-3.75-1.51-6.49-1.77-13.09-1.88-19.71-.03-2.15-.08-4.3-.12-6.45Z"/><path class="cls-4" d="M44.66,66.83c-2,10.66.49,20.75,3.88,30.73-7.65-.08-12.51-5.95-13.64-16.48-.89-8.26,2.86-14.55,9.64-16.15.04.63.08,1.26.12,1.89Z"/><path class="cls-2" d="M44.66,66.83c-.04-.63-.08-1.26-.12-1.89,4.11-2.63,8.97-1.98,13.44-3.06,14.62-3.51,27.88-9.47,38.64-20.28.81-.81,1.57-1.75,2.89-1.74.32,2.14-.65,3.99-1.32,5.91-7.28,4.86-14.11,10.41-22.25,13.96-10,4.36-20.33,7.05-31.28,7.1Z"/><path class="cls-5" d="M107.53,109.77c.93-.05,1.6.31,1.93,1.21-.84-.08-1.61-.3-1.93-1.21Z"/><path class="cls-2" d="M100.43,38.68c-.31.4-.63.8-.94,1.2.31-.4.63-.8.94-1.2Z"/><path class="cls-1" d="M96.7,67.21c6.96-.79,11.45,2.12,12.44,8.06.92,5.54-2.79,9.98-9.6,11.46-.95-6.51-1.9-13.01-2.85-19.52Z"/></svg>