<?xml version="1.0" encoding="UTF-8"?><svg id="Layer_1" xmlns="http://www.w3.org/2000/svg" width="51mm" height="51mm" viewBox="0 0 144.57 144.57"><path d="M.28,71.43c.79-1.93,1.34-4.01,2.43-5.75,2.61-4.17,6.72-5.86,11.47-6.34,2.6-.26,5.21-.57,7.78-1.09,4.03-.81,6.87-4.3,7.03-8.37.01-.28,0-.56.03-.84.15-2.27.07-4.46-1.54-6.33-.53-.62-.81-1.47-1.15-2.24-.9-2.03-1.71-3.93-3.4-5.68-3.08-3.19-4.59-7.36-4.07-11.97.33-2.94,1.75-5.23,4.51-6.46.78-.35,1-.83,1.09-1.58C25.44,6.7,32.54.3,40.68.32c3.21,0,6.56-.17,9.61.64,6.77,1.81,10.88,6.46,12.15,13.43.19,1.04.5,1.7,1.52,2.22,3.44,1.77,4.47,4.95,4.23,8.5-.24,3.57-1.71,6.77-3.9,9.61-.06.07-.11.17-.18.21-2.27,1.11-2.59,3.43-3.46,5.44-.61,1.41-1.49,2.7-2.2,4.07-.28.54-.44,1.15-.69,1.81,8.57-4.31,17.24-3.07,25.58-1.89-.94-2.27-2.01-4.89-3.13-7.48-.16-.37-.58-.68-.94-.91-4.38-2.75-6.83-12.13-4.09-16.45.83-1.31,2.35-2.16,3.52-3.26.36-.34.81-.78.86-1.21.98-8.31,8.09-14.77,16.44-14.75,3.03,0,6.15-.12,9.07.52,6.96,1.54,11.77,7.19,12.73,14.23.05.39.29.96.58,1.07,4.26,1.63,5.94,6.74,4.61,11.41-.76,2.66-1.55,5.51-3.73,7.26-1.91,1.53-2.57,3.5-3.4,5.52-.41.99-.84,2.01-1.46,2.87-2.31,3.19-1.64,6.52-.28,9.7,1.45,3.4,4.33,5.17,7.99,5.62,3.71.45,7.46.71,11.14,1.37,6.18,1.11,10.77,6.54,10.97,12.85.13,4.12.09,8.25.01,12.37-.06,3.29-2.78,6.04-6.04,6.29-.7.05-1.4.07-2.11.07-14.34,0-28.68.02-43.01-.02-1.07,0-1.72.28-2.23,1.24-.55,1.02-1.22,2.01-2,2.87-.83.91-.91,1.85-.69,2.96,1.01,4.95,4.4,7.88,10.08,8.93,3.48.65,7.09,1.1,10.34,2.41,5.67,2.29,8.82,6.89,9.19,13.01.29,4.67.13,9.37.08,14.05-.03,3.37-1.84,5.76-5.08,7-.2.07-.36.22-.54.34H32.34c-.09-.09-.16-.23-.27-.27-3.83-1.5-5.37-3.69-5.38-7.77,0-4.31-.15-8.63.06-12.93.32-6.36,3.49-11.09,9.36-13.49,3.15-1.28,6.66-1.83,10.06-2.32,6.85-1,9.67-5.39,10.24-9.4.1-.72-.22-1.6-.6-2.28-.58-1.06-1.49-1.94-2.05-3-.56-1.07-1.28-1.36-2.45-1.35-14.29.04-28.58.03-42.87.02-.61,0-1.22-.01-1.83-.05-2.79-.19-4.7-1.63-5.84-4.15-.15-.32-.33-.62-.5-.93,0-4.97,0-9.94,0-14.9ZM43.26,48.22c3.13.09,5.76-1.12,8.07-3.1,3.17-2.71,5.11-6.18,6.01-10.21.34-1.53.88-2.74,2.62-3.05.36-.07.8-.38.98-.71,1.26-2.24,2.56-4.49,2.35-7.21-.05-.64-.2-1.3-.45-1.89-.35-.81-.85-1.32-1.95-.93-1.47.51-2.82-.5-2.99-2.05-.05-.46-.03-.94-.04-1.4-.12-6.15-3.28-10.69-8.94-12.07-2.58-.63-5.39-.58-8.08-.48-4.87.19-8.52,2.53-10.67,6.99-.96,2-1.02,4.14-1.07,6.3-.05,2.22-1.29,3.12-3.4,2.68-.38-.08-1.08.13-1.23.42-.41.76-.78,1.61-.85,2.46-.21,2.7,1.1,4.97,2.38,7.2.2.35.71.66,1.12.74,1.48.28,1.96,1.31,2.4,2.59.77,2.24,1.46,4.58,2.67,6.57,2.49,4.1,6.01,6.89,11.06,7.13ZM98.63,48.21c3.09.07,5.67-1.17,7.92-3.12,3.11-2.68,5.06-6.09,5.95-10.1.34-1.56.89-2.84,2.69-3.16.39-.07.89-.46,1.04-.83.82-2.02,1.67-4.04,2.23-6.14.23-.85-.14-1.94-.45-2.84-.29-.83-.84-1.31-1.95-.9-1.43.53-2.84-.54-2.99-2.07-.06-.6-.01-1.22-.02-1.83-.14-5.77-3.42-10.31-8.95-11.64-2.59-.62-5.39-.58-8.09-.47-4.87.21-8.67,2.48-10.58,7.05-.8,1.92-.87,4.17-1.09,6.28-.2,1.96-1.4,3.22-3.05,2.67-1.17-.39-1.75.07-2.02,1-.29.96-.68,2.09-.43,2.98.57,2.05,1.45,4.02,2.31,5.98.17.39.76.74,1.21.83,1.4.3,1.89,1.23,2.32,2.49.78,2.28,1.5,4.66,2.74,6.7,2.52,4.14,6.08,6.95,11.21,7.1ZM89.58,67.83c-1.14-.14-1.95-.24-2.77-.35-1.34-.18-2.72-.21-4-.59-3.34-1-5.58-3.31-7.04-6.57-.72.58-1.36,1.1-2.01,1.63-4.26,3.46-8.99,5.66-14.62,5.59-1.37-.02-2.74.34-4.4.56.6,1.44,1.24,2.59,1.53,3.82.19.82.15,1.96-.3,2.57-.41.55-1.58.9-2.31.77-.68-.12-1.44-.88-1.78-1.56-.81-1.64-1.39-3.4-2.16-5.35-.4.47-.91.8-.97,1.2-.18,1.18-.47,2.45-.21,3.57.67,2.91,2.43,5.15,5.08,6.56,1.2.64,1.81,1.53,1.91,2.86.08,1.02.16,2.06.39,3.05,1.57,6.73,5.78,11.07,12.41,12.75,6.73,1.71,13.7-1.04,17.49-6.44,1.85-2.62,2.99-5.49,3.1-8.72.06-1.68.67-2.85,2.27-3.68,1.16-.6,2.21-1.61,3.02-2.66,1.6-2.06,2.57-4.39,1.63-7.06-.2-.57-.8-1-1.34-1.64-.65,2.28-1.06,4.15-1.75,5.92-.28.72-1.05,1.52-1.77,1.75-1.78.58-3.31-1.14-2.81-2.99.43-1.6.88-3.19,1.39-5.01ZM93.42,86.54c.27.03.54.09.81.09,14.29,0,28.57,0,42.86,0,1.59,0,2.34-.71,2.36-2.31.04-3.61.11-7.22-.02-10.82-.19-5.19-3.43-8.55-8.64-9.17-1.9-.23-3.81-.46-5.72-.56-.61-.03-1.41.15-1.84.55-2.78,2.55-5.97,4.42-9.56,5.42-3.54.98-7.19,1.52-10.79,2.28-.78.16-1.78-.18-1.97,1.22-.52,3.83-2.36,7.04-5.46,9.3-1.49,1.08-2.02,2.29-2.02,4ZM51.11,86.63c-.02-1.83-.51-3.06-2.01-4.14-3.07-2.22-4.83-5.42-5.46-9.17-.14-.84-.43-1.03-1.23-1.09-2.7-.22-5.42-.37-8.08-.86-5.73-1.06-11.06-3.08-15.48-7.08-.4-.36-1.19-.44-1.79-.4-1.35.09-2.69.31-4.03.51-4.18.63-7.38,3.66-7.73,7.88-.32,3.77-.18,7.58-.22,11.37-.02,2.41.58,2.99,2.96,2.99,13.87,0,27.73,0,41.6,0h1.48ZM96.52,139.47c4.45,0,8.9.02,13.34,0,2.2-.01,3.17-1,3.18-3.19.02-3.98.04-7.96,0-11.94-.06-4.32-1.84-7.79-5.72-9.75-1.91-.96-4.19-1.19-6.29-1.76-.94-.25-1.64-.02-2.39.67-4.69,4.37-9.43,8.69-14.17,13.01-.48.43-1.08,1.07-1.6,1.04-1.34-.06-1.87.69-2.37,1.68-.17.33-.42.65-.72.85-.71.49-.71,1.04-.41,1.79.85,2.12,1.67,4.26,2.41,6.42.3.89.7,1.22,1.68,1.21,4.35-.06,8.71-.03,13.06-.03ZM47.8,139.47c4.4,0,8.8-.04,13.2.03,1.03.01,1.47-.32,1.78-1.27.53-1.64,1.14-3.26,1.83-4.84.66-1.51,1.21-2.9-.52-4.11-.32-.22-.41-.73-.68-1.04-.21-.24-.53-.4-.82-.55-.85-.42-1.87-.63-2.54-1.24-4.05-3.61-8.18-7.17-11.97-11.04-2.21-2.26-4.32-2.87-7.39-2.13-4.89,1.17-8.52,4.42-8.97,9.47-.39,4.37-.19,8.79-.22,13.19-.02,2.64.89,3.54,3.53,3.55,4.26,0,8.52,0,12.78,0ZM88.9,62.65c1.12-7.75-4.27-14.19-11.95-14.31-3.14-.05-6.27-.03-9.41,0-7.45.05-13.06,6.35-11.92,14.55,1.25-.06,2.5-.16,3.76-.18,2.77-.04,5.34-.77,7.76-2.12,3.03-1.68,5.58-3.92,7.88-6.47.76-.84,1.66-1.23,2.76-.92,1.13.32,1.56,1.25,1.76,2.32.98,5.5,3.68,7.57,9.36,7.13ZM24.74,62.56c.13.15.2.29.31.35,5.77,3.21,11.99,4.65,18.57,4.54.31,0,.77-.2.91-.45,1.31-2.35,3.36-3.41,6.03-3.45.03-.39.08-.71.07-1.03-.15-3.76.4-7.36,2.29-10.69.26-.45.18-1.09.3-1.91-6.62,4.2-13,4.11-19.36.14-.63,6.1-3.7,10.15-9.12,12.49ZM117.7,62.54c-6.54-3.88-6.9-4.36-9.56-12.42-5.26,3.37-10.79,3.94-16.89,1.23,2.54,3.99,2.78,8.07,2.66,12.17,3.18.27,3.94.73,5.98,3.34.19.25.6.47.9.46,6-.1,11.59-1.68,16.91-4.79ZM83.41,100.34c-7.5,4.19-14.93,4.14-22.32,0-.79,1.75-1.53,3.39-2.33,5.16,2.58,1.62,5.15,3.31,7.79,4.87,1.7,1,3.06,2.23,4,3.99.83,1.57,2.6,1.56,3.44,0,.92-1.71,2.22-2.93,3.88-3.91,2.69-1.58,5.29-3.3,7.88-4.93-.81-1.78-1.55-3.42-2.34-5.17ZM50.85,111.5c3.54,3.24,7.02,6.42,10.6,9.7.88-2.04,1.74-3.94,2.49-5.88.11-.28-.23-.93-.54-1.13-2.46-1.61-4.96-3.16-7.48-4.69-.32-.19-.9-.24-1.22-.09-1.25.6-2.45,1.32-3.85,2.09ZM83.08,121.21c3.63-3.33,7.09-6.5,10.57-9.7-1.37-.76-2.62-1.48-3.9-2.13-.26-.13-.74-.14-.98.01-2.63,1.6-5.24,3.23-7.82,4.92-.25.16-.44.8-.33,1.09.75,1.91,1.58,3.78,2.46,5.81ZM72.29,127.41c.75,0,1.49.03,2.24,0,1.46-.06,2.33-.87,2.52-2.3.34-2.66-.24-4.26-1.72-4.69-.18-.05-.37-.07-.55-.08-1.68,0-3.36-.04-5.04.01-1.1.03-1.94.67-2.09,1.73-.48,3.36-.38,5.74,3.8,5.34.28-.03.56,0,.84,0ZM77.03,139.44c-.57-1.52-1.07-2.87-1.57-4.22q-1.2-3.18-4.52-2.91c-.32.03-.81.19-.9.42-.87,2.19-1.68,4.4-2.54,6.7h9.53Z"/></svg>