<?xml version="1.0" encoding="UTF-8"?><svg id="Layer_1" xmlns="http://www.w3.org/2000/svg" width="161mm" height="160mm" viewBox="0 0 456.38 453.54"><defs><style>.cls-1{fill:#feda00;}</style></defs><path class="cls-1" d="M1.4,453.54c0-2.08,0-3.87,0-5.66,0-16,.34-32.01-.08-48-.58-22.03,8.86-39.18,24.81-53.32,18.4-16.31,40.6-25.74,63.2-34.36,26.46-10.09,53.57-17.85,81.5-22.58,28.36-4.8,56.9-5.93,85.59-3.51,50.49,4.26,97.98,19.1,143.43,40.89,16.18,7.76,30.8,17.94,41.94,32.4,8.71,11.31,13.24,24.11,13.28,38.42.04,16.83.01,33.67.01,50.5,0,1.63,0,3.26,0,5.22H1.4Z"/><path class="cls-1" d="M340.66,114.37c1,61.12-51.41,111.56-110.26,112.65-63.36,1.17-114.13-52.14-115.12-111.08C114.24,54.31,168.3.17,227.83,0c59.81-.16,114.46,53.97,112.83,114.37Z"/></svg>