<?xml version="1.0" encoding="UTF-8"?><svg fill="#DDEFFF" id="Layer_1" xmlns="http://www.w3.org/2000/svg" width="90mm" height="84mm" viewBox="0 0 255.12 238.11"><path d="M254.08,234.58c-1.63,1.98-3.69,2.51-6.25,2.51-80.23-.06-160.45-.05-240.68-.05-.82,0-1.66.06-2.47-.05-2.16-.28-3.68-2.11-3.63-4.28.04-2.22,1.55-3.94,3.82-4.04,2.76-.12,5.53-.03,9-.03-5.11-6.37-4.44-13.37-4.42-20.25.02-10.21-.02-20.43.01-30.64.07-18.39,15.06-33.41,33.47-33.57,1.24-.01,2.5-.17,3.7.03,2.96.49,4.77-.9,6.29-3.24,3.13-4.82,4.2-9.96,2.55-15.51-.28-.95-1.14-2.02-2.02-2.46-10.33-5.19-17.87-13-22.76-23.46-.38-.82-1.55-1.66-2.46-1.8-7.14-1.07-13.25-6.89-14.28-13.82-1.19-7.95,2.68-15.39,9.85-18.32,2.06-.84,2.47-1.88,2.57-3.94.25-5.29-.67-9.73-4.21-14.22-5.56-7.06-7.27-15.92-8.16-24.74-.51-5.06-.41-10.19-.53-15.29-.02-1.06-.11-2.32.4-3.14.81-1.28,1.95-2.93,3.21-3.19,1.27-.26,3.58.56,4.18,1.62,4.84,8.56,13.12,10.45,21.71,10.85,10.01.47,20.08.06,30.11-.16,9.14-.2,18.28-.51,27.26,1.69,12.77,3.13,20.97,12.93,22.31,26.07.76,7.49-.05,14.78-1.79,22.01-.34,1.4-.09,1.97,1.23,2.63,7.23,3.6,10.7,10.46,9.42,18.32-1.15,7.1-6.82,12.32-14.65,13.66-.73.12-1.66.79-1.96,1.45-4.88,10.78-12.63,18.72-23.23,23.96-.7.35-1.41,1.2-1.62,1.95-1.84,6.79-.48,12.88,4.4,18.01.62.65,1.85.92,2.83,1,3.69.29,7.45.06,11.06.72,3.59.65,7.02,2.13,10.82,3.34,0-4.11-.02-8.42,0-12.72.03-5.82,2.24-10.71,6.35-14.78,4.27-4.22,9.52-6.08,15.43-6.08,27.68-.03,55.35-.07,83.03.02,12.68.04,21.69,9.28,21.7,21.94.02,22.65-.03,45.3.04,67.95.01,4.13-.3,8.06-3.26,11.37,3.02,3.74,3.93,7.84,2.61,12.58,3.26.44,6.92-.85,9.03,2.65v3.46ZM182.38,211.7c16.22,0,32.44,0,48.66,0,4.9,0,6.17-1.27,6.17-6.12,0-22.72-.11-45.45.06-68.17.06-8.38-5.66-14.33-14.28-14.25-27.09.26-54.18.27-81.26,0-9.09-.09-14.34,6.43-14.27,14.26.21,22.72.07,45.45.07,68.17,0,4.83,1.28,6.1,6.18,6.1,16.22,0,32.44,0,48.66,0ZM76.68,228.6v-16.8h-2.85c-10.95,0-21.91,0-32.86,0-4.11,0-6.25-1.47-6.25-4.3,0-2.84,2.07-4.26,6.27-4.26,17.13,0,34.26,0,51.39,0,1.07,0,2.14.05,3.21.15,9.81.95,16.64,10.15,14.7,19.86-.35,1.74-.97,3.41-1.46,5.12h10.9c-1.31-4.74-.37-8.83,2.58-12.5-2.7-3.09-3.22-6.63-3.19-10.46.09-14.66,0-29.32.08-43.98,0-1.67-.53-2.71-1.84-3.68-5.42-4.03-11.58-5.34-18.16-4.99-.64.03-1.57,1.01-1.77,1.71-3.19,11.56-12.9,19.27-24.48,19.31-11.91.04-21.62-7.56-24.92-19.39-.19-.68-1.18-1.62-1.8-1.62-2.7,0-5.48-.03-8.1.53-12.22,2.63-20.12,12.62-20.2,25.44-.07,11.86-.02,23.72-.01,35.58,0,9.1,5.15,14.26,14.21,14.27,14,.01,28,0,42.01,0,.8,0,1.61,0,2.57,0ZM34.76,59.06c0,3.05.07,6.08-.02,9.1-.08,2.71-1.39,4-4.07,4.35-.57.07-1.14.14-1.71.26-4.66.96-7.32,4.64-6.79,9.36.48,4.26,4.06,7.25,8.59,7.19,5.02-.06,5.11.04,6.91,4.79,5.93,15.63,20.4,24.92,35.6,24.74,15.56-.19,29.25-10.41,34.6-25.09,1.52-4.17,2.09-4.57,6.44-4.44,4.93.14,8.52-2.85,9.05-7.54.51-4.5-2.61-8.33-7.44-9.14-4.25-.71-4.78-1.14-5.45-5.3-.64-3.94-2.53-7.12-5.61-9.55-6.37-5-13.74-6.45-21.44-4.7-4.91,1.12-9.57,3.4-14.3,5.25-7.55,2.96-15.29,4.62-23.4,3.22-3.6-.62-7.14-1.62-10.95-2.5ZM22.33,16.34c-.43,8.02,2.41,19.28,6.27,25.53,2.34,3.8,5.32,6.95,9.42,8.8,6.09,2.75,12.58,3.89,19.02,2.22,6.16-1.6,12.04-4.23,18.05-6.4,13.78-4.97,26.34-3.2,37.4,6.8.33.3.72.54,1.76,1.31,0-3.97.1-7.32-.02-10.67-.44-11.96-7.65-19.78-19.46-21.46-9.7-1.38-19.39-.37-29.09-.25-8.63.11-17.28.14-25.9-.34-6.07-.33-11.91-2.16-17.44-5.55ZM182.4,220.21c-16.22,0-32.45,0-48.67,0-.74,0-1.49-.04-2.22.02-2.11.19-3.73,1.78-3.92,3.79-.19,1.96,1.16,3.84,3.27,4.33.95.22,1.96.23,2.94.23,32.36.01,64.73,0,97.09,0,.82,0,1.78.22,2.44-.13,1.24-.64,2.75-1.38,3.36-2.51,1.55-2.86-.73-5.74-4.38-5.74-16.64-.02-33.27,0-49.91,0ZM64.4,127.06c1.03,8.47-1.3,15.77-7.09,22.02-.68.74-1.03,2.24-.83,3.25,1.42,7.32,8.6,12.98,16.23,12.98,7.64,0,14.78-5.69,16.3-12.96.29-1.37.17-2.41-.95-3.5-3.43-3.35-5.73-7.44-6.56-12.17-.56-3.18-.6-6.46-.86-9.62h-16.25ZM85.54,228.3c3.49,0,6.79.34,9.98-.09,3.98-.53,6.62-4.03,6.7-7.96.07-3.75-2.45-7.51-6.24-8.09-3.39-.52-6.93-.11-10.43-.11v16.24Z"/></svg>