<?xml version="1.0" encoding="UTF-8"?><svg id="Layer_1" xmlns="http://www.w3.org/2000/svg" width="56mm" height="45mm" viewBox="0 0 158.74 127.56"><path d="M159.45,125.41c-.84,1.47-2.1,1.91-3.78,1.91-50.87-.03-101.75-.03-152.62-.03-2.88,0-3.75-.86-3.75-3.69,0-39.88,0-79.76,0-119.64,0-2.83.87-3.69,3.75-3.69,50.87,0,101.75,0,152.62-.03,1.68,0,2.94.44,3.78,1.91v123.27ZM153.76,121.65V5.94H5v115.72h148.76Z"/><path d="M109.89,53.94c-8.5,9.31-16.82,18.43-25.25,27.66.41.44.77.85,1.16,1.24,3.9,3.91,7.82,7.82,11.72,11.73.85.85,1.57,1.9.92,3.05-.46.81-1.4,1.81-2.17,1.85-.97.05-2.2-.57-2.94-1.29-7.65-7.54-15.23-15.15-22.81-22.75-1.65-1.66-3.27-3.35-4.95-5.08-4.78,4.2-9.39,8.26-14,12.32-10.01,8.82-20.03,17.64-30.04,26.46-.39.34-.78.7-1.21.99-1.31.91-2.8.74-3.79-.4-.93-1.08-.89-2.52.14-3.69.38-.43.82-.8,1.25-1.18,14.67-12.92,29.34-25.84,44.01-38.76,3.53-3.12,4-3.12,7.28.17,3.75,3.76,7.5,7.53,11.4,11.44.52-.55.98-1.02,1.41-1.5,8.22-9.01,16.44-18.02,24.67-27.03,2.37-2.59,3.43-2.65,5.97-.32,10.38,9.51,20.75,19.02,31.12,28.55,2.08,1.91,2.41,3.37,1.14,4.79-1.27,1.43-2.8,1.23-4.86-.65-9.65-8.84-19.29-17.68-28.94-26.52-.38-.35-.77-.67-1.23-1.07Z"/><path d="M43.51,61.41c-8.32.04-15.38-6.94-15.43-15.24-.04-8.46,6.89-15.51,15.27-15.54,8.45-.03,15.42,6.85,15.53,15.31.1,8.33-6.95,15.43-15.37,15.47ZM33.67,46.01c0,5.4,4.46,9.86,9.83,9.82,5.33-.03,9.68-4.36,9.78-9.73.1-5.33-4.38-9.86-9.77-9.88-5.41-.02-9.84,4.38-9.84,9.79Z"/></svg>