<?xml version="1.0" encoding="UTF-8"?><svg fill="#629D97" id="Layer_1" xmlns="http://www.w3.org/2000/svg" width="72mm" height="72mm" viewBox="0 0 204.09 204.09"><defs><style>.cls-1{fill:none;}</style></defs><path d="M192.64,203.8H11.44c-.16-.11-.32-.26-.5-.31-7.09-2.09-10.62-6.77-10.62-14.11,0-41.32,0-82.64,0-123.96,0-8.49,5.7-14.21,14.15-14.22,2.02,0,4.04,0,6.13,0,0-1.11,0-1.9,0-2.69,0-11.46-.02-22.91,0-34.37.02-7.91,5.94-13.81,13.82-13.81,33.5-.01,67,0,100.5-.03,1.73,0,3.01.57,4.21,1.77,14.17,14.21,28.35,28.4,42.56,42.56,1.26,1.26,1.8,2.64,1.79,4.42-.06,7.88-.03,15.76-.02,23.64,0,.7.06,1.39.1,2.28,2.58,0,4.96-.09,7.32.02,5.73.27,10.3,3.79,12.18,9.21.19.54.45,1.05.68,1.57v106.91c-.85,1.84-1.51,3.8-2.59,5.49-1.97,3.1-5.13,4.6-8.54,5.64ZM94.61,74.92c-4.15-4.85-7.99-9.23-11.7-13.71-1.93-2.33-4.27-3.29-7.28-3.28-20.06.05-40.13.03-60.19.03-5.83,0-8.35,2.51-8.35,8.33,0,40.8,0,81.6,0,122.4,0,5.82,2.52,8.34,8.35,8.34,57.74,0,115.49,0,173.23,0,5.8,0,8.32-2.54,8.32-8.37,0-32.85-.05-65.7.06-98.56.02-4.98-2.75-8.43-8.35-8.42-52.05.12-104.1.07-156.15.07-3.46,0-5.21-1.19-5.16-3.5.05-2.27,1.67-3.34,5.1-3.34,19.8,0,39.6,0,59.4,0h2.71ZM176.63,51.18h-2.47c-9,0-18.02-.25-27.01.08-7.49.28-14.9-5.47-14.65-14.67.25-9.06.05-18.14.05-27.21v-2.29h-2.41c-31.51,0-63.02,0-94.53,0-5.58,0-8.16,2.55-8.16,8.1,0,11.26,0,22.51,0,33.77v2.24c1.07,0,1.86,0,2.65,0,15.49,0,30.98.03,46.47-.02,4.55-.01,8.2,1.71,11.12,5.13,4.86,5.68,9.76,11.34,14.57,17.06.93,1.11,1.87,1.59,3.35,1.59,18.4-.05,36.81-.04,55.21-.04,4.57,0,9.14-.07,13.7.03,1.62.04,2.16-.4,2.14-2.09-.1-6.22-.04-12.45-.04-18.67,0-.91,0-1.83,0-3.01ZM171.1,44.41c-10.59-10.59-21.16-21.15-31.72-31.71,0,.38,0,.95,0,1.53,0,7.48,0,14.96,0,22.45,0,5.03,2.69,7.72,7.72,7.73,7.08.01,14.17,0,21.25,0,.97,0,1.93,0,2.75,0Z"/><path class="cls-1" d="M192.64,203.8c3.4-1.04,6.56-2.54,8.54-5.64,1.08-1.69,1.74-3.65,2.59-5.49v11.13h-11.13Z"/><path d="M146.6,123.2c-.52,9.04-.77,18.11-1.63,27.12-1.56,16.38-10.67,27.4-25.44,33.87-5.24,2.3-10.78,3.93-16.2,5.81-.65.23-1.48.33-2.13.15-9.26-2.59-18.26-5.79-26.2-11.43-9.5-6.75-14.22-16.22-15.86-27.53-1.46-10.01-1.16-20.07-1.18-30.13-.01-4.97-.01-9.93,0-14.9,0-2.66.89-3.74,3.5-4.12,10.7-1.56,21.15-4.03,30.97-8.71,2.5-1.19,4.91-2.58,7.28-4.02,1.6-.97,3.01-1.02,4.61-.02,11.18,7.02,23.58,10.48,36.49,12.41.72.11,1.44.22,2.15.36,2.2.43,3.16,1.55,3.17,3.84.02,5.76,0,11.52,0,17.29.15,0,.31.02.46.03ZM64.69,108.47c.28,14.09-.66,28,1.23,41.83,1.16,8.47,4.39,15.86,11.26,21.36,7.17,5.74,15.54,8.87,24.2,11.41.53.15,1.22.1,1.74-.11,5.99-2.4,12.14-4.49,17.89-7.38,6.79-3.41,11.95-8.69,14.77-15.95,2.26-5.81,3.01-11.93,3.18-18.07.3-10.52.28-21.04.38-31.56,0-.5-.09-1.01-.14-1.55-11.55-1.53-22.52-4.66-32.66-10.14-3.24-1.75-5.58-1.87-8.89-.07-10.18,5.54-21.21,8.71-32.97,10.23Z"/><path d="M78.2,24.12c-13.24,0-26.49,0-39.73,0-2.95,0-4.8-1.86-4.18-4.17.39-1.47,1.32-2.44,2.89-2.61.72-.08,1.45-.09,2.18-.09,25.96,0,51.92,0,77.87,0,.73,0,1.46,0,2.18.09,1.82.26,2.83,1.33,2.93,3.18.09,1.77-1.05,3.2-2.82,3.52-.64.12-1.32.08-1.98.08-13.11,0-26.22,0-39.33,0Z"/><path d="M58.09,34.15c6.55,0,13.1,0,19.65,0,1.65,0,3.23.49,3.59,2.17.25,1.12.02,2.74-.68,3.56-.67.79-2.21,1.12-3.38,1.14-5.75.11-11.51.05-17.27.05-6.81,0-13.63,0-20.44,0-.53,0-1.06.02-1.59-.01-2.33-.15-3.83-1.53-3.81-3.48.02-1.94,1.59-3.37,3.87-3.42,2.38-.05,4.76-.01,7.15-.01,4.3,0,8.6,0,12.9,0Z"/><path d="M102.07,169.96c-4.3,0-8.6.02-12.91,0-6.58-.03-10.91-4.38-10.92-10.98-.02-6.35-.01-12.71,0-19.06,0-4.27,1.81-7.55,5.6-9.55,1.04-.55,1.14-1.2,1.18-2.18.13-3.29-.09-6.68.62-9.86,1.81-8.13,9.72-13.68,17.65-12.83,9.01.96,15.39,7.62,15.76,16.47.03.79.07,1.59.01,2.38-.21,3.05-.22,5.68,3.19,7.53,2.63,1.42,3.56,4.52,3.58,7.58.04,6.69.05,13.37,0,20.06-.05,5.96-4.46,10.36-10.45,10.44-4.43.06-8.87.01-13.3.01ZM102.05,163.04c4.23,0,8.46.02,12.69,0,3.09-.02,4.19-1.1,4.21-4.18.03-6.22.03-12.43,0-18.65-.02-3.05-1.15-4.18-4.22-4.18-8.46-.03-16.93-.03-25.39,0-3.08.01-4.19,1.13-4.21,4.2-.03,6.22-.03,12.43,0,18.65.02,3.07,1.12,4.14,4.22,4.16,4.23.03,8.46,0,12.69,0ZM112.09,129.04c0-2.58.11-4.95-.02-7.32-.25-4.69-3.8-8.61-8.28-9.32-4.74-.75-9.35,1.74-11.08,6.12-1.35,3.41-.67,6.97-.67,10.51h20.06Z"/></svg>