<svg width="150" height="161" viewBox="0 0 150 161" fill="none" xmlns="http://www.w3.org/2000/svg">
<g clip-path="url(#clip0_481_2472)">
<path d="M85.9795 133.522V138.767C86.55 138.805 87.0985 138.871 87.644 138.874C90.6217 138.887 93.5995 138.843 96.5773 138.89C103.818 139.007 109.344 144.268 109.864 151.528C109.946 152.676 109.952 153.837 109.89 154.986C109.72 157.994 107.485 160.216 104.492 160.219C85.0611 160.244 65.6303 160.244 46.1995 160.219C43.4913 160.219 41.2344 158.438 40.9084 155.773C40.2157 150.149 41.1937 144.369 47.5442 140.703C49.3622 139.652 51.6535 139.17 53.7787 138.966C56.7816 138.676 59.8315 138.884 62.8594 138.881C63.4205 138.881 63.9847 138.881 64.7589 138.881C64.7589 137.263 64.8059 135.813 64.7182 134.365C64.6993 134.072 64.2229 133.676 63.8781 133.563C63.455 133.421 62.9503 133.525 62.4801 133.525C44.9802 133.525 27.4833 133.525 9.98338 133.525C4.07484 133.525 1.15348 130.325 0.855698 124.383C0.482692 117.02 2.48878 110.069 3.92752 103.017C7.8864 83.6009 11.9299 64.2009 15.917 44.7914C16.9075 39.9674 19.763 37.5444 24.6591 37.5381C31.5018 37.5286 38.3444 37.5381 45.187 37.5381C45.7544 37.5381 46.3249 37.5381 47.1085 37.5381C44.3721 25.4198 47.3498 15.1203 56.6813 7.01729C62.408 2.03591 69.2632 -0.192028 76.8268 0.245377C86.0767 0.780333 93.5713 4.85229 99.0097 12.3983C104.442 19.9349 105.771 28.34 103.489 37.5318C104.219 37.5318 104.777 37.5318 105.335 37.5318C112.281 37.5318 119.23 37.5223 126.176 37.5349C130.834 37.5444 133.803 40.0429 134.749 44.6341C138.57 63.1719 142.41 81.7034 146.237 100.238C147.369 105.72 148.717 111.17 149.513 116.702C149.992 120.031 149.911 123.524 149.513 126.879C149.021 131.029 145.664 133.515 141.307 133.519C123.6 133.531 105.893 133.525 88.1831 133.525C87.5092 133.525 86.8352 133.525 85.9764 133.525L85.9795 133.522ZM75.3316 37.5318C82.3278 37.5318 89.324 37.4972 96.3171 37.5664C97.5584 37.579 98.1696 37.1668 98.3263 36.0087C98.6555 33.5794 99.2824 31.1375 99.2071 28.7176C98.7808 14.6577 86.4654 4.11279 72.5168 5.70822C57.9946 7.36973 48.262 21.9897 52.3024 36.0213C52.6252 37.1416 53.1079 37.5758 54.3429 37.5664C61.3392 37.4972 68.3354 37.5349 75.3285 37.5349L75.3316 37.5318ZM6.24705 120.327C6.24705 121.68 6.24705 122.829 6.24705 123.977C6.24705 127.568 6.85201 128.178 10.4285 128.178C53.7192 128.178 97.0098 128.178 140.297 128.178C140.871 128.178 141.448 128.194 142.018 128.134C143.332 127.999 144.225 127.206 144.332 125.951C144.488 124.097 144.372 122.222 144.372 120.327H6.24705ZM98.5959 93.6455H52.0798C51.1144 100.735 50.1584 107.746 49.1992 114.786H101.527C100.539 107.668 99.5739 100.688 98.599 93.6455H98.5959ZM94.9254 66.9449H55.7503C54.7755 74.0504 53.8132 81.0551 52.8446 88.0977H97.8186C96.8437 80.9828 95.8908 74 94.9254 66.9449ZM6.87709 114.798H43.8235C44.7858 107.712 45.7324 100.729 46.6947 93.6392H11.2717C9.80785 100.679 8.35658 107.671 6.87395 114.798H6.87709ZM143.789 114.861C142.3 107.658 140.846 100.622 139.404 93.6486H103.978C104.965 100.789 105.937 107.812 106.915 114.861H143.789ZM12.4314 88.0536C12.8546 88.1197 13.1524 88.2078 13.4501 88.2078C24.4053 88.2141 35.3635 88.2078 46.3186 88.2298C47.2746 88.2298 47.5254 87.8585 47.6414 86.9585C48.1868 82.7072 48.8262 78.4653 49.4124 74.2172C49.7446 71.8099 50.0361 69.3994 50.3558 66.9418C49.9734 66.8883 49.7728 66.8379 49.5691 66.8379C39.0309 66.8316 28.4927 66.8411 17.9513 66.8096C17.011 66.8096 16.7038 67.1778 16.5376 68.04C15.9766 70.9634 15.3277 73.871 14.7259 76.7881C13.9579 80.517 13.2057 84.246 12.4314 88.0473V88.0536ZM138.157 88.2141C138.135 87.7484 138.157 87.5375 138.113 87.3361C136.806 80.9891 135.451 74.6514 134.216 68.2886C133.981 67.0771 133.508 66.8001 132.373 66.8064C122.202 66.8442 112.027 66.8285 101.853 66.8316C101.364 66.8316 100.875 66.8883 100.298 66.926C101.201 73.4934 102.16 79.8468 102.9 86.2253C103.103 87.9844 103.765 88.2582 105.332 88.2456C115.61 88.1763 125.888 88.211 136.163 88.211H138.157V88.2141ZM94.0289 61.4286C94.0289 61.095 94.0509 60.8873 94.0258 60.6891C93.2735 55.0941 92.5024 49.4991 91.7752 43.8978C91.653 42.96 91.1233 42.8719 90.3678 42.875C80.3531 42.8876 70.3352 42.8939 60.3204 42.8656C59.3237 42.8656 58.9757 43.1992 58.8535 44.1873C58.4115 47.7683 57.863 51.3336 57.3771 54.9084C57.0888 57.0514 56.8443 59.2006 56.5716 61.4286H94.0289ZM99.5237 61.3908H132.681C132.599 60.8244 132.552 60.3555 132.458 59.8992C131.505 55.2357 130.54 50.5721 129.584 45.9086C129.079 43.4415 128.418 42.8908 125.847 42.8876C116.817 42.8813 107.786 42.8876 98.7558 42.8876C98.2449 42.8876 97.7371 42.9317 96.9879 42.9632C97.8436 49.1812 98.6774 55.264 99.5206 61.3908H99.5237ZM53.6502 43.1111C53.2553 42.9789 53.1581 42.916 53.0609 42.916C43.3534 42.9034 33.6458 42.8908 23.9351 42.8971C22.4023 42.8971 21.5529 43.7845 21.2457 45.254C20.7253 47.7652 20.1956 50.2732 19.6816 52.7843C19.0954 55.629 18.5186 58.4769 17.9168 61.4223H51.1301C51.9733 55.3018 52.8102 49.2158 53.6502 43.1111ZM104.598 154.822C104.598 153.797 104.627 152.963 104.595 152.126C104.423 147.613 101.013 144.23 96.5177 144.221C82.3623 144.196 68.2037 144.186 54.0483 144.227C48.6162 144.243 44.7984 149.555 46.3217 154.822H104.598ZM70.1597 138.736H80.4785V133.607H70.1597V138.736Z" fill="#DDEFFF"/>
<path d="M43.5285 13.7577C42.632 13.4367 42.1086 13.3297 41.6666 13.0811C40.1652 12.2378 38.6637 11.3882 37.2125 10.463C35.8709 9.61023 35.5136 8.19417 36.2094 6.93231C36.9398 5.61065 38.4475 5.12919 39.8423 5.88442C41.4472 6.75294 43.0238 7.69068 44.5691 8.66304C45.685 9.36478 46.1082 10.5574 45.5753 11.6682C45.1584 12.5368 44.1773 13.1284 43.5285 13.7577Z" fill="#DDEFFF"/>
<path d="M107.541 14.1039C106.526 13.1347 105.564 12.5494 105.103 11.6903C104.542 10.6424 104.946 9.44979 105.965 8.78897C107.667 7.68444 109.435 6.66803 111.237 5.73343C112.35 5.15756 113.566 5.50686 114.111 6.54215C114.535 7.34773 114.807 9.00924 114.387 9.35854C112.334 11.0515 110.024 12.433 107.541 14.1039Z" fill="#DDEFFF"/>
<path d="M115.174 32.1697C114.29 32.1697 113.406 32.2137 112.525 32.1602C110.911 32.0595 109.968 31.0997 109.93 29.6113C109.895 28.2236 110.786 27.0215 112.228 26.9271C114.193 26.7949 116.177 26.7949 118.142 26.9334C119.587 27.0341 120.49 28.2487 120.449 29.6207C120.405 31.0651 119.399 32.0721 117.826 32.1665C116.945 32.22 116.061 32.1759 115.177 32.1759L115.174 32.1697Z" fill="#DDEFFF"/>
<path d="M35.4792 32.1665C34.5953 32.1665 33.7082 32.2137 32.8274 32.1571C31.2414 32.0564 30.2477 31.0588 30.2101 29.6082C30.1725 28.233 31.0721 27.0309 32.5265 26.9302C34.4919 26.7918 36.4791 26.7949 38.4445 26.9239C39.8895 27.0183 40.764 28.211 40.7264 29.6176C40.6888 31.0683 39.7986 32.0312 38.2877 32.1476C37.3568 32.2169 36.4164 32.1602 35.4824 32.1602C35.4824 32.1602 35.4824 32.1665 35.4824 32.1697L35.4792 32.1665Z" fill="#DDEFFF"/>
</g>
<defs>
<clipPath id="clip0_481_2472">
<rect width="149.043" height="160.046" fill="white" transform="translate(0.802002 0.191895)"/>
</clipPath>
</defs>
</svg>
