<?xml version="1.0" encoding="UTF-8"?><svg fill="#629D97" id="Layer_1" xmlns="http://www.w3.org/2000/svg" width="66mm" height="65mm" viewBox="0 0 187.09 184.25"><path d="M6.13,121.64C.72,117.45.3,111.86.42,105.95c.17-9.21.17-18.43,0-27.63-.11-5.92.31-11.51,5.72-15.7C.56,58.43.34,52.7.42,46.72c.15-10.18.03-20.36.04-30.54C.47,6.59,6.4.54,15.98.54c51.7-.03,103.41-.03,155.11,0,9.58,0,15.51,6.05,15.52,15.64,0,10.18-.1,20.36.04,30.54.09,5.97-.14,11.71-5.71,15.89,5.41,4.19,5.83,9.78,5.72,15.7-.17,9.21-.17,18.43,0,27.63.11,5.92-.3,11.51-5.73,15.7,5.59,4.17,5.81,9.91,5.72,15.88-.14,10.18-.03,20.36-.04,30.54,0,9.6-5.93,15.64-15.51,15.65-51.7.03-103.41.03-155.11,0-9.58,0-15.52-6.05-15.53-15.64,0-10.18.1-20.36-.04-30.54-.08-5.97.14-11.71,5.71-15.9ZM93.49,59.55c25.45,0,50.9,0,76.35,0,.97,0,1.94.03,2.91-.06,4.55-.42,7.56-3.58,7.58-8.17.05-12.12.05-24.24,0-36.36-.02-4.77-3.3-7.99-8.09-8.15-.89-.03-1.78-.01-2.67-.01-42.5,0-84.99,0-127.49,0-8.97,0-17.94-.03-26.9.02-5.1.03-8.41,3.27-8.43,8.29-.05,12.04,0,24.08-.02,36.12,0,3.63,1.67,6.26,4.94,7.61,1.5.62,3.31.68,4.98.69,25.61.04,51.22.03,76.83.03ZM93.43,177.45c26.01,0,52.03,0,78.04,0,5.67,0,8.85-3.19,8.86-8.85.02-11.64.02-23.27,0-34.91,0-5.77-3.19-8.97-9.01-8.98-51.87-.02-103.73-.02-155.6,0-5.81,0-8.98,3.22-8.99,9-.02,11.31,0,22.63,0,33.94,0,6.97,2.85,9.8,9.86,9.8,25.61,0,51.22,0,76.83,0ZM93.79,65.77c-25.45,0-50.89,0-76.34,0-1.05,0-2.1,0-3.15.08-4.45.36-7.51,3.46-7.53,7.91-.06,12.28-.06,24.56,0,36.84.02,4.31,3.08,7.4,7.4,7.79.88.08,1.77.09,2.66.09,51.14,0,102.27,0,153.41,0,.81,0,1.62,0,2.42-.07,4.6-.36,7.64-3.45,7.66-8.04.05-12.2.05-24.4,0-36.6-.02-3.75-2.36-6.81-5.86-7.66-1.39-.34-2.88-.32-4.33-.32-25.45-.02-50.89-.01-76.34-.01Z"/><path d="M33.03,47.06c-7.69,0-14.16-6.48-14-14.02.16-7.62,6.4-13.77,14-13.77,7.74,0,14.04,6.32,13.95,14.01-.08,7.62-6.33,13.78-13.95,13.78ZM33.01,40.78c4.42,0,7.68-3.21,7.7-7.59.01-4.35-3.3-7.69-7.64-7.71-4.26-.02-7.77,3.43-7.79,7.65-.02,4.24,3.42,7.64,7.73,7.65Z"/><path d="M136.96,34.78c1.91.09,3.03,1.18,3.04,3,.01,1.82-1.05,2.97-3.01,2.99-1.96.02-3.06-1.18-3.07-2.95-.02-1.78,1.11-2.93,3.04-3.04Z"/><path d="M143.13,25.52c1.95.07,3.13,1.16,3.13,2.97,0,1.75-1.1,3.02-3.03,3.04-1.92.02-3.02-1.17-3.06-2.98-.04-1.85,1.1-2.91,2.96-3.03Z"/><path d="M106.05,25.54c1.77.05,3.11,1.41,2.93,3.14-.18,1.75-1.19,2.79-3,2.86-1.66.06-3.1-1.4-3.09-3.05,0-1.72,1.37-2.99,3.16-2.94Z"/><path d="M118.43,25.52c1.69.03,3.19,1.49,2.98,3.12-.21,1.68-1.14,2.83-2.98,2.9-1.72.06-3.07-1.28-3.08-3.01-.01-1.75,1.31-3.03,3.08-3Z"/><path d="M133.79,28.7c-.13,1.58-1.02,2.75-2.97,2.84-1.67.07-3.11-1.35-3.06-3.03.05-1.81,1.04-2.83,2.85-2.95,1.81-.12,3.13,1.1,3.19,3.14Z"/><path d="M112.14,40.77c-1.77,0-3.11-1.33-3.07-3.04.04-1.67,1.49-3.01,3.2-2.93,1.87.09,2.76,1.25,2.92,2.95.16,1.72-1.26,3.03-3.05,3.02Z"/><path d="M149.36,40.79c-1.9-.1-2.98-1.12-2.94-3.05.03-1.79,1.06-2.82,2.87-2.93,1.74-.1,3.16,1.22,3.12,2.94-.04,1.91-1.06,2.95-3.05,3.03Z"/><path d="M164.82,37.73c.04,1.79-1.19,3.04-3,3.04-1.75,0-3.21-1.34-3.06-3.01.15-1.7,1.08-2.85,2.91-2.96,1.72-.1,3.11,1.21,3.15,2.93Z"/><path d="M155.62,25.54c1.97.16,3.01,1.15,2.92,3.12-.08,1.82-1.11,2.79-2.91,2.87-1.71.08-3.09-1.3-3.04-3.02.06-1.96,1.18-2.88,3.03-2.98Z"/><path d="M124.31,40.78c-1.88-.21-2.81-1.32-2.67-3.24.13-1.83,1.25-2.77,3.03-2.71,1.91.07,2.97,1.22,2.89,3.12-.08,1.93-1.28,2.83-3.25,2.83Z"/><path d="M33.05,164.99c-7.68,0-14.17-6.48-14.02-14,.15-7.63,6.4-13.78,14-13.79,7.72,0,14.04,6.34,13.96,14.01-.08,7.64-6.29,13.79-13.94,13.79ZM33.02,143.47c-4.31,0-7.75,3.4-7.74,7.64.01,4.21,3.53,7.67,7.78,7.66,4.33-.01,7.65-3.36,7.64-7.7-.01-4.38-3.27-7.6-7.69-7.6Z"/><path d="M109,146.16c.06,1.9-1.28,3.28-3.01,3.3-1.74.02-3.18-1.33-3.07-3.03.11-1.74,1-2.87,2.88-2.93,1.97-.07,2.95,1,3.2,2.67Z"/><path d="M143.43,143.47c1.78.09,2.87,1.27,2.82,3.04-.05,1.76-1.18,2.97-3.12,2.93-1.94-.04-2.99-1.25-2.96-3.06.03-1.83,1.15-2.91,3.26-2.92Z"/><path d="M137.14,152.7c1.62.06,2.68,1.11,2.88,2.92.19,1.65-1.23,3.09-2.94,3.1-1.92.02-2.98-1.08-3.21-2.88-.19-1.49,1.42-3.08,3.27-3.15Z"/><path d="M161.85,152.71c1.72.02,3.02,1.39,2.98,3.13-.05,1.73-1.42,3-3.19,2.88-1.84-.12-2.76-1.25-2.89-2.98-.11-1.61,1.46-3.06,3.1-3.03Z"/><path d="M152.42,155.73c.01,1.78-1.26,3.04-3.08,2.97-1.79-.07-2.91-1.01-2.93-2.85-.03-1.9.99-3.03,2.93-3.13,1.67-.09,3.08,1.32,3.09,3.01Z"/><path d="M118.24,149.45c-1.72-.06-3.04-1.47-2.88-3.19.18-1.92,1.31-2.88,3.25-2.77,1.88.1,2.71,1.33,2.8,3.02.09,1.66-1.46,3-3.17,2.94Z"/><path d="M133.79,146.26c-.05,2.01-1.42,3.27-3.16,3.19-1.72-.08-3.03-1.5-2.86-3.21.18-1.78,1.19-2.77,3.03-2.75,1.98.02,2.87,1.16,2.99,2.77Z"/><path d="M112.26,152.7c1.66.06,3.14,1.59,2.94,3.2-.22,1.73-1.21,2.79-3.05,2.82-1.71.02-3.12-1.4-3.08-3.06.04-1.65,1.52-3.02,3.19-2.96Z"/><path d="M121.6,155.74c.07-1.77.97-2.91,2.92-3.02,1.71-.09,3.09,1.27,3.06,2.99-.03,1.82-1.01,2.89-2.81,2.97-1.89.09-3.05-.83-3.17-2.94Z"/><path d="M152.6,145.97c.27-1.6,1.32-2.61,3.25-2.47,1.99.15,2.83,1.38,2.67,3.27-.15,1.83-1.31,2.69-3.08,2.67-1.69-.02-2.96-1.49-2.84-3.47Z"/><path d="M32.94,106.09c-7.55-.08-13.87-6.41-13.91-13.94-.04-7.56,6.53-14.08,14.1-13.99,7.69.08,14.02,6.56,13.87,14.18-.15,7.59-6.53,13.83-14.05,13.75ZM40.7,92.1c-.01-4.25-3.43-7.71-7.64-7.72-4.17-.01-7.71,3.47-7.79,7.65-.08,4.24,3.57,7.88,7.84,7.84,4.2-.04,7.59-3.52,7.58-7.78Z"/><path d="M137.16,99.88c-1.76-.03-3.35-1.65-3.32-3.14.03-1.51,1.65-3.06,3.18-3.03,1.6.03,3.14,1.55,3.01,3.14-.16,1.84-1.29,2.83-2.87,3.03Z"/><path d="M143.17,84.34c1.85.24,2.94,1.3,3.13,3.09.16,1.5-1.52,3.1-3.07,3.12-1.57.02-3.18-1.49-3.09-3.07.11-1.85,1.23-2.85,3.03-3.15Z"/><path d="M112.01,99.91c-1.69-.34-2.86-1.29-2.93-3.17-.06-1.57,1.56-3.07,3.12-3.04,1.58.03,3.17,1.59,3,3.15-.19,1.79-1.23,2.89-3.19,3.06Z"/><path d="M102.9,87.19c.31-1.61,1.26-2.86,3.16-2.77,1.84.08,2.9,1.27,2.94,3.13.04,1.63-1.52,3.04-3.14,2.98-1.63-.06-3.03-1.56-2.96-3.35Z"/><path d="M133.8,87.36c-.1,2.1-1.3,3.14-3.08,3.11-1.79-.03-3.03-1.13-2.96-3.07.07-1.87,1.19-3.02,3.05-2.99,1.86.03,2.85,1.21,2.98,2.94Z"/><path d="M149.13,99.9c-1.75-.46-2.85-1.44-2.73-3.37.1-1.68,1.62-3.03,3.26-2.76,1.81.29,2.91,1.36,2.73,3.29-.18,1.89-1.43,2.73-3.25,2.84Z"/><path d="M164.85,96.98c-.25,1.72-1.23,2.82-3.11,2.88-1.57.05-3.07-1.57-3.04-3.12.03-1.57,1.6-3.15,3.16-2.99,1.8.18,2.91,1.2,2.99,3.23Z"/><path d="M115.33,87.26c.25-1.71,1.24-2.81,3.12-2.86,1.57-.04,3.06,1.58,3.02,3.14-.04,1.57-1.61,3.15-3.17,2.98-1.8-.19-2.9-1.21-2.97-3.25Z"/><path d="M152.59,87.36c.04-1.7,1.5-3.15,3.15-2.96,1.87.21,2.89,1.31,2.81,3.26-.07,1.92-1.3,2.73-2.99,2.83-1.7.11-3.02-1.39-2.97-3.14Z"/><path d="M127.59,96.77c.01,1.69-1.38,3.12-3.04,3.1-1.72-.02-2.97-1.38-2.94-3.17.03-1.91,1.19-2.78,2.88-2.96,1.67-.17,3.08,1.3,3.1,3.02Z"/></svg>