<?xml version="1.0" encoding="UTF-8"?><svg id="Layer_1" xmlns="http://www.w3.org/2000/svg" width="46mm" height="57mm" viewBox="0 0 130.39 161.57"><path d="M92.58,1.11c1.88,1.23,1.99,3.19,2.16,5.15.32,3.6.71,7.2,1.08,10.94,4.06.66,8.08,1.32,12.1,1.97,2.65.43,5.32.83,7.97,1.28,1.78.3,2.67,1.69,2.35,3.54-.5,2.9-.98,5.8-1.49,8.82,1.83.09,3.53.05,5.21.27,4.2.56,6.89,3.56,6.99,7.79.08,3.57.07,7.15,0,10.73-.07,3.99-2.43,6.86-6.36,7.69-1.14.24-1.19.97-1.28,1.77-.67,5.6-1.32,11.21-1.98,16.81-.88,7.45-1.78,14.9-2.67,22.35-.87,7.35-1.74,14.7-2.62,22.05-.89,7.5-1.78,15.01-2.68,22.51-.35,2.93-.69,5.86-1.06,8.79-.46,3.64-3.7,6.62-7.38,6.81-.62.03-1.24.02-1.87.02-23.74,0-47.48-.09-71.22.07-5.58.04-9.35-2.32-10.04-9.03-1.15-11.22-2.63-22.41-3.95-33.61-1.18-10.02-2.34-20.05-3.52-30.07-1.04-8.84-2.11-17.68-3.15-26.52-.13-1.12-.44-1.76-1.77-2.01-3.3-.63-5.76-3.62-5.88-7.13-.13-3.88-.16-7.78,0-11.66.17-3.94,2.89-6.73,6.77-7.34.56-.09,1.12-.17,1.84-.28-.2-1.12-.42-2.21-.57-3.31-.34-2.37.34-3.35,2.71-3.82,7.76-1.55,15.51-3.11,23.29-4.56,1.27-.24,1.49-.74,1.35-1.84-.39-3.24-.7-6.48-1.11-9.72-.31-2.47.78-3.85,3.26-4.06,10.79-.9,21.57-1.84,32.35-2.74,5.47-.46,10.94-.88,16.41-1.34.45-.04.89-.2,1.34-.3,1.14,0,2.28,0,3.42,0ZM116.13,59.66H14.28c2.97,24.75,5.93,49.4,8.9,74.08h84.09c2.96-24.7,5.91-49.35,8.86-74.08ZM65.2,38.35c-18.04,0-36.09,0-54.13,0-.62,0-1.24,0-1.86.05-1.32.09-2.22.78-2.24,2.1-.07,3.83-.06,7.66,0,11.49.02,1.25.84,1.96,2.09,2.08.67.06,1.34.1,2.01.1,36.09,0,72.18,0,108.26,0,.72,0,1.45-.04,2.17-.13,1.11-.14,1.89-.8,1.91-1.9.07-3.93.07-7.87,0-11.8-.02-1.18-.89-1.82-2.06-1.93-.67-.06-1.35-.07-2.02-.07-18.04,0-36.09,0-54.13,0ZM106.03,139.31H24.47c-.02.35-.05.6-.03.85.31,4.08.6,8.16.97,12.24.17,1.85,1.25,2.69,3.34,2.69,24.31.01,48.62.01,72.94,0,2.33,0,3.24-.96,3.37-3.31.03-.62.12-1.24.17-1.86.27-3.5.53-7,.81-10.62ZM75.66,32.83c.9-5.1,1.77-10.04,2.63-14.98.41-2.35,1.58-3.2,3.88-2.84,2.58.4,5.18.76,7.96,1.16-.37-3.29-.71-6.34-1.06-9.46-15.96,1.33-31.77,2.66-47.71,3.99.37,3.08.71,5.92,1.05,8.83.63-.05,1.04-.05,1.44-.13,3.25-.6,6.53-1.09,9.75-1.86,5.24-1.26,5.88-.2,6.65,4.7.56,3.55,1.29,7.07,1.95,10.59h13.48ZM81.2,32.91c.78,0,1.34,0,1.9,0,6.53,0,13.06,0,19.6,0,2.44,0,4.87.04,7.31-.03.42-.01,1.14-.4,1.21-.73.47-2.21.8-4.45,1.2-6.85-9.76-1.6-19.37-3.17-29.12-4.77-.7,4.18-1.38,8.18-2.08,12.38ZM15.57,32.81h40.81c-.62-3.34-1.22-6.56-1.83-9.86-13.18,2.48-26.15,4.93-39.19,7.39.08.93.14,1.64.21,2.48Z"/><path d="M67.93,96.74c0,7.51,0,15.03,0,22.54,0,2.74-.8,3.91-2.65,3.97-1.91.05-2.79-1.19-2.79-3.99,0-15.03,0-30.06,0-45.09,0-.72.06-1.45.22-2.15.3-1.29,1.21-1.85,2.51-1.85,1.3,0,2.2.57,2.49,1.87.16.7.21,1.43.21,2.15.01,7.51,0,15.03,0,22.54Z"/><path d="M87,119.65c.56-6.34,1.13-12.68,1.69-19.02.57-6.44,1.15-12.89,1.73-19.33.26-2.89.46-5.78.85-8.65.27-2,2.2-2.91,3.97-1.99,1.09.57,1.43,1.58,1.33,2.76-.55,6.13-1.11,12.27-1.66,18.4-.58,6.39-1.15,12.78-1.73,19.17-.27,3.04-.53,6.08-.85,9.12-.22,2.09-1.24,3.19-2.72,3.11-1.66-.09-2.67-1.48-2.61-3.58Z"/><path d="M43.43,119.88c-.02.26.04.76-.11,1.18-.46,1.26-1.35,2.18-2.75,2.11-1.42-.07-2.26-1.05-2.41-2.43-.36-3.14-.63-6.28-.92-9.43-.7-7.73-1.39-15.46-2.08-23.19-.43-4.79-.88-9.59-1.28-14.38-.15-1.79,1-3.21,2.55-3.31,1.58-.1,2.69,1,2.88,3,.47,5,.87,10,1.32,15,.68,7.58,1.37,15.15,2.05,22.73.25,2.83.5,5.67.76,8.71Z"/></svg>