<?xml version="1.0" encoding="UTF-8"?><svg id="Layer_1" xmlns="http://www.w3.org/2000/svg" width="57mm" height="57mm" viewBox="0 0 161.57 161.57"><path d="M161.41,79.24v3.78c-.77,2.31-1.76,4.46-3.7,6.07-.27.22-.35.84-.31,1.25.51,4.75-1.8,9-6.07,10.85-.93.4-1.35.9-1.59,1.85-1.13,4.43-4.89,7.44-9.4,7.76-.65.05-1.47.49-1.84,1.01-1.63,2.28-3.73,3.81-6.46,4.41-.9.2-1.83.24-2.77.36,0,8.36,0,16.59,0,24.83,0,.31.11.62.18.92.64,2.98,2.84,4.8,4.96,6.68,1.02.9,2.05,1.82,2.88,2.88,1.03,1.31,1.57,3.35,2.87,4.02,1.37.71,3.38.17,5.11.18,1.25,0,2.13.62,2.51,1.77.37,1.13.14,2.18-.82,2.99-.23.2-.46.4-.69.6H15.32c-1.25-.88-2.04-2-1.51-3.58.55-1.65,1.94-1.85,3.45-1.79,1.26.05,2.52.08,3.77-.03.45-.04,1.08-.41,1.25-.8,1.18-2.65,2.94-4.8,5.25-6.55,3.4-2.57,5.08-5.84,4.91-10.28-.25-6.71-.06-13.43-.06-20.15,0-.56,0-1.12,0-1.76-4.27-.05-7.43-1.73-9.6-5.24-.2-.32-.88-.46-1.35-.49-4.75-.29-8.41-3.25-9.61-7.88-.21-.82-.57-1.29-1.39-1.64-4.42-1.9-6.75-6.09-6.25-10.9.05-.5-.26-1.19-.64-1.57-3.58-3.57-4.33-7.94-2.17-12.53.22-.46.2-1.21-.03-1.68-2.16-4.51-1.37-8.92,2.24-12.51.37-.37.65-1.07.59-1.58-.54-4.71,1.87-8.91,6.26-10.92.55-.25,1.12-.9,1.29-1.48,1.37-4.73,4.75-7.62,9.58-7.93.89-.06,1.38-.36,1.88-1.09,2.25-3.3,5.4-4.84,9.4-4.58.65.04,1.3.1,1.93.15,0-.91,0-1.69,0-2.48.04-4.82,2.89-9.1,7.4-10.89,1-.4,1.43-.9,1.65-1.94,1.29-5.89,5.7-9.48,11.7-9.72.5-.02,1.19-.38,1.45-.8,3.43-5.43,8.66-7.36,14.77-5.44.43.13,1.12,0,1.47-.28,4.97-3.94,10.57-3.92,15.71.06.33.25.95.37,1.35.25,6.33-1.93,11.24-.12,14.87,5.49.23.36.77.7,1.19.73,6.69.49,10.53,3.7,12.09,10.09.13.52.67,1.13,1.17,1.34,3.99,1.72,6.61,4.58,7.45,8.88.3,1.52.25,3.1.36,4.75.19-.03.43-.07.67-.1,4.58-.59,8.22.9,10.84,4.8.27.41.99.68,1.52.73,4.86.41,8.3,3.26,9.62,7.92.17.59.71,1.27,1.25,1.52,4.51,2.08,6.8,6.05,6.3,11.04-.04.41.06,1.01.34,1.24,1.95,1.61,2.92,3.78,3.68,6.09v3.78c-.46,1.09-.95,2.17-1.37,3.27-.11.29-.1.7.01.99.42,1.11.9,2.2,1.36,3.29ZM112.88,22.24c.17-4.72-3.57-7.9-8.19-6.98-2.38.47-3.26-.07-4.04-2.49-1.4-4.33-6.02-6.02-9.89-3.61-2.13,1.32-3.16,1.14-4.67-.81-2.84-3.69-7.75-3.68-10.6.04-1.44,1.88-2.55,2.09-4.56.84-4.05-2.53-8.56-.84-10.01,3.75-.68,2.14-1.69,2.74-3.9,2.31-4.85-.94-8.45,2.18-8.28,7.17.07,2.11-.62,2.96-2.7,3.28-4.98.78-7.36,4.92-5.53,9.63.78,2,.37,3.11-1.52,4.15-4.3,2.36-5.12,7.15-1.86,10.86,1.48,1.69,1.5,2.73.06,4.39-3.32,3.83-2.51,8.51,1.89,10.96,1.8,1,2.21,2.12,1.47,4.04-1.84,4.8.36,8.73,5.43,9.67,2.22.41,2.83,1.16,2.75,3.42-.17,4.83,3.54,8.01,8.26,7.09,2.3-.45,3.23.11,3.95,2.38,1.41,4.46,5.99,6.15,9.94,3.69,2.08-1.3,3.11-1.1,4.66.89,2.8,3.6,7.7,3.59,10.52,0,1.54-1.98,2.58-2.17,4.67-.87,3.96,2.46,8.53.76,9.94-3.7.72-2.27,1.65-2.82,3.96-2.37,4.72.93,8.42-2.27,8.25-7.1-.08-2.25.52-3,2.76-3.41,5.05-.94,7.25-4.87,5.41-9.68-.73-1.92-.33-3.02,1.49-4.03,4.33-2.41,5.19-7.13,1.98-10.85-1.55-1.79-1.55-2.75-.03-4.51,3.24-3.76,2.41-8.46-1.91-10.85-1.87-1.03-2.26-2.13-1.47-4.17,1.8-4.63-.56-8.79-5.42-9.59-2.29-.38-2.88-1.12-2.8-3.5ZM67.18,102.6c-4.71-.23-8.2-2.36-10.54-6.41-.18-.31-.73-.59-1.1-.58-5.28.15-10.81-3.57-12.11-10.11-.1-.52-.65-1.14-1.15-1.35-5.59-2.33-8.61-7.71-7.66-13.7.08-.48-.2-1.2-.56-1.53-4.58-4.22-5.59-9.97-2.73-15.43.25-.48.16-1.23.01-1.8-.48-1.91-1.39-3.77-1.49-5.69-.1-2,.54-4.04.86-6.06-1.81.42-3.04,1.61-3.68,3.49-.73,2.12-1.65,2.64-3.79,2.2-3.54-.73-6.38,1.61-6.33,5.23.03,2.15-.59,2.91-2.71,3.32-4,.76-5.47,3.39-4.07,7.26.6,1.66.17,2.85-1.36,3.71-3.66,2.07-4.22,5.1-1.53,8.26,1.15,1.35,1.17,2.64.08,3.95-2.78,3.33-2.27,6.2,1.48,8.37,1.45.83,1.9,2.02,1.36,3.59-1.43,4.18-.1,6.48,4.25,7.35,1.75.35,2.5,1.27,2.49,3.06-.02,4.05,2.49,6.12,6.53,5.4,1.82-.32,2.89.3,3.52,2.05,1.34,3.73,4.46,4.88,7.87,2.92,1.7-.98,2.86-.81,4.02.56,2.71,3.22,5.93,3.23,8.61.03,1.14-1.36,2.31-1.57,3.88-.69,3.7,2.08,6.62,1.02,8.07-2.92.59-1.62,1.72-2.22,3.45-1.97.86.12,1.76.19,2.62.09,1.41-.17,2.2-.92,1.68-2.61ZM94.45,102.6c-.52,1.61.15,2.4,1.6,2.6.76.1,1.57.14,2.32.01,2.27-.4,3.11.05,3.91,2.29,1.18,3.29,4.47,4.51,7.52,2.79,2.25-1.27,2.94-1.14,4.67.87,2.17,2.54,5.81,2.51,7.95-.06,1.59-1.91,2.44-2.07,4.55-.86,3.13,1.79,6.39.58,7.61-2.82.75-2.1,1.68-2.64,3.81-2.21,3.57.73,6.36-1.59,6.32-5.23-.03-2.17.69-3,2.86-3.35,3.61-.58,5.34-3.55,4.05-6.94-.78-2.04-.39-3.08,1.52-4.14,3.22-1.78,3.82-5.12,1.42-7.9-1.44-1.68-1.45-2.76-.04-4.4,2.47-2.86,1.86-6.16-1.47-7.98-1.79-.98-2.2-2.1-1.46-4.03,1.31-3.45-.34-6.36-3.96-6.98-2.31-.4-2.93-1.14-2.91-3.46.03-3.44-2.79-5.84-6.12-5.2-2.51.48-3.18.1-4.1-2.37-.66-1.8-1.9-2.88-3.99-3.35,1.94,4.35,1.88,8.4-.51,12.34-.15.25.01.79.18,1.12,2.96,5.89,2.04,11.2-2.7,15.67-.33.31-.56.97-.49,1.42.95,6.11-2.01,11.37-7.75,13.78-.45.19-.94.78-1.03,1.26-1.27,6.47-6.67,10.25-12.07,10.16-.41,0-1.01.32-1.21.67-2.34,3.98-5.79,6.07-10.47,6.31ZM72.8,102.02c0,.98,0,1.6,0,2.23,0,10.7,0,21.4,0,32.1,0,5.39-2.01,9.82-6.01,13.49-1.55,1.42-2.66,3.31-3.93,5.02-.21.28-.22.72-.34,1.13h36.63c-.74-2.44-2.09-4.33-3.92-5.85-4.5-3.75-6.48-8.56-6.43-14.38.07-10.54.02-21.09.02-31.63v-2.11c-5.41,3.97-10.59,3.98-16.02,0ZM123.73,117.08c-3.59,1.8-7.03,1.76-10.63.02,0,.82,0,1.38,0,1.95,0,6.71,0,13.43,0,20.14,0,5.61-2.13,10.17-6.68,13.54-.34.25-.62.58-.96.81-.98.68-1.19,1.48-.55,2.42h28.9c-1.27-1.23-2.19-2.31-3.29-3.14-4.69-3.5-6.82-8.19-6.79-13.98.03-6.61,0-13.22,0-19.83,0-.57,0-1.13,0-1.94ZM56.7,156c1.09-1.79-.49-2.48-1.46-3.21-4.68-3.53-6.77-8.22-6.73-14.01.05-6.61.01-13.22.01-19.83v-1.92c-3.65,1.89-7.07,1.74-10.63.09,0,.82,0,1.39,0,1.96,0,6.71.02,13.43,0,20.14-.02,5.6-2.2,10.14-6.72,13.53-1.14.85-2.1,1.93-3.15,2.9.09.11.18.22.28.33h28.41ZM59.7,149.31c1.57-1.65,3.11-3.28,4.66-4.9,2.01-2.1,2.99-4.56,2.97-7.52-.07-8.28-.02-16.56-.02-24.85,0-.51,0-1.03,0-1.61-.58.1-1,.29-1.39.23-1.57-.22-2.4.58-3.24,1.81-1.27,1.86-3.15,3.06-5.37,3.59-1.05.25-2.13.36-3.32.54v1.74c0,6.87.17,13.74-.06,20.6-.16,4.73,2.2,7.75,5.76,10.36ZM94.42,110.51c-.05.23-.11.38-.11.53,0,9.01-.04,18.03.06,27.04.01,1.3.37,2.83,1.12,3.84,1.94,2.62,4.19,5.02,6.27,7.46,4.1-2.82,6.13-6.24,5.92-11.15-.28-6.64-.07-13.31-.07-19.96,0-.56,0-1.12,0-1.79-3.3.03-6.19-.86-8.09-3.36-1.36-1.79-2.83-2.7-5.11-2.6Z"/><path d="M155.11,161.43c-1.24-.91-2.33-1.94-1.54-3.62.3-.64.99-1.48,1.58-1.55,2.2-.25,4.59-.91,6.26,1.39v3.78h-6.3Z"/><path d="M1.78,161.43c-.48-.59-1.11-1.11-1.4-1.78-.69-1.58.45-3.38,2.19-3.55.93-.09,1.88-.02,2.81-.04,1.36-.03,2.29.58,2.74,1.87.47,1.34-.11,2.32-1.14,3.12-.16.12-.32.25-.48.37H1.78Z"/><path d="M66.79,80.8c-5.37-.11-10.22-5.07-10.19-10.43,0-1.69,1.05-2.93,2.56-3.04,1.41-.1,2.57.95,2.83,2.57.61,3.77,1.89,5.03,5.64,5.55,1.55.21,2.59,1.46,2.45,2.92-.16,1.55-1.38,2.45-3.28,2.42Z"/><path d="M94.84,80.8c-1.97.04-3.23-.93-3.3-2.55-.07-1.56.97-2.57,2.9-2.81,3-.37,4.82-1.98,5.07-5.04.16-2.06,1.8-3.21,3.09-3.04,1.68.22,2.63,1.72,2.39,3.79-.62,5.31-5.07,9.55-10.14,9.66Z"/><path d="M69.62,19.03c1.79-.06,2.95.84,3.11,2.4.15,1.55-.84,2.78-2.57,2.96-1.68.18-2.49,1.05-2.77,2.67-.34,1.97-1.59,2.98-3.17,2.68-1.56-.29-2.47-1.78-2.21-3.62.57-3.99,3.76-6.97,7.61-7.09Z"/><path d="M91.96,19.03c4.08.11,7.61,3.64,7.69,7.69.03,1.59-.95,2.84-2.38,3.04-1.44.2-2.73-.73-2.97-2.36-.28-1.87-1.12-2.89-3.12-3.05-1.56-.13-2.48-1.54-2.27-3.04.21-1.49,1.33-2.33,3.05-2.28Z"/><path d="M48.56,50.89c.13-4.1,3.55-7.54,7.68-7.73,1.58-.07,2.85.89,3.08,2.34.23,1.38-.76,2.84-2.33,3.03-1.93.23-2.88,1.09-3.08,3.06-.15,1.56-1.64,2.57-3.01,2.36-1.47-.23-2.39-1.43-2.34-3.06Z"/><path d="M113.06,50.99c.02,1.6-.98,2.81-2.45,2.98-1.39.16-2.77-.89-2.94-2.47-.19-1.81-1.02-2.71-2.84-2.92-1.7-.19-2.74-1.57-2.54-3.02.22-1.57,1.59-2.54,3.34-2.36,4.17.42,7.39,3.79,7.43,7.8Z"/><path d="M34.9,99.66c-4.06.02-7.9-3.83-7.88-7.88,0-1.53.96-2.68,2.37-2.87,1.5-.2,2.78.66,3,2.31.25,1.92,1.2,2.85,3.11,3.1,1.55.2,2.46,1.46,2.33,2.85-.14,1.47-1.33,2.49-2.92,2.5Z"/><path d="M21.22,64.72c1.85-.05,3.09.92,3.19,2.5.09,1.47-.98,2.63-2.72,2.86-1.56.2-2.43,1.01-2.64,2.61-.24,1.85-1.42,2.89-2.99,2.75-1.59-.15-2.51-1.4-2.4-3.27.24-4.03,3.59-7.33,7.56-7.44Z"/><path d="M126.77,99.66c-1.6.01-2.79-.97-2.97-2.45-.17-1.44.77-2.69,2.42-2.92,1.84-.26,2.75-1.18,2.99-3.03.22-1.67,1.46-2.54,2.96-2.36,1.47.17,2.45,1.39,2.42,2.98-.09,4.05-3.8,7.75-7.82,7.78Z"/><path d="M140.25,64.71c4.14.05,7.69,3.63,7.72,7.78,0,1.65-.95,2.81-2.44,2.94-1.46.13-2.66-.86-2.96-2.45-.4-2.17-.81-2.59-2.82-2.91-1.59-.25-2.64-1.44-2.55-2.87.1-1.53,1.3-2.51,3.04-2.49Z"/></svg>