<?xml version="1.0" encoding="UTF-8"?><svg id="Layer_1" xmlns="http://www.w3.org/2000/svg" width="40mm" height="45mm" viewBox="0 0 113.39 127.56"><defs><style>.cls-1{fill:#fff;}</style></defs><path d="M82.67,1.02h10.78c2.36,1.12,3.02,3.01,3.01,5.55-.08,15.76-.04,31.53-.04,47.29v1.53c3.35,0,6.53.13,9.7-.03,4.05-.22,7.12,2.67,7.1,7.05-.06,19.03-.06,38.06,0,57.09.02,4.81-3.58,7.04-7.01,7.03-33-.08-65.99-.08-98.99,0-3.46,0-7.17-2.22-7.05-7.11.11-4.37.02-8.74.02-13.11,0-17.31,0-34.63.01-51.94,0-.97.06-1.98.32-2.9.77-2.71,3.06-4.37,6.05-4.43,2.03-.05,4.06,0,6.2,0v-1.62c0-12.95.05-25.89-.04-38.84-.02-2.55.65-4.44,3.03-5.55h10.78c2.66,1.22,3.28,3.47,2.93,6.12h50.28c-.41-2.77.3-4.93,2.91-6.12ZM52.54,122.31c14.95,0,29.89,0,44.84,0,2.62,0,3.19-.56,3.19-3.12,0-16.05,0-32.1,0-48.15,0-2.51-.59-3.11-3.09-3.11-14.29,0-28.59-.04-42.88.03-3.49.01-6.32-1.18-8.74-3.65-3.51-3.59-7.12-7.09-10.63-10.68-1.61-1.65-3.45-2.43-5.77-2.41-7.35.06-14.7.02-22.05.02-2.39,0-2.95.56-2.95,2.95,0,21.69,0,43.37,0,65.06,0,2.5.58,3.07,3.11,3.07,14.99,0,29.98,0,44.96,0ZM29.59,11.57v35.46c4.11-.24,7,1.84,9.63,4.6,3.21,3.37,6.58,6.58,9.85,9.9,1.52,1.55,3.32,2.25,5.48,2.25,7.92-.03,15.84-.01,23.77-.01h1.29V11.57H29.59ZM104.82,122.31c.38,0,.98,0,1.59,0,1.77-.03,2.51-.78,2.51-2.56,0-19.19,0-38.39,0-57.58,0-1.86-.72-2.58-2.6-2.58-2.94,0-5.88,0-8.82,0-.35,0-.69.05-1.01.08v4.04c.4.02.72.05,1.04.05,4.94.05,7.26,2.36,7.26,7.28,0,14.78.02,29.57.03,44.35,0,2.27,0,4.55,0,6.92ZM25.27,5.27h-8.21v8.18h8.21V5.27ZM83.94,13.45h8.19V5.27h-8.19v8.18ZM17.02,25.97h8.22v-8.11h-8.22v8.11ZM92.14,26.01v-8.15h-8.17v8.15h8.17ZM92.15,51.15v-8.16h-8.18v8.16h8.18ZM92.21,55.49h-8.23v8.17h8.23v-8.17ZM17.08,30.41v8.14h8.15v-8.14h-8.15ZM83.93,38.53h8.22v-8.09h-8.22v8.09ZM17.08,42.96v3.99h8.19v-3.99h-8.19Z"/><path d="M8.59,94.08c0-6.94,0-13.88,0-20.81,0-.45,0-.9.04-1.34.12-1.14.8-1.76,1.91-1.88,1.05-.12,2.01.62,2.22,1.69.08.39.05.81.05,1.22,0,14.08,0,28.16,0,42.24,0,.41.03.82-.05,1.22-.21,1.05-1.19,1.83-2.21,1.71-1.1-.13-1.79-.75-1.91-1.88-.05-.44-.04-.9-.04-1.34,0-6.94,0-13.88,0-20.81Z"/><path d="M12.8,61.71c0,.73.05,1.47-.01,2.19-.1,1.14-1.04,1.98-2.11,1.97-1.07-.01-1.99-.86-2.04-2.01-.06-1.46-.06-2.92,0-4.38.05-1.17.94-2.01,2.02-2.03,1.11-.02,2.06.87,2.14,2.07.05.73,0,1.46,0,2.19h0Z"/><path d="M69.23,36.49c0,1.55-.6,2.76-1.86,3.56-5.62,3.54-11.23,7.1-16.91,10.55-2.85,1.73-6.25-.21-6.28-3.55-.06-7.02-.07-14.04,0-21.06.03-3.25,3.45-5.18,6.23-3.49,5.72,3.46,11.36,7.05,17.01,10.61,1.22.77,1.79,1.97,1.8,3.37ZM64.98,36.59c-5.6-3.51-11.04-6.93-16.55-10.38v20.73c5.55-3.47,10.95-6.85,16.55-10.35Z"/><path class="cls-1" d="M64.98,36.59c-5.59,3.5-11,6.88-16.55,10.35v-20.73c5.51,3.46,10.95,6.87,16.55,10.38Z"/></svg>