<?xml version="1.0" encoding="UTF-8"?><svg id="Layer_1" xmlns="http://www.w3.org/2000/svg" width="54mm" height="43mm" viewBox="0 0 153.07 121.89"><path d="M152.55,108.75c-.25.84-.47,1.7-.74,2.53-2.07,6.31-7.85,10.49-14.64,10.5-15.04.03-30.09,0-45.13,0-25.24,0-50.48,0-75.72,0-8.13,0-14.19-5.04-15.64-12.98-.15-.82-.15-1.67-.15-2.51,0-30.24-.01-60.48,0-90.71C.53,6.84,7.16.11,15.87.1c40.43-.02,80.87-.02,121.3,0,7.53,0,13.59,5.03,15.1,12.37.05.23.18.44.28.67v95.62ZM5.57,25.61c0,.67,0,1.16,0,1.65,0,26.13,0,52.25,0,78.38,0,6.8,4.2,11.04,10.99,11.04,39.98.01,79.96.01,119.94,0,6.78,0,10.98-4.25,10.98-11.06,0-26.13,0-52.25,0-78.38v-1.64H5.57ZM66.5,20.33c3.8,0,7.21.03,10.62-.04.47-.01,1.05-.47,1.36-.88,3.3-4.33,6.55-8.69,9.81-13.04.22-.3.4-.63.73-1.16-3.72,0-7.21-.03-10.7.04-.38,0-.84.46-1.11.82-1.72,2.23-3.4,4.5-5.08,6.76-1.8,2.4-3.6,4.8-5.62,7.51ZM84.22,20.34c3.62,0,6.88.05,10.13-.04.66-.02,1.51-.45,1.91-.97,3.32-4.31,6.56-8.67,9.82-13.03.21-.29.35-.62.61-1.09-3.59,0-6.95-.02-10.31.03-.42,0-.99.25-1.24.57-3.59,4.72-7.13,9.46-10.93,14.53ZM71.41,5.2c-3.62,0-6.82.03-10.02-.02-.94-.02-1.54.29-2.1,1.04-3.2,4.33-6.44,8.62-9.66,12.92-.24.32-.43.68-.74,1.19,3.65,0,7.06.03,10.46-.03.44,0,1-.38,1.29-.74,1.26-1.58,2.45-3.22,3.66-4.84,2.3-3.07,4.59-6.14,7.11-9.51ZM101.97,20.33c3.84,0,7.33.03,10.82-.04.41,0,.91-.52,1.21-.92,3.26-4.29,6.48-8.61,9.71-12.92.24-.32.42-.7.74-1.24-3.7,0-7.15-.02-10.6.02-.33,0-.75.28-.96.55-3.57,4.73-7.12,9.47-10.92,14.54ZM13.44,20.23c.61.04,1.03.1,1.45.1,2.82,0,5.64-.04,8.45.03.97.03,1.53-.34,2.07-1.08,3.23-4.37,6.51-8.71,9.76-13.06.19-.25.31-.56.57-1.02-3.45,0-6.7-.05-9.95.05-.65.02-1.5.46-1.9.98-3.29,4.26-6.49,8.59-9.72,12.91-.22.3-.42.62-.73,1.09ZM53.68,5.2c-3.63,0-6.88-.05-10.12.04-.66.02-1.51.45-1.91.97-3.26,4.22-6.43,8.5-9.63,12.76-.28.37-.52.77-.9,1.36,3.11,0,5.98-.12,8.82.04,1.78.1,2.86-.51,3.88-1.94,3.13-4.37,6.41-8.62,9.86-13.23ZM119.72,20.32c3.84,0,7.38.03,10.91-.04.37,0,.8-.5,1.08-.87,3.04-4.02,6.05-8.05,9.07-12.09.25-.34.47-.71.82-1.24-1.09-.27-1.98-.63-2.88-.69-2.12-.14-4.25-.1-6.36-.21-.95-.05-1.55.28-2.1,1.04-1.68,2.32-3.42,4.6-5.14,6.89-1.73,2.32-3.46,4.64-5.39,7.21ZM18.24,5.16c-1.5.07-2.57.06-3.64.17-4.29.47-7.96,3.58-8.68,7.69-.41,2.35-.33,4.79-.47,7.18.14.1.29.2.43.31.52-.31,1.11-.55,1.53-.96.52-.51.91-1.16,1.36-1.75,3.07-4.1,6.14-8.19,9.47-12.64ZM145.54,9.52c-2.7,3.61-5.29,7.06-8.03,10.72h9.95c-.01-3.68.56-7.37-1.92-10.72Z"/><path d="M53.69,71.06c0-4.06-.02-8.11,0-12.17.03-5.85,5.47-9.71,10.89-7.49,10.09,4.13,20.1,8.43,30.13,12.72,3.02,1.29,4.62,3.73,4.62,6.98,0,3.32-1.72,5.73-4.78,7.03-8.66,3.7-17.34,7.37-26.03,11.02-1.9.8-3.83,1.73-5.83,2.06-4.91.8-8.97-2.84-9-7.83-.02-4.11,0-8.21,0-12.32ZM58.8,71.09c0,3.95-.02,7.91,0,11.86.02,2.73,1.85,3.97,4.36,2.91,9.68-4.07,19.35-8.18,29.03-12.26,1.13-.48,1.99-1.15,2.01-2.47.02-1.38-.86-2.08-2.06-2.58-9.63-4.06-19.25-8.15-28.89-12.21-2.72-1.15-4.45.05-4.46,3.03-.02,3.9,0,7.81,0,11.71Z"/></svg>