<?xml version="1.0" encoding="UTF-8"?><svg id="Layer_1" xmlns="http://www.w3.org/2000/svg" width="12mm" height="8mm" viewBox="0 0 34.02 22.68"><defs><style>.cls-1{fill:#feda00;fill-rule:evenodd;}</style></defs><path class="cls-1" d="M31.19,1.86c.49.5.85,1.11,1.03,1.79.66,2.49.66,7.69.66,7.69,0,0,0,5.2-.66,7.69-.18.68-.53,1.29-1.03,1.79-.49.5-1.11.85-1.78,1.04-2.48.67-12.4.67-12.4.67,0,0-9.92,0-12.4-.67-.67-.18-1.29-.54-1.78-1.04-.49-.5-.85-1.11-1.03-1.79-.66-2.49-.66-7.69-.66-7.69,0,0,0-5.2.66-7.69.18-.68.53-1.29,1.03-1.79.49-.5,1.11-.85,1.78-1.04C7.09.16,17.01.16,17.01.16c0,0,9.92,0,12.4.67.67.18,1.29.54,1.78,1.04ZM22.06,11.34l-8.3-4.72v9.44l8.3-4.72Z"/></svg>